<svg width="303" height="103" viewBox="0 0 303 103" fill="none" xmlns="http://www.w3.org/2000/svg">
<path d="M118.133 35.7629L120.833 43.4629H122.133V34.6629H118.483V2.06294L121.733 1.26294V0.762939H93.9326V1.26294L97.1826 2.06294L94.3826 28.6129C94.1826 30.3129 93.8326 31.6629 93.3826 32.7629C92.8826 33.8629 92.3826 34.4629 91.8826 34.6629H87.7826V43.4629H89.1326L91.8326 35.7629H118.133ZM98.4326 1.86294H111.983V34.6629H93.6326C94.6326 33.7129 95.3326 31.6629 95.7326 28.4629L98.4326 1.86294Z" fill="#8B4326"/>
<path d="M124.819 23.3129C124.819 27.2129 125.969 30.2629 128.319 32.5629C130.669 34.8629 133.769 36.0129 137.569 36.0129C141.369 36.0129 144.469 34.8629 146.819 32.5629C149.169 30.2629 150.369 27.2129 150.369 23.3129C150.369 19.4629 149.169 16.3629 146.819 14.0629C144.469 11.7629 141.369 10.5629 137.569 10.5629C133.769 10.5629 130.669 11.7629 128.319 14.0629C125.969 16.3629 124.819 19.4629 124.819 23.3129ZM131.169 23.3129C131.169 19.4129 131.719 16.4129 132.919 14.3629C134.069 12.3629 135.619 11.3129 137.569 11.3129C139.569 11.3129 141.119 12.3629 142.269 14.3629C143.369 16.4129 143.969 19.4129 143.969 23.3129C143.969 27.2629 143.369 30.2629 142.219 32.2629C141.069 34.2629 139.519 35.2629 137.569 35.2629C135.619 35.2629 134.069 34.2629 132.919 32.2129C131.719 30.2129 131.169 27.2129 131.169 23.3129Z" fill="#8B4326"/>
<path d="M184.367 12.3129L187.367 11.3629V10.7629H178.817L170.617 29.2629L162.567 10.7629H153.917V11.3629L156.917 12.3129L155.767 34.3129L152.767 35.2629V35.7629H159.767V35.2629L156.767 34.3129L157.817 14.6629L167.267 35.7629H168.967L178.217 14.7129L179.217 34.2129L176.217 35.1629V35.7629H188.467V35.1629L185.467 34.2129L184.367 12.3129Z" fill="#8B4326"/>
<path d="M207.082 32.6629C207.182 33.8629 207.582 34.7129 208.282 35.1629C208.982 35.6629 209.932 35.8629 211.132 35.8629C213.632 35.8629 215.382 35.4129 216.332 34.4129L215.932 34.0129C215.532 34.4129 215.032 34.5629 214.332 34.5629C213.532 34.5629 213.182 34.2129 213.182 33.4129V18.2629C213.182 16.0129 212.232 14.1629 210.332 12.7629C208.432 11.3629 205.732 10.6129 202.282 10.6129C199.532 10.6129 197.132 11.1629 195.132 12.2629C193.082 13.3629 192.082 14.8629 192.082 16.7629C192.082 17.8629 192.382 18.7129 193.032 19.3129C193.632 19.9629 194.482 20.2629 195.482 20.2629C196.482 20.2629 197.332 19.9629 197.982 19.2629C198.582 18.5629 198.932 17.6629 198.932 16.4629V12.3629C199.982 11.7629 201.082 11.4129 202.182 11.4129C203.682 11.4129 204.832 11.9629 205.682 12.9629C206.482 14.0129 206.932 15.4129 206.932 17.1129V21.9129C206.782 21.9629 206.582 22.0129 206.282 22.0129C204.082 22.4129 202.332 22.7129 201.032 22.9629C199.682 23.2629 198.332 23.6129 196.982 24.0129C195.582 24.4129 194.532 24.9129 193.832 25.4129C193.082 25.9129 192.482 26.6129 192.032 27.4129C191.532 28.2129 191.332 29.1629 191.332 30.2629C191.332 32.1129 191.882 33.5629 192.982 34.5629C194.082 35.5629 195.782 36.0629 198.032 36.0629C201.482 36.0629 204.432 34.9129 206.932 32.5129L207.082 32.6629ZM206.932 31.3629C205.232 33.1629 203.382 34.0129 201.332 34.0129C200.132 34.0129 199.232 33.6629 198.582 32.8629C197.932 32.1129 197.632 31.0129 197.632 29.5629C197.682 27.1629 198.532 25.3629 200.132 24.2629C201.132 23.7629 203.382 23.2629 206.932 22.6629V31.3629Z" fill="#8B4326"/>
<path d="M33.75 90.7129C32.95 91.2629 32.25 91.5129 31.6 91.5129C30.65 91.5129 29.9 91.0629 29.4 90.1129C28.9 89.2129 28.4 87.6629 27.95 85.5629L26.9 81.0129C26.35 78.6129 25.2 76.9129 23.5 75.8629C21.8 74.8629 19.25 74.3129 15.95 74.3129H14.95C17.1 73.2629 18.55 71.2629 19.35 68.3129L20.25 64.6129C21.15 61.0129 22.35 59.1629 23.85 59.1629C24.1 59.1629 24.35 59.2629 24.65 59.3629V61.3129C24.65 62.4129 24.9 63.2629 25.5 63.8629C26.05 64.4629 26.85 64.7629 27.85 64.7629C28.85 64.7629 29.6 64.5129 30.2 63.9129C30.75 63.3629 31.05 62.5629 31.05 61.4629C31.05 60.1629 30.55 59.1629 29.65 58.4629C28.7 57.8129 27.5 57.4629 26.1 57.4629C24.1 57.4629 22.55 58.1129 21.55 59.3629C20.55 60.6129 19.7 62.3629 19.1 64.6629L18.2 68.3129C17.1 72.3129 14.4 74.2629 10.2 74.2629V59.3629L13.45 58.3629V57.7629H0.5V58.3629L3.75 59.3629V91.2129L0.5 92.1629V92.7629H13.45V92.1629L10.2 91.2129V75.3129H13.65C15.8 75.3129 17.4 75.8129 18.45 76.7629C19.5 77.7129 20.25 79.2129 20.7 81.2129L21.7 85.9129C22.2 88.3629 23 90.1629 24.1 91.3129C25.15 92.5129 26.75 93.0629 28.85 93.0629C31.15 93.0629 32.95 92.4629 34.2 91.1629L33.75 90.7129Z" fill="#8B4326"/>
<path d="M52.9562 89.6629C53.0562 90.8629 53.4562 91.7129 54.1562 92.1629C54.8563 92.6629 55.8062 92.8629 57.0062 92.8629C59.5062 92.8629 61.2562 92.4129 62.2062 91.4129L61.8062 91.0129C61.4062 91.4129 60.9063 91.5629 60.2062 91.5629C59.4062 91.5629 59.0563 91.2129 59.0563 90.4129V75.2629C59.0563 73.0129 58.1063 71.1629 56.2062 69.7629C54.3063 68.3629 51.6063 67.6129 48.1562 67.6129C45.4062 67.6129 43.0062 68.1629 41.0062 69.2629C38.9562 70.3629 37.9562 71.8629 37.9562 73.7629C37.9562 74.8629 38.2562 75.7129 38.9062 76.3129C39.5062 76.9629 40.3563 77.2629 41.3563 77.2629C42.3563 77.2629 43.2062 76.9629 43.8563 76.2629C44.4563 75.5629 44.8063 74.6629 44.8063 73.4629V69.3629C45.8563 68.7629 46.9562 68.4129 48.0563 68.4129C49.5563 68.4129 50.7063 68.9629 51.5563 69.9629C52.3563 71.0129 52.8063 72.4129 52.8063 74.1129V78.9129C52.6562 78.9629 52.4562 79.0129 52.1562 79.0129C49.9562 79.4129 48.2062 79.7129 46.9062 79.9629C45.5563 80.2629 44.2062 80.6129 42.8563 81.0129C41.4562 81.4129 40.4062 81.9129 39.7062 82.4129C38.9562 82.9129 38.3563 83.6129 37.9062 84.4129C37.4062 85.2129 37.2062 86.1629 37.2062 87.2629C37.2062 89.1129 37.7563 90.5629 38.8563 91.5629C39.9562 92.5629 41.6562 93.0629 43.9062 93.0629C47.3563 93.0629 50.3063 91.9129 52.8063 89.5129L52.9562 89.6629ZM52.8063 88.3629C51.1063 90.1629 49.2562 91.0129 47.2062 91.0129C46.0062 91.0129 45.1063 90.6629 44.4562 89.8629C43.8062 89.1129 43.5062 88.0129 43.5062 86.5629C43.5562 84.1629 44.4062 82.3629 46.0062 81.2629C47.0062 80.7629 49.2563 80.2629 52.8063 79.6629V88.3629Z" fill="#8B4326"/>
<path d="M63.7359 102.763H77.4859V102.163L72.9859 101.213V91.8129C74.4859 92.6129 76.2859 93.0129 78.4359 93.0129C82.2359 93.0129 85.2359 91.8629 87.3359 89.5629C89.4359 87.2629 90.5359 83.9629 90.5359 79.7129C90.5359 76.0129 89.6859 73.0629 88.0859 70.8629C86.4859 68.6629 84.1359 67.5629 81.0359 67.5629C77.8359 67.5629 75.1359 68.7629 72.9859 71.0629L72.8359 70.9129L72.9859 68.1129L72.2859 67.4129L63.7359 68.2629V68.9129L66.7359 69.5629V101.213L63.7359 102.163V102.763ZM72.9859 72.2129C74.3859 70.4629 76.0359 69.5629 77.9859 69.5629C79.8859 69.5629 81.3859 70.6129 82.4859 72.6129C83.5859 74.6629 84.1859 77.3129 84.1859 80.5629C84.1859 84.3629 83.5859 87.2629 82.3859 89.2629C81.1859 91.2629 79.4859 92.2629 77.2859 92.2629C75.8859 92.2629 74.4859 91.8629 72.9859 91.0629V72.2129Z" fill="#8B4326"/>
<path d="M112.728 71.4629C112.728 72.4129 112.978 73.1629 113.528 73.7129C114.078 74.2629 114.828 74.5129 115.778 74.5129C116.678 74.5129 117.378 74.2629 117.878 73.7129C118.378 73.2129 118.678 72.4129 118.678 71.4129C118.678 70.0629 118.228 69.0629 117.328 68.4629C116.428 67.8629 115.278 67.5129 113.978 67.5129C110.978 67.5129 109.128 69.3129 108.428 72.8129L107.878 75.4629C107.578 76.6629 106.928 77.6629 106.028 78.4129C105.128 79.1629 103.928 79.5129 102.478 79.5129V69.3129L105.478 68.3629V67.7629H93.2281V68.3629L96.2281 69.3129V91.2129L93.2281 92.1629V92.7629H105.278V92.1629L102.478 91.2129V80.3129H104.678C106.278 80.3129 107.428 80.6629 108.128 81.3129C108.828 81.9629 109.378 83.0629 109.778 84.6629L110.478 87.8129C110.878 89.6129 111.428 90.9129 112.128 91.7629C112.828 92.6129 114.028 93.0129 115.728 93.0129C117.978 93.0129 119.628 92.5129 120.678 91.4629L120.278 91.0629C119.828 91.4629 119.328 91.6129 118.828 91.6129C118.228 91.6129 117.778 91.3129 117.478 90.7129C117.178 90.1129 116.828 89.1129 116.528 87.6129L115.978 85.0129C115.578 83.0629 114.678 81.6629 113.328 80.8129C111.978 80.0129 109.978 79.5629 107.378 79.5629H105.928C107.478 78.8629 108.528 77.4629 109.028 75.4629L109.578 72.8129C110.078 70.4129 110.978 69.1629 112.228 69.1629C112.328 69.1629 112.528 69.2129 112.728 69.2629V71.4629Z" fill="#8B4326"/>
<path d="M139.48 89.6629C139.58 90.8629 139.98 91.7129 140.68 92.1629C141.38 92.6629 142.33 92.8629 143.53 92.8629C146.03 92.8629 147.78 92.4129 148.73 91.4129L148.33 91.0129C147.93 91.4129 147.43 91.5629 146.73 91.5629C145.93 91.5629 145.58 91.2129 145.58 90.4129V75.2629C145.58 73.0129 144.63 71.1629 142.73 69.7629C140.83 68.3629 138.13 67.6129 134.68 67.6129C131.93 67.6129 129.53 68.1629 127.53 69.2629C125.48 70.3629 124.48 71.8629 124.48 73.7629C124.48 74.8629 124.78 75.7129 125.43 76.3129C126.03 76.9629 126.88 77.2629 127.88 77.2629C128.88 77.2629 129.73 76.9629 130.38 76.2629C130.98 75.5629 131.33 74.6629 131.33 73.4629V69.3629C132.38 68.7629 133.48 68.4129 134.58 68.4129C136.08 68.4129 137.23 68.9629 138.08 69.9629C138.88 71.0129 139.33 72.4129 139.33 74.1129V78.9129C139.18 78.9629 138.98 79.0129 138.68 79.0129C136.48 79.4129 134.73 79.7129 133.43 79.9629C132.08 80.2629 130.73 80.6129 129.38 81.0129C127.98 81.4129 126.93 81.9129 126.23 82.4129C125.48 82.9129 124.88 83.6129 124.43 84.4129C123.93 85.2129 123.73 86.1629 123.73 87.2629C123.73 89.1129 124.28 90.5629 125.38 91.5629C126.48 92.5629 128.18 93.0629 130.43 93.0629C133.88 93.0629 136.83 91.9129 139.33 89.5129L139.48 89.6629ZM139.33 88.3629C137.63 90.1629 135.78 91.0129 133.73 91.0129C132.53 91.0129 131.63 90.6629 130.98 89.8629C130.33 89.1129 130.03 88.0129 130.03 86.5629C130.08 84.1629 130.93 82.3629 132.53 81.2629C133.53 80.7629 135.78 80.2629 139.33 79.6629V88.3629Z" fill="#8B4326"/>
<path d="M168.359 69.3129V91.6629H159.509V69.3129L161.909 68.3629V67.7629H150.259V68.3629L153.259 69.3129V91.4629L150.259 92.2629V92.7629H192.709V92.2629L189.709 91.4629V69.3129L192.709 68.3629V67.7629H181.059V68.3629L183.459 69.3129V91.6629H174.609V69.3129L177.009 68.3629V67.7629H165.959V68.3629L168.359 69.3129Z" fill="#8B4326"/>
<path d="M211.55 89.6629C211.65 90.8629 212.05 91.7129 212.75 92.1629C213.45 92.6629 214.4 92.8629 215.6 92.8629C218.1 92.8629 219.85 92.4129 220.8 91.4129L220.4 91.0129C220 91.4129 219.5 91.5629 218.8 91.5629C218 91.5629 217.65 91.2129 217.65 90.4129V75.2629C217.65 73.0129 216.7 71.1629 214.8 69.7629C212.9 68.3629 210.2 67.6129 206.75 67.6129C204 67.6129 201.6 68.1629 199.6 69.2629C197.55 70.3629 196.55 71.8629 196.55 73.7629C196.55 74.8629 196.85 75.7129 197.5 76.3129C198.1 76.9629 198.95 77.2629 199.95 77.2629C200.95 77.2629 201.8 76.9629 202.45 76.2629C203.05 75.5629 203.4 74.6629 203.4 73.4629V69.3629C204.45 68.7629 205.55 68.4129 206.65 68.4129C208.15 68.4129 209.3 68.9629 210.15 69.9629C210.95 71.0129 211.4 72.4129 211.4 74.1129V78.9129C211.25 78.9629 211.05 79.0129 210.75 79.0129C208.55 79.4129 206.8 79.7129 205.5 79.9629C204.15 80.2629 202.8 80.6129 201.45 81.0129C200.05 81.4129 199 81.9129 198.3 82.4129C197.55 82.9129 196.95 83.6129 196.5 84.4129C196 85.2129 195.8 86.1629 195.8 87.2629C195.8 89.1129 196.35 90.5629 197.45 91.5629C198.55 92.5629 200.25 93.0629 202.5 93.0629C205.95 93.0629 208.9 91.9129 211.4 89.5129L211.55 89.6629ZM211.4 88.3629C209.7 90.1629 207.85 91.0129 205.8 91.0129C204.6 91.0129 203.7 90.6629 203.05 89.8629C202.4 89.1129 202.1 88.0129 202.1 86.5629C202.15 84.1629 203 82.3629 204.6 81.2629C205.6 80.7629 207.85 80.2629 211.4 79.6629V88.3629Z" fill="#8B4326"/>
<path d="M246.28 92.7629L248.58 99.5129H249.83V91.6629H246.53V69.0629L249.53 68.2629V67.7629H227.53V68.2629L230.53 69.0629L228.48 85.6129C228.28 87.2629 227.88 88.6129 227.38 89.7129C226.88 90.8129 226.28 91.4629 225.68 91.6629H222.53V99.5129H223.78L226.08 92.7629H246.28ZM231.58 68.8629H240.28V91.6629H227.28C228.43 90.6629 229.18 88.6129 229.58 85.4629L231.58 68.8629Z" fill="#8B4326"/>
<path d="M259.124 80.4129C260.324 80.3129 261.374 80.2629 262.374 80.2629C266.174 80.2629 268.124 82.2129 268.124 86.0629C268.124 88.1129 267.624 89.6629 266.674 90.6629C265.724 91.7129 264.374 92.2129 262.674 92.2129C261.424 92.2129 260.174 91.9629 258.924 91.3629V88.4629C258.924 87.3129 258.624 86.4129 258.074 85.8129C257.474 85.2129 256.774 84.8629 255.874 84.8629C254.974 84.8629 254.274 85.1629 253.724 85.7129C253.174 86.2629 252.924 86.9629 252.924 87.8129C252.924 89.5129 253.924 90.8129 256.024 91.7129C258.074 92.6129 260.474 93.0129 263.274 93.0129C266.824 93.0129 269.574 92.4129 271.574 91.2129C273.524 90.0129 274.524 88.3129 274.524 86.1629C274.524 84.4629 273.874 83.0629 272.624 81.9629C271.324 80.8629 269.624 80.1129 267.424 79.7629C269.324 79.4129 270.774 78.7129 271.874 77.6629C272.974 76.6629 273.524 75.3629 273.524 73.8129C273.524 71.9129 272.624 70.4129 270.924 69.2629C269.174 68.1629 266.774 67.5629 263.724 67.5629C260.874 67.5629 258.274 68.0629 255.924 69.0129L254.774 68.1129L254.274 68.6129V74.8629H255.374C255.774 72.5629 256.674 70.8629 258.124 69.8629C259.574 68.8629 261.074 68.3629 262.574 68.3629C265.624 68.3629 267.174 70.2629 267.174 74.0129C267.174 77.5129 265.524 79.2629 262.274 79.2629C261.374 79.2629 260.324 79.2129 259.124 79.1129V80.4129Z" fill="#8B4326"/>
<path d="M301.118 80.2629L301.868 79.5129C302.018 79.0129 302.118 78.3629 302.118 77.5629C302.118 74.6129 301.018 72.2129 298.868 70.3629C296.718 68.5129 293.968 67.5629 290.668 67.5629C286.918 67.5629 283.868 68.7629 281.518 71.1129C279.118 73.5129 277.968 76.6629 277.968 80.5629C277.968 84.3129 279.068 87.3129 281.318 89.6129C283.568 91.9129 286.818 93.0129 291.018 93.0129C295.118 93.0129 298.568 91.6629 301.368 88.9129L300.818 88.3129C298.818 90.3129 296.418 91.2629 293.618 91.2629C287.468 91.2629 284.368 87.6129 284.318 80.2629H301.118ZM290.918 68.3129C294.318 68.3129 296.068 71.7629 296.068 78.6629L284.318 79.5129C284.418 75.8129 285.068 73.0629 286.368 71.1629C287.618 69.2629 289.118 68.3129 290.918 68.3129Z" fill="#8B4326"/>
</svg>
