<svg width="201" height="136" viewBox="0 0 201 136" fill="none" xmlns="http://www.w3.org/2000/svg">
<g clip-path="url(#clip0)">
<path d="M27.3966 45.558V42.6816L55.8974 26.402L56.3165 30.6249L57.2945 30.0741V30.3189V36.6838V36.9286H57.1548L57.0849 36.9898L56.8753 37.1122L56.7356 37.2958L56.6658 37.5407V37.7855L56.7356 38.0303L56.8055 38.2751L57.0849 38.7647L57.4342 39.3155L57.5739 39.6215L57.7136 39.9275V40.0499L57.6437 40.1723L57.504 40.2335L57.3643 40.2947H57.2246L57.1548 40.2335L57.0849 39.9887L57.015 39.8663L56.9452 39.6827L56.8753 39.4991L56.7356 39.0707L56.5959 38.8871L56.4562 38.7035L56.2466 38.5199L56.1069 38.4587H55.9672L55.8974 38.5199V38.5811V38.7035L55.9672 38.8871L56.0371 39.0707V39.4379L55.9672 39.8051V40.1723L56.0371 40.4783L56.1768 40.7843L56.3864 41.0291L56.6658 41.2127L57.1548 41.3963H50.8678V46.9045H64.0005V41.3963H57.7136L57.9232 41.3351L58.1327 41.2739L58.3423 41.1515L58.5518 41.0291L58.7614 40.8455L58.9011 40.6007L58.971 40.3559L59.0408 40.1111V39.8663L58.971 39.6215L58.8313 39.3767L58.6916 39.1319L58.482 38.8871L58.2724 38.7647L58.2026 38.6423V38.4587V38.3363L58.2724 38.2751L58.482 37.9691L58.5518 37.6631V37.5407L58.482 37.4182L58.4121 37.2958L58.3423 37.1734L58.1327 37.051L57.8533 36.9286V35.4598V30.6861V29.7069L58.8313 29.1561L59.2504 24.4435L82.5819 11.1628L81.6738 10L27.3966 40.9679V39.8663H23.6943V42.6816L26.4187 45.4968H27.3966V45.558ZM57.5739 37.4182L57.7136 37.4795L57.7834 37.5407L57.8533 37.6631V37.7855V37.9079H57.7834L57.6437 37.9691H57.504L57.3643 37.9079L57.2945 37.8467L57.2246 37.7243V37.6019L57.2945 37.4795L57.3643 37.4182L57.504 37.357L57.5739 37.4182Z" fill="#8B4326"/>
<path d="M39.6922 32.9505H39.9017L41.5084 32.0325L43.5342 18.9966L45.0011 18.0786L42.6261 31.4205L45.2107 29.9516L45.9092 17.6501L49.1226 15.8141L48.9829 15.5081L48.8431 15.3245L48.7034 15.1409L48.4939 14.9573L48.2145 14.8961L47.935 14.8349L47.5858 14.7737H47.2365L46.8872 14.8349L46.4681 14.8961H46.1188L45.6298 15.0185L45.1408 15.2021L44.6519 15.3857L44.1629 15.6305L43.6739 15.9365L43.1849 16.2425L42.6959 16.5485L41.8577 17.3441L41.0194 18.0786L40.6701 18.4458L40.3209 18.8742L40.0414 19.3026L39.762 19.731L39.5525 20.1594L39.3429 20.5266L39.2032 20.8938L39.1333 21.261L39.0635 21.567V21.873L42.9753 19.3638L39.6922 32.9505Z" fill="#8B4326"/>
<path d="M118.697 64.6529L122.33 65.5097V64.8977L118.558 64.1633L118.697 64.6529Z" fill="#8B4326"/>
<path d="M87.5421 79.6473L92.2922 80.7489L91.8731 80.0145L87.4023 79.1577L87.5421 79.6473Z" fill="#8B4326"/>
<path d="M153.415 67.4682V77.444L153.484 77.5052L153.554 77.5664L153.904 77.75L154.183 77.9336L154.253 77.9948L154.323 78.056V73.4047V68.7534L154.462 68.8758L154.602 68.9982L154.672 69.0594L154.742 69.1206L154.812 69.1818L154.882 69.243L154.951 69.3042L155.021 69.3654L155.161 69.4878L155.301 69.6102V78.7904L157.606 80.3205L158.724 80.9937L159.702 81.6669L159.911 81.8505L160.121 81.9729L160.26 82.0953L160.4 82.1565L160.61 82.3401L160.819 82.4625L161.029 82.5849L161.238 82.7073L161.378 82.7685L161.518 82.8909L161.727 83.0133L161.937 83.1357L162.705 83.6253V73.2823L162.426 73.0375L162.146 72.7927L161.937 72.6091L161.727 72.4255L161.378 72.1195L161.029 71.8135L160.68 71.5074L160.33 71.1402L160.121 70.9566L159.911 70.7118L159.632 70.467L159.352 70.161L158.654 69.549L157.955 68.8758L156.488 67.4682L155.72 66.7337L154.882 65.9993L153.205 64.4081V65.3873L153.415 66.1829V67.4682ZM159.143 73.4659L159.702 73.9555L160.26 74.4451V76.6484V78.9128L159.702 78.4844L159.143 78.056V73.4659ZM157.536 72.0583L158.165 72.6091L158.793 73.1599V75.4243V77.6888L158.165 77.2604L157.536 76.7708V74.3839V72.0583Z" fill="#8B4326"/>
<path d="M91.1042 34.7866L87.332 33.8074L87.4019 34.0522L87.5416 34.6642H87.6114L92.2219 35.7046L91.7329 34.9702L91.1042 34.7866Z" fill="#8B4326"/>
<path d="M118.487 89.2559V81.0549H112.969V89.2559L114.366 89.1335H115.763L117.16 89.1947L118.487 89.2559ZM114.226 82.5849H117.37V87.7258H114.226V82.5849Z" fill="#8B4326"/>
<path d="M87.5421 64.6529L92.2922 65.7545L91.8731 65.0201L87.4023 64.1633L87.5421 64.6529Z" fill="#8B4326"/>
<path d="M87.2617 74.2615V66.0605H81.7432V74.2615L83.1403 74.1391L84.5374 74.0779L85.9345 74.1391L87.2617 74.2615ZM83.0005 67.5905H86.2139V72.7314H83.0005V67.5905Z" fill="#8B4326"/>
<path d="M118.487 44.334V36.0718H112.969V44.2728L114.366 44.1504H115.763L117.16 44.2116L118.487 44.334ZM114.226 37.6019H117.37V42.6816H114.226V37.6019Z" fill="#8B4326"/>
<path d="M118.697 49.6585L122.33 50.5153V49.9033L118.558 49.1689L118.697 49.6585Z" fill="#8B4326"/>
<path d="M118.487 74.2003V66.0605H112.969V74.2615L114.366 74.1391L115.763 74.0779L117.16 74.1391L118.487 74.2003ZM114.226 67.5293H117.37V72.6702H114.226V67.5293Z" fill="#8B4326"/>
<path d="M153.415 52.5962V57.5535V62.5108L153.484 62.572L153.554 62.6944L153.904 63.0004L154.183 63.3064L154.253 63.4289L154.323 63.4901V54.1874L154.462 54.371L154.602 54.4934L154.672 54.5546L154.742 54.6158L154.812 54.677V54.7382L154.882 54.7994L154.951 54.9219L155.091 55.0443L155.231 55.2279V59.818V64.4081L156.418 65.5709L157.536 66.6725L158.654 67.7129L159.632 68.6922L159.841 68.937L160.051 69.1206L160.191 69.3042L160.33 69.4266L160.54 69.6714L160.749 69.855L160.959 70.0386L161.169 70.2222L161.308 70.3446L161.448 70.5282L161.657 70.7118L161.867 70.8954L162.635 71.6298V66.4889V61.348L162.356 60.9808L162.077 60.6748L161.867 60.3688L161.657 60.124L161.308 59.6956L160.959 59.2672L160.61 58.8387L160.26 58.3491L160.051 58.0431L159.841 57.7371L159.562 57.3699L159.282 57.0027L158.584 56.1459L157.885 55.2891L157.187 54.371L156.488 53.453L155.72 52.4738L154.882 51.4334L154.043 50.3929L153.205 49.2913V50.2705L153.415 51.1886V52.5962ZM159.143 60.3688L159.702 61.042L160.26 61.7152V63.9797V66.1829L159.702 65.5709L159.143 64.9589V62.6944V60.3688ZM157.536 58.4715L158.793 59.9404V64.5305L157.536 63.184V60.7972V58.4715Z" fill="#8B4326"/>
<path d="M118.627 94.6417L122.259 95.4985V94.8865L118.487 94.152L118.627 94.6417Z" fill="#8B4326"/>
<path d="M87.2617 89.2559V81.0549H81.7432V89.2559L83.1403 89.1335H84.5374L85.9345 89.1947L87.2617 89.2559ZM83.0005 82.5849H86.2139V87.7258H83.0005V82.5849Z" fill="#8B4326"/>
<path d="M118.697 34.6642L122.33 35.521V34.909L118.558 34.1746L118.697 34.6642Z" fill="#8B4326"/>
<path d="M87.4722 94.5804L92.2922 95.682L91.8731 94.9476L87.4023 94.0908L87.4722 94.5804Z" fill="#8B4326"/>
<path d="M87.2617 104.25V96.0492H81.7432V104.25L83.1403 104.128H84.5374L85.9345 104.189L87.2617 104.25ZM83.0005 97.5792H86.2139V102.659H83.0005V97.5792Z" fill="#8B4326"/>
<path d="M118.487 104.25V96.0492H112.969V104.25L114.366 104.128H115.763L117.16 104.189L118.487 104.25ZM114.226 97.5792H117.37V102.659H114.226V97.5792Z" fill="#8B4326"/>
<path d="M153.415 82.4013V92.3159L153.485 92.3771L153.554 92.4383L153.834 92.5607L154.113 92.6219L154.253 92.6832H154.323V83.3805L154.532 83.5029L154.812 83.6865L155.021 83.8089L155.091 83.8701L155.161 83.9314V88.5215V93.1116L156.349 93.54L157.466 93.9072L158.584 94.2744L159.562 94.5804L159.771 94.6416L159.981 94.7028L160.26 94.8252L160.47 94.8864L160.68 94.9476L160.889 95.0088L161.099 95.07L161.378 95.1312L161.588 95.1924L161.797 95.2536L162.566 95.4984V90.3575V85.2166L162.286 85.033L162.007 84.8494L161.588 84.6046L161.238 84.3598L160.889 84.1762L160.54 83.9926L160.191 83.7477L159.981 83.6253L159.771 83.4417L159.492 83.2581L159.213 83.0745L157.816 82.2177L156.349 81.3609L154.742 80.3817L153.065 79.3412V80.3205L153.275 81.0549V81.7893V82.4013H153.415ZM159.143 86.5018L159.702 86.8078L160.26 87.1138V91.5203L159.702 91.2755L159.143 91.0307V88.7663V86.5018ZM157.536 85.5838L158.165 85.951L158.794 86.257V88.5827V90.8471L158.165 90.6023L157.536 90.2963V85.5838Z" fill="#8B4326"/>
<path d="M118.487 59.3284V51.0662H112.969V59.2672L114.366 59.1448H115.763L117.16 59.206L118.487 59.3284ZM114.226 52.5962H117.37V57.7371H114.226V52.5962Z" fill="#8B4326"/>
<path d="M87.2617 36.0718H81.7432V44.2728L83.1403 44.1504H84.5373L85.9344 44.2116L87.3315 44.334V36.0718H87.2617ZM86.2139 42.7428H83.0005V37.6631H86.2139V42.7428Z" fill="#8B4326"/>
<path d="M118.697 79.6473L122.33 80.5041V79.9533L118.558 79.1577L118.697 79.6473Z" fill="#8B4326"/>
<path d="M153.414 37.6631V47.6389L153.484 47.7001L153.554 47.8837L153.694 48.0673L153.833 48.2509L153.973 48.4345L154.113 48.6181L154.183 48.8017L154.253 48.8629V39.6215L154.392 39.8051L154.532 39.9887L154.602 40.1111L154.672 40.1723V40.2335V40.2947V40.3559L154.741 40.4171L154.811 40.5395L154.951 40.7231L155.091 40.968V45.5581V50.1482L156.278 51.6782L157.396 53.147L158.514 54.5547L159.492 55.9011L159.701 56.2071L159.911 56.4519L160.05 56.6967L160.19 56.8803L160.33 57.0639L160.4 57.1863L160.609 57.4311L160.819 57.676L161.028 57.982L161.168 58.1656L161.308 58.3492L161.517 58.594L161.727 58.9L162.495 59.9404V49.475L162.216 49.0465L161.937 48.6793L161.727 48.3121L161.517 48.0061L161.168 47.4553L160.819 46.9045L160.47 46.3537L160.26 46.0477L160.05 45.7417L159.841 45.3745L159.631 45.0073L159.352 44.5788L159.072 44.0892L158.374 42.9876L157.675 41.886L156.977 40.7231L156.278 39.5603L155.51 38.2751L154.672 36.9899L153.833 35.6434L152.995 34.297V35.2762L153.135 35.827L153.275 36.3778V37.6631H153.414ZM159.142 47.3941L159.701 48.2509L160.26 49.1077V53.5142L159.701 52.7186L159.142 51.8618V49.5974V47.3941ZM157.536 44.946L158.164 45.8641L158.793 46.7821V51.3722L158.164 50.5154L157.536 49.6586V44.946Z" fill="#8B4326"/>
<path d="M87.4722 49.6585L92.2922 50.7602L91.8731 50.0258L87.4023 49.1077L87.4722 49.6585Z" fill="#8B4326"/>
<path d="M87.2617 59.3284V51.0662H81.7432V59.2672L83.1403 59.1448H84.5374L85.9345 59.206L87.2617 59.3284ZM83.0005 52.5962H86.2139V57.7371H83.0005V52.5962Z" fill="#8B4326"/>
<path d="M109.757 38.2751V43.416L111.922 42.9876V37.8467L109.757 38.2751Z" fill="#8B4326"/>
<path d="M151.808 64.2244H122.469V64.4081L122.33 64.3469L118.208 63.4288H113.039L108.848 64.3469L108.289 64.9589L112.969 64.0408L112.69 64.8365L107.66 65.9993L107.87 66.5501L112.829 65.4485H118.557L122.469 66.3053V67.1009L118.697 66.1217H118.627V74.3227L119.535 74.4451L120.513 74.6287L121.491 74.8123L122.469 74.9959V75.6079L121.561 75.4243L120.653 75.3019L119.815 75.1795L118.977 75.1183L118.138 75.0571L117.3 74.9959L115.693 74.9347L114.087 74.9959L113.249 75.0571L112.41 75.1183L111.572 75.2407L110.664 75.3631L109.756 75.5467L108.778 75.7303V77.3216L109.756 77.138L110.664 77.0156L111.572 76.8932L112.41 76.7708L113.249 76.7096L114.087 76.6484L115.693 76.5872L117.3 76.6484L118.977 76.7708L119.815 76.832L120.653 76.9544L121.561 77.0768L122.469 77.2604V77.3216H122.679L123.028 77.3828V77.3216H147.198V67.5905H147.896V77.138H148.595V67.5905H149.154V77.138H149.852V67.5905H150.481V77.138H151.18V67.2233V65.8157L151.738 65.2037V64.2244H151.808ZM121.701 73.4047L119.535 72.9151V67.8353L121.701 68.2637V73.4047ZM122.469 65.6321L118.697 64.7753H118.557L118.348 63.9796L122.469 64.7753V65.6321ZM129.315 73.4659H126.102V68.2637H129.315V73.4659ZM133.576 73.4659H130.363V68.2637H133.576V73.4659ZM139.863 73.4659H136.65V68.2637H139.863V73.4659ZM144.124 73.4659H140.911V68.2637H144.124V73.4659Z" fill="#8B4326"/>
<path d="M151.808 49.2301H122.469V49.3525L122.33 49.2913L118.208 48.3733H113.039L108.848 49.2913L108.289 49.9033L112.969 48.9853L112.69 49.7809L107.66 50.9438L107.87 51.4946L112.829 50.3929H118.557L122.469 51.2498V52.0454L118.697 51.1274H118.627V59.3895L119.535 59.512L120.513 59.6956L121.491 59.8792L122.469 60.0628V60.6748L121.561 60.4912L120.653 60.3688L119.815 60.2464L118.977 60.1852L118.138 60.124L117.3 60.0628L115.693 60.0016L114.087 60.0628L113.249 60.124L112.41 60.1852L111.572 60.3076L110.664 60.43L109.756 60.6136L108.778 60.7972V62.3884L109.756 62.2048L110.664 62.0824L111.572 61.96L112.41 61.8376L113.249 61.7764L114.087 61.7152L115.693 61.654L117.3 61.7152L118.977 61.8376L119.815 61.8988L120.653 62.0212L121.561 62.1436L122.469 62.3272V62.3884H122.679L123.028 62.4496V62.3884H124.984H147.198V52.5962H147.896V62.1436H148.595V52.5962H149.154V62.1436H149.852V52.5962H150.481V62.1436H151.18V52.229V50.8213L151.738 50.2093V49.2301H151.808ZM121.701 58.4103L119.535 57.9207V52.841L121.701 53.2694V58.4103ZM122.469 50.6377L118.697 49.7809H118.557L118.348 48.9853L122.469 49.7809V50.6377ZM129.315 58.4715H126.102V53.2694H129.315V58.4715ZM133.576 58.4715H130.363V53.2694H133.576V58.4715ZM139.863 58.4715H136.65V53.2694H139.863V58.4715ZM144.124 58.4715H140.911V53.2694H144.124V58.4715Z" fill="#8B4326"/>
<path d="M92.4313 80.9325L87.4716 79.7696H87.3319L87.1224 78.974L91.7328 79.892L91.1041 79.28L86.9827 78.4232H81.8134L77.6221 79.28H48.4229V80.2593L48.9118 80.8101V82.2789V92.3159H49.6104V82.7685H50.1692V92.3159H50.8678V82.7685H51.4965V92.3159H52.195V82.7685H52.9634V92.3771H75.2471H77.5523H77.6221H77.692V92.3159L78.6699 92.1323L79.578 92.0099L80.4862 91.8875L81.3244 91.7651L82.1627 91.7039L83.0009 91.6427L84.6774 91.5815L86.354 91.6427L87.1922 91.7039L88.0305 91.7651L88.8687 91.8875L89.7768 92.0099L90.685 92.1935L91.6629 92.3771V90.7247L90.685 90.5411L89.7768 90.3575L88.8687 90.2351L88.0305 90.1127L87.1922 90.0515L86.354 89.9903L84.6774 89.9291L83.0009 89.9903L82.1627 90.0515L81.3244 90.1127L80.4862 90.2351L79.578 90.3575L78.6699 90.5411L77.692 90.7247V81.2997L81.6737 80.4429H87.3319L92.2218 81.5445L92.4313 80.9325ZM59.3202 88.5215H56.1069V83.3193H59.3202V88.5215ZM63.5813 88.5215H60.368V83.3193H63.5813V88.5215ZM69.8682 88.5215H66.6549V83.3193H69.8682V88.5215ZM74.1294 88.5215H70.9161V83.3193H74.1294V88.5215ZM81.6038 79.7696L77.7618 80.6265V79.7696L81.8134 78.974L81.6038 79.7696Z" fill="#8B4326"/>
<path d="M109.757 53.2694V58.4103L111.922 57.9819V52.841L109.757 53.2694Z" fill="#8B4326"/>
<path d="M109.757 68.2637V73.4047L111.922 72.9763V67.8353L109.757 68.2637Z" fill="#8B4326"/>
<path d="M77.5523 47.2717L78.5302 47.0881L79.5082 46.9045L80.4163 46.7821L81.3244 46.6597L82.1627 46.5985L83.0009 46.5373L84.6775 46.4761L86.354 46.5373L87.1922 46.5985L88.0305 46.6597L88.9386 46.7821L89.8467 46.9045L90.7548 47.0881L91.7328 47.2717V45.6804L90.7548 45.4968L89.7769 45.3132L88.8687 45.1908L87.9606 45.0684L87.1224 45.0072L86.2841 44.946L84.6076 44.8848L82.9311 44.946L82.0928 45.0072L81.2546 45.0684L80.3465 45.1908L79.4384 45.3132L78.4604 45.4968L77.4824 45.6804V47.2717H77.5523Z" fill="#8B4326"/>
<path d="M109.757 98.2525V103.393L111.922 102.965V97.8241L109.757 98.2525Z" fill="#8B4326"/>
<path d="M78.5312 38.2751V43.416L80.6967 42.9876V37.8467L78.5312 38.2751Z" fill="#8B4326"/>
<path d="M48.4229 49.2913V50.2705L48.9118 50.8826V52.229V62.2048H49.6104V52.6574H50.1692V62.2048H50.8678V52.6574H51.4965V62.2048H52.195V52.6574H52.9634V62.266H75.2471H77.5523H77.6221H77.692L78.67 62.0824L79.5781 61.96L80.4862 61.8376L81.3244 61.7152L82.1627 61.654L83.0009 61.5928L84.6775 61.5316L86.354 61.5928L87.1922 61.654L88.0305 61.7152L88.8687 61.8376L89.9166 62.0212L90.8247 62.1436L91.8026 62.3272V60.6748L90.8247 60.4912L89.9166 60.3076L89.0085 60.1852L88.1702 60.0628L87.3319 60.0016L86.4937 59.9404L84.8172 59.8792L83.1407 59.9404L82.3024 60.0016L81.4641 60.0628L80.6259 60.1852L79.7178 60.3076L78.8097 60.4912L77.8317 60.6748V51.2498L81.8134 50.3929H87.4716L92.3615 51.4946L92.5012 50.9438L87.5415 49.7809H87.4018L87.1922 48.9853L91.8026 49.9033L91.174 49.2913L87.0525 48.3733H81.8833L77.692 49.2913H76.4346H48.4229ZM59.3202 58.5327H56.1069V53.2694H59.3202V58.5327ZM63.5813 58.5327H60.368V53.2694H63.5813V58.5327ZM69.8683 58.5327H66.6549V53.2694H69.8683V58.5327ZM74.1294 58.5327H70.9161V53.2694H74.1294V58.5327ZM77.7618 49.7809L81.8134 48.9853L81.6039 49.7809L77.7618 50.6377V49.7809Z" fill="#8B4326"/>
<path d="M109.757 83.2581V88.399L111.922 87.9094V82.8297L109.757 83.2581Z" fill="#8B4326"/>
<path d="M80.6967 72.9763V67.8353L78.5312 68.2637V73.4047L80.6967 72.9763Z" fill="#8B4326"/>
<path d="M80.6967 57.9207V52.841L78.5312 53.2694V58.4103L80.6967 57.9207Z" fill="#8B4326"/>
<path d="M80.6967 102.904V97.7629L78.5312 98.1913V103.332L80.6967 102.904Z" fill="#8B4326"/>
<path d="M87.5415 64.7753H87.4018L87.1922 63.9797L91.8026 64.8977L91.1739 64.2857L87.0525 63.3677H81.8833L77.692 64.2245H48.4229V65.2037L48.9118 65.8157V67.2234V77.1992H49.6104V67.6518H50.1692V77.1992H50.8678V67.6518H51.4965V77.1992H52.195V67.6518H52.9634V77.2604H77.4824H77.5523H77.6221L78.6001 77.0768L79.5082 76.9544L80.4163 76.832L81.2546 76.7096L82.0928 76.6484L82.9311 76.5872L84.6076 76.526L86.2841 76.5872L87.1224 76.6484L87.9606 76.7096L88.7989 76.832L89.707 76.9544L90.6151 77.0768L91.5931 77.2604V75.608L90.6151 75.4244L89.707 75.2408L88.7989 75.1184L87.9606 74.996L87.1224 74.9348L86.2841 74.8736L84.6076 74.8124L82.9311 74.8736L82.0928 74.9348L81.2546 74.996L80.4163 75.1184L79.5082 75.2408L78.7398 75.4856L77.7618 75.6692V66.1829L81.7435 65.3261H87.4018L92.2916 66.4277L92.4313 65.8769L87.5415 64.7753ZM59.3202 73.5271H56.1069V68.325H59.3202V73.5271ZM63.5813 73.5271H60.368V68.325H63.5813V73.5271ZM69.8682 73.5271H66.6549V68.325H69.8682V73.5271ZM74.1294 73.5271H70.9161V68.325H74.1294V73.5271ZM81.6038 64.7753L77.7618 65.6321V64.7753L81.8134 63.9797L81.6038 64.7753Z" fill="#8B4326"/>
<path d="M87.4023 74.3227L88.3803 74.4451L89.3583 74.6287L90.3362 74.8123L91.3841 74.9959V67.7741L91.5936 67.0397L87.4722 66.0605H87.4023V74.3227ZM88.3803 67.8353L90.5458 68.2637V73.4047L88.3803 72.9763V67.8353Z" fill="#8B4326"/>
<path d="M151.25 92.1935V82.1565V80.6877L151.808 80.1368V79.1576H122.469V79.3412L122.33 79.2188L118.208 78.362H113.039L108.848 79.2188L108.289 79.8308L112.969 78.9128L112.69 79.7084L107.66 80.8713L107.87 81.4221L112.829 80.3204H118.557L122.469 81.1773V81.9729L118.697 80.9937H118.627V89.1946L119.535 89.3171L120.513 89.5007L121.491 89.6843L122.469 89.8679V90.4799L121.561 90.2963L120.653 90.1739L119.815 90.0515L118.977 89.9903L118.138 89.9291L117.3 89.8679L115.693 89.8067L114.087 89.8679L113.249 89.9291L112.41 89.9903L111.572 90.1127L110.664 90.2351L109.756 90.4187L108.778 90.6023V92.1935L109.756 92.0099L110.664 91.8875L111.572 91.7651L112.41 91.6427L113.249 91.5815L114.087 91.5203L115.693 91.4591L117.3 91.5203L118.977 91.6427L119.815 91.7039L120.653 91.8263L121.561 91.9487L122.469 92.1323V92.1935H122.679L123.028 92.2547V92.1935H147.198V82.5849H147.896V92.1323H148.595V82.5849H149.154V92.1323H149.852V82.5849H150.481V92.1323H151.25V92.1935ZM121.701 88.3378L119.535 87.9094V82.8297L121.701 83.2581V88.3378ZM122.469 80.6265L118.697 79.7696H118.557L118.348 78.974L122.469 79.7696V80.6265ZM129.315 88.4602H126.102V83.2581H129.315V88.4602ZM133.576 88.4602H130.363V83.2581H133.576V88.4602ZM139.863 88.4602H136.65V83.2581H139.863V88.4602ZM144.124 88.4602H140.911V83.2581H144.124V88.4602Z" fill="#8B4326"/>
<path d="M87.4023 104.311L88.3803 104.434L89.3583 104.617L90.3362 104.801L91.3841 105.046V97.8852L91.5936 97.212L87.4722 96.2328H87.4023V104.311ZM88.3803 97.7628L90.5458 98.2524V103.393L88.3803 102.904V97.7628Z" fill="#8B4326"/>
<path d="M87.4023 59.3283L88.3803 59.4507L89.3583 59.6343L90.3362 59.8179L91.3841 60.0015V52.841L91.5936 52.1065L87.4722 51.1273H87.4023V59.3283ZM88.3803 52.841L90.5458 53.3306V58.4103L88.3803 57.9207V52.841Z" fill="#8B4326"/>
<path d="M91.6639 37.1122L87.5425 36.133H87.4727V44.334L88.4506 44.4564L89.4286 44.64L90.4066 44.8236L91.4544 45.0684V37.7854L91.6639 37.1122ZM90.5463 43.416L88.3808 42.9264V37.7854L90.5463 38.275V43.416Z" fill="#8B4326"/>
<path d="M87.4023 89.3171L88.3803 89.4395L89.3583 89.6231L90.3362 89.8067L91.3841 89.9903V82.8297L91.5936 82.1565L87.4722 81.1773H87.4023V89.3171ZM88.3803 82.8297L90.5458 83.2582V88.3991L88.3803 87.9095V82.8297Z" fill="#8B4326"/>
<path d="M80.6967 87.9094V82.8297L78.5312 83.2581V88.399L80.6967 87.9094Z" fill="#8B4326"/>
<path d="M49.2623 132.342L49.5417 131.974L49.7513 131.607L49.891 131.24L49.9609 130.812V127.874L49.891 127.446L49.7513 127.017L49.5417 126.589L49.2623 126.222L48.9131 125.854L48.4939 125.548L48.0049 125.242L47.4461 124.997L48.0049 124.691L48.4939 124.385L48.9131 124.079L49.2623 123.712L49.5417 123.345L49.7513 122.917L49.891 122.488L49.9609 122.06V119.122L49.891 118.694L49.7513 118.327L49.5417 117.959L49.2623 117.592L48.9131 117.225L48.5638 116.919L48.1446 116.613L47.6557 116.307L47.1667 116.062L46.6078 115.878L45.9792 115.695L45.2806 115.511L44.5821 115.389L43.8835 115.266L43.185 115.205H42.4166H18.3865H14.0555H13.9857H13.9158L13.7063 115.266L13.4268 115.328L13.0776 115.45L12.7283 115.634L12.4489 115.878L12.3092 116.001L12.2393 116.184L12.1695 116.368V116.613V116.797V116.98V117.286V117.47V117.592V117.653V117.715V117.837L12.2393 118.143L12.379 118.388L12.5886 118.571L12.7982 118.755L13.0776 118.877L13.357 119L13.9857 119.122H34.7325H35.2215L35.7105 119.183L36.1296 119.306L36.5488 119.489L36.898 119.673L37.1076 119.918L37.2473 120.163L37.3172 120.407L37.2473 121.693L37.1775 121.937L37.0377 122.182L36.8282 122.366L36.5488 122.549L36.1995 122.733L35.7804 122.855L35.2914 122.917H34.8024H25.861L25.5117 123.039L25.1624 123.223L24.9529 123.345L24.8132 123.467L24.6735 123.651L24.6036 123.835V125.793L24.7433 126.099L24.883 126.344L25.0926 126.528L25.372 126.65L25.7213 126.711L26.1404 126.772H26.6294H27.2581H28.0265H28.0963H34.7325H35.2215L35.7105 126.834L36.1296 126.956L36.5488 127.14L36.8282 127.507L37.0377 127.69L37.1775 127.935L37.2473 128.18L37.3172 129.526L37.2473 129.771L37.1076 130.016L36.898 130.2L36.5488 130.383L36.1995 130.567L35.7804 130.689L35.2914 130.75H34.8024H18.2468V130.812H13.9158H13.846L13.6364 130.873L13.357 130.934L13.0077 131.056L12.6584 131.24L12.379 131.485L12.2393 131.607L12.1695 131.791L12.0996 131.974V132.219V132.464V132.648V132.954V133.198V133.382V133.505V133.566V133.688L12.1695 133.933L12.3092 134.117L12.5187 134.3L12.7283 134.484L13.0077 134.606L13.2871 134.667L13.5666 134.729H13.7761H42.207H42.9754L43.7438 134.667L44.4424 134.545L45.1409 134.423L45.8394 134.239L46.4681 134.055L47.027 133.811L47.5858 133.566L48.0748 133.26L48.4939 132.954L48.8432 132.648L49.2623 132.342Z" fill="#8B4326"/>
<path d="M94.8061 116.368L94.2472 116.123L93.6884 115.94L93.0597 115.756L92.3612 115.573L91.6626 115.45L90.9641 115.328L90.1957 115.267H89.4273H62.5332H61.7648L60.9964 115.328L60.2978 115.45L59.5993 115.573L58.9007 115.756L58.272 115.94L57.6433 116.123L57.0845 116.368L56.5955 116.674L56.1764 116.98L55.7573 117.286L55.408 117.653L55.1984 118.021L54.9889 118.388L54.919 118.755L54.8492 119.183L54.7793 130.812V133.137V133.199V133.26L54.8492 133.382L54.919 133.505L55.0587 133.627L55.1984 133.811L55.408 133.994L55.6874 134.178L56.1065 134.361L56.5955 134.484L57.1544 134.606L57.5036 134.667L57.8529 134.729L58.272 134.79L58.6912 134.851L59.1801 134.912H59.6691H60.228H60.7868H61.3456H61.9743H62.4633H62.9523H63.3714H63.7906L64.4891 134.851L65.1178 134.79L65.6068 134.729L66.0958 134.667L66.445 134.606L66.7245 134.545L66.934 134.484L67.1436 134.423L67.2833 134.361L67.3532 134.3L67.423 134.239L67.4929 134.055V126.895L84.258 126.956V133.566L84.4676 133.749L84.747 133.933L84.9566 133.994L85.1661 134.117L85.4455 134.239L85.725 134.3L86.0742 134.361L86.4934 134.423L86.9823 134.484L87.4713 134.545L88.0302 134.606L88.6589 134.667L89.3574 134.729H90.0559H90.6148H91.1736H91.6626H92.1516H92.5707H92.9898L93.6884 134.667L94.3171 134.606L94.8759 134.545L95.2951 134.484L95.6443 134.423L95.9238 134.361L96.1333 134.3L96.3429 134.239L96.4826 134.178L96.6922 133.994L96.762 133.811V133.749V133.627V133.443V133.199V132.893V132.587V132.219V131.791V131.363V130.873V129.894V128.792V127.629V125.242V124.018V122.856V121.754V121.264V120.775V120.346V119.918V119.551V119.183L96.6922 118.755L96.5524 118.388L96.3429 118.021L96.0635 117.653L95.7142 117.286L95.3649 116.98L94.9458 116.674L94.8061 116.368ZM84.3279 123.039H67.6326V120.469L67.7024 120.224L67.8421 119.979L68.0517 119.734L68.401 119.551L68.7502 119.367L69.1694 119.245L69.6584 119.183H70.2172H81.8829H82.3719L82.8609 119.245L83.28 119.367L83.6992 119.551L84.0484 119.734L84.258 119.979L84.3977 120.224L84.4676 120.469V123.039H84.3279Z" fill="#8B4326"/>
<path d="M142.377 125.793L142.866 125.548L143.285 125.242L143.635 124.936L143.984 124.569L144.263 124.202L144.473 123.835L144.543 123.468V123.039L144.333 119.183L144.263 118.755L144.124 118.388L143.914 118.021L143.635 117.653L143.285 117.286L142.936 116.98L142.517 116.674L142.028 116.368L141.469 116.123L140.84 115.94L140.212 115.756L139.513 115.573L138.815 115.45L138.116 115.328L137.348 115.267H136.579H110.314H109.545L108.777 115.328L108.078 115.45L107.38 115.573L106.751 115.756L106.123 115.94L105.564 116.123L105.005 116.368L104.516 116.674L104.097 116.98L103.748 117.286L103.398 117.653L103.119 118.021L102.979 118.388L102.839 118.755V119.183L102.77 130.751L102.839 130.812V133.137V133.199V133.26L102.909 133.382L102.979 133.505L103.119 133.627L103.328 133.811L103.538 133.994L103.887 134.178L104.236 134.361L104.725 134.484L105.284 134.606L105.634 134.667L105.983 134.729L106.402 134.79L106.821 134.851L107.31 134.912H107.799H108.358H108.917H109.476H109.965H110.873L111.711 134.851L112.409 134.79L113.038 134.729L113.597 134.667L114.016 134.606L114.365 134.545L114.715 134.484L114.924 134.423L115.134 134.361L115.274 134.3L115.413 134.239L115.483 134.178L115.623 133.994V127.14L137.068 127.078H137.837L138.605 127.017L139.304 126.895L140.002 126.772L140.701 126.589L141.329 126.405L141.888 126.16L142.377 125.793ZM131.2 122.672L130.781 122.856L130.362 122.978L129.873 123.039H129.384H115.553L115.623 120.469L115.693 120.224L115.832 119.979L116.042 119.734L116.321 119.551L116.671 119.367L117.09 119.245L117.579 119.183H118.068H129.105H129.594L130.083 119.245L130.502 119.367L130.851 119.551L131.061 119.612L131.2 119.734L131.41 119.979L131.55 120.224L131.62 120.53L131.899 121.754V121.876L131.829 121.999L131.759 122.121L131.689 122.243L131.41 122.488L131.2 122.672Z" fill="#8B4326"/>
<path d="M186.805 115.267H156.977H156.209L155.51 115.328L154.811 115.45L154.113 115.573L153.414 115.756L152.786 115.94L152.227 116.123L151.668 116.368L151.179 116.674L150.76 116.98L150.411 117.286L150.061 117.653L149.782 118.021L149.642 118.388L149.502 118.755V119.183L149.433 130.873L149.502 131.301L149.572 131.669L149.782 132.036L150.061 132.403L150.411 132.77L150.83 133.076L151.249 133.382L151.738 133.688L152.297 133.933L152.925 134.178L153.554 134.361L154.253 134.545L154.951 134.667L155.65 134.79L156.348 134.851H157.117H186.316H186.805L187.294 134.79L187.713 134.729L188.062 134.606L188.412 134.484L188.621 134.3L188.761 134.055L188.831 133.933V133.749V133.688V133.566V133.443V133.26V133.076V132.831V132.403V132.036V131.852L188.761 131.669L188.691 131.424L188.551 131.24L188.342 131.118L188.132 130.995L187.923 130.934L187.503 130.873H164.591H164.102L163.613 130.812L163.194 130.689L162.845 130.506L162.495 130.322L162.286 130.138L162.146 129.894L162.076 129.649V120.53L162.146 120.285L162.286 120.04L162.495 119.795L162.845 119.612L163.264 119.428L163.683 119.306L164.172 119.245H164.661H186.595L187.294 119.183L187.643 119.122L188.062 119L188.412 118.816L188.691 118.571L188.901 118.327L188.97 118.265V118.204V118.021V117.898V117.715V117.531V117.286V116.98V116.613V116.429L188.901 116.246L188.761 115.94L188.551 115.695L188.272 115.511L187.923 115.389L187.573 115.328L187.224 115.267H186.805Z" fill="#8B4326"/>
<path d="M162.706 108.228V107.371H162.636V106.086V104.74V101.986V100.639V99.3541V98.1301V97.5793V97.0285L162.356 96.9673L162.077 96.9061L161.658 96.7837L161.309 96.6613L160.959 96.6001L160.61 96.4776L160.261 96.3552L160.051 96.294L159.842 96.2328L159.562 96.1716L159.213 96.1104L157.816 95.682L156.349 95.2536L154.742 94.764L153.066 94.2744V95.2536L153.345 95.9268V96.6613V97.3345V97.8853V98.4973V99.1093V99.7825V101.19V102.659V104.128V105.597V107.004V107.678V108.29H151.18V107.494V97.2121V95.8044L151.669 95.1924V94.2132H122.33V94.3968L122.26 94.2744L118.138 93.3564H112.969L108.778 94.2744L108.219 94.8864L112.899 93.9684L112.62 94.764L107.59 95.8656L107.8 96.4164L112.759 95.3148H118.418L122.33 96.1716V96.9673L118.557 96.0492H118.488V104.25L119.396 104.373L120.304 104.495L121.282 104.679L122.26 104.862V105.474L121.352 105.291L120.443 105.107L119.605 104.985L118.767 104.862L117.929 104.801L117.09 104.74H115.484L113.877 104.801L113.039 104.862L112.201 104.923L111.362 105.046L110.454 105.168L109.546 105.352L108.568 105.535V107.31H106.822L106.892 35.0926L108.778 34.6642L112.829 33.8686L112.55 34.6642L107.52 35.7658L107.73 36.3166L112.69 35.215H118.348L122.26 36.0718V36.8062L118.488 35.8882H118.418V44.0892L119.326 44.2116L120.234 44.3952L121.212 44.5788L122.19 44.7624V45.3744L121.282 45.1908L120.374 45.0684L119.535 44.946L118.697 44.8848L117.859 44.8236L117.021 44.7624L115.414 44.7012L113.807 44.7624L112.969 44.8236L112.131 44.8848L111.293 45.0072L110.384 45.1296L109.476 45.3132L108.498 45.4968V47.0881L109.476 46.9045L110.384 46.7209L111.223 46.5985L112.061 46.5373L113.737 46.4149L115.344 46.3537H116.951L118.627 46.4761L119.466 46.5373L120.304 46.6597L121.212 46.7821L122.12 46.9657V47.0269H122.33L122.679 47.0881V47.0269H124.635H147.198V37.6631H147.966V47.2105H148.665V37.6631H149.294V47.2105H149.992V37.6631H150.621V47.2105H151.319V37.1734V35.7658L151.808 35.1538V34.1746H130.782L130.083 33.5626L129.315 32.9505L128.477 32.3997L127.499 31.8489L126.451 31.3593L125.333 30.8697L124.146 30.4413L122.888 30.0129V27.5648H123.377V26.708H123.797V25.9736H104.517L103.888 25.3004L102.98 24.3823L102.072 23.4643L101.164 22.5463L100.255 21.6895L96.6929 25.2392L95.9943 25.9124H82.0933V33.3178H81.8837L77.6924 34.2358L77.1336 34.8478L81.8138 33.9298L81.5344 34.7254L76.5049 35.827L76.7144 36.3778L81.6741 35.2762H87.4022L92.292 36.3778H93.4097L93.3399 107.371H91.8031V105.597L90.8251 105.413L89.8471 105.229L88.939 105.107L88.0309 104.985L87.1926 104.923L86.3544 104.862L84.6779 104.801L83.0014 104.862L82.1631 104.923L81.3249 104.985L80.4866 105.107L79.5785 105.229L78.7402 105.474L77.7623 105.658V96.2328L81.6741 95.376H87.4022L92.292 96.4776L92.4318 95.9268L87.4721 94.8252H87.3324L87.1228 94.0296L91.7332 94.9476L91.1045 94.3356L86.9831 93.4176H81.8138L77.6226 94.3356H48.4233V95.3148L48.9821 95.8656V97.2733V107.127V107.494V108.29H45.8386L45.1401 40.5395H47.5152L49.8204 34.4806H43.6033L37.8054 37.7243L38.0848 40.5395H38.8532V108.29H0.50293V109.881H200.497V108.29H162.706V108.228ZM159.143 99.4765L160.261 99.7213V101.925V104.067L159.702 104.005L159.143 103.944V101.802V99.4765ZM157.536 99.1705L158.165 99.2929L158.794 99.4153V101.741V104.005L158.165 103.944L157.536 103.883V101.557V99.1705ZM154.463 97.9465H154.602L154.672 98.0077H154.812H154.882H154.952H155.022L155.161 98.0689L155.301 98.1301V107.371H154.463V106.209V104.985V102.475V101.251V100.027V98.9257V98.3749V97.9465ZM121.701 103.332L119.535 102.904V97.8241L121.701 98.2525V103.332ZM121.701 43.416L119.535 42.9264V37.8467L121.701 38.2751V43.416ZM140.911 38.2751H144.124V43.4772H140.911V38.2751ZM136.58 38.2751H139.793V43.4772H136.58V38.2751ZM130.363 38.2751H133.576V43.4772H130.363V38.2751ZM126.102 38.2751H129.315V43.4772H126.102V38.2751ZM122.469 34.8478V35.6434L118.697 34.7866H118.557L118.348 33.991L122.469 34.8478ZM87.5419 34.7866H87.4022L87.2625 34.1134L87.1926 33.991L87.1228 33.6238L91.1045 34.6642L91.7332 34.909L92.3619 35.9494L87.5419 34.7866ZM77.7623 94.764L81.8138 93.9684L81.5344 94.764L77.7623 95.6208V94.764ZM99.1378 107.433V36.2554H101.303V107.371H99.1378V107.433ZM149.922 97.5793H150.551V107.371H149.922V97.5793ZM148.665 97.5793H149.294V107.371H148.665V97.5793ZM147.198 97.5793H147.966V107.371H147.198V97.5793ZM140.911 98.1913H144.124V103.455H140.911V98.1913ZM136.58 98.1913H139.793V103.455H136.58V98.1913ZM130.363 98.1913H133.576V103.455H130.363V98.1913ZM126.102 98.1913H129.315V103.455H126.102V98.1913ZM118.697 94.764H118.557L118.348 93.9684L122.469 94.8252V95.6208L118.697 94.764ZM103.12 30.7473V30.3189L103.189 29.8905L103.259 29.5233L103.399 29.2173L103.609 28.9725L103.818 28.7889L104.028 28.6664L104.237 28.6052L104.447 28.6664L104.656 28.7889L104.866 28.9725L105.075 29.2173L105.215 29.5233L105.285 29.8905L105.355 30.3189V30.7473V34.7254H102.98V30.7473H103.12ZM102.98 36.2554H105.215V107.371H102.98V36.2554ZM98.8584 29.0949V28.4828L98.9282 27.932L99.068 27.4424L99.2077 27.014L99.4172 26.6468L99.6268 26.402L99.7665 26.3408L99.9062 26.2796L100.046 26.2184H100.186H100.395L100.605 26.2796L100.814 26.402L100.954 26.5244L101.094 26.708L101.233 26.8916L101.443 27.32L101.583 27.8096L101.653 28.2992L101.722 28.7276V28.9725V29.0949V34.7254H98.9282V29.0949H98.8584ZM97.4613 107.433H95.0164V36.2554H97.4613V107.433ZM94.9465 30.7473V30.3189L95.0164 29.8905L95.1561 29.5233L95.2958 29.2173L95.5054 28.9725L95.7149 28.7889L95.9245 28.6664L96.134 28.6052L96.3436 28.6664L96.5532 28.7889L96.7627 28.9725L96.9723 29.2173L97.112 29.5233L97.1819 29.8905L97.2517 30.3189V30.7473V34.7254H94.8767V30.7473H94.9465ZM70.9165 98.2525H74.1298V103.516H70.9165V98.2525ZM66.5855 98.2525H69.7988V103.516H66.5855V98.2525ZM60.3684 98.2525H63.5818V103.516H60.3684V98.2525ZM56.0374 98.2525H59.2508V103.516H56.0374V98.2525ZM52.2653 97.6405H53.0337V107.433H52.2653V97.6405ZM51.0079 97.6405H51.5667V107.433H51.0079V97.6405ZM49.6807 97.6405H50.3094V107.433H49.6807V97.6405ZM41.2282 40.4783H42.2761L42.1363 74.3227L41.9966 108.228H40.8091L41.2282 40.4783Z" fill="#8B4326"/>
</g>
<defs>
<clipPath id="clip0">
<rect x="0.50293" width="199.994" height="135.5" fill="white"/>
</clipPath>
</defs>
</svg>
