<svg width="123" height="112" viewBox="0 0 123 112" fill="none" xmlns="http://www.w3.org/2000/svg">
<g clip-path="url(#clip0)">
<path d="M62.4998 69.5529V46.6529C62.4998 42.7529 65.5998 39.5529 69.3998 39.3529V62.7529H69.8998C78.6998 62.7529 85.9998 55.5529 85.9998 46.7529C85.9998 37.9529 78.7998 30.7529 69.8998 30.7529C61.0998 30.7529 53.8998 37.9529 53.8998 46.7529V69.6529H31.2998V7.55293C31.2998 3.75293 34.3998 0.45293 38.1998 0.25293V62.6529H46.8998V46.6529C46.8998 33.9529 57.1998 23.7529 69.7998 23.7529C74.2998 23.7529 77.9998 20.0529 77.9998 15.5529C77.9998 11.0529 74.2998 7.25293 69.7998 7.25293H53.7998V18.2529C53.7998 22.1529 50.6998 25.3529 46.8998 25.6529V0.25293H69.7998C78.0998 0.25293 84.8998 7.05293 84.8998 15.3529C84.8998 19.2529 83.3998 22.9529 80.6998 25.7529L80.3998 26.2529L80.8998 26.5529C88.1998 30.5529 92.6998 38.2529 92.6998 46.6529C92.7998 59.2529 82.4998 69.5529 69.7998 69.5529H62.4998Z" fill="#8B4326"/>
<path d="M2.4 90.2531C2.1 90.9531 1.7 91.4531 1 91.4531H0.5V91.2531C1.1 91.2531 1.3 90.9531 1.4 90.8531C1.5 90.7531 1.7 90.3531 1.8 90.1531L4.9 81.5531C5 81.3531 5 81.2531 5 81.1531C5 80.9531 4.9 80.8531 4.9 80.7531C4.8 80.6531 4.7 80.6531 4.6 80.6531V80.4531H6L9.7 90.5531C9.8 90.7531 9.9 90.8531 10 90.9531C10.1 91.1531 10.3 91.2531 10.5 91.2531V91.4531H8.1V91.2531C8.2 91.2531 8.3 91.2531 8.4 91.1531C8.5 91.0531 8.5 90.9531 8.5 90.8531V90.7531L5.4 82.1531L2.4 90.2531Z" fill="#8B4326"/>
<path d="M50.1002 110.053C49.8002 110.753 49.4002 111.253 48.7002 111.253H48.2002V111.053C48.8002 111.053 49.0002 110.753 49.1002 110.653C49.2002 110.553 49.4002 110.153 49.5002 109.953L52.6002 101.353C52.7002 101.153 52.7002 101.053 52.7002 100.953C52.7002 100.753 52.6002 100.653 52.6002 100.553C52.5002 100.453 52.4002 100.453 52.3002 100.453V100.253H53.7002L57.4002 110.353C57.5002 110.553 57.6002 110.653 57.7002 110.753C57.8002 110.853 58.0002 110.953 58.2002 110.953V111.153H55.8002V110.953C55.9002 110.953 56.0002 110.953 56.1002 110.853C56.2002 110.753 56.2002 110.653 56.2002 110.553V110.453L53.1002 101.853L50.1002 110.053Z" fill="#8B4326"/>
<path d="M18.6 91.2531C18.6 91.2531 18.8 91.2531 18.9 91.1531C19.2 90.9531 19.2 90.4531 19.2 90.3531V82.7531L13.7 90.1531V90.2531C13.7 90.3531 13.7 90.4531 13.7 90.5531C13.7 90.6531 13.8 90.7531 13.8 90.8531C13.9 90.9531 13.9 91.0531 14 91.0531C14.1 91.1531 14.1 91.1531 14.2 91.1531H14.3V91.3531H12V91.2531H12.1C12.2 91.2531 12.3 91.2531 12.3 91.1531C12.4 91.0531 12.4 91.0531 12.5 90.9531C12.5 90.8531 12.6 90.7531 12.6 90.6531C12.6 90.5531 12.6 90.4531 12.6 90.3531V81.5531C12.6 81.4531 12.6 81.3531 12.6 81.2531C12.6 81.1531 12.5 81.0531 12.5 80.9531C12.4 80.8531 12.4 80.7531 12.3 80.7531C12.2 80.6531 12.2 80.6531 12.1 80.6531H12V80.4531H14.3V80.6531H14.2C14.1 80.6531 14.1 80.7531 14 80.7531C13.9 80.8531 13.9 80.8531 13.8 80.9531C13.8 81.0531 13.7 81.1531 13.7 81.2531C13.7 81.3531 13.7 81.4531 13.7 81.5531V89.2531L19.2 81.8531V81.6531C19.2 81.5531 19.2 81.4531 19.2 81.3531C19.2 81.2531 19.1 81.1531 19.1 81.0531C19 80.9531 19 80.8531 18.9 80.8531C18.8 80.7531 18.8 80.7531 18.7 80.7531H18.6V80.5531H20.9V80.7531H20.8C20.7 80.7531 20.6 80.7531 20.6 80.8531C20.5 80.9531 20.5 80.9531 20.4 81.0531C20.4 81.1531 20.3 81.2531 20.3 81.3531C20.3 81.4531 20.3 81.5531 20.3 81.6531V90.2531C20.3 90.3531 20.4 90.8531 20.6 91.0531C20.7 91.1531 20.9 91.1531 20.9 91.1531V91.3531H18.6V91.2531Z" fill="#8B4326"/>
<path d="M24.3 90.7529H30.7L27.5 82.5529L24.3 90.7529ZM33.1 92.8529H32.9C32.9 92.7529 32.8 92.5529 32.8 92.3529C32.7 92.1529 32.6 92.0529 32.5 91.8529C32.4 91.7529 32.2 91.5529 32.1 91.4529C32 91.3529 31.8 91.3529 31.6 91.3529H24C23.8 91.3529 23.7 91.4529 23.5 91.5529C23.4 91.6529 23.2 91.7529 23.1 91.9529C23 92.0529 22.9 92.2529 22.8 92.4529C22.7 92.6529 22.7 92.7529 22.7 92.9529H22.5V90.8529H23.2C23.5 90.8529 23.8 90.6529 23.9 90.2529L27.7 80.2529L31.5 90.2529C31.6 90.4529 31.7 90.5529 31.8 90.7529C31.9 90.8529 32.1 90.9529 32.3 90.9529H33V92.8529H33.1Z" fill="#8B4326"/>
<path d="M33.9004 91.2525C34.1004 91.2525 34.1004 91.2525 34.2004 91.1525C34.3004 91.0525 34.3004 91.0525 34.4004 90.9525C34.4004 90.8525 34.5004 90.7525 34.5004 90.6525C34.5004 90.5525 34.5004 90.4525 34.5004 90.3525V81.4525C34.5004 81.3525 34.5004 81.2525 34.5004 81.1525C34.5004 81.0525 34.4004 80.9525 34.4004 80.8525C34.3004 80.7525 34.3004 80.6525 34.2004 80.6525C34.1004 80.5525 34.1004 80.5525 34.0004 80.5525H33.9004V80.3525H40.3004V81.8525H40.1004C40.1004 81.5525 40.0004 81.3525 39.8004 81.1525C39.6004 80.9525 39.3004 80.8525 39.0004 80.8525H35.7004V85.2525H38.5004C38.8004 85.2525 39.0004 85.1525 39.1004 85.0525C39.3004 84.9525 39.4004 84.7525 39.4004 84.4525H39.5004V86.5525H39.3004C39.3004 86.3525 39.2004 86.1525 39.1004 86.0525C38.9004 85.9525 38.7004 85.8525 38.5004 85.8525H35.7004V90.8525H39.3004C39.5004 90.8525 39.7004 90.7525 39.9004 90.7525C40.1004 90.6525 40.2004 90.5525 40.3004 90.3525C40.4004 90.2525 40.5004 90.0525 40.5004 89.9525C40.6004 89.7525 40.6004 89.6525 40.6004 89.5525H40.8004V91.4525H33.9004V91.2525Z" fill="#8B4326"/>
<path d="M43.9998 81.0531V85.5531H44.4998C44.8998 85.5531 45.3998 85.4531 45.6998 85.3531C45.9998 85.2531 46.2998 85.0531 46.5998 84.8531C46.7998 84.6531 46.9998 84.4531 47.0998 84.1531C47.1998 83.8531 47.2998 83.6531 47.2998 83.3531C47.2998 83.0531 47.1998 82.7531 47.0998 82.4531C46.9998 82.1531 46.7998 81.9531 46.5998 81.7531C46.3998 81.5531 45.9998 81.3531 45.6998 81.2531C45.2998 81.1531 44.7998 81.0531 44.2998 81.0531H43.9998ZM42.2998 80.4531H44.5998C45.7998 80.4531 46.7998 80.6531 47.3998 81.1531C47.9998 81.6531 48.3998 82.2531 48.3998 83.1531C48.3998 83.6531 48.2998 84.0531 48.0998 84.3531C47.8998 84.7531 47.5998 85.0531 47.1998 85.2531C46.7998 85.5531 46.3998 85.6531 45.9998 85.8531C45.5998 85.9531 45.0998 86.0531 44.5998 86.0531H43.9998V90.2531C43.9998 90.3531 43.9998 90.4531 43.9998 90.5531C43.9998 90.6531 44.0998 90.7531 44.0998 90.8531C44.1998 90.9531 44.1998 91.0531 44.2998 91.0531C44.3998 91.1531 44.4998 91.2531 44.4998 91.2531H44.5998V91.4531H42.2998V91.2531H42.3998C42.4998 91.2531 42.4998 91.2531 42.5998 91.1531C42.6998 91.0531 42.6998 91.0531 42.7998 90.9531C42.7998 90.8531 42.8998 90.7531 42.8998 90.6531C42.8998 90.5531 42.8998 90.4531 42.8998 90.3531V81.5531C42.8998 81.4531 42.8998 81.2531 42.7998 81.0531C42.6998 80.8531 42.5998 80.7531 42.3998 80.7531H42.2998V80.4531Z" fill="#8B4326"/>
<path d="M56.0002 80.8533C55.2002 80.8533 54.5002 80.9533 53.9002 81.2533C53.3002 81.5533 52.8002 81.9533 52.4002 82.3533C52.0002 82.8533 51.7002 83.3533 51.5002 83.9533C51.3002 84.5533 51.2002 85.1533 51.2002 85.6533C51.2002 86.2533 51.3002 86.9533 51.6002 87.5533C51.9002 88.1533 52.2002 88.7533 52.7002 89.2533C53.1002 89.7533 53.7002 90.1533 54.3002 90.4533C54.9002 90.7533 55.5002 90.8533 56.2002 90.8533C56.4002 90.8533 56.6002 90.8533 56.9002 90.7533C57.2002 90.7533 57.4002 90.6533 57.7002 90.4533C58.0002 90.3533 58.2002 90.1533 58.4002 89.9533C58.6002 89.7533 58.8002 89.4533 58.9002 89.0533H59.1002V90.8533C58.9002 90.8533 58.8002 90.8533 58.6002 90.9533C58.4002 90.9533 58.2002 91.0533 58.0002 91.0533C57.7002 91.1533 57.4002 91.1533 57.0002 91.2533C56.7002 91.3533 56.3002 91.3533 55.9002 91.3533C54.9002 91.3533 54.1002 91.1533 53.4002 90.8533C52.7002 90.5533 52.1002 90.0533 51.6002 89.5533C51.1002 89.0533 50.8002 88.4533 50.5002 87.7533C50.3002 87.0533 50.2002 86.3533 50.2002 85.7533C50.2002 85.0533 50.3002 84.3533 50.5002 83.7533C50.7002 83.0533 51.1002 82.4533 51.6002 81.9533C52.1002 81.4533 52.7002 80.9533 53.5002 80.6533C54.3002 80.3533 55.1002 80.1533 56.2002 80.1533C56.6002 80.1533 56.9002 80.1533 57.2002 80.2533C57.5002 80.3533 57.8002 80.3533 58.0002 80.4533C58.2002 80.5533 58.3002 80.5533 58.5002 80.5533C58.6002 80.5533 58.8002 80.5533 58.9002 80.5533V82.3533H58.5002C58.4002 81.9533 58.3002 81.7533 58.1002 81.4533C57.9002 81.2533 57.7002 81.0533 57.5002 80.9533C57.3002 80.8533 57.0002 80.7533 56.7002 80.6533C56.5002 80.8533 56.2002 80.8533 56.0002 80.8533Z" fill="#8B4326"/>
<path d="M66.3996 90.9529C67.0996 90.9529 67.7996 90.7529 68.3996 90.4529C68.9996 90.1529 69.3996 89.7529 69.7996 89.2529C70.1996 88.7529 70.4996 88.2529 70.5996 87.6529C70.7996 87.0529 70.8996 86.5529 70.8996 85.9529C70.8996 85.3529 70.7996 84.7529 70.5996 84.1529C70.3996 83.5529 70.0996 82.9529 69.6996 82.4529C69.2996 81.9529 68.7996 81.5529 68.1996 81.2529C67.5996 80.9529 66.9996 80.7529 66.2996 80.7529C65.5996 80.7529 64.9996 80.8529 64.4996 81.2529C63.9996 81.5529 63.4996 81.9529 63.0996 82.4529C62.6996 82.9529 62.3996 83.4529 62.1996 84.0529C61.9996 84.6529 61.8996 85.2529 61.8996 85.7529C61.8996 86.3529 61.9996 86.9529 62.2996 87.5529C62.4996 88.1529 62.8996 88.7529 63.2996 89.2529C63.6996 89.7529 64.1996 90.1529 64.7996 90.4529C65.0996 90.8529 65.6996 90.9529 66.3996 90.9529ZM66.3996 80.2529C67.2996 80.2529 67.9996 80.3529 68.6996 80.7529C69.3996 81.0529 69.9996 81.4529 70.4996 81.9529C70.9996 82.4529 71.2996 83.0529 71.5996 83.7529C71.8996 84.4529 71.9996 85.1529 71.9996 85.8529C71.9996 86.6529 71.8996 87.4529 71.4996 88.1529C71.1996 88.8529 70.7996 89.4529 70.1996 89.9529C69.6996 90.4529 69.0996 90.8529 68.3996 91.1529C67.6996 91.4529 66.8996 91.5529 66.0996 91.5529C65.1996 91.5529 64.4996 91.4529 63.7996 91.0529C63.0996 90.7529 62.4996 90.3529 62.0996 89.8529C61.5996 89.3529 61.2996 88.7529 60.9996 88.0529C60.6996 87.3529 60.5996 86.7529 60.5996 85.9529C60.5996 85.2529 60.6996 84.5529 60.9996 83.8529C61.2996 83.1529 61.5996 82.5529 62.0996 82.0529C62.5996 81.5529 63.1996 81.0529 63.8996 80.7529C64.6996 80.4529 65.4996 80.2529 66.3996 80.2529Z" fill="#8B4326"/>
<path d="M79.2998 88.3531C79.2998 87.4531 78.8998 86.8531 78.3998 86.3531C77.8998 85.8531 77.2998 85.6531 76.3998 85.6531H75.3998V90.7531H76.3998C77.2998 90.7531 77.9998 90.5531 78.4998 90.1531C79.2998 89.5531 79.2998 88.9531 79.2998 88.3531ZM78.6998 83.0531C78.6998 82.4531 78.3998 81.9531 77.9998 81.5531C77.5998 81.1531 77.1998 80.9531 76.4998 80.9531H75.4998V85.1531H76.4998C76.9998 85.1531 77.2998 85.0531 77.4998 84.9531C77.7998 84.8531 77.9998 84.6531 78.1998 84.4531C78.3998 84.2531 78.4998 84.0531 78.5998 83.8531C78.5998 83.6531 78.6998 83.4531 78.6998 83.0531ZM73.7998 91.2531C73.8998 91.2531 73.9998 91.2531 74.0998 91.1531C74.1998 91.0531 74.1998 91.0531 74.2998 90.9531C74.2998 90.8531 74.3998 90.7531 74.3998 90.6531C74.3998 90.5531 74.3998 90.4531 74.3998 90.3531V81.5531C74.3998 81.4531 74.3998 81.3531 74.3998 81.2531C74.3998 81.1531 74.2998 81.0531 74.2998 80.9531C74.1998 80.8531 74.1998 80.7531 74.0998 80.7531C73.9998 80.6531 73.9998 80.6531 73.8998 80.6531H73.7998V80.4531H76.4998C77.4998 80.4531 78.2998 80.6531 78.8998 81.1531C79.4998 81.6531 79.7998 82.2531 79.7998 82.9531C79.7998 83.2531 79.6998 83.5531 79.5998 83.8531C79.4998 84.1531 79.2998 84.3531 79.1998 84.5531C78.9998 84.7531 78.7998 84.9531 78.5998 85.0531C78.3998 85.1531 78.1998 85.3531 77.9998 85.3531C78.4998 85.4531 78.8998 85.5531 79.1998 85.7531C79.4998 85.9531 79.7998 86.1531 79.9998 86.4531C80.1998 86.7531 80.2998 87.0531 80.3998 87.3531C80.4998 87.6531 80.4998 87.9531 80.4998 88.2531C80.4998 88.8531 80.3998 89.3531 80.1998 89.7531C79.9998 90.1531 79.6998 90.4531 79.3998 90.7531C78.9998 90.9531 78.6998 91.1531 78.1998 91.2531C77.7998 91.3531 76.9998 91.4531 76.4998 91.4531H73.7998V91.2531Z" fill="#8B4326"/>
<path d="M87.9996 80.8533C87.1996 80.8533 86.4996 80.9533 85.8996 81.2533C85.2996 81.5533 84.7996 81.9533 84.3996 82.3533C83.9996 82.8533 83.6996 83.3533 83.4996 83.9533C83.2996 84.5533 83.1996 85.1533 83.1996 85.6533C83.1996 86.2533 83.2996 86.9533 83.5996 87.5533C83.8996 88.1533 84.1996 88.7533 84.6996 89.2533C85.0996 89.7533 85.6996 90.1533 86.2996 90.4533C86.8996 90.7533 87.4996 90.8533 88.1996 90.8533C88.3996 90.8533 88.5996 90.8533 88.8996 90.7533C89.1996 90.7533 89.3996 90.6533 89.6996 90.4533C89.9996 90.3533 90.1996 90.1533 90.3996 89.9533C90.5996 89.7533 90.7996 89.4533 90.8996 89.0533H91.0996V90.8533C90.8996 90.8533 90.7996 90.8533 90.5996 90.9533C90.3996 90.9533 90.1996 91.0533 89.9996 91.0533C89.6996 91.1533 89.3996 91.1533 88.9996 91.2533C88.5996 91.3533 88.2996 91.3533 87.8996 91.3533C86.8996 91.3533 86.0996 91.1533 85.3996 90.8533C84.6996 90.5533 84.0996 90.0533 83.5996 89.5533C83.0996 89.0533 82.6996 88.4533 82.4996 87.7533C82.2996 87.0533 82.0996 86.3533 82.0996 85.7533C82.0996 85.0533 82.1996 84.3533 82.4996 83.7533C82.6996 83.0533 83.0996 82.4533 83.5996 81.9533C84.0996 81.4533 84.6996 80.9533 85.4996 80.6533C86.2996 80.3533 87.0996 80.1533 88.1996 80.1533C88.5996 80.1533 88.8996 80.1533 89.1996 80.2533C89.4996 80.3533 89.7996 80.3533 89.9996 80.4533C90.1996 80.5533 90.2996 80.5533 90.4996 80.5533C90.5996 80.5533 90.7996 80.5533 90.8996 80.5533V82.3533H90.6996C90.5996 81.9533 90.4996 81.7533 90.2996 81.4533C90.0996 81.2533 89.8996 81.0533 89.6996 80.9533C89.4996 80.8533 89.1996 80.7533 88.8996 80.6533C88.4996 80.8533 88.2996 80.8533 87.9996 80.8533Z" fill="#8B4326"/>
<path d="M92.8998 91.2531C93.0998 91.2531 93.0998 91.2531 93.1998 91.1531C93.2998 91.0531 93.2998 91.0531 93.3998 90.9531C93.3998 90.8531 93.4998 90.7531 93.4998 90.6531C93.4998 90.5531 93.4998 90.4531 93.4998 90.3531V81.5531C93.4998 81.4531 93.4998 81.3531 93.4998 81.2531C93.4998 81.1531 93.3998 81.0531 93.3998 80.9531C93.2998 80.8531 93.2998 80.7531 93.1998 80.7531C93.0998 80.6531 93.0998 80.6531 92.9998 80.6531H92.8998V80.4531H95.2998V80.6531H95.1998C95.0998 80.6531 94.9998 80.6531 94.9998 80.7531C94.8998 80.8531 94.8998 80.8531 94.7998 80.9531C94.6998 81.0531 94.6998 81.1531 94.6998 81.2531C94.6998 81.3531 94.6998 81.4531 94.6998 81.5531V84.9531L98.4998 81.1531C98.5998 81.0531 98.5998 80.9531 98.5998 80.8531C98.5998 80.7531 98.5998 80.7531 98.4998 80.7531V80.5531H100.3V80.7531C100.1 80.7531 99.8998 80.8531 99.6998 80.9531C99.4998 81.0531 99.3998 81.2531 99.0998 81.4531L95.1998 85.2531C95.8998 85.2531 96.4998 85.4531 96.8998 85.7531C97.2998 86.0531 97.6998 86.4531 97.9998 86.9531L99.2998 89.5531C99.3998 89.7531 99.4998 89.9531 99.5998 90.0531C99.6998 90.2531 99.8998 90.4531 99.9998 90.6531C100.2 90.8531 100.3 90.9531 100.5 91.0531C100.7 91.1531 100.9 91.2531 101.1 91.2531V91.4531H100.3C99.9998 91.4531 99.6998 91.3531 99.4998 91.3531C99.2998 91.2531 99.0998 91.1531 98.8998 90.9531C98.6998 90.7531 98.5998 90.6531 98.4998 90.4531C98.3998 90.2531 98.2998 90.0531 98.1998 89.8531L96.7998 87.1531C96.5998 86.7531 96.2998 86.4531 95.8998 86.2531C95.4998 86.0531 95.0998 85.9531 94.5998 85.9531V90.2531C94.5998 90.3531 94.5998 90.4531 94.5998 90.5531C94.5998 90.6531 94.6998 90.7531 94.6998 90.8531C94.6998 90.9531 94.7998 91.0531 94.8998 91.0531C94.9998 91.1531 94.9998 91.1531 95.0998 91.1531H95.1998V91.3531H92.7998L92.8998 91.2531Z" fill="#8B4326"/>
<path d="M109.1 91.2531C109.3 91.2531 109.3 91.2531 109.4 91.1531C109.5 91.0531 109.5 91.0531 109.6 90.9531C109.7 90.8531 109.7 90.7531 109.7 90.6531C109.7 90.5531 109.7 90.4531 109.7 90.3531V82.7531L104.2 90.1531V90.2531C104.2 90.3531 104.2 90.4531 104.2 90.5531C104.2 90.6531 104.3 90.7531 104.3 90.8531C104.4 90.9531 104.4 91.0531 104.5 91.0531C104.6 91.1531 104.6 91.1531 104.7 91.1531H104.8V91.3531H102.5V91.2531H102.6C102.7 91.2531 102.8 91.2531 102.8 91.1531C102.9 91.0531 102.9 91.0531 103 90.9531C103 90.8531 103.1 90.7531 103.1 90.6531C103.1 90.5531 103.1 90.4531 103.1 90.3531V81.5531C103.1 81.4531 103.1 81.3531 103.1 81.2531C103.1 81.1531 103 81.0531 103 80.9531C102.9 80.8531 102.9 80.7531 102.8 80.7531C102.7 80.6531 102.7 80.6531 102.6 80.6531H102.5V80.4531H104.8V80.6531H104.7C104.6 80.6531 104.6 80.7531 104.5 80.7531C104.4 80.8531 104.4 80.8531 104.3 80.9531C104.3 81.0531 104.2 81.1531 104.2 81.2531C104.2 81.3531 104.2 81.4531 104.2 81.5531V89.2531L109.7 81.8531V81.6531C109.7 81.5531 109.7 81.4531 109.7 81.3531C109.7 81.2531 109.6 81.1531 109.6 81.0531C109.5 80.9531 109.5 80.8531 109.4 80.8531C109.3 80.7531 109.3 80.7531 109.2 80.7531H109.1V80.5531H111.4V80.7531H111.3C111.2 80.7531 111.1 80.7531 111.1 80.8531C111 80.9531 111 80.9531 110.9 81.0531C110.9 81.1531 110.8 81.2531 110.8 81.3531C110.8 81.4531 110.8 81.5531 110.8 81.6531V90.2531C110.8 90.3531 110.8 90.4531 110.8 90.5531C110.8 90.6531 110.9 90.7531 110.9 90.8531C110.9 90.9531 111 91.0531 111.1 91.0531C111.2 91.1531 111.2 91.1531 111.3 91.1531H111.4V91.3531H109.1V91.2531Z" fill="#8B4326"/>
<path d="M119.7 78.2529C119.7 78.4529 119.7 78.6529 119.6 78.8529C119.5 79.0529 119.4 79.2529 119.2 79.4529C119.1 79.6529 118.8 79.7529 118.6 79.8529C118.4 79.9529 118.1 80.0529 117.8 80.0529C117.5 80.0529 117.3 79.9529 117.1 79.8529C116.9 79.7529 116.7 79.6529 116.5 79.4529C116.3 79.2529 116.2 79.1529 116.1 78.8529C116 78.6529 116 78.4529 116 78.2529H116.1C116.1 78.3529 116.2 78.4529 116.2 78.5529C116.3 78.6529 116.4 78.7529 116.5 78.9529C116.6 79.0529 116.8 79.1529 117 79.2529C117.2 79.3529 117.5 79.3529 117.8 79.3529C118.2 79.3529 118.4 79.3529 118.6 79.2529C118.8 79.1529 119 79.0529 119.1 78.9529C119.2 78.8529 119.3 78.7529 119.4 78.5529C119.5 78.4529 119.5 78.3529 119.5 78.2529H119.7ZM119.9 91.2529C120.1 91.2529 120.1 91.2529 120.2 91.1529C120.3 91.0529 120.3 91.0529 120.4 90.9529C120.5 90.8529 120.5 90.7529 120.5 90.6529C120.5 90.5529 120.5 90.4529 120.5 90.3529V82.7529L115 90.1529V90.2529C115 90.3529 115 90.4529 115 90.5529C115 90.6529 115.1 90.7529 115.1 90.8529C115.2 90.9529 115.2 91.0529 115.3 91.0529C115.4 91.1529 115.4 91.1529 115.5 91.1529H115.6V91.3529H113.3V91.2529H113.4C113.5 91.2529 113.6 91.2529 113.6 91.1529C113.7 91.0529 113.7 91.0529 113.8 90.9529C113.8 90.8529 113.9 90.7529 113.9 90.6529C113.9 90.5529 113.9 90.4529 113.9 90.3529V81.5529C113.9 81.4529 113.9 81.3529 113.9 81.2529C113.9 81.1529 113.8 81.0529 113.8 80.9529C113.7 80.8529 113.7 80.7529 113.6 80.7529C113.5 80.6529 113.5 80.6529 113.4 80.6529H113.3V80.4529H115.6V80.6529H115.5C115.4 80.6529 115.3 80.7529 115.3 80.7529C115.2 80.8529 115.2 80.8529 115.1 80.9529C115.1 81.0529 115 81.1529 115 81.2529C115 81.3529 115 81.4529 115 81.5529V89.2529L120.5 81.8529V81.6529C120.5 81.5529 120.5 81.4529 120.5 81.3529C120.5 81.2529 120.4 81.1529 120.4 81.0529C120.3 80.9529 120.3 80.8529 120.2 80.8529C120.1 80.7529 120.1 80.7529 120 80.7529H119.9V80.5529H122.2V80.7529H122.1C122 80.7529 121.9 80.7529 121.9 80.8529C121.8 80.9529 121.8 80.9529 121.7 81.0529C121.7 81.1529 121.6 81.2529 121.6 81.3529C121.6 81.4529 121.6 81.5529 121.6 81.6529V90.2529C121.6 90.3529 121.6 90.4529 121.6 90.5529C121.6 90.6529 121.7 90.7529 121.7 90.8529C121.7 90.9529 121.8 91.0529 121.9 91.0529C122 91.1529 122 91.1529 122.1 91.1529H122.2V91.3529H119.9V91.2529Z" fill="#8B4326"/>
<path d="M38.7002 100.353H41.0002V100.553H40.9002C40.8002 100.553 40.7002 100.553 40.7002 100.653C40.7002 100.753 40.6002 100.753 40.6002 100.853C40.6002 100.953 40.6002 100.953 40.6002 101.053V101.153L43.5002 107.253L46.0002 101.253C46.0002 101.253 46.0002 101.153 46.1002 101.153C46.1002 101.053 46.1002 101.053 46.1002 100.953C46.1002 100.853 46.0002 100.653 45.9002 100.653C45.8002 100.553 45.7002 100.553 45.7002 100.553V100.353H47.5002V100.553C47.3002 100.553 47.2002 100.653 47.0002 100.753C46.9002 100.853 46.8002 100.953 46.8002 101.053L42.8002 110.553C42.7002 110.853 42.5002 111.153 42.3002 111.253C42.1002 111.353 41.8002 111.453 41.6002 111.453C41.4002 111.453 41.3002 111.453 41.2002 111.353C41.1002 111.253 41.0002 111.253 40.8002 111.153C40.7002 111.053 40.6002 110.953 40.5002 110.853L40.9002 109.953C41.0002 110.153 41.1002 110.353 41.3002 110.453C41.5002 110.553 41.6002 110.653 41.7002 110.653C41.8002 110.653 41.9002 110.653 42.0002 110.553C42.1002 110.453 42.2002 110.353 42.3002 110.253L42.9002 108.653L39.4002 101.053C39.3002 100.753 39.0002 100.553 38.7002 100.553V100.353Z" fill="#8B4326"/>
<path d="M33.1002 110.753C34.4002 110.753 35.3002 110.153 35.6002 109.953C35.9002 109.753 36.1002 109.453 36.2002 109.153C36.3002 108.853 36.4002 108.553 36.4002 108.153C36.4002 107.353 36.1002 106.653 35.5002 106.153C34.9002 105.653 34.1002 105.353 33.0002 105.353H32.5002V110.553H33.1002V110.753ZM30.7002 111.053C30.9002 111.053 30.9002 111.053 31.0002 110.953C31.1002 110.853 31.1002 110.853 31.2002 110.753C31.3002 110.653 31.3002 110.553 31.3002 110.453C31.3002 110.353 31.3002 110.253 31.3002 110.153V101.253C31.3002 101.153 31.3002 101.053 31.3002 100.953C31.3002 100.853 31.2002 100.753 31.2002 100.653C31.2002 100.553 31.1002 100.453 31.0002 100.453C30.9002 100.353 30.9002 100.353 30.8002 100.353H30.7002V100.153H36.8002V101.753H36.6002C36.6002 101.453 36.5002 101.253 36.3002 101.053C36.1002 100.853 35.9002 100.753 35.5002 100.753H32.5002V104.753H33.3002C33.8002 104.753 34.3002 104.853 34.8002 104.853C35.3002 104.953 35.8002 105.153 36.2002 105.353C36.6002 105.553 36.9002 105.953 37.2002 106.353C37.4002 106.753 37.6002 107.253 37.6002 107.853C37.6002 108.353 37.5002 108.753 37.3002 109.153C37.1002 109.553 36.9002 109.853 36.5002 110.153C36.2002 110.453 35.8002 110.653 35.3002 110.753C34.8002 110.953 34.3002 110.953 33.8002 110.953H30.8002L30.7002 111.053Z" fill="#8B4326"/>
<path d="M61.6996 110.753C62.9996 110.753 63.8996 110.453 64.4996 110.053C65.0996 109.653 65.2996 108.953 65.2996 108.253C65.2996 107.453 64.9996 106.853 64.4996 106.353C63.8996 105.853 63.0996 105.653 61.9996 105.653H61.4996V110.853H61.6996V110.753ZM59.6996 111.053C60.0996 111.053 60.2996 110.653 60.2996 110.153V101.253C60.2996 101.153 60.2996 101.053 60.2996 100.953C60.2996 100.853 60.1996 100.753 60.1996 100.653C60.0996 100.553 60.0996 100.453 59.9996 100.453C59.8996 100.353 59.8996 100.353 59.7996 100.353H59.6996V100.153H61.9996V100.353H61.8996C61.6996 100.353 61.5996 100.453 61.4996 100.753C61.3996 100.953 61.3996 101.153 61.3996 101.353V104.953H62.2996C62.7996 104.953 63.2996 105.053 63.7996 105.153C64.2996 105.253 64.6996 105.453 65.0996 105.653C65.4996 105.853 65.7996 106.253 65.9996 106.653C66.1996 107.053 66.2996 107.553 66.2996 108.153C66.2996 108.653 66.1996 109.053 65.9996 109.453C65.7996 109.853 65.4996 110.153 65.1996 110.453C64.8996 110.753 64.3996 110.953 63.9996 111.053C63.4996 111.253 62.9996 111.253 62.4996 111.253H59.5996V111.053H59.6996Z" fill="#8B4326"/>
<path d="M79.1 105.853H81.6L80.3 102.353L79.1 105.853ZM82.9 111.053C83.2 111.053 83.4 110.953 83.4 110.653C83.4 110.553 83.4 110.453 83.3 110.353L81.8 106.353H78.9L77.5 110.353C77.5 110.453 77.4 110.553 77.4 110.553C77.4 110.653 77.4 110.853 77.5 110.853C77.6 110.953 77.7 110.953 77.7 110.953H77.8V111.153H76V110.953H76.1C76.2 110.953 76.4 110.853 76.5 110.653C76.6 110.453 76.8 110.253 76.8 110.053L80.6 99.9531L84.3 109.953C84.4 110.153 84.5 110.353 84.6 110.553C84.8 110.753 84.9 110.853 85.1 110.853H85.2V111.053H82.8H82.9Z" fill="#8B4326"/>
<path d="M73.6996 108.253C73.5996 107.453 73.2996 106.753 72.7996 106.253C72.2996 105.753 71.5996 105.553 70.7996 105.553H69.8996V110.753H70.8996C71.7996 110.753 72.4996 110.553 72.9996 110.153C73.4996 109.753 73.7996 109.153 73.7996 108.453V108.253H73.6996ZM72.9996 102.953C72.9996 102.353 72.6996 101.853 72.2996 101.453C71.8996 101.053 71.2996 100.853 70.5996 100.853H69.7996V105.053H70.6996C71.1996 105.053 71.5996 104.953 71.7996 104.853C72.0996 104.753 72.2996 104.553 72.4996 104.353C72.6996 104.153 72.7996 103.953 72.8996 103.753C72.9996 103.553 72.9996 103.253 72.9996 102.953ZM68.0996 111.053C68.4996 111.053 68.6996 110.753 68.6996 110.153V101.353C68.6996 101.253 68.6996 101.153 68.6996 101.053C68.6996 100.953 68.5996 100.853 68.5996 100.753C68.4996 100.653 68.4996 100.553 68.3996 100.553C68.2996 100.453 68.2996 100.453 68.1996 100.453H68.0996V100.253H70.7996C71.7996 100.253 72.5996 100.453 73.1996 100.953C73.7996 101.453 74.0996 101.953 74.0996 102.753C74.0996 103.053 73.9996 103.353 73.8996 103.653C73.7996 103.953 73.5996 104.153 73.4996 104.353C73.2996 104.553 73.0996 104.753 72.8996 104.853C72.6996 104.953 72.4996 105.153 72.2996 105.153C72.7996 105.253 73.0996 105.353 73.4996 105.553C73.7996 105.753 74.0996 105.953 74.2996 106.253C74.4996 106.553 74.5996 106.853 74.6996 107.153C74.7996 107.453 74.7996 107.753 74.7996 108.053C74.7996 108.653 74.6996 109.153 74.4996 109.553C74.2996 109.953 73.9996 110.253 73.6996 110.553C73.3996 110.753 72.9996 110.953 72.4996 111.053C72.0996 111.153 71.5996 111.253 71.0996 111.253H68.0996C68.0996 111.253 68.0996 111.053 68.0996 111.053Z" fill="#8B4326"/>
<path d="M88.3992 100.853V105.353H88.8992C89.2992 105.353 89.7992 105.253 90.0992 105.153C90.3992 105.053 90.6992 104.853 90.9992 104.653C91.1992 104.453 91.3992 104.253 91.4992 103.953C91.5992 103.653 91.6992 103.453 91.6992 103.153C91.6992 102.853 91.5992 102.553 91.4992 102.253C91.3992 101.953 91.1992 101.753 90.9992 101.553C90.7992 101.353 90.3992 101.153 90.0992 101.053C89.6992 100.953 89.1992 100.853 88.6992 100.853H88.3992ZM86.6992 100.353H88.9992C90.1992 100.353 91.1992 100.553 91.7992 101.053C92.3992 101.553 92.7992 102.153 92.7992 103.053C92.7992 103.553 92.6992 103.953 92.4992 104.253C92.2992 104.653 91.9992 104.953 91.5992 105.153C91.1992 105.353 90.7992 105.553 90.3992 105.753C89.9992 105.853 89.4992 105.953 89.0992 105.953H88.4992V110.153C88.4992 110.253 88.4992 110.353 88.4992 110.453C88.4992 110.553 88.5992 110.653 88.5992 110.753C88.6992 110.853 88.6992 110.953 88.7992 110.953C88.8992 111.053 88.8992 111.053 88.9992 111.053H89.0992V111.253H86.7992V111.053H86.8992C86.9992 111.053 87.0992 111.053 87.0992 110.953C87.1992 110.853 87.1992 110.853 87.2992 110.753C87.2992 110.653 87.3992 110.553 87.3992 110.453C87.3992 110.353 87.3992 110.253 87.3992 110.153V101.353C87.3992 101.253 87.3992 101.053 87.2992 100.853C87.1992 100.653 87.0992 100.553 86.8992 100.553H86.7992L86.6992 100.353Z" fill="#8B4326"/>
</g>
<defs>
<clipPath id="clip0">
<rect x="0.5" y="0.25293" width="121.8" height="111.2" fill="white"/>
</clipPath>
</defs>
</svg>
