<svg width="392" height="297" viewBox="0 0 392 297" fill="none" xmlns="http://www.w3.org/2000/svg">
<g clip-path="url(#clip0)">
<path d="M218.204 157.206H200.349V106.494C200.349 98.7497 207.071 92.1337 215.778 91.1973V142.951V144.093H216.92H218.204C241.278 144.093 260.68 127.417 260.68 106.72C260.68 86.0275 241.54 69.347 218.204 69.347C195.12 69.347 175.985 86.0317 175.985 106.72V157.432H120.25V17.956C120.25 10.4199 126.981 3.61408 135.679 2.66072V142.724V143.867H136.822H159.157H160.3V142.724V106.494C160.3 78.5008 186.088 55.782 217.947 55.782C229.992 55.782 240.142 47.0227 240.142 36.0711C240.142 25.1363 230.011 16.1338 217.947 16.1338H176.871H175.728V17.2767V42.185C175.728 49.9207 169.017 56.5431 160.3 57.6793V2.56879H217.947C238.764 2.56879 255.57 17.5856 255.57 35.6183C255.57 44.1044 251.873 52.1839 245.159 58.3246L245.061 58.4147L244.986 58.5251L244.215 59.6573L243.497 60.7131L244.626 61.3103L245.909 61.9896L245.928 61.9994L245.947 62.0085C264.337 70.8963 275.595 87.9578 275.595 106.494L275.595 106.504C275.845 134.263 250.063 157.206 218.204 157.206Z" fill="#8B4326" stroke="#8B4326" stroke-width="2.28578"/>
<path d="M6.96834 236.275C6.00716 238.253 4.72558 239.666 2.48283 239.666H0.880859V239.101C2.80322 239.101 3.44401 238.253 3.7644 237.971C4.08479 237.688 4.72558 236.558 5.04597 235.993L14.9782 211.69C15.2986 211.124 15.2986 210.842 15.2986 210.559C15.2986 209.994 14.9782 209.711 14.9782 209.429C14.6578 209.146 14.3374 209.146 14.017 209.146V208.581H18.5025L30.3571 237.123C30.6775 237.688 30.9979 237.971 31.3182 238.253C31.6386 238.819 32.2794 239.101 32.9202 239.101V239.666H25.2308V239.101C25.5512 239.101 25.8716 239.101 26.1919 238.819C26.5123 238.536 26.5123 238.253 26.5123 237.971V237.688L16.5801 213.385L6.96834 236.275Z" fill="#8B4326"/>
<path d="M58.8716 239.101C58.8716 239.101 59.5124 239.101 59.8327 238.819C60.7939 238.253 60.7939 236.84 60.7939 236.558V215.081L43.1723 235.993V236.275C43.1723 236.558 43.1723 236.84 43.1723 237.123C43.1723 237.406 43.4927 237.688 43.4927 237.971C43.8131 238.253 43.8131 238.536 44.1335 238.536C44.4539 238.819 44.4539 238.819 44.7742 238.819H45.0946V239.384H37.7256V239.101H38.046C38.3664 239.101 38.6868 239.101 38.6868 238.819C39.0072 238.536 39.0072 238.536 39.3276 238.253C39.3276 237.971 39.6479 237.688 39.6479 237.406C39.6479 237.123 39.6479 236.84 39.6479 236.558V211.69C39.6479 211.407 39.6479 211.124 39.6479 210.842C39.6479 210.559 39.3276 210.277 39.3276 209.994C39.0072 209.711 39.0072 209.429 38.6868 209.429C38.3664 209.146 38.3664 209.146 38.046 209.146H37.7256V208.581H45.0946V209.146H44.7742C44.4539 209.146 44.4539 209.429 44.1335 209.429C43.8131 209.711 43.8131 209.711 43.4927 209.994C43.4927 210.277 43.1723 210.559 43.1723 210.842C43.1723 211.124 43.1723 211.407 43.1723 211.69V233.449L60.7939 212.537V211.972C60.7939 211.69 60.7939 211.407 60.7939 211.124C60.7939 210.842 60.4735 210.559 60.4735 210.277C60.1531 209.994 60.1531 209.711 59.8327 209.711C59.5124 209.429 59.5124 209.429 59.192 209.429H58.8716V208.864H66.2406V209.429H65.9202C65.5998 209.429 65.2794 209.429 65.2794 209.711C64.959 209.994 64.959 209.994 64.6386 210.277C64.6386 210.559 64.3183 210.842 64.3183 211.124C64.3183 211.407 64.3183 211.69 64.3183 211.972V236.275C64.3183 236.558 64.6387 237.971 65.2794 238.536C65.5998 238.819 66.2406 238.819 66.2406 238.819V239.384H58.8716V239.101Z" fill="#8B4326"/>
<path d="M77.1352 237.688H97.6404L87.3878 214.515L77.1352 237.688ZM105.33 243.623H104.689C104.689 243.34 104.369 242.775 104.369 242.21C104.048 241.645 103.728 241.362 103.408 240.797C103.087 240.514 102.446 239.949 102.126 239.666C101.806 239.384 101.165 239.384 100.524 239.384H76.1741C75.5333 239.384 74.8925 239.666 74.5721 239.949C74.2517 240.232 73.6109 240.514 73.2905 241.079C72.9701 241.362 72.6497 241.927 72.3293 242.492C72.0089 243.058 72.009 243.34 72.009 243.905H71.3682V237.971H73.6109C74.5721 237.971 75.5333 237.406 75.8537 236.275L88.0286 208.016L100.204 236.275C100.524 236.84 100.844 237.123 101.165 237.688C101.485 237.971 102.126 238.253 102.767 238.253H105.009V243.623H105.33Z" fill="#8B4326"/>
<path d="M107.892 239.101C108.532 239.101 108.532 239.101 108.853 238.819C109.173 238.536 109.173 238.536 109.494 238.253C109.494 237.971 109.814 237.688 109.814 237.406C109.814 237.123 109.814 236.84 109.814 236.558V211.407C109.814 211.124 109.814 210.842 109.814 210.559C109.814 210.277 109.494 209.994 109.494 209.711C109.173 209.429 109.173 209.146 108.853 209.146C108.532 208.864 108.532 208.864 108.212 208.864H107.892V208.298H128.397V212.537H127.756C127.756 211.689 127.436 211.124 126.795 210.559C126.154 209.994 125.193 209.711 124.232 209.711H113.659V222.145H122.63C123.591 222.145 124.232 221.863 124.552 221.58C125.193 221.298 125.513 220.733 125.513 219.885H125.834V225.819H125.193C125.193 225.254 124.872 224.689 124.552 224.406C123.911 224.124 123.27 223.841 122.63 223.841H113.659V237.971H125.193C125.834 237.971 126.474 237.688 127.115 237.688C127.756 237.406 128.076 237.123 128.397 236.558C128.717 236.275 129.038 235.71 129.038 235.427C129.358 234.862 129.358 234.58 129.358 234.297H129.999V239.666H107.892V239.101Z" fill="#8B4326"/>
<path d="M140.252 210.277V222.993H141.854C143.136 222.993 144.738 222.711 145.699 222.428C146.981 222.146 147.621 221.58 148.583 221.015C149.223 220.45 149.864 219.885 150.185 219.037C150.505 218.189 150.825 217.624 150.825 216.776C150.825 215.928 150.505 215.081 150.185 214.233C149.864 213.385 149.223 212.82 148.583 212.255C147.942 211.69 146.66 211.124 145.699 210.842C144.417 210.559 142.816 210.277 141.214 210.277H140.252ZM134.806 208.581H142.175C146.019 208.581 149.223 209.146 151.146 210.559C153.068 211.972 154.35 213.668 154.35 216.211C154.35 217.624 154.029 218.754 153.388 219.602C152.748 220.733 151.787 221.58 150.505 222.146C149.223 222.993 147.942 223.276 146.66 223.841C145.379 224.124 143.777 224.406 142.175 224.406H140.252V236.275C140.252 236.558 140.252 236.84 140.252 237.123C140.252 237.406 140.573 237.688 140.573 237.971C140.893 238.253 140.893 238.536 141.214 238.536C141.534 238.819 141.854 239.101 141.854 239.101H142.175V239.666H134.806V239.101H135.126C135.446 239.101 135.446 239.101 135.767 238.819C136.087 238.536 136.087 238.536 136.408 238.253C136.408 237.971 136.728 237.688 136.728 237.406C136.728 237.123 136.728 236.84 136.728 236.558V211.69C136.728 211.407 136.728 210.842 136.408 210.277C136.087 209.711 135.767 209.429 135.126 209.429H134.806V208.581Z" fill="#8B4326"/>
<path d="M178.699 209.711C176.136 209.711 173.893 209.994 171.971 210.842C170.048 211.689 168.446 212.82 167.165 213.95C165.883 215.363 164.922 216.776 164.281 218.472C163.641 220.167 163.32 221.863 163.32 223.276C163.32 224.971 163.641 226.95 164.602 228.645C165.563 230.341 166.524 232.036 168.126 233.449C169.408 234.862 171.33 235.993 173.252 236.84C175.175 237.688 177.097 237.971 179.34 237.971C179.981 237.971 180.621 237.971 181.583 237.688C182.544 237.688 183.185 237.406 184.146 236.84C185.107 236.558 185.748 235.993 186.389 235.427C187.029 234.862 187.67 234.014 187.99 232.884H188.631V237.971C187.99 237.971 187.67 237.971 187.029 238.253C186.388 238.253 185.748 238.536 185.107 238.536C184.146 238.819 183.185 238.819 181.903 239.101C180.942 239.384 179.66 239.384 178.379 239.384C175.175 239.384 172.612 238.819 170.369 237.971C168.126 237.123 166.204 235.71 164.602 234.297C163 232.884 161.718 231.189 161.077 229.21C160.437 227.232 160.116 225.254 160.116 223.558C160.116 221.58 160.437 219.602 161.077 217.907C161.718 215.928 163 214.233 164.602 212.82C166.204 211.407 168.126 209.994 170.689 209.146C173.252 208.298 175.816 207.733 179.34 207.733C180.621 207.733 181.583 207.733 182.544 208.016C183.505 208.298 184.466 208.298 185.107 208.581C185.748 208.864 186.068 208.864 186.709 208.864C187.029 208.864 187.67 208.864 187.99 208.864V213.95H186.709C186.388 212.82 186.068 212.255 185.427 211.407C184.787 210.842 184.146 210.276 183.505 209.994C182.864 209.711 181.903 209.429 180.942 209.146C180.301 209.711 179.34 209.711 178.699 209.711Z" fill="#8B4326"/>
<path d="M212.02 238.253C214.263 238.253 216.506 237.688 218.428 236.84C220.351 235.993 221.632 234.862 222.914 233.449C224.195 232.036 225.156 230.623 225.477 228.928C226.118 227.232 226.438 225.819 226.438 224.124C226.438 222.428 226.118 220.733 225.477 219.037C224.836 217.341 223.875 215.646 222.593 214.233C221.312 212.82 219.71 211.69 217.787 210.842C215.865 209.994 213.943 209.429 211.7 209.429C209.457 209.429 207.535 209.711 205.933 210.842C204.331 211.69 202.729 212.82 201.447 214.233C200.166 215.646 199.205 217.059 198.564 218.754C197.923 220.45 197.603 222.146 197.603 223.559C197.603 225.254 197.923 226.95 198.884 228.645C199.525 230.341 200.807 232.036 202.088 233.449C203.37 234.862 204.972 235.993 206.894 236.84C207.855 237.971 209.778 238.253 212.02 238.253ZM212.02 208.016C214.904 208.016 217.147 208.298 219.389 209.429C221.632 210.277 223.554 211.407 225.156 212.82C226.758 214.233 227.72 215.928 228.681 217.907C229.642 219.885 229.962 221.863 229.962 223.841C229.962 226.102 229.642 228.363 228.36 230.341C227.399 232.319 226.118 234.014 224.195 235.427C222.593 236.84 220.671 237.971 218.428 238.819C216.185 239.666 213.622 239.949 211.059 239.949C208.176 239.949 205.933 239.666 203.69 238.536C201.447 237.688 199.525 236.558 198.243 235.145C196.641 233.732 195.68 232.036 194.719 230.058C193.758 228.08 193.438 226.384 193.438 224.124C193.438 222.146 193.758 220.167 194.719 218.189C195.68 216.211 196.641 214.515 198.243 213.103C199.845 211.69 201.768 210.277 204.01 209.429C206.574 208.581 209.137 208.016 212.02 208.016Z" fill="#8B4326"/>
<path d="M253.351 230.906C253.351 228.363 252.07 226.667 250.468 225.254C248.866 223.841 246.943 223.276 244.06 223.276H240.856V237.688H244.06C246.943 237.688 249.186 237.123 250.788 235.993C253.351 234.297 253.351 232.602 253.351 230.906ZM251.429 215.928C251.429 214.233 250.468 212.82 249.186 211.69C247.904 210.559 246.623 209.994 244.38 209.994H241.176V221.863H244.38C245.982 221.863 246.943 221.58 247.584 221.298C248.545 221.015 249.186 220.45 249.827 219.885C250.468 219.32 250.788 218.754 251.108 218.189C251.108 217.624 251.429 217.059 251.429 215.928ZM235.729 239.101C236.05 239.101 236.37 239.101 236.691 238.819C237.011 238.536 237.011 238.536 237.331 238.253C237.331 237.971 237.652 237.688 237.652 237.406C237.652 237.123 237.652 236.84 237.652 236.558V211.69C237.652 211.407 237.652 211.124 237.652 210.842C237.652 210.559 237.331 210.277 237.331 209.994C237.011 209.711 237.011 209.429 236.691 209.429C236.37 209.146 236.37 209.146 236.05 209.146H235.729V208.581H244.38C247.584 208.581 250.147 209.146 252.07 210.559C253.992 211.972 254.953 213.668 254.953 215.646C254.953 216.494 254.633 217.341 254.312 218.189C253.992 219.037 253.351 219.602 253.031 220.167C252.39 220.733 251.749 221.298 251.108 221.58C250.468 221.863 249.827 222.428 249.186 222.428C250.788 222.711 252.07 222.993 253.031 223.559C253.992 224.124 254.953 224.689 255.594 225.537C256.235 226.384 256.555 227.232 256.875 228.08C257.196 228.928 257.196 229.776 257.196 230.623C257.196 232.319 256.875 233.732 256.235 234.862C255.594 235.993 254.633 236.84 253.672 237.688C252.39 238.253 251.429 238.819 249.827 239.101C248.545 239.384 245.982 239.666 244.38 239.666H235.729V239.101Z" fill="#8B4326"/>
<path d="M281.225 209.711C278.662 209.711 276.42 209.994 274.497 210.842C272.575 211.689 270.973 212.82 269.691 213.95C268.41 215.363 267.449 216.776 266.808 218.472C266.167 220.167 265.847 221.863 265.847 223.276C265.847 224.971 266.167 226.95 267.128 228.645C268.089 230.341 269.051 232.036 270.652 233.449C271.934 234.862 273.856 235.993 275.779 236.84C277.701 237.688 279.624 237.971 281.866 237.971C282.507 237.971 283.148 237.971 284.109 237.688C285.07 237.688 285.711 237.406 286.672 236.84C287.633 236.558 288.274 235.993 288.915 235.427C289.556 234.862 290.197 234.014 290.517 232.884H291.158V237.971C290.517 237.971 290.197 237.971 289.556 238.253C288.915 238.253 288.274 238.536 287.633 238.536C286.672 238.819 285.711 238.819 284.429 239.101C283.148 239.384 282.187 239.384 280.905 239.384C277.701 239.384 275.138 238.819 272.895 237.971C270.653 237.123 268.73 235.71 267.128 234.297C265.526 232.884 264.245 231.189 263.604 229.21C262.963 227.232 262.322 225.254 262.322 223.558C262.322 221.58 262.643 219.602 263.604 217.907C264.245 215.928 265.526 214.233 267.128 212.82C268.73 211.407 270.653 209.994 273.216 209.146C275.779 208.298 278.342 207.733 281.866 207.733C283.148 207.733 284.109 207.733 285.07 208.016C286.031 208.298 286.993 208.298 287.633 208.581C288.274 208.864 288.595 208.864 289.235 208.864C289.556 208.864 290.197 208.864 290.517 208.864V213.95H289.876C289.556 212.82 289.235 212.255 288.595 211.407C287.954 210.842 287.313 210.276 286.672 209.994C286.031 209.711 285.07 209.429 284.109 209.146C282.827 209.711 282.187 209.711 281.225 209.711Z" fill="#8B4326"/>
<path d="M296.924 239.101C297.565 239.101 297.565 239.101 297.885 238.819C298.205 238.536 298.205 238.536 298.526 238.253C298.526 237.971 298.846 237.688 298.846 237.406C298.846 237.123 298.846 236.84 298.846 236.558V211.69C298.846 211.407 298.846 211.124 298.846 210.842C298.846 210.559 298.526 210.277 298.526 209.994C298.205 209.711 298.205 209.429 297.885 209.429C297.565 209.146 297.565 209.146 297.244 209.146H296.924V208.581H304.613V209.146H304.293C303.973 209.146 303.652 209.146 303.652 209.429C303.332 209.711 303.332 209.711 303.011 209.994C302.691 210.277 302.691 210.559 302.691 210.842C302.691 211.124 302.691 211.407 302.691 211.69V221.298L314.866 210.559C315.186 210.277 315.186 209.994 315.186 209.711C315.186 209.429 315.186 209.429 314.866 209.429V208.864H320.633V209.429C319.992 209.429 319.351 209.711 318.711 209.994C318.07 210.277 317.75 210.842 316.788 211.407L304.293 222.146C306.536 222.146 308.458 222.711 309.74 223.559C311.021 224.406 312.303 225.537 313.264 226.95L317.429 234.297C317.75 234.862 318.07 235.427 318.39 235.71C318.711 236.275 319.352 236.84 319.672 237.406C320.313 237.971 320.633 238.253 321.274 238.536C321.915 238.819 322.555 239.101 323.196 239.101V239.666H320.633C319.672 239.666 318.711 239.384 318.07 239.384C317.429 239.101 316.788 238.819 316.148 238.253C315.507 237.688 315.186 237.406 314.866 236.84C314.546 236.275 314.225 235.71 313.905 235.145L309.419 227.515C308.778 226.384 307.817 225.537 306.536 224.971C305.254 224.406 303.973 224.124 302.371 224.124V236.275C302.371 236.558 302.371 236.84 302.371 237.123C302.371 237.406 302.691 237.688 302.691 237.971C302.691 238.253 303.011 238.536 303.332 238.536C303.652 238.819 303.652 238.819 303.973 238.819H304.293V239.384H296.604L296.924 239.101Z" fill="#8B4326"/>
<path d="M348.83 239.101C349.47 239.101 349.47 239.101 349.791 238.819C350.111 238.536 350.111 238.536 350.432 238.253C350.752 237.971 350.752 237.688 350.752 237.406C350.752 237.123 350.752 236.84 350.752 236.558V215.081L333.13 235.993V236.275C333.13 236.558 333.13 236.84 333.13 237.123C333.13 237.406 333.451 237.688 333.451 237.971C333.771 238.253 333.771 238.536 334.091 238.536C334.412 238.819 334.412 238.819 334.732 238.819H335.053V239.384H327.684V239.101H328.004C328.324 239.101 328.645 239.101 328.645 238.819C328.965 238.536 328.965 238.536 329.286 238.253C329.286 237.971 329.606 237.688 329.606 237.406C329.606 237.123 329.606 236.84 329.606 236.558V211.69C329.606 211.407 329.606 211.124 329.606 210.842C329.606 210.559 329.286 210.277 329.286 209.994C328.965 209.711 328.965 209.429 328.645 209.429C328.324 209.146 328.324 209.146 328.004 209.146H327.684V208.581H335.053V209.146H334.732C334.412 209.146 334.412 209.429 334.091 209.429C333.771 209.711 333.771 209.711 333.451 209.994C333.451 210.277 333.13 210.559 333.13 210.842C333.13 211.124 333.13 211.407 333.13 211.69V233.449L350.752 212.537V211.972C350.752 211.69 350.752 211.407 350.752 211.124C350.752 210.842 350.432 210.559 350.432 210.277C350.111 209.994 350.111 209.711 349.791 209.711C349.47 209.429 349.47 209.429 349.15 209.429H348.83V208.864H356.199V209.429H355.878C355.558 209.429 355.237 209.429 355.237 209.711C354.917 209.994 354.917 209.994 354.597 210.277C354.597 210.559 354.276 210.842 354.276 211.124C354.276 211.407 354.276 211.69 354.276 211.972V236.275C354.276 236.558 354.276 236.84 354.276 237.123C354.276 237.406 354.597 237.688 354.597 237.971C354.597 238.253 354.917 238.536 355.237 238.536C355.558 238.819 355.558 238.819 355.878 238.819H356.199V239.384H348.83V239.101Z" fill="#8B4326"/>
<path d="M382.789 202.364C382.789 202.929 382.789 203.494 382.469 204.059C382.149 204.625 381.828 205.19 381.187 205.755C380.867 206.32 379.906 206.603 379.265 206.885C378.624 207.168 377.663 207.451 376.702 207.451C375.741 207.451 375.1 207.168 374.459 206.885C373.818 206.603 373.178 206.32 372.537 205.755C371.896 205.19 371.576 204.907 371.255 204.059C370.935 203.494 370.935 202.929 370.935 202.364H371.255C371.255 202.646 371.576 202.929 371.576 203.212C371.896 203.494 372.216 203.777 372.537 204.342C372.857 204.625 373.498 204.907 374.139 205.19C374.78 205.472 375.741 205.472 376.702 205.472C377.983 205.472 378.624 205.472 379.265 205.19C379.906 204.907 380.547 204.625 380.867 204.342C381.187 204.059 381.508 203.777 381.828 203.212C382.149 202.929 382.149 202.646 382.149 202.364H382.789ZM383.43 239.101C384.071 239.101 384.071 239.101 384.391 238.819C384.712 238.536 384.712 238.536 385.032 238.253C385.353 237.971 385.353 237.688 385.353 237.406C385.353 237.123 385.353 236.84 385.353 236.558V215.081L367.731 235.993V236.275C367.731 236.558 367.731 236.84 367.731 237.123C367.731 237.406 368.051 237.688 368.051 237.971C368.372 238.253 368.372 238.536 368.692 238.536C369.012 238.819 369.012 238.819 369.333 238.819H369.653V239.384H362.284V239.101H362.605C362.925 239.101 363.245 239.101 363.245 238.819C363.566 238.536 363.566 238.536 363.886 238.253C363.886 237.971 364.207 237.688 364.207 237.406C364.207 237.123 364.207 236.84 364.207 236.558V211.69C364.207 211.407 364.207 211.124 364.207 210.842C364.207 210.559 363.886 210.277 363.886 209.994C363.886 209.711 363.566 209.429 363.245 209.429C362.925 209.146 362.925 209.146 362.605 209.146H362.284V208.581H369.653V209.146H369.333C369.012 209.146 368.692 209.429 368.692 209.429C368.372 209.711 368.372 209.711 368.051 209.994C368.051 210.277 367.731 210.559 367.731 210.842C367.731 211.124 367.731 211.407 367.731 211.69V233.449L385.353 212.537V211.972C385.353 211.69 385.353 211.407 385.353 211.124C385.353 210.842 385.032 210.559 385.032 210.277C384.712 209.994 384.712 209.711 384.391 209.711C384.071 209.429 384.071 209.429 383.751 209.429H383.43V208.864H390.799V209.429H390.479C390.158 209.429 389.838 209.429 389.838 209.711C389.518 209.994 389.518 209.994 389.197 210.277C389.197 210.559 388.877 210.842 388.877 211.124C388.877 211.407 388.877 211.69 388.877 211.972V236.275C388.877 236.558 388.877 236.84 388.877 237.123C388.877 237.406 389.197 237.688 389.197 237.971C389.197 238.253 389.518 238.536 389.838 238.536C390.158 238.819 390.158 238.819 390.479 238.819H390.799V239.384H383.43V239.101Z" fill="#8B4326"/>
<path d="M105.329 294.207C109.494 294.207 112.378 292.512 113.339 291.946C114.3 291.381 114.941 290.533 115.261 289.686C115.582 288.838 115.902 287.99 115.902 286.86C115.902 284.599 114.941 282.621 113.019 281.208C111.096 279.795 108.533 278.947 105.009 278.947H103.407V293.642H105.329V294.207ZM97.6396 295.055C98.2804 295.055 98.2804 295.055 98.6008 294.772C98.9212 294.49 98.9212 294.49 99.2416 294.207C99.562 293.925 99.562 293.642 99.562 293.359C99.562 293.077 99.562 292.794 99.562 292.512V267.361C99.562 267.078 99.562 266.795 99.562 266.513C99.562 266.23 99.2416 265.948 99.2416 265.665C99.2416 265.383 98.9212 265.1 98.6008 265.1C98.2804 264.817 98.2804 264.817 97.96 264.817H97.6396V264.252H117.184V268.774H116.543C116.543 267.926 116.222 267.361 115.582 266.795C114.941 266.23 114.3 265.948 113.019 265.948H103.407V277.251H105.97C107.572 277.251 109.174 277.534 110.776 277.534C112.378 277.817 113.98 278.382 115.261 278.947C116.543 279.512 117.504 280.643 118.465 281.773C119.106 282.903 119.747 284.316 119.747 286.012C119.747 287.425 119.426 288.555 118.786 289.686C118.145 290.816 117.504 291.664 116.222 292.512C115.261 293.359 113.98 293.925 112.378 294.207C110.776 294.772 109.174 294.772 107.572 294.772H97.96L97.6396 295.055Z" fill="#8B4326"/>
<path d="M123.271 264.817H130.641V265.383H130.32C130 265.383 129.679 265.383 129.679 265.665C129.679 265.948 129.359 265.948 129.359 266.23C129.359 266.513 129.359 266.513 129.359 266.795V267.078L138.65 284.316L146.66 267.361C146.66 267.361 146.66 267.078 146.981 267.078C146.981 266.795 146.981 266.795 146.981 266.513C146.981 266.23 146.66 265.665 146.34 265.665C146.019 265.383 145.699 265.383 145.699 265.383V264.817H151.466V265.383C150.825 265.383 150.505 265.665 149.864 265.948C149.544 266.23 149.223 266.513 149.223 266.795L136.408 293.642C136.087 294.49 135.446 295.338 134.806 295.62C134.165 295.903 133.204 296.185 132.563 296.185C131.922 296.185 131.602 296.185 131.281 295.903C130.961 295.62 130.641 295.62 130 295.338C129.679 295.055 129.359 294.772 129.039 294.49L130.32 291.946C130.641 292.512 130.961 293.077 131.602 293.359C132.243 293.642 132.563 293.925 132.883 293.925C133.204 293.925 133.524 293.925 133.844 293.642C134.165 293.359 134.485 293.077 134.806 292.794L136.728 288.273L125.514 266.795C125.194 265.948 124.233 265.383 123.271 265.383V264.817Z" fill="#8B4326"/>
<path d="M159.796 292.229C158.835 294.207 157.554 295.62 155.311 295.62H153.709V295.055C155.631 295.055 156.272 294.207 156.593 293.925C156.913 293.642 157.554 292.512 157.874 291.946L167.806 267.643C168.127 267.078 168.127 266.795 168.127 266.513C168.127 265.948 167.806 265.665 167.806 265.383C167.486 265.1 167.166 265.1 166.845 265.1V264.535H171.331L183.185 293.077C183.506 293.642 183.826 293.925 184.146 294.207C184.467 294.49 185.108 294.772 185.748 294.772V295.338H178.059V294.772C178.379 294.772 178.7 294.772 179.02 294.49C179.34 294.207 179.34 293.925 179.34 293.642V293.359L169.408 269.056L159.796 292.229Z" fill="#8B4326"/>
<path d="M196.962 294.207C201.127 294.207 204.01 293.359 205.933 292.229C207.855 291.099 208.496 289.12 208.496 287.142C208.496 284.882 207.535 283.186 205.933 281.773C204.01 280.36 201.447 279.795 197.923 279.795H196.321V294.49H196.962V294.207ZM190.554 295.055C191.835 295.055 192.476 293.925 192.476 292.512V267.361C192.476 267.078 192.476 266.795 192.476 266.513C192.476 266.23 192.156 265.948 192.156 265.665C191.835 265.383 191.835 265.1 191.515 265.1C191.195 264.817 191.195 264.817 190.874 264.817H190.554V264.252H197.923V264.817H197.602C196.962 264.817 196.641 265.1 196.321 265.948C196 266.513 196 267.078 196 267.643V277.817H198.884C200.486 277.817 202.088 278.099 203.69 278.382C205.292 278.664 206.573 279.23 207.855 279.795C209.137 280.36 210.098 281.49 210.739 282.621C211.379 283.751 211.7 285.164 211.7 286.86C211.7 288.273 211.379 289.403 210.739 290.533C210.098 291.664 209.137 292.512 208.175 293.359C207.214 294.207 205.612 294.772 204.331 295.055C202.729 295.62 201.127 295.62 199.525 295.62H190.233V295.055H190.554Z" fill="#8B4326"/>
<path d="M235.409 287.142C235.088 284.882 234.127 282.903 232.525 281.49C230.923 280.077 228.681 279.512 226.117 279.512H223.234V294.207H226.438C229.321 294.207 231.564 293.642 233.166 292.512C234.768 291.381 235.729 289.686 235.729 287.707V287.142H235.409ZM233.166 272.165C233.166 270.469 232.205 269.056 230.923 267.926C229.642 266.795 227.719 266.23 225.477 266.23H222.914V278.099H225.797C227.399 278.099 228.681 277.817 229.321 277.534C230.283 277.251 230.923 276.686 231.564 276.121C232.205 275.556 232.525 274.991 232.846 274.426C233.166 273.86 233.166 273.013 233.166 272.165ZM217.467 295.055C218.748 295.055 219.389 294.207 219.389 292.512V267.643C219.389 267.361 219.389 267.078 219.389 266.795C219.389 266.513 219.069 266.23 219.069 265.948C218.748 265.665 218.748 265.383 218.428 265.383C218.108 265.1 218.108 265.1 217.787 265.1H217.467V264.535H226.117C229.321 264.535 231.885 265.1 233.807 266.513C235.729 267.926 236.69 269.339 236.69 271.6C236.69 272.447 236.37 273.295 236.05 274.143C235.729 274.991 235.088 275.556 234.768 276.121C234.127 276.686 233.486 277.251 232.846 277.534C232.205 277.817 231.564 278.382 230.923 278.382C232.525 278.664 233.486 278.947 234.768 279.512C235.729 280.077 236.69 280.643 237.331 281.49C237.972 282.338 238.292 283.186 238.613 284.034C238.933 284.882 238.933 285.729 238.933 286.577C238.933 288.273 238.613 289.686 237.972 290.816C237.331 291.946 236.37 292.794 235.409 293.642C234.448 294.207 233.166 294.772 231.564 295.055C230.283 295.338 228.681 295.62 227.079 295.62H217.467C217.467 295.62 217.467 295.055 217.467 295.055Z" fill="#8B4326"/>
<path d="M252.71 280.36H260.719L256.554 270.469L252.71 280.36ZM264.884 295.055C265.846 295.055 266.486 294.772 266.486 293.925C266.486 293.642 266.486 293.359 266.166 293.077L261.36 281.773H252.069L247.583 293.077C247.583 293.359 247.263 293.642 247.263 293.642C247.263 293.925 247.263 294.49 247.583 294.49C247.904 294.772 248.224 294.772 248.224 294.772H248.544V295.337H242.777V294.772H243.098C243.418 294.772 244.059 294.49 244.379 293.925C244.7 293.359 245.341 292.794 245.341 292.229L257.515 263.687L269.37 291.946C269.69 292.512 270.011 293.077 270.331 293.642C270.972 294.207 271.292 294.49 271.933 294.49H272.254V295.055H264.564H264.884Z" fill="#8B4326"/>
<path d="M282.507 266.23V278.947H284.109C285.391 278.947 286.993 278.664 287.954 278.382C288.915 278.099 289.876 277.534 290.837 276.969C291.478 276.404 292.119 275.839 292.439 274.991C292.76 274.143 293.08 273.578 293.08 272.73C293.08 271.882 292.76 271.034 292.439 270.187C292.119 269.339 291.478 268.774 290.837 268.208C290.197 267.643 288.915 267.078 287.954 266.795C286.672 266.513 285.07 266.23 283.468 266.23H282.507ZM277.061 264.817H284.43C288.274 264.817 291.478 265.383 293.401 266.795C295.323 268.208 296.605 269.904 296.605 272.447C296.605 273.86 296.284 274.991 295.643 275.839C295.003 276.969 294.041 277.817 292.76 278.382C291.478 278.947 290.197 279.512 288.915 280.077C287.634 280.36 286.032 280.643 284.75 280.643H282.828V292.512C282.828 292.794 282.828 293.077 282.828 293.359C282.828 293.642 283.148 293.925 283.148 294.207C283.468 294.49 283.468 294.772 283.789 294.772C284.109 295.055 284.109 295.055 284.43 295.055H284.75V295.62H277.381V295.055H277.701C278.022 295.055 278.342 295.055 278.342 294.772C278.663 294.49 278.663 294.49 278.983 294.207C278.983 293.925 279.303 293.642 279.303 293.359C279.303 293.077 279.303 292.794 279.303 292.512V267.643C279.303 267.361 279.303 266.795 278.983 266.23C278.663 265.665 278.342 265.383 277.701 265.383H277.381L277.061 264.817Z" fill="#8B4326"/>
</g>
<defs>
<clipPath id="clip0">
<rect x="0.880859" y="0.425079" width="390.239" height="295.76" fill="white"/>
</clipPath>
</defs>
</svg>
