<svg width="22" height="16" viewBox="0 0 22 16" fill="none" xmlns="http://www.w3.org/2000/svg">
<path d="M11 0.572754C6 0.572754 1.73 3.68275 0 8.07275C1.73 12.4628 6 15.5728 11 15.5728C16 15.5728 20.27 12.4628 22 8.07275C20.27 3.68275 16 0.572754 11 0.572754ZM11 13.0728C8.24 13.0728 6 10.8328 6 8.07275C6 5.31275 8.24 3.07275 11 3.07275C13.76 3.07275 16 5.31275 16 8.07275C16 10.8328 13.76 13.0728 11 13.0728ZM11 5.07275C9.34 5.07275 8 6.41275 8 8.07275C8 9.73275 9.34 11.0728 11 11.0728C12.66 11.0728 14 9.73275 14 8.07275C14 6.41275 12.66 5.07275 11 5.07275Z" fill="#8B4326"/>
</svg>
