<svg width="32" height="33" viewBox="0 0 32 33" fill="none" xmlns="http://www.w3.org/2000/svg">
<path d="M20.667 1.41663H10.0003C8.16033 1.41663 6.66699 2.90996 6.66699 4.74996V27.4166C6.66699 29.2566 8.16033 30.75 10.0003 30.75H20.667C22.507 30.75 24.0003 29.2566 24.0003 27.4166V4.74996C24.0003 2.90996 22.507 1.41663 20.667 1.41663ZM15.3337 29.4166C14.227 29.4166 13.3337 28.5233 13.3337 27.4166C13.3337 26.31 14.227 25.4166 15.3337 25.4166C16.4403 25.4166 17.3337 26.31 17.3337 27.4166C17.3337 28.5233 16.4403 29.4166 15.3337 29.4166ZM21.3337 24.0833H9.33366V5.41663H21.3337V24.0833Z" fill="#8B4326"/>
</svg>
