<svg width="60" height="56" viewBox="0 0 60 56" fill="none" xmlns="http://www.w3.org/2000/svg">
<g clip-path="url(#clip0)">
<path d="M25.8 24.9499C25.7 24.9499 25.6 24.9499 25.6 24.8499L0.8 11.4499C0.6 11.4499 0.5 11.2499 0.5 11.0499C0.5 10.8499 0.6 10.6499 0.8 10.6499L25.6 0.149902C25.7 0.149902 25.8 0.149902 25.9 0.149902L37.6 4.9499C37.8 5.0499 37.9 5.2499 37.9 5.4499C37.9 5.6499 37.8 5.8499 37.6 5.9499L32.5 7.8499V9.5499C32.5 9.7499 32.4 9.9499 32.2 10.0499L27.7 12.0499L38.8 17.5499C39 17.6499 39.1 17.8499 39.1 17.9499C39.1 18.1499 39 18.3499 38.8 18.3499L26.1 24.8499C25.9 24.9499 25.8 24.9499 25.8 24.9499ZM2.2 11.1499L25.8 23.9499L37.4 18.0499L26.3 12.4499C26.1 12.3499 26 12.1499 26 11.9499C26 11.7499 26.1 11.5499 26.3 11.5499L31.5 9.2499V7.4499C31.5 7.2499 31.6 7.0499 31.8 6.9499L36.1 5.3499L25.8 1.1499L2.2 11.1499Z" fill="#B0B0B0"/>
<path d="M25.8 55.95C25.7 55.95 25.6 55.95 25.5 55.85L0.7 40.75C0.6 40.65 0.5 40.45 0.5 40.35V11.05C0.5 10.85 0.6 10.75 0.7 10.65C0.9 10.55 1 10.55 1.2 10.65L26 24.05C26.2 24.15 26.3 24.3499 26.3 24.45V55.45C26.3 55.65 26.2 55.75 26 55.85C25.9 55.85 25.8 55.95 25.8 55.95ZM1.5 40.05L25.3 54.55V24.75L1.5 11.85V40.05Z" fill="#B0B0B0"/>
<path d="M25.7998 55.9499C25.6998 55.9499 25.5998 55.9499 25.5998 55.8499C25.3998 55.7499 25.2998 55.5499 25.2998 55.4499V24.4499C25.2998 24.2499 25.3998 24.0499 25.5998 24.0499L38.2998 17.5499C38.4998 17.4499 38.5998 17.4499 38.7998 17.5499C38.8998 17.6499 38.9998 17.8499 38.9998 17.9499V32.2499L43.6998 29.9499C43.7998 29.8499 43.9998 29.8499 44.1998 29.9499L46.3998 31.1499L50.9998 28.6499C51.1998 28.5499 51.2998 28.5499 51.4998 28.6499C51.6998 28.7499 51.6998 28.9499 51.6998 29.0499V39.7499C51.6998 39.9499 51.5998 40.0499 51.4998 40.1499L25.9998 55.8499C25.8998 55.8499 25.7998 55.9499 25.7998 55.9499ZM26.2998 24.7499V54.5499L50.7998 39.5499V29.9499L46.5998 32.1499C46.3998 32.2499 46.2998 32.2499 46.0998 32.1499L43.8998 30.9499L38.6998 33.5499C38.4998 33.6499 38.3998 33.6499 38.1998 33.5499C38.0998 33.4499 37.9998 33.2499 37.9998 33.1499V18.7499L26.2998 24.7499Z" fill="#B0B0B0"/>
<path d="M46.4004 32.1499C46.3004 32.1499 46.2004 32.1499 46.2004 32.0499L38.3004 27.6499C38.1004 27.5499 38.0004 27.3499 38.0004 27.2499V18.2499L31.7004 15.1499C31.5004 15.0499 31.4004 14.8499 31.4004 14.7499V7.44985C31.4004 7.24985 31.5004 7.14985 31.6004 7.04985C31.7004 6.94985 31.9004 6.94985 32.1004 7.04985L46.5004 13.7499C46.7004 13.8499 46.8004 14.0499 46.8004 14.2499V31.7499C46.8004 31.9499 46.7004 32.0499 46.6004 32.1499C46.5004 32.1499 46.4004 32.1499 46.4004 32.1499ZM39.0004 26.9499L45.9004 30.8499V14.5499L32.4004 8.24985V14.3499L38.7004 17.4499C38.9004 17.5499 39.0004 17.7499 39.0004 17.8499V26.9499Z" fill="#8B4326"/>
<path d="M46.4004 14.6499C46.3004 14.6499 46.3004 14.6499 46.2004 14.6499L31.7004 7.9499C31.5004 7.8499 31.4004 7.6499 31.4004 7.4499C31.4004 7.2499 31.5004 7.0499 31.7004 7.0499L45.0004 2.1499C45.1004 2.1499 45.2004 2.1499 45.4004 2.1499L59.7004 7.6499C59.9004 7.7499 60.0004 7.8499 60.0004 8.1499C60.0004 8.3499 59.9004 8.5499 59.7004 8.6499L46.6004 14.7499C46.5004 14.6499 46.4004 14.6499 46.4004 14.6499ZM33.2004 7.5499L46.3004 13.6499L58.2004 8.1499L45.2004 3.1499L33.2004 7.5499Z" fill="#8B4326"/>
<path d="M46.4004 32.1499C46.3004 32.1499 46.2004 32.1499 46.1004 32.0499C45.9004 31.9499 45.9004 31.7499 45.9004 31.6499V14.1499C45.9004 13.9499 46.0004 13.7499 46.2004 13.6499L59.3004 7.54985C59.5004 7.44985 59.6004 7.44985 59.8004 7.54985C59.9004 7.64985 60.0004 7.84985 60.0004 7.94985V24.5499C60.0004 24.7499 59.9004 24.9499 59.7004 24.9499L46.6004 31.9499C46.5004 32.1499 46.4004 32.1499 46.4004 32.1499ZM46.9004 14.5499V30.8499L59.0004 24.4499V8.94985L46.9004 14.5499Z" fill="#8B4326"/>
</g>
<defs>
<clipPath id="clip0">
<rect x="0.5" y="0.149902" width="59.5" height="55.8" fill="white"/>
</clipPath>
</defs>
</svg>
