<svg width="55" height="61" viewBox="0 0 55 61" fill="none" xmlns="http://www.w3.org/2000/svg">
<g clip-path="url(#clip0)">
<path d="M27.7002 31.7498C27.6002 31.7498 27.5002 31.7498 27.4002 31.6498C27.3002 31.5498 27.2002 31.4498 27.2002 31.2498V12.4498C27.2002 12.2498 27.3002 12.0498 27.5002 11.9498L40.9002 5.7498C41.1002 5.6498 41.2002 5.6498 41.4002 5.7498C41.5002 5.9498 41.6002 6.1498 41.6002 6.2498V25.1498C41.6002 25.3498 41.5002 25.5498 41.3002 25.6498L27.9002 31.8498C27.8002 31.7498 27.8002 31.7498 27.7002 31.7498ZM28.2002 12.7498V30.4498L40.6002 24.7498V7.0498L28.2002 12.7498Z" fill="#B0B0B0"/>
<path d="M27.6998 23.5499C27.5998 23.5499 27.5998 23.5499 27.4998 23.5499L14.0998 17.3499C13.8998 17.2499 13.7998 17.0499 13.7998 16.8499V6.2499C13.7998 6.0499 13.8998 5.9499 13.9998 5.8499C14.0998 5.7499 14.2998 5.7499 14.4998 5.8499L27.8998 12.0499C28.0998 12.1499 28.1998 12.3499 28.1998 12.5499V23.1499C28.1998 23.3499 28.0998 23.4499 27.9998 23.5499C27.8998 23.5499 27.7998 23.5499 27.6998 23.5499ZM14.8998 16.5499L27.2998 22.2499V12.7499L14.8998 7.0499V16.5499Z" fill="#B0B0B0"/>
<path d="M14.4004 45.15C14.3004 45.15 14.2004 45.15 14.1004 45.05C14.0004 44.95 13.9004 44.85 13.9004 44.65V29.25C13.9004 29.05 14.0004 28.85 14.2004 28.75L27.5004 22.65C27.7004 22.55 27.8004 22.55 28.0004 22.65C28.1004 22.75 28.2004 22.85 28.2004 23.05V38.45C28.2004 38.65 28.1004 38.85 27.9004 38.95L14.5004 45.15H14.4004ZM14.9004 29.55V43.85L27.2004 38.15V23.85L14.9004 29.55Z" fill="#8B4326"/>
<path d="M41.1002 45.1499C41.0002 45.1499 41.0002 45.1499 40.9002 45.1499L27.5002 38.9499C27.3002 38.8499 27.2002 38.6499 27.2002 38.4499V31.2499C27.2002 31.0499 27.3002 30.9499 27.4002 30.8499C27.5002 30.7499 27.7002 30.7499 27.9002 30.8499L41.3002 37.0499C41.5002 37.1499 41.6002 37.3499 41.6002 37.5499V44.7499C41.6002 44.9499 41.5002 45.0499 41.4002 45.1499C41.2002 45.1499 41.1002 45.1499 41.1002 45.1499ZM28.2002 38.1499L40.6002 43.8499V37.7499L28.2002 32.0499V38.1499Z" fill="#8B4326"/>
<path d="M41.0996 53.35C40.9996 53.35 40.8996 53.35 40.7996 53.25C40.5996 53.15 40.5996 52.95 40.5996 52.85V37.45C40.5996 37.25 40.6996 37.05 40.8996 37.05L54.1996 30.15C54.3996 30.05 54.4996 30.05 54.6996 30.15C54.7996 30.25 54.8996 30.45 54.8996 30.55V45.2499C54.8996 45.4499 54.7996 45.55 54.5996 45.65L41.1996 53.15C41.1996 53.35 41.0996 53.35 41.0996 53.35ZM41.5996 37.7499V51.95L53.9996 44.95V31.45L41.5996 37.7499Z" fill="#B0B0B0"/>
<path d="M27.7002 60.85C27.6002 60.85 27.5002 60.85 27.4002 60.75C27.2002 60.65 27.2002 60.45 27.2002 60.35V51.45C27.2002 51.25 27.3002 51.05 27.5002 51.05L40.8002 44.15C41.0002 44.05 41.1002 44.05 41.3002 44.15C41.4002 44.25 41.5002 44.45 41.5002 44.55V52.7499C41.5002 52.9499 41.4002 53.05 41.2002 53.15L27.8002 60.65C27.9002 60.85 27.8002 60.85 27.7002 60.85ZM28.2002 51.7499V59.45L40.6002 52.45V45.35L28.2002 51.7499Z" fill="#8B4326"/>
<path d="M14.4 53.35C14.3 53.35 14.2 53.35 14.2 53.25L0.8 45.75C0.6 45.65 0.5 45.55 0.5 45.35V23.05C0.5 22.85 0.6 22.75 0.7 22.65C0.8 22.55 1 22.55 1.2 22.65L14.6 28.85C14.8 28.95 14.9 29.15 14.9 29.35V52.95C14.9 53.15 14.8 53.25 14.7 53.35C14.5 53.35 14.4 53.35 14.4 53.35ZM1.5 45.05L13.9 52.05V29.55L1.5 23.85V45.05Z" fill="#8B4326"/>
<path d="M27.6998 60.8498C27.5998 60.8498 27.4998 60.8498 27.4998 60.7498L14.0998 53.2498C13.8998 53.1498 13.7998 52.9498 13.7998 52.8498V44.6498C13.7998 44.4498 13.8998 44.3498 13.9998 44.2498C14.0998 44.1498 14.2998 44.1498 14.4998 44.2498L27.8998 51.0498C28.0998 51.1498 28.1998 51.3498 28.1998 51.4498V60.3498C28.1998 60.5498 28.0998 60.6498 27.9998 60.7498C27.8998 60.8498 27.7998 60.8498 27.6998 60.8498ZM14.8998 52.5498L27.2998 59.5498V51.8498L14.8998 45.5498V52.5498Z" fill="#8B4326"/>
<path d="M27.6998 51.9499C27.5998 51.9499 27.4998 51.9499 27.4998 51.8499L14.0998 45.0499C13.8998 44.9499 13.7998 44.7499 13.7998 44.5499C13.7998 44.3499 13.8998 44.1499 14.0998 44.1499L27.4998 38.0499C27.5998 37.9499 27.7998 37.9499 27.8998 38.0499L41.2998 44.1499C41.4998 44.2499 41.5998 44.4499 41.5998 44.5499C41.5998 44.7499 41.4998 44.9499 41.2998 45.0499L27.8998 51.8499C27.8998 51.9499 27.7998 51.9499 27.6998 51.9499ZM15.4998 44.6499L27.6998 50.9499L39.8998 44.6499L27.6998 39.0499L15.4998 44.6499Z" fill="#8B4326"/>
<path d="M14.4 29.7499C14.3 29.7499 14.3 29.7499 14.2 29.7499L0.8 23.5499C0.6 23.4499 0.5 23.2499 0.5 23.0499C0.5 22.8499 0.6 22.6499 0.8 22.5499L14.2 16.3499C14.3 16.2499 14.5 16.2499 14.6 16.3499L28 22.5499C28.2 22.6499 28.3 22.8499 28.3 23.0499C28.3 23.2499 28.2 23.4499 28 23.5499L14.6 29.7499C14.5 29.7499 14.4 29.7499 14.4 29.7499ZM2.2 23.0499L14.4 28.6499L26.5 23.0499L14.3 17.4499L2.2 23.0499Z" fill="#8B4326"/>
<path d="M41.1002 37.9499C41.0002 37.9499 41.0002 37.9499 40.9002 37.9499L27.5002 31.7499C27.3002 31.6499 27.2002 31.4499 27.2002 31.2499C27.2002 31.0499 27.3002 30.8499 27.5002 30.7499L40.9002 24.5499C41.0002 24.4499 41.2002 24.4499 41.3002 24.5499L54.6002 30.1499C54.8002 30.2499 54.9002 30.3499 54.9002 30.5499C54.9002 30.7499 54.8002 30.9499 54.6002 31.0499L41.2002 37.8499C41.2002 37.9499 41.1002 37.9499 41.1002 37.9499ZM28.9002 31.2499L41.0002 36.8499L53.2002 30.6499L41.1002 25.6499L28.9002 31.2499Z" fill="#B0B0B0"/>
<path d="M27.6998 12.9499C27.5998 12.9499 27.5998 12.9499 27.4998 12.9499L14.0998 6.7499C13.8998 6.6499 13.7998 6.4499 13.7998 6.2499C13.7998 6.0499 13.8998 5.8499 14.0998 5.7499L27.4998 0.149902C27.5998 0.149902 27.7998 0.149902 27.8998 0.149902L41.2998 5.7499C41.4998 5.8499 41.5998 6.0499 41.5998 6.2499C41.5998 6.4499 41.4998 6.6499 41.2998 6.7499L27.8998 12.9499C27.7998 12.9499 27.7998 12.9499 27.6998 12.9499ZM15.5998 6.3499L27.6998 11.9499L39.7998 6.3499L27.6998 1.1499L15.5998 6.3499Z" fill="#B0B0B0"/>
</g>
<defs>
<clipPath id="clip0">
<rect x="0.5" y="0.149902" width="54.4" height="60.7" fill="white"/>
</clipPath>
</defs>
</svg>
