<svg width="56" height="60" viewBox="0 0 56 60" fill="none" xmlns="http://www.w3.org/2000/svg">
<g clip-path="url(#clip0)">
<path d="M31.3996 58.6499H31.2996L3.49961 50.8499C3.29961 50.7499 3.09961 50.5499 3.09961 50.3499V16.3499C3.09961 16.1499 3.19961 16.0499 3.29961 15.9499C3.39961 15.8499 3.59961 15.8499 3.69961 15.8499L7.89961 17.2499C8.09961 17.3499 8.19961 17.5499 8.19961 17.7499V46.8499L31.4996 53.3499C31.6996 53.4499 31.8996 53.6499 31.8996 53.8499V58.1499C31.8996 58.3499 31.7996 58.4499 31.6996 58.5499C31.5996 58.5499 31.4996 58.6499 31.3996 58.6499ZM4.19961 50.0499L30.8996 57.4499V54.1499L7.69961 47.6499C7.49961 47.5499 7.29961 47.3499 7.29961 47.1499V18.0499L4.09961 17.0499V50.0499H4.19961Z" fill="#B0B0B0"/>
<path d="M41.7004 53.75C41.6004 53.75 41.6004 53.75 41.5004 53.75L13.2004 44.75C13.0004 44.65 12.9004 44.45 12.9004 44.25V8.54995C12.9004 8.34995 13.0004 8.24995 13.2004 8.14995C13.4004 8.04995 13.5004 8.04995 13.7004 8.14995L17.5004 10.45C17.6004 10.55 17.7004 10.75 17.7004 10.85V40.75L41.8004 48.45C42.0004 48.5499 42.1004 48.75 42.1004 48.95V53.25C42.1004 53.45 42.0004 53.55 41.9004 53.65C41.9004 53.75 41.8004 53.75 41.7004 53.75ZM13.9004 43.85L41.2004 52.55V49.25L17.1004 41.55C16.9004 41.45 16.8004 41.25 16.8004 41.05V11.15L14.0004 9.44995V43.85H13.9004Z" fill="#B0B0B0"/>
<path d="M54.8002 48.0498C54.7002 48.0498 54.7002 48.0498 54.6002 48.0498L24.5002 37.6498C24.3002 37.5498 24.2002 37.3498 24.2002 37.1498V0.649805C24.2002 0.449805 24.3002 0.349805 24.4002 0.249805C24.5002 0.149805 24.7002 0.149805 24.9002 0.249805L53.6002 15.9498C53.8002 16.0498 53.9002 16.1498 53.9002 16.3498L55.4002 47.6498C55.4002 47.8498 55.3002 47.9498 55.2002 48.0498C55.1002 48.0498 55.0002 48.0498 54.8002 48.0498ZM25.1002 36.7498L54.3002 46.8498L52.8002 16.6498L25.1002 1.4498V36.7498Z" fill="#8B4326"/>
<path d="M17.2002 41.6498C17.1002 41.6498 17.0002 41.6498 16.9002 41.5498C16.7002 41.4498 16.7002 41.2498 16.7002 41.1498V6.1498C16.7002 5.9498 16.8002 5.8498 16.9002 5.7498L24.3002 0.249805C24.5002 0.149805 24.7002 0.149805 24.9002 0.249805C25.1002 0.349805 25.2002 0.549805 25.2002 0.649805V37.1498C25.2002 37.3498 25.1002 37.5498 24.9002 37.5498L17.5002 41.5498C17.4002 41.6498 17.3002 41.6498 17.2002 41.6498ZM17.7002 6.4498V40.3498L24.1002 36.8498V1.6498L17.7002 6.4498Z" fill="#8B4326"/>
<path d="M47.4002 51.2498C47.3002 51.2498 47.3002 51.2498 47.2002 51.2498L17.0002 41.6498C16.8002 41.5498 16.7002 41.4498 16.7002 41.2498C16.7002 41.0498 16.8002 40.8498 17.0002 40.7498L24.4002 36.7498C24.5002 36.6498 24.7002 36.6498 24.8002 36.7498L55.0002 47.1498C55.2002 47.2498 55.3002 47.3498 55.3002 47.6498C55.3002 47.8498 55.2002 48.0498 55.0002 48.1498L47.5002 51.3498C47.5002 51.2498 47.4002 51.2498 47.4002 51.2498ZM18.5002 41.0498L47.4002 50.2498L53.5002 47.6498L24.7002 37.6498L18.5002 41.0498Z" fill="#8B4326"/>
<path d="M7.7998 47.75C7.6998 47.75 7.5998 47.75 7.4998 47.65C7.2998 47.55 7.2998 47.3499 7.2998 47.25V12.75C7.2998 12.55 7.3998 12.45 7.4998 12.35L13.0998 8.14995C13.2998 8.04995 13.4998 8.04995 13.5998 8.14995C13.7998 8.24995 13.8998 8.44995 13.8998 8.54995V44.25C13.8998 44.45 13.7998 44.65 13.5998 44.65L7.9998 47.65C7.9998 47.65 7.8998 47.75 7.7998 47.75ZM8.2998 12.95V46.35L12.8998 43.95V9.54995L8.2998 12.95Z" fill="#B0B0B0"/>
<path d="M36.7998 55.8499H36.6998L7.6998 47.7499C7.4998 47.6499 7.3998 47.5499 7.2998 47.3499C7.2998 47.1499 7.3998 46.9499 7.5998 46.8499L13.1998 43.8499C13.2998 43.7499 13.4998 43.7499 13.5998 43.8499L41.8998 52.8499C42.0998 52.9499 42.1998 53.0499 42.1998 53.3499C42.1998 53.5499 42.0998 53.7499 41.8998 53.8499L36.9998 55.8499C36.8998 55.8499 36.8998 55.8499 36.7998 55.8499ZM9.1998 47.0499L36.7998 54.7499L40.2998 53.3499L13.4998 44.7499L9.1998 47.0499Z" fill="#B0B0B0"/>
<path d="M1 52.55C0.9 52.55 0.8 52.55 0.8 52.45C0.6 52.35 0.5 52.25 0.5 52.05V19.05C0.5 18.95 0.6 18.75 0.6 18.75L3.3 15.95C3.4 15.85 3.7 15.75 3.8 15.85C4 15.95 4.1 16.15 4.1 16.35V50.45C4.1 50.65 4 50.75 3.9 50.85L1.2 52.45C1.2 52.55 1.1 52.55 1 52.55ZM1.5 19.25V51.15L3.2 50.15V17.55L1.5 19.25Z" fill="#B0B0B0"/>
<path d="M28.2 59.6499H28.1L0.9 52.5499C0.7 52.4499 0.5 52.2499 0.5 52.0499C0.5 51.8499 0.6 51.6499 0.7 51.5499L3.4 49.9499C3.5 49.8499 3.7 49.8499 3.8 49.8499L31.5 57.6499C31.7 57.7499 31.9 57.9499 31.9 58.1499C31.9 58.3499 31.8 58.5499 31.6 58.6499L28.4 59.6499C28.3 59.6499 28.3 59.6499 28.2 59.6499ZM2.3 51.8499L28.3 58.6499L29.7 58.1499L3.7 50.9499L2.3 51.8499Z" fill="#B0B0B0"/>
</g>
<defs>
<clipPath id="clip0">
<rect x="0.5" y="0.149902" width="54.8" height="59.5" fill="white"/>
</clipPath>
</defs>
</svg>
