<svg width="58" height="61" viewBox="0 0 58 61" fill="none" xmlns="http://www.w3.org/2000/svg">
<g clip-path="url(#clip0)">
<path d="M29.8008 61.0001C29.7008 61.0001 29.6008 61.0001 29.6008 60.9001C29.4008 60.8001 29.3008 60.7001 29.3008 60.5001L28.3008 45.0001C28.3008 44.9001 28.3008 44.7001 28.4008 44.6001C28.5008 44.5001 28.6008 44.4001 28.7008 44.4001L57.0008 42.6001C57.2008 42.6001 57.4008 42.7001 57.5008 42.9001C57.6008 43.1001 57.5008 43.4001 57.3008 43.5001L30.1008 60.9001C30.0008 61.0001 29.9008 61.0001 29.8008 61.0001ZM29.3008 45.4001L30.3008 59.6001L55.2008 43.8001L29.3008 45.4001Z" fill="#B0B0B0"/>
<path d="M29.8004 61.0001C29.7004 61.0001 29.6004 61.0001 29.5004 60.9001L1.90039 41.5001C1.80039 41.4001 1.70039 41.3001 1.70039 41.1001L0.900391 28.3001C0.900391 28.1001 1.00039 27.9001 1.10039 27.8001C1.30039 27.7001 1.50039 27.7001 1.60039 27.8001L29.0004 44.5001C29.1004 44.6001 29.2004 44.7001 29.2004 44.9001L30.3004 60.4001C30.3004 60.6001 30.2004 60.8001 30.0004 60.9001C30.0004 61.0001 29.9004 61.0001 29.8004 61.0001ZM2.70039 40.8001L29.3004 59.4001L28.3004 45.2001L2.00039 29.2001L2.70039 40.8001Z" fill="#B0B0B0"/>
<path d="M28.8004 45.4C28.7004 45.4 28.6004 45.4 28.5004 45.2999L1.10039 28.7C0.900391 28.6 0.900391 28.4 0.900391 28.1C1.00039 27.9 1.20039 27.8 1.40039 27.7L12.5004 28C12.6004 28 12.7004 28 12.7004 28.1L30.9004 37.9L57.1004 42.7C57.3004 42.7 57.5004 43 57.5004 43.2C57.5004 43.5 57.3004 43.7 57.0004 43.7L28.8004 45.4ZM3.30039 28.7999L28.9004 44.4L52.9004 42.9L30.6004 38.9C30.5004 38.9 30.5004 38.9 30.5004 38.7999L12.4004 29L3.30039 28.7999Z" fill="#B0B0B0"/>
<path d="M57.0002 43.7001C56.8002 43.7001 56.6002 43.6001 56.6002 43.4001L43.4002 17.8C43.3002 17.7 43.3002 17.5 43.4002 17.4C43.4002 17.3 43.5002 17.2 43.7002 17.1L56.8002 11C57.0002 10.9 57.1002 10.9 57.3002 11C57.4002 11.1 57.5002 11.3 57.5002 11.4V43.1C57.5002 43.3 57.3002 43.5 57.1002 43.6C57.1002 43.7 57.1002 43.7001 57.0002 43.7001ZM44.6002 17.8L56.6002 41.1V12.2L44.6002 17.8Z" fill="#B0B0B0"/>
<path d="M43.9002 18.1C43.8002 18.1 43.8002 18.1 43.7002 18.1L14.5002 6.4C14.3002 6.3 14.2002 6.2 14.2002 6C14.2002 5.8 14.3002 5.6 14.5002 5.5L25.8002 0C25.9002 0 26.0002 0 26.2002 0L57.2002 10.9C57.4002 11 57.5002 11.1 57.5002 11.3C57.5002 11.5 57.4002 11.7 57.2002 11.8L44.1002 18C44.0002 18.1 43.9002 18.1 43.9002 18.1ZM15.9002 5.9L43.9002 17L55.8002 11.5L26.0002 1L15.9002 5.9Z" fill="#B0B0B0"/>
<path d="M57 43.7C56.9 43.7 56.7 43.6 56.6 43.5L39.2 23L19.1 13.9C19 13.9 18.9 13.8 18.9 13.7L14.2 6.20001C14.1 6.00001 14.1 5.80001 14.2 5.60001C14.3 5.40001 14.6 5.40001 14.8 5.50001L44 17.1C44.1 17.1 44.2 17.2 44.3 17.3L57.5 43C57.6 43.2 57.5 43.5 57.3 43.6C57.2 43.7 57.1 43.7 57 43.7ZM19.7 13.1L39.7 22.2C39.8 22.2 39.8 22.3 39.9 22.3L54.6 39.6L43.5 18L15.9 7.00001L19.7 13.1Z" fill="#B0B0B0"/>
<path d="M57 43.7L30.6 38.9C30.4 38.9 30.3 38.8 30.2 38.6C30.1 38.5 30.1 38.3 30.2 38.1L39 22.3C39.1 22.2 39.2 22.1 39.4 22C39.6 22 39.7 22 39.8 22.2L57.3 42.7C57.4 42.9 57.5 43.1 57.4 43.3C57.4 43.6 57.2 43.7 57 43.7ZM31.5 38L55.7 42.4L39.6 23.5L31.5 38Z" fill="#8B4326"/>
<path d="M30.7 38.9C30.6 38.9 30.5 38.9 30.5 38.8L2.7 23.8C2.6 23.7 2.5 23.6 2.5 23.5C2.5 23.4 2.5 23.2 2.5 23.1L10.4 9.30002C10.5 9.10002 10.8 9.00002 11 9.10002L39.7 22.2C39.8 22.3 39.9 22.4 40 22.5C40 22.6 40 22.8 40 22.9L31.2 38.7C31.1 38.8 30.9 38.9 30.7 38.9ZM3.6 23.2L30.6 37.7L38.9 22.8L11 10.2L3.6 23.2Z" fill="#8B4326"/>
</g>
<defs>
<clipPath id="clip0">
<rect x="0.900391" width="56.6" height="61" fill="white"/>
</clipPath>
</defs>
</svg>
