<svg width="62" height="62" viewBox="0 0 62 62" fill="none" xmlns="http://www.w3.org/2000/svg">
<g clip-path="url(#clip0)">
<path d="M5.40856 20.3605L5.40832 20.3607L1.56821 23.0486C1.56819 23.0486 1.56817 23.0486 1.56815 23.0486C1.32556 23.2185 1.17926 23.4952 1.17489 23.7913C1.17097 24.0876 1.3096 24.3677 1.54779 24.5447L6.14312 27.9531L6.14319 27.9531C7.27636 28.7942 8.81109 28.8114 9.96287 28.0054L5.40856 20.3605ZM5.40856 20.3605C5.6085 20.2202 5.85611 20.1655 6.09725 20.208L8.88276 20.6991L8.98474 20.7171L9.06957 20.6577L13.3258 17.6772L13.6787 17.4301L13.2891 17.2463L5.35058 13.5014L5.35055 13.5014C5.05362 13.3613 4.85329 13.0733 4.82514 12.7459C4.79742 12.4184 4.94588 12.1009 5.21504 11.9127L5.2152 11.9126L10.0152 8.55132C10.2572 8.38203 10.5659 8.33885 10.8449 8.43533L10.845 8.43534L21.2238 12.0219L21.3443 12.0635L21.4488 11.9904L24.0316 10.1813C26.5643 8.40753 30.0687 9.02545 31.8425 11.5587L31.8425 11.5587C32.1346 11.9757 32.0334 12.5504 31.6165 12.8424C31.6165 12.8424 31.6165 12.8424 31.6165 12.8424L9.96293 28.0054L5.40856 20.3605ZM16.0378 18.0294L16.0378 18.0294C16.3069 17.8411 16.4555 17.5234 16.4274 17.1963L16.4274 17.1959C16.3997 16.8683 16.1996 16.5807 15.9025 16.4406L15.9025 16.4406L7.96348 12.6956L7.57387 12.5118L7.92675 12.2647L10.5827 10.4049L10.6872 10.3317L10.8078 10.3734L21.1865 13.9595C21.1865 13.9595 21.1865 13.9595 21.1866 13.9595C21.4661 14.056 21.7747 14.0128 22.0167 13.8436L16.0378 18.0294ZM16.0378 18.0294L9.72948 22.4463C9.72946 22.4463 9.72944 22.4463 9.72943 22.4463C9.52931 22.5863 9.28105 22.6411 9.0408 22.599L6.25503 22.1078L6.15307 22.0898L6.06826 22.1492L3.95797 23.6264L3.67378 23.8253L3.95239 24.032L7.24223 26.4723C7.24227 26.4723 7.2423 26.4723 7.24234 26.4724C7.73457 26.8379 8.40289 26.8464 8.90544 26.4953L8.90568 26.4952L29.4359 12.1191L29.7253 11.9164L29.438 11.7109C28.2022 10.8271 26.4567 10.7342 25.0897 11.6916L22.0168 13.8435L16.0378 18.0294Z" fill="#8B4326" stroke="white" stroke-width="0.5"/>
<path d="M55.9873 11.8008V11.5508V2.64453C55.9873 2.13533 55.5746 1.72266 55.0654 1.72266C54.5566 1.72266 54.1435 2.1354 54.1435 2.64453V11.5508V11.8008H53.8935H49.206H48.956V11.5508V9.20703V8.95703H49.206H50.3779C50.8871 8.95703 51.2998 8.54436 51.2998 8.03515C51.2998 7.52595 50.8871 7.11328 50.3779 7.11328H45.6904C45.1816 7.11328 44.7685 7.52602 44.7685 8.03515C44.7685 8.54429 45.1816 8.95703 45.6904 8.95703H46.8623H47.1123V9.20703V11.5508V11.8008H46.8623H42.1748H41.9248V11.5508V2.64453C41.9248 2.13533 41.5121 1.72266 41.0029 1.72266C40.4941 1.72266 40.081 2.1354 40.081 2.64453V11.5508V11.8008H39.831H38.6592C38.2623 11.8008 37.9102 12.0546 37.7849 12.4312L37.7849 12.4313L35.4413 19.4623C35.3658 19.6896 35.3846 19.9533 35.4912 20.1662L35.4912 20.1663L40.1787 29.5413L40.1788 29.5414C40.3346 29.8534 40.654 30.0508 41.0029 30.0508H42.0837H42.3532L42.333 30.3195L41.9805 35.007L41.9631 35.2383H41.7312H2.09668C1.58787 35.2383 1.1748 35.651 1.1748 36.1602V40.8477C1.1748 41.3568 1.58784 41.7695 2.09668 41.7695H3.26855H3.51855V42.0195V60.3008C3.51855 60.81 3.93162 61.2227 4.44043 61.2227H54.7139C54.9687 61.2227 55.2118 61.1172 55.3864 60.9315C55.5606 60.7457 55.6501 60.4963 55.6339 60.2421L53.7214 30.3167L53.7044 30.0508H53.9709H55.0654C55.4146 30.0508 55.7337 29.8535 55.8901 29.5413L55.9873 11.8008ZM55.9873 11.8008H56.2373H57.4092C57.8059 11.8008 58.1581 12.0545 58.2839 12.4313C58.284 12.4314 58.284 12.4314 58.284 12.4314L60.6276 19.4624L55.9873 11.8008ZM60.5775 20.1665L55.8902 29.5411L60.6276 19.4626C60.7026 19.6883 60.6858 19.9493 60.5775 20.1665ZM39.5037 13.6445H39.3235L39.2665 13.8154L37.7042 18.5029L37.5946 18.832H37.9414H58.1269H58.4738L58.3641 18.5029L56.8018 13.8154L56.7448 13.6445H56.5646H39.5037ZM46.363 28.0176L46.4103 28.207H46.6055H49.4633H49.6585L49.7058 28.0176L51.4636 20.9864L51.5413 20.6758H51.2211H44.8477H44.5275L44.6052 20.9864L46.363 28.0176ZM38.2115 20.6758H37.807L37.9879 21.0376L41.5035 28.0688L41.5726 28.207H41.7271H44.1894H44.5096L44.4319 27.8963L42.6741 20.8651L42.6268 20.6758H42.4316H38.2115ZM39.9162 59.3789H40.1481L40.1655 59.1476L41.4518 42.0382L41.472 41.7695H41.2025H34.792H34.542V42.0195V59.1289V59.3789H34.792H39.9162ZM22.9717 42.0195V41.7695H22.7217H15.3389H15.0889V42.0195V59.1289V59.3789H15.3389H22.7217H22.9717V59.1289V42.0195ZM25.0654 41.7695H24.8154V42.0195V59.1289V59.3789H25.0654H32.4482H32.6982V59.1289V42.0195V41.7695H32.4482H25.0654ZM3.26855 37.082H3.01855V37.332V39.6758V39.9258H3.26855H41.3787H41.6106L41.628 39.6945L41.8043 37.3507L41.8245 37.082H41.555H3.26855ZM5.6123 41.7695H5.3623V42.0195V59.1289V59.3789H5.6123H12.9951H13.2451V59.1289V42.0195V41.7695H12.9951H5.6123ZM53.4651 59.3789H53.7316L53.7146 59.1129L51.8721 30.2848L51.8571 30.0508H51.6226H44.4339H44.202L44.1846 30.282L42.017 59.1101L41.9968 59.3789H42.2663H53.4651ZM54.3412 28.207H54.4957L54.5648 28.0688L58.0805 21.0376L58.2614 20.6758H57.8569H53.6367H53.4415L53.3942 20.8651L51.6364 27.8963L51.5587 28.207H51.8789H54.3412Z" fill="#949494" stroke="white" stroke-width="0.5"/>
</g>
<defs>
<clipPath id="clip0">
<rect x="0.711914" y="0.486328" width="61" height="61" fill="white"/>
</clipPath>
</defs>
</svg>
