<svg width="61" height="61" viewBox="0 0 61 61" fill="none" xmlns="http://www.w3.org/2000/svg">
<path d="M5.42875 19.4757C5.12251 19.4217 4.80757 19.4912 4.55305 19.6698L0.712874 22.3577C0.404341 22.5738 0.218489 22.9254 0.212996 23.3017C0.20796 23.6784 0.384199 24.0345 0.686781 24.2593L5.28227 27.6678C6.50221 28.5733 8.15474 28.5916 9.39436 27.7241L31.048 12.5611C31.578 12.1899 31.7067 11.4593 31.3354 10.9292C29.4824 8.28289 25.8221 7.63744 23.1763 9.49047L20.5935 11.2995L10.2147 7.71297C9.85991 7.59029 9.4676 7.64522 9.15999 7.86037L4.35988 11.2217C4.01747 11.4611 3.82887 11.8649 3.86412 12.281C3.89982 12.6971 4.15434 13.0633 4.532 13.2414L12.4705 16.9863L8.21425 19.9668L5.42875 19.4757ZM9.1609 22.165L15.4693 17.7481C15.8113 17.5087 16.0003 17.1049 15.9646 16.6888C15.9294 16.2722 15.6749 15.9065 15.2972 15.7284L7.35823 11.9834L10.0142 10.1236L20.393 13.7097C20.7483 13.8324 21.1406 13.7774 21.4482 13.5623L24.5212 11.4103C25.7969 10.5168 27.4266 10.6028 28.5806 11.4282L8.05037 25.8043C7.63563 26.094 7.08494 26.0867 6.67937 25.7855L3.38942 23.3451L5.49971 21.8679L8.28566 22.3591C8.59099 22.4127 8.90639 22.3431 9.1609 22.165Z" fill="#8B4326"/>
<path d="M60.1529 18.8975L57.8092 11.8662C57.6494 11.3874 57.2017 11.0647 56.6973 11.0647H55.5254V2.15845C55.5254 1.51117 55.0008 0.986572 54.3535 0.986572C53.7067 0.986572 53.1816 1.51117 53.1816 2.15845V11.0647H48.4941V8.72095H49.666C50.3133 8.72095 50.8379 8.19635 50.8379 7.54907C50.8379 6.90179 50.3133 6.3772 49.666 6.3772H44.9785C44.3317 6.3772 43.8066 6.90179 43.8066 7.54907C43.8066 8.19635 44.3317 8.72095 44.9785 8.72095H46.1504V11.0647H41.4629V2.15845C41.4629 1.51117 40.9383 0.986572 40.291 0.986572C39.6442 0.986572 39.1191 1.51117 39.1191 2.15845V11.0647H37.9473C37.4428 11.0647 36.9951 11.3874 36.8358 11.8662L34.4921 18.8975C34.3959 19.1873 34.4193 19.5196 34.5557 19.792L39.2432 29.167C39.4414 29.5638 39.8474 29.8147 40.291 29.8147H41.3718L41.0193 34.5022H1.38477C0.737946 34.5022 0.212891 35.0268 0.212891 35.6741V40.3616C0.212891 41.0089 0.737946 41.5334 1.38477 41.5334H2.55664V59.8147C2.55664 60.462 3.0817 60.9866 3.72852 60.9866H54.002C54.326 60.9866 54.635 60.8524 54.8566 60.6167C55.0782 60.3805 55.1921 60.0633 55.1715 59.7401L53.259 29.8147H54.3535C54.7975 29.8147 55.2031 29.5638 55.4018 29.167L60.0893 19.792C60.2275 19.515 60.2486 19.1854 60.1529 18.8975ZM38.7918 13.4084H55.8527L57.415 18.0959H37.2295L38.7918 13.4084ZM45.8936 27.4709L44.1358 20.4397H50.5092L48.7514 27.4709H45.8936ZM37.4996 20.4397H41.7197L43.4775 27.4709H41.0152L37.4996 20.4397ZM39.2043 58.6428H34.0801V41.5334H40.4906L39.2043 58.6428ZM22.0098 41.5334V58.6428H14.627V41.5334H22.0098ZM24.3535 41.5334H31.7363V58.6428H24.3535V41.5334ZM2.55664 36.8459H40.8431L40.6668 39.1897H2.55664V36.8459ZM4.90039 41.5334H12.2832V58.6428H4.90039V41.5334ZM52.7532 58.6428H41.5544L43.722 29.8147H50.9107L52.7532 58.6428ZM53.6293 27.4709H51.167L52.9248 20.4397H57.145L53.6293 27.4709Z" fill="#949494"/>
</svg>
