<svg width="62" height="60" viewBox="0 0 62 60" fill="none" xmlns="http://www.w3.org/2000/svg">
<g clip-path="url(#clip0)">
<mask id="path-2-inside-1" fill="white">
<path fill-rule="evenodd" clip-rule="evenodd" d="M60.7974 43.4011L60.7872 43.3908C59.4214 42.0251 57.2015 41.9386 55.7319 43.1957L55.418 43.4653C55.1059 43.7324 54.7022 43.8349 54.3192 43.7786C54.4224 43.1856 54.4751 42.5815 54.4751 41.9728C54.4751 36.1946 49.7742 31.4936 43.9959 31.4936C38.2176 31.4936 33.5167 36.1946 33.5167 41.9728C33.5167 42.488 33.5556 43.0032 33.6307 43.5121C33.392 43.6941 33.0987 43.7942 32.7937 43.7942H32.7898C32.4479 43.777 32.1274 43.6348 31.8857 43.3931L31.8792 43.3867C31.181 42.6907 30.2523 42.306 29.262 42.3022C28.4717 42.2851 27.7133 42.5132 27.065 42.9614C26.8346 43.1213 26.6624 43.3341 26.4497 43.5121C26.2399 43.6878 25.95 43.7837 25.6789 43.7935C25.2934 43.8078 24.8866 43.66 24.6843 43.4352C24.6706 43.42 24.6565 43.4052 24.642 43.3907C23.976 42.7246 23.0914 42.3383 22.1534 42.3031C21.2115 42.2665 20.3012 42.5825 19.5858 43.1955L19.2727 43.4643C19.0939 43.617 18.8764 43.721 18.6451 43.7674C17.6323 43.0151 16.6382 42.3433 15.6808 41.7469L19.7688 32.4923C20.4484 32.9898 21.0132 33.683 21.458 34.5688C21.7153 35.0819 22.3269 35.3319 22.8712 35.1563C23.0522 35.0977 27.3316 33.7696 29.4202 37.9294C29.6222 38.3317 30.0316 38.5756 30.4672 38.5756C30.5537 38.5756 30.6413 38.566 30.7285 38.5461C31.2545 38.4258 31.6305 37.962 31.6392 37.4224L32.1973 2.76246C32.2049 2.30518 31.9276 1.86759 31.5119 1.67751C31.0748 1.47746 30.533 1.57567 30.1945 1.91728L15.4113 16.7815L8.92909 23.299L5.74982 26.4957C5.36836 26.8792 5.3018 27.4732 5.5847 27.9342C5.86771 28.3952 6.43187 28.6021 6.94669 28.4354C7.12775 28.3768 11.4069 27.0487 13.4956 31.2085C13.7531 31.7217 14.3689 31.9768 14.9139 31.7943C14.9249 31.7907 16.0475 31.4333 17.4168 31.5942C17.476 31.6011 17.5335 31.6113 17.5918 31.62L13.645 40.5546C13.2585 40.3421 12.8804 40.1409 12.514 39.9535C6.94282 37.1043 2.66524 36.4056 2.48582 36.3772C1.84772 36.2762 1.24653 36.7125 1.1454 37.3518C1.04438 37.991 1.48056 38.5912 2.11996 38.6922C2.16015 38.6985 6.20452 39.3591 11.4468 42.0402C11.8492 42.246 12.2664 42.469 12.6942 42.707L9.24585 50.5134C8.9844 51.1055 9.2523 51.7974 9.84423 52.059C9.99822 52.127 10.159 52.1592 10.3171 52.1592C10.7671 52.1592 11.1962 51.8985 11.3897 51.4605L14.7232 43.914C19.089 46.6824 24.2071 51.0726 28.2129 57.8471C28.4316 58.2171 28.8219 58.4228 29.2227 58.4228C29.4254 58.4228 29.6309 58.3702 29.8181 58.2594C30.3752 57.93 30.5598 57.2113 30.2303 56.6541C27.3736 51.8227 23.9802 48.1388 20.657 45.3545C20.704 45.3181 20.7518 45.2831 20.7971 45.2444L21.1114 44.9745C21.6181 44.5405 22.3891 44.5386 22.8985 44.9692C23.0178 45.0699 23.1198 45.1897 23.2396 45.2908C23.3598 45.3923 23.4877 45.4849 23.621 45.5684C23.8949 45.7398 24.1923 45.8732 24.5011 45.968C25.1477 46.1664 25.8432 46.1935 26.501 46.0332C27.1962 45.8639 27.7815 45.4984 28.2832 44.9966C28.8074 44.4725 29.7237 44.558 30.2322 45.0545C30.8952 45.7153 31.7755 46.0996 32.7117 46.1367C32.7219 46.1371 32.7321 46.1374 32.7423 46.1375C33.6481 46.1494 34.5285 45.833 35.2162 45.2443L35.5305 44.9744C36.0293 44.547 36.7865 44.5389 37.3076 44.9305C37.5698 45.1275 37.7905 45.3615 38.0712 45.5386C38.3665 45.7249 38.6892 45.8715 39.0246 45.969C40.0749 46.2768 41.2263 46.1161 42.1532 45.4782C42.258 45.4062 42.3603 45.3286 42.4588 45.2442L42.7722 44.975C43.2044 44.6055 43.8119 44.5503 44.2972 44.7964C44.3012 44.7984 44.3053 44.7999 44.3093 44.8019C44.3409 44.8183 44.3717 44.8368 44.4022 44.8558C44.4078 44.8593 44.4137 44.8622 44.4193 44.8658C44.4479 44.8842 44.4756 44.9047 44.503 44.9254C44.6457 45.034 44.7661 45.17 44.9045 45.2844C45.0449 45.4004 45.1945 45.5058 45.3506 45.5998C45.7211 45.8229 46.1312 45.9786 46.5554 46.0621C47.2502 46.1988 47.9805 46.1347 48.6406 45.8784C49.026 45.7289 49.3875 45.5133 49.7012 45.2441L50.0146 44.9749C50.5587 44.5097 51.3812 44.5416 51.8872 45.0478L51.893 45.0535L51.8959 45.0562C51.9473 45.1074 52.0004 45.1563 52.0542 45.204C52.0711 45.219 52.0882 45.2334 52.1053 45.2481C52.1459 45.2828 52.1872 45.3164 52.229 45.3491C52.2402 45.3578 52.2508 45.3675 52.262 45.3759C52.2652 45.3784 52.269 45.3804 52.2723 45.3828C53.6435 46.4203 55.6053 46.3902 56.9436 45.2442L57.257 44.9751C57.8011 44.5098 58.6237 44.5419 59.1217 45.0401C59.5737 45.5031 60.3144 45.5114 60.7778 45.0594C61.2413 44.6076 61.2493 43.8645 60.7974 43.4011ZM25.2708 10.1919L17.0733 18.4342L10.5911 24.9517L9.65098 25.897L9.72833 25.9057C11.1551 26.0734 13.0038 26.6766 14.4919 28.4628L25.2708 10.1919ZM25.6526 32.6269C26.7531 32.7561 28.1045 33.1441 29.3479 34.1343L29.7032 12.0619L24.1158 32.5878C24.5807 32.5596 25.1007 32.5619 25.6526 32.6269ZM27.6046 10.8487L16.7717 29.2113C17.065 29.2137 17.3718 29.2289 17.6906 29.2664C18.9828 29.4182 20.6211 29.9275 22.0242 31.3491L27.6046 10.8487ZM52.1313 41.9731C52.1313 37.4872 48.4817 33.8377 43.9959 33.8377C39.51 33.8377 35.8605 37.4872 35.8604 41.9729C35.8604 42.0959 35.8631 42.2188 35.8687 42.3415C36.0974 42.3072 36.3306 42.2939 36.5658 42.3027C37.5338 42.3224 38.3965 42.7363 39.0986 43.3842C39.6248 43.8752 40.4136 43.9096 40.9334 43.465L41.2471 43.1957C42.6249 42.0171 44.6618 42.0195 46.0364 43.1498C46.1016 43.2034 46.1632 43.2606 46.2246 43.3176C46.3528 43.4367 46.4803 43.5551 46.6384 43.638C46.8383 43.7428 47.065 43.795 47.2901 43.7936C47.6994 43.7912 48.0157 43.6025 48.315 43.3455C48.5835 43.115 48.8578 42.8983 49.1732 42.7336C50.0031 42.3005 50.9862 42.1917 51.8907 42.4365C51.958 42.4547 52.0246 42.4751 52.0909 42.497C52.0986 42.4995 52.1066 42.5015 52.1143 42.504C52.1255 42.3278 52.1313 42.1507 52.1313 41.9731Z"/>
</mask>
<path fill-rule="evenodd" clip-rule="evenodd" d="M60.7974 43.4011L60.7872 43.3908C59.4214 42.0251 57.2015 41.9386 55.7319 43.1957L55.418 43.4653C55.1059 43.7324 54.7022 43.8349 54.3192 43.7786C54.4224 43.1856 54.4751 42.5815 54.4751 41.9728C54.4751 36.1946 49.7742 31.4936 43.9959 31.4936C38.2176 31.4936 33.5167 36.1946 33.5167 41.9728C33.5167 42.488 33.5556 43.0032 33.6307 43.5121C33.392 43.6941 33.0987 43.7942 32.7937 43.7942H32.7898C32.4479 43.777 32.1274 43.6348 31.8857 43.3931L31.8792 43.3867C31.181 42.6907 30.2523 42.306 29.262 42.3022C28.4717 42.2851 27.7133 42.5132 27.065 42.9614C26.8346 43.1213 26.6624 43.3341 26.4497 43.5121C26.2399 43.6878 25.95 43.7837 25.6789 43.7935C25.2934 43.8078 24.8866 43.66 24.6843 43.4352C24.6706 43.42 24.6565 43.4052 24.642 43.3907C23.976 42.7246 23.0914 42.3383 22.1534 42.3031C21.2115 42.2665 20.3012 42.5825 19.5858 43.1955L19.2727 43.4643C19.0939 43.617 18.8764 43.721 18.6451 43.7674C17.6323 43.0151 16.6382 42.3433 15.6808 41.7469L19.7688 32.4923C20.4484 32.9898 21.0132 33.683 21.458 34.5688C21.7153 35.0819 22.3269 35.3319 22.8712 35.1563C23.0522 35.0977 27.3316 33.7696 29.4202 37.9294C29.6222 38.3317 30.0316 38.5756 30.4672 38.5756C30.5537 38.5756 30.6413 38.566 30.7285 38.5461C31.2545 38.4258 31.6305 37.962 31.6392 37.4224L32.1973 2.76246C32.2049 2.30518 31.9276 1.86759 31.5119 1.67751C31.0748 1.47746 30.533 1.57567 30.1945 1.91728L15.4113 16.7815L8.92909 23.299L5.74982 26.4957C5.36836 26.8792 5.3018 27.4732 5.5847 27.9342C5.86771 28.3952 6.43187 28.6021 6.94669 28.4354C7.12775 28.3768 11.4069 27.0487 13.4956 31.2085C13.7531 31.7217 14.3689 31.9768 14.9139 31.7943C14.9249 31.7907 16.0475 31.4333 17.4168 31.5942C17.476 31.6011 17.5335 31.6113 17.5918 31.62L13.645 40.5546C13.2585 40.3421 12.8804 40.1409 12.514 39.9535C6.94282 37.1043 2.66524 36.4056 2.48582 36.3772C1.84772 36.2762 1.24653 36.7125 1.1454 37.3518C1.04438 37.991 1.48056 38.5912 2.11996 38.6922C2.16015 38.6985 6.20452 39.3591 11.4468 42.0402C11.8492 42.246 12.2664 42.469 12.6942 42.707L9.24585 50.5134C8.9844 51.1055 9.2523 51.7974 9.84423 52.059C9.99822 52.127 10.159 52.1592 10.3171 52.1592C10.7671 52.1592 11.1962 51.8985 11.3897 51.4605L14.7232 43.914C19.089 46.6824 24.2071 51.0726 28.2129 57.8471C28.4316 58.2171 28.8219 58.4228 29.2227 58.4228C29.4254 58.4228 29.6309 58.3702 29.8181 58.2594C30.3752 57.93 30.5598 57.2113 30.2303 56.6541C27.3736 51.8227 23.9802 48.1388 20.657 45.3545C20.704 45.3181 20.7518 45.2831 20.7971 45.2444L21.1114 44.9745C21.6181 44.5405 22.3891 44.5386 22.8985 44.9692C23.0178 45.0699 23.1198 45.1897 23.2396 45.2908C23.3598 45.3923 23.4877 45.4849 23.621 45.5684C23.8949 45.7398 24.1923 45.8732 24.5011 45.968C25.1477 46.1664 25.8432 46.1935 26.501 46.0332C27.1962 45.8639 27.7815 45.4984 28.2832 44.9966C28.8074 44.4725 29.7237 44.558 30.2322 45.0545C30.8952 45.7153 31.7755 46.0996 32.7117 46.1367C32.7219 46.1371 32.7321 46.1374 32.7423 46.1375C33.6481 46.1494 34.5285 45.833 35.2162 45.2443L35.5305 44.9744C36.0293 44.547 36.7865 44.5389 37.3076 44.9305C37.5698 45.1275 37.7905 45.3615 38.0712 45.5386C38.3665 45.7249 38.6892 45.8715 39.0246 45.969C40.0749 46.2768 41.2263 46.1161 42.1532 45.4782C42.258 45.4062 42.3603 45.3286 42.4588 45.2442L42.7722 44.975C43.2044 44.6055 43.8119 44.5503 44.2972 44.7964C44.3012 44.7984 44.3053 44.7999 44.3093 44.8019C44.3409 44.8183 44.3717 44.8368 44.4022 44.8558C44.4078 44.8593 44.4137 44.8622 44.4193 44.8658C44.4479 44.8842 44.4756 44.9047 44.503 44.9254C44.6457 45.034 44.7661 45.17 44.9045 45.2844C45.0449 45.4004 45.1945 45.5058 45.3506 45.5998C45.7211 45.8229 46.1312 45.9786 46.5554 46.0621C47.2502 46.1988 47.9805 46.1347 48.6406 45.8784C49.026 45.7289 49.3875 45.5133 49.7012 45.2441L50.0146 44.9749C50.5587 44.5097 51.3812 44.5416 51.8872 45.0478L51.893 45.0535L51.8959 45.0562C51.9473 45.1074 52.0004 45.1563 52.0542 45.204C52.0711 45.219 52.0882 45.2334 52.1053 45.2481C52.1459 45.2828 52.1872 45.3164 52.229 45.3491C52.2402 45.3578 52.2508 45.3675 52.262 45.3759C52.2652 45.3784 52.269 45.3804 52.2723 45.3828C53.6435 46.4203 55.6053 46.3902 56.9436 45.2442L57.257 44.9751C57.8011 44.5098 58.6237 44.5419 59.1217 45.0401C59.5737 45.5031 60.3144 45.5114 60.7778 45.0594C61.2413 44.6076 61.2493 43.8645 60.7974 43.4011ZM25.2708 10.1919L17.0733 18.4342L10.5911 24.9517L9.65098 25.897L9.72833 25.9057C11.1551 26.0734 13.0038 26.6766 14.4919 28.4628L25.2708 10.1919ZM25.6526 32.6269C26.7531 32.7561 28.1045 33.1441 29.3479 34.1343L29.7032 12.0619L24.1158 32.5878C24.5807 32.5596 25.1007 32.5619 25.6526 32.6269ZM27.6046 10.8487L16.7717 29.2113C17.065 29.2137 17.3718 29.2289 17.6906 29.2664C18.9828 29.4182 20.6211 29.9275 22.0242 31.3491L27.6046 10.8487ZM52.1313 41.9731C52.1313 37.4872 48.4817 33.8377 43.9959 33.8377C39.51 33.8377 35.8605 37.4872 35.8604 41.9729C35.8604 42.0959 35.8631 42.2188 35.8687 42.3415C36.0974 42.3072 36.3306 42.2939 36.5658 42.3027C37.5338 42.3224 38.3965 42.7363 39.0986 43.3842C39.6248 43.8752 40.4136 43.9096 40.9334 43.465L41.2471 43.1957C42.6249 42.0171 44.6618 42.0195 46.0364 43.1498C46.1016 43.2034 46.1632 43.2606 46.2246 43.3176C46.3528 43.4367 46.4803 43.5551 46.6384 43.638C46.8383 43.7428 47.065 43.795 47.2901 43.7936C47.6994 43.7912 48.0157 43.6025 48.315 43.3455C48.5835 43.115 48.8578 42.8983 49.1732 42.7336C50.0031 42.3005 50.9862 42.1917 51.8907 42.4365C51.958 42.4547 52.0246 42.4751 52.0909 42.497C52.0986 42.4995 52.1066 42.5015 52.1143 42.504C52.1255 42.3278 52.1313 42.1507 52.1313 41.9731Z" fill="#949494"/>
<path d="M60.9742 43.2243C60.9733 43.2234 60.9722 43.2224 60.9704 43.2205C60.9688 43.2189 60.9665 43.2165 60.964 43.214L60.6105 43.5676C60.6114 43.5685 60.6124 43.5696 60.6142 43.5714C60.6158 43.573 60.6182 43.5754 60.6207 43.5779L60.9742 43.2243ZM31.8857 43.3931C32.0604 43.2142 32.0604 43.2142 32.0604 43.2142C32.0604 43.2142 32.0604 43.2142 32.0604 43.2142C32.0604 43.2142 32.0604 43.2142 32.0604 43.2142C32.0604 43.2142 32.0604 43.2142 32.0604 43.2142C32.0604 43.2142 32.0604 43.2142 32.0604 43.2142C32.0603 43.2142 32.0603 43.2142 32.0603 43.2141C32.0602 43.2141 32.0601 43.2139 32.0599 43.2138C32.0595 43.2134 32.0591 43.2129 32.0585 43.2124C32.0573 43.2112 32.0563 43.2103 32.056 43.2099L31.7025 43.5635C31.7045 43.5656 31.7069 43.5679 31.7082 43.5692C31.709 43.57 31.7097 43.5707 31.7102 43.5711C31.7105 43.5714 31.7107 43.5716 31.7108 43.5717C31.7109 43.5718 31.711 43.5719 31.711 43.5719C31.711 43.5719 31.711 43.572 31.7111 43.572C31.7111 43.572 31.7111 43.572 31.7111 43.572C31.7111 43.572 31.7111 43.572 31.7111 43.572H31.7111C31.7111 43.572 31.7111 43.572 31.7111 43.572C31.7111 43.572 31.7111 43.572 31.8857 43.3931ZM9.7571 25.6574C9.73066 25.6543 9.70433 25.6513 9.67809 25.6485L9.62387 26.1455C9.64897 26.1483 9.6742 26.1511 9.69956 26.1541L9.7571 25.6574ZM60.7974 43.4011L61.1554 43.052L61.1528 43.0493L60.7974 43.4011ZM60.7872 43.3908L61.1426 43.039L61.1408 43.0372L60.7872 43.3908ZM55.7319 43.1957L55.4069 42.8158L55.4062 42.8164L55.7319 43.1957ZM55.418 43.4653L55.7431 43.8452L55.7438 43.8446L55.418 43.4653ZM54.3192 43.7786L53.8266 43.6929L53.7386 44.1986L54.2465 44.2733L54.3192 43.7786ZM33.6307 43.5121L33.9339 43.9097L34.1684 43.7309L34.1254 43.4391L33.6307 43.5121ZM32.7898 43.7942L32.7647 44.2936L32.7773 44.2942H32.7898V43.7942ZM31.8857 43.3931L32.2393 43.0395L32.2366 43.0369L31.8857 43.3931ZM31.8792 43.3867L31.5262 43.7408L31.5284 43.7429L31.8792 43.3867ZM29.262 42.3022L29.2512 42.8022L29.2601 42.8022L29.262 42.3022ZM27.065 42.9614L26.7807 42.5501L26.78 42.5506L27.065 42.9614ZM26.4497 43.5121L26.1288 43.1287L26.1287 43.1288L26.4497 43.5121ZM25.6789 43.7935L25.6609 43.2938L25.6604 43.2939L25.6789 43.7935ZM24.6843 43.4352L25.056 43.1007L25.0557 43.1005L24.6843 43.4352ZM24.642 43.3907L24.2884 43.7442L24.2885 43.7443L24.642 43.3907ZM22.1534 42.3031L22.134 42.8027L22.1347 42.8028L22.1534 42.3031ZM19.5858 43.1955L19.2605 42.8158L19.2601 42.8161L19.5858 43.1955ZM19.2727 43.4643L19.5974 43.8445L19.5984 43.8437L19.2727 43.4643ZM18.6451 43.7674L18.347 44.1688L18.5255 44.3014L18.7435 44.2576L18.6451 43.7674ZM15.6808 41.7469L15.2235 41.5449L15.0481 41.9418L15.4165 42.1713L15.6808 41.7469ZM19.7688 32.4923L20.0642 32.0889L19.5626 31.7217L19.3115 32.2903L19.7688 32.4923ZM21.458 34.5688L21.905 34.3447L21.9049 34.3444L21.458 34.5688ZM22.8712 35.1563L23.0247 35.6322L23.0252 35.632L22.8712 35.1563ZM29.4202 37.9294L28.9734 38.1538L28.9734 38.1538L29.4202 37.9294ZM30.7285 38.5461L30.8398 39.0336L30.84 39.0335L30.7285 38.5461ZM31.6392 37.4224L32.1392 37.4305V37.4305L31.6392 37.4224ZM32.1973 2.76246L31.6974 2.75415L31.6974 2.75441L32.1973 2.76246ZM31.5119 1.67751L31.3039 2.13216L31.304 2.13223L31.5119 1.67751ZM30.1945 1.91728L30.549 2.26987L30.5497 2.26921L30.1945 1.91728ZM15.4113 16.7815L15.7658 17.1341L15.7658 17.1341L15.4113 16.7815ZM17.0733 18.4342L17.4278 18.7868L17.4278 18.7868L17.0733 18.4342ZM25.2708 10.1919L25.7015 10.446L24.9163 9.83932L25.2708 10.1919ZM14.4919 28.4628L14.1078 28.7829L14.562 29.3281L14.9226 28.7169L14.4919 28.4628ZM9.72833 25.9057L9.7867 25.4091L9.78422 25.4088L9.72833 25.9057ZM9.65098 25.897L9.29645 25.5444L8.56673 26.2782L9.59509 26.3939L9.65098 25.897ZM10.5911 24.9517L10.2366 24.5991L10.2366 24.5991L10.5911 24.9517ZM8.92909 23.299L8.57458 22.9464L8.57457 22.9464L8.92909 23.299ZM5.74982 26.4957L6.10431 26.8483L6.10434 26.8483L5.74982 26.4957ZM5.5847 27.9342L5.15854 28.1957L5.15859 28.1958L5.5847 27.9342ZM6.94669 28.4354L6.79273 27.9597L6.79266 27.9597L6.94669 28.4354ZM13.4956 31.2085L13.9425 30.9843L13.9425 30.9841L13.4956 31.2085ZM14.9139 31.7943L14.7584 31.3191L14.7552 31.3202L14.9139 31.7943ZM17.4168 31.5942L17.3585 32.0908L17.3589 32.0908L17.4168 31.5942ZM17.5918 31.62L18.0492 31.8221L18.3141 31.2223L17.6656 31.1255L17.5918 31.62ZM13.645 40.5546L13.4041 40.9928L13.882 41.2555L14.1024 40.7566L13.645 40.5546ZM12.514 39.9535L12.7417 39.5084L12.7417 39.5083L12.514 39.9535ZM2.48582 36.3772L2.56399 35.8834H2.56399L2.48582 36.3772ZM1.1454 37.3518L0.651538 37.2737L0.651526 37.2738L1.1454 37.3518ZM2.11996 38.6922L2.04195 39.1861L2.04253 39.1862L2.11996 38.6922ZM11.4468 42.0402L11.2192 42.4854H11.2192L11.4468 42.0402ZM12.6942 42.707L13.1516 42.909L13.3359 42.4918L12.9373 42.2701L12.6942 42.707ZM9.24585 50.5134L8.78849 50.3114L8.78846 50.3114L9.24585 50.5134ZM9.84423 52.059L9.64212 52.5163L9.64225 52.5164L9.84423 52.059ZM11.3897 51.4605L11.8471 51.6626L11.8471 51.6625L11.3897 51.4605ZM14.7232 43.914L14.991 43.4918L14.5005 43.1807L14.2659 43.712L14.7232 43.914ZM28.2129 57.8471L28.6434 57.5927L28.6433 57.5926L28.2129 57.8471ZM29.8181 58.2594L29.5636 57.829L29.5635 57.8291L29.8181 58.2594ZM30.2303 56.6541L29.7999 56.9086L29.7999 56.9086L30.2303 56.6541ZM20.657 45.3545L20.3509 44.9592L19.8602 45.3392L20.3359 45.7378L20.657 45.3545ZM20.7971 45.2444L21.1219 45.6246L21.1229 45.6237L20.7971 45.2444ZM21.1114 44.9745L20.7862 44.5948L20.7857 44.5952L21.1114 44.9745ZM22.8985 44.9692L22.5757 45.3511L22.576 45.3513L22.8985 44.9692ZM23.2396 45.2908L23.5622 44.9088L23.5621 44.9087L23.2396 45.2908ZM23.621 45.5684L23.3556 45.9921L23.3558 45.9923L23.621 45.5684ZM24.5011 45.968L24.3544 46.446L24.3545 46.446L24.5011 45.968ZM26.501 46.0332L26.3827 45.5474L26.3826 45.5474L26.501 46.0332ZM28.2832 44.9966L27.9297 44.643L27.9296 44.6431L28.2832 44.9966ZM30.2322 45.0545L30.5852 44.7004L30.5815 44.6968L30.2322 45.0545ZM32.7117 46.1367L32.6919 46.6363L32.6921 46.6363L32.7117 46.1367ZM32.7423 46.1375L32.7489 45.6376L32.7472 45.6375L32.7423 46.1375ZM35.2162 45.2443L35.5414 45.6241L35.542 45.6236L35.2162 45.2443ZM35.5305 44.9744L35.2052 44.5947L35.2048 44.5951L35.5305 44.9744ZM37.3076 44.9305L37.0072 45.3302L37.0073 45.3303L37.3076 44.9305ZM38.0712 45.5386L37.8044 45.9615L37.8044 45.9615L38.0712 45.5386ZM39.0246 45.969L39.1652 45.4892L39.1642 45.4889L39.0246 45.969ZM42.1532 45.4782L41.8701 45.0661L41.8698 45.0663L42.1532 45.4782ZM42.4588 45.2442L42.7842 45.6239L42.7846 45.6235L42.4588 45.2442ZM42.7722 44.975L42.4473 44.595L42.4464 44.5957L42.7722 44.975ZM44.2972 44.7964L44.0711 45.2424L44.0736 45.2436L44.2972 44.7964ZM44.3093 44.8019L44.5397 44.3581L44.5329 44.3547L44.3093 44.8019ZM44.4022 44.8558L44.6672 44.4318L44.6666 44.4314L44.4022 44.8558ZM44.4193 44.8658L44.6899 44.4453L44.6897 44.4452L44.4193 44.8658ZM44.503 44.9254L44.8058 44.5275L44.8044 44.5265L44.503 44.9254ZM44.9045 45.2844L44.586 45.6698L44.5861 45.6699L44.9045 45.2844ZM45.3506 45.5998L45.0927 46.0281L45.0927 46.0281L45.3506 45.5998ZM46.5554 46.0621L46.4589 46.5527L46.4589 46.5527L46.5554 46.0621ZM48.6406 45.8784L48.4598 45.4123L48.4597 45.4123L48.6406 45.8784ZM49.7012 45.2441L50.0268 45.6236L50.027 45.6234L49.7012 45.2441ZM50.0146 44.9749L49.6897 44.5949L49.6888 44.5956L50.0146 44.9749ZM51.8872 45.0478L51.5336 45.4013L51.5367 45.4044L51.8872 45.0478ZM51.893 45.0535L51.5424 45.4102L51.5525 45.4196L51.893 45.0535ZM51.8959 45.0562L52.2488 44.702L52.2428 44.696L52.2365 44.6901L51.8959 45.0562ZM52.0542 45.204L52.3861 44.8301L52.3859 44.8299L52.0542 45.204ZM52.1053 45.2481L51.7794 45.6273L51.7805 45.6282L52.1053 45.2481ZM52.229 45.3491L51.921 45.7429L51.9223 45.744L52.229 45.3491ZM52.262 45.3759L52.5699 44.9818L52.562 44.9759L52.262 45.3759ZM52.2723 45.3828L52.5741 44.984L52.5664 44.9784L52.2723 45.3828ZM56.9436 45.2442L57.2688 45.624L57.2694 45.6236L56.9436 45.2442ZM57.257 44.9751L56.9321 44.5951L56.9313 44.5958L57.257 44.9751ZM59.1217 45.0401L59.4795 44.6908L59.4754 44.6866L59.1217 45.0401ZM60.7778 45.0594L60.4288 44.7014L60.4287 44.7015L60.7778 45.0594ZM29.3479 34.1343L29.0364 34.5254L29.8315 35.1586L29.8479 34.1424L29.3479 34.1343ZM25.6526 32.6269L25.5941 33.1235L25.5943 33.1235L25.6526 32.6269ZM24.1158 32.5878L23.6334 32.4565L23.4503 33.1291L24.1461 33.0869L24.1158 32.5878ZM29.7032 12.0619L30.2032 12.07L29.2208 11.9306L29.7032 12.0619ZM16.7717 29.2113L16.3411 28.9573L15.9004 29.7042L16.7676 29.7113L16.7717 29.2113ZM27.6046 10.8487L28.0871 10.98L27.174 10.5947L27.6046 10.8487ZM22.0242 31.3491L21.6684 31.7003L22.2785 32.3186L22.5067 31.4804L22.0242 31.3491ZM17.6906 29.2664L17.6322 29.763L17.6323 29.763L17.6906 29.2664ZM52.1143 42.504L51.9599 42.9796L52.5725 43.1785L52.6133 42.5357L52.1143 42.504ZM52.0909 42.497L51.9341 42.9718L51.9365 42.9726L52.0909 42.497ZM51.8907 42.4365L51.7601 42.9191L51.7602 42.9192L51.8907 42.4365ZM49.1732 42.7336L48.9419 42.2903L48.9418 42.2904L49.1732 42.7336ZM48.315 43.3455L47.9893 42.9661L47.9893 42.9662L48.315 43.3455ZM47.2901 43.7936L47.2872 43.2936L47.287 43.2936L47.2901 43.7936ZM46.6384 43.638L46.8706 43.1952L46.8706 43.1952L46.6384 43.638ZM46.0364 43.1498L45.7189 43.536L45.7191 43.5362L46.0364 43.1498ZM41.2471 43.1957L40.9221 42.8158L40.9214 42.8163L41.2471 43.1957ZM40.9334 43.465L41.2584 43.845L41.2591 43.8444L40.9334 43.465ZM39.0986 43.3842L39.4398 43.0186L39.4377 43.0168L39.0986 43.3842ZM36.5658 42.3027L36.5471 42.8024L36.5557 42.8026L36.5658 42.3027ZM35.8687 42.3415L35.3692 42.3643L35.3945 42.9182L35.9429 42.836L35.8687 42.3415ZM35.8604 41.9729L35.3604 41.9729V41.9729H35.8604ZM46.2246 43.3176L46.5649 42.9513L46.5649 42.9513L46.2246 43.3176ZM61.1408 43.0372C59.5902 41.4868 57.0748 41.3891 55.4069 42.8158L56.0569 43.5757C57.3283 42.4882 59.2526 42.5634 60.4337 43.7444L61.1408 43.0372ZM55.4062 42.8164L55.0923 43.086L55.7438 43.8446L56.0577 43.575L55.4062 42.8164ZM55.0929 43.0854C54.8966 43.2534 54.64 43.3204 54.3919 43.2839L54.2465 44.2733C54.7644 44.3494 55.3152 44.2114 55.7431 43.8452L55.0929 43.0854ZM54.8118 43.8643C54.9199 43.2432 54.9751 42.6104 54.9751 41.9728H53.9751C53.9751 42.5527 53.9249 43.1281 53.8266 43.6929L54.8118 43.8643ZM54.9751 41.9728C54.9751 35.9185 50.0504 30.9936 43.9959 30.9936V31.9936C49.4981 31.9936 53.9751 36.4708 53.9751 41.9728H54.9751ZM43.9959 30.9936C37.9415 30.9936 33.0167 35.9185 33.0167 41.9728H34.0167C34.0167 36.4708 38.4938 31.9936 43.9959 31.9936V30.9936ZM33.0167 41.9728C33.0167 42.5131 33.0575 43.0527 33.1361 43.5851L34.1254 43.4391C34.0537 42.9537 34.0167 42.4629 34.0167 41.9728H33.0167ZM33.3276 43.1145C33.1758 43.2302 32.9889 43.2942 32.7937 43.2942V44.2942C33.2085 44.2942 33.6083 44.158 33.9339 43.9097L33.3276 43.1145ZM32.7937 43.2942H32.7898V44.2942H32.7937V43.2942ZM32.815 43.2948C32.5966 43.2839 32.3932 43.1935 32.2393 43.0396L31.5322 43.7467C31.8616 44.0761 32.2992 44.2702 32.7647 44.2936L32.815 43.2948ZM32.2322 43.0326C31.4403 42.2431 30.3852 41.8065 29.2639 41.8022L29.2601 42.8022C30.1195 42.8055 30.9218 43.1383 31.5262 43.7408L32.2322 43.0326ZM29.2728 41.8023C28.3773 41.783 27.5156 42.0421 26.7807 42.5501L27.3494 43.3727C27.9111 42.9843 28.5662 42.7873 29.2512 42.8021L29.2728 41.8023ZM26.78 42.5506C26.6294 42.6551 26.5045 42.7723 26.4027 42.871C26.2931 42.9773 26.2168 43.055 26.1288 43.1287L26.7706 43.8956C26.8953 43.7912 27.0115 43.6735 27.0988 43.589C27.1939 43.4968 27.2703 43.4276 27.3501 43.3722L26.78 42.5506ZM26.1287 43.1288C26.0171 43.2222 25.839 43.2874 25.6609 43.2938L25.697 44.2932C26.061 44.28 26.4627 44.1534 26.7708 43.8954L26.1287 43.1288ZM25.6604 43.2939C25.3811 43.3042 25.1341 43.1876 25.056 43.1007L24.3127 43.7697C24.6391 44.1324 25.2058 44.3114 25.6975 44.2932L25.6604 43.2939ZM25.0557 43.1005C25.0358 43.0784 25.0158 43.0573 24.9956 43.0372L24.2885 43.7443C24.2973 43.7531 24.3054 43.7616 24.3129 43.77L25.0557 43.1005ZM24.9956 43.0372C24.2407 42.2821 23.2365 41.8434 22.1722 41.8035L22.1347 42.8028C22.9463 42.8332 23.7114 43.1671 24.2884 43.7442L24.9956 43.0372ZM22.1728 41.8035C21.1053 41.762 20.0718 42.1206 19.2605 42.8158L19.9112 43.5752C20.5306 43.0444 21.3177 42.771 22.134 42.8027L22.1728 41.8035ZM19.2601 42.8161L18.947 43.0849L19.5984 43.8437L19.9115 43.5749L19.2601 42.8161ZM18.948 43.0841C18.8359 43.1799 18.6969 43.2471 18.5468 43.2772L18.7435 44.2576C19.056 44.195 19.352 44.0542 19.5974 43.8445L18.948 43.0841ZM18.9433 43.366C17.9192 42.6053 16.9138 41.9259 15.9452 41.3225L15.4165 42.1713C16.3627 42.7607 17.3455 43.4249 18.347 44.1688L18.9433 43.366ZM16.1382 41.9489L20.2262 32.6943L19.3115 32.2903L15.2235 41.5449L16.1382 41.9489ZM19.4735 32.8958C20.079 33.339 20.5959 33.9661 21.0112 34.7932L21.9049 34.3444C21.4306 33.3999 20.8179 32.6406 20.0642 32.0889L19.4735 32.8958ZM21.0111 34.7929C21.3809 35.5304 22.2496 35.8822 23.0247 35.6322L22.7177 34.6805C22.4043 34.7816 22.0498 34.6335 21.905 34.3447L21.0111 34.7929ZM23.0252 35.632C23.0859 35.6124 24.118 35.2903 25.3642 35.4566C26.5822 35.6191 28.0153 36.2455 28.9734 38.1538L29.8671 37.7051C28.7366 35.4535 26.9857 34.6641 25.4965 34.4654C24.0357 34.2704 22.8376 34.6416 22.7172 34.6806L23.0252 35.632ZM28.9734 38.1538C29.2617 38.7279 29.8458 39.0756 30.4672 39.0756V38.0756C30.2175 38.0756 29.9828 37.9355 29.8671 37.7051L28.9734 38.1538ZM30.4672 39.0756C30.5908 39.0756 30.7157 39.0619 30.8398 39.0336L30.6173 38.0586C30.567 38.0701 30.5167 38.0756 30.4672 38.0756V39.0756ZM30.84 39.0335C31.5903 38.8619 32.1268 38.2003 32.1392 37.4305L31.1393 37.4144C31.1343 37.7237 30.9187 37.9897 30.6171 38.0587L30.84 39.0335ZM32.1392 37.4305L32.6973 2.77051L31.6974 2.75441L31.1393 37.4144L32.1392 37.4305ZM32.6973 2.77077C32.7082 2.1139 32.3154 1.4951 31.7199 1.22279L31.304 2.13223C31.5399 2.24008 31.7017 2.49646 31.6974 2.75415L32.6973 2.77077ZM31.72 1.22287C31.0926 0.93572 30.3258 1.07444 29.8394 1.56535L30.5497 2.26921C30.7403 2.0769 31.0571 2.0192 31.3039 2.13216L31.72 1.22287ZM29.84 1.5647L15.0568 16.4289L15.7658 17.1341L30.549 2.26987L29.84 1.5647ZM17.4278 18.7868L25.6253 10.5445L24.9163 9.83932L16.7188 18.0816L17.4278 18.7868ZM24.8402 9.93785L14.0613 28.2088L14.9226 28.7169L25.7015 10.446L24.8402 9.93785ZM14.8761 28.1428C13.2842 26.232 11.3022 25.5873 9.7867 25.4091L9.66996 26.4023C11.008 26.5596 12.7235 27.1212 14.1078 28.7829L14.8761 28.1428ZM10.0055 26.2496L10.9456 25.3043L10.2366 24.5991L9.29645 25.5444L10.0055 26.2496ZM8.57457 22.9464L5.3953 26.1431L6.10434 26.8483L9.28361 23.6516L8.57457 22.9464ZM5.39532 26.1431C4.84951 26.6918 4.75611 27.5399 5.15854 28.1957L6.01086 27.6727C5.84749 27.4065 5.88721 27.0666 6.10431 26.8483L5.39532 26.1431ZM5.15859 28.1958C5.56292 28.8544 6.36729 29.1486 7.10072 28.9111L6.79266 27.9597C6.49645 28.0556 6.1725 27.936 6.01081 27.6726L5.15859 28.1958ZM7.10065 28.9111C7.16136 28.8915 8.19346 28.5694 9.43966 28.7357C10.6575 28.8982 12.0906 29.5246 13.0488 31.4329L13.9425 30.9841C12.8119 28.7326 11.0611 27.9432 9.57193 27.7445C8.1111 27.5495 6.91308 27.9208 6.79273 27.9597L7.10065 28.9111ZM13.0487 31.4327C13.4175 32.1678 14.2912 32.5301 15.0727 32.2684L14.7552 31.3202C14.4467 31.4235 14.0887 31.2756 13.9425 30.9843L13.0487 31.4327ZM15.0694 32.2695C15.05 32.2759 16.0927 31.9421 17.3585 32.0908L17.4752 31.0976C16.0023 30.9246 14.7999 31.3055 14.7584 31.3191L15.0694 32.2695ZM17.3589 32.0908C17.4081 32.0966 17.4413 32.1031 17.518 32.1145L17.6656 31.1255C17.6258 31.1195 17.5439 31.1056 17.4747 31.0976L17.3589 32.0908ZM17.1345 31.418L13.1877 40.3526L14.1024 40.7566L18.0492 31.8221L17.1345 31.418ZM13.8859 40.1165C13.4956 39.9019 13.1131 39.6983 12.7417 39.5084L12.2864 40.3987C12.6478 40.5835 13.0215 40.7824 13.4041 40.9928L13.8859 40.1165ZM12.7417 39.5083C7.10995 36.6282 2.77792 35.9172 2.56399 35.8834L2.40765 36.8711C2.55256 36.894 6.77569 37.5804 12.2864 40.3987L12.7417 39.5083ZM2.56399 35.8834C1.65318 35.7392 0.795835 36.3616 0.651538 37.2737L1.63926 37.4299C1.69723 37.0635 2.04226 36.8132 2.40765 36.8711L2.56399 35.8834ZM0.651526 37.2738C0.507415 38.1856 1.12968 39.042 2.04195 39.1861L2.19797 38.1983C1.83144 38.1404 1.58134 37.7964 1.63927 37.4299L0.651526 37.2738ZM2.04253 39.1862C2.04206 39.1861 3.04098 39.348 4.68902 39.8421C6.33643 40.336 8.62923 41.1608 11.2192 42.4854L11.6745 41.5951C6.37226 38.8833 2.2736 38.2102 2.19739 38.1982L2.04253 39.1862ZM11.2192 42.4854C11.616 42.6883 12.028 42.9086 12.4511 43.1439L12.9373 42.2701C12.5048 42.0295 12.0825 41.8037 11.6745 41.5951L11.2192 42.4854ZM12.2369 42.505L8.78849 50.3114L9.70321 50.7154L13.1516 42.909L12.2369 42.505ZM8.78846 50.3114C8.4155 51.1561 8.79764 52.1431 9.64212 52.5163L10.0463 51.6017C9.70696 51.4517 9.5533 51.055 9.70324 50.7154L8.78846 50.3114ZM9.64225 52.5164C9.86108 52.613 10.0908 52.6592 10.3171 52.6592V51.6592C10.2272 51.6592 10.1354 51.641 10.0462 51.6016L9.64225 52.5164ZM10.3171 52.6592C10.958 52.6592 11.5707 52.2881 11.8471 51.6626L10.9324 51.2585C10.8217 51.5089 10.5762 51.6592 10.3171 51.6592V52.6592ZM11.8471 51.6625L15.1806 44.116L14.2659 43.712L10.9324 51.2585L11.8471 51.6625ZM14.4555 44.3363C18.7687 47.0713 23.8247 51.4081 27.7825 58.1016L28.6433 57.5926C24.5896 50.7371 19.4094 46.2935 14.991 43.4918L14.4555 44.3363ZM27.7825 58.1015C28.0948 58.6299 28.6524 58.9228 29.2227 58.9228V57.9228C28.9914 57.9228 28.7684 57.8043 28.6434 57.5927L27.7825 58.1015ZM29.2227 58.9228C29.5124 58.9228 29.8063 58.8475 30.0728 58.6897L29.5635 57.8291C29.4556 57.893 29.3385 57.9228 29.2227 57.9228V58.9228ZM30.0726 58.6898C30.8674 58.2198 31.1308 57.1945 30.6607 56.3996L29.7999 56.9086C29.9889 57.2281 29.883 57.6402 29.5636 57.829L30.0726 58.6898ZM30.6607 56.3996C27.7719 51.5139 24.3397 47.7877 20.9781 44.9713L20.3359 45.7378C23.6208 48.49 26.9753 52.1315 29.7999 56.9086L30.6607 56.3996ZM20.9632 45.7498C20.996 45.7244 21.0645 45.6737 21.1219 45.6246L20.4724 44.8643C20.4392 44.8926 20.412 44.9118 20.3509 44.9592L20.9632 45.7498ZM21.1229 45.6237L21.4372 45.3538L20.7857 44.5952L20.4714 44.8651L21.1229 45.6237ZM21.4367 45.3543C21.7568 45.08 22.2534 45.0785 22.5757 45.3511L23.2213 44.5874C22.5249 43.9987 21.4794 44.001 20.7862 44.5948L21.4367 45.3543ZM22.576 45.3513C22.6173 45.3861 22.6581 45.4264 22.716 45.4841C22.769 45.5369 22.8389 45.6069 22.9172 45.6729L23.5621 44.9087C23.5206 44.8737 23.4795 44.8332 23.4218 44.7756C23.3689 44.7229 23.2991 44.653 23.221 44.5871L22.576 45.3513ZM22.917 45.6728C23.0562 45.7904 23.2034 45.8968 23.3556 45.9921L23.8865 45.1447C23.7721 45.073 23.6634 44.9943 23.5622 44.9088L22.917 45.6728ZM23.3558 45.9923C23.6686 46.188 24.0061 46.3391 24.3544 46.446L24.6479 45.49C24.3785 45.4073 24.1213 45.2916 23.8863 45.1446L23.3558 45.9923ZM24.3545 46.446C25.0838 46.6698 25.8709 46.7014 26.6194 46.519L26.3826 45.5474C25.8155 45.6856 25.2116 45.663 24.6478 45.49L24.3545 46.446ZM26.6193 46.519C27.4181 46.3245 28.0818 45.9053 28.6368 45.3501L27.9296 44.6431C27.4813 45.0915 26.9743 45.4033 26.3827 45.5474L26.6193 46.519ZM28.6367 45.3502C28.9313 45.0557 29.5318 45.0694 29.8829 45.4123L30.5815 44.6968C29.9157 44.0466 28.6835 43.8894 27.9297 44.643L28.6367 45.3502ZM29.8793 45.4087C30.6312 46.1581 31.6304 46.5943 32.6919 46.6363L32.7315 45.6371C31.9206 45.605 31.1593 45.2725 30.5852 44.7004L29.8793 45.4087ZM32.6921 46.6363C32.7054 46.6368 32.7208 46.6373 32.7374 46.6375L32.7472 45.6375C32.7435 45.6375 32.7384 45.6374 32.7313 45.6371L32.6921 46.6363ZM32.7358 46.6375C33.7621 46.651 34.7607 46.2925 35.5414 45.6241L34.8911 44.8645C34.2964 45.3735 33.5341 45.6479 32.7489 45.6376L32.7358 46.6375ZM35.542 45.6236L35.8563 45.3537L35.2048 44.5951L34.8905 44.865L35.542 45.6236ZM35.8559 45.3541C36.1692 45.0856 36.6657 45.0736 37.0072 45.3302L37.608 44.5308C36.9074 44.0043 35.8895 44.0084 35.2052 44.5947L35.8559 45.3541ZM37.0073 45.3303C37.1218 45.4163 37.2237 45.5075 37.3574 45.622C37.4838 45.7301 37.6319 45.8526 37.8044 45.9615L38.338 45.1157C38.2299 45.0475 38.1272 44.9645 38.0075 44.8621C37.8952 44.766 37.7557 44.6418 37.608 44.5308L37.0073 45.3303ZM37.8044 45.9615C38.1382 46.1721 38.5036 46.3383 38.8851 46.4491L39.1642 45.4889C38.8748 45.4048 38.5948 45.2777 38.338 45.1157L37.8044 45.9615ZM38.884 46.4488C40.0731 46.7973 41.3812 46.6165 42.4367 45.8901L41.8698 45.0663C41.0715 45.6157 40.0767 45.7563 39.1652 45.4892L38.884 46.4488ZM42.4364 45.8903C42.5542 45.8094 42.6708 45.7211 42.7842 45.6239L42.1335 44.8645C42.0499 44.9362 41.9619 45.003 41.8701 45.0661L42.4364 45.8903ZM42.7846 45.6235L43.098 45.3543L42.4464 44.5957L42.133 44.8649L42.7846 45.6235ZM43.0971 45.3551C43.3699 45.1219 43.7589 45.084 44.0711 45.2424L44.5234 44.3505C43.865 44.0166 43.039 44.0891 42.4473 44.595L43.0971 45.3551ZM44.0736 45.2436C44.0827 45.2482 44.0904 45.2517 44.0956 45.254C44.1004 45.2562 44.1046 45.258 44.1051 45.2582C44.1066 45.2589 44.1044 45.2579 44.1017 45.2567C44.0985 45.2553 44.0928 45.2527 44.0857 45.2491L44.5329 44.3547C44.5238 44.3501 44.5161 44.3466 44.511 44.3443C44.5062 44.3422 44.5019 44.3403 44.5015 44.3401C44.4999 44.3394 44.5021 44.3404 44.5049 44.3416C44.508 44.343 44.5137 44.3456 44.5208 44.3492L44.0736 45.2436ZM44.079 45.2457C44.0931 45.253 44.1109 45.2634 44.1379 45.2802L44.6666 44.4314C44.6326 44.4102 44.5887 44.3836 44.5397 44.3581L44.079 45.2457ZM44.1372 45.2798C44.1456 45.2851 44.1528 45.2892 44.1575 45.2919C44.1617 45.2944 44.166 45.2967 44.1663 45.2969C44.1676 45.2977 44.1658 45.2967 44.1633 45.2952C44.1605 45.2935 44.1554 45.2905 44.149 45.2864L44.6897 44.4452C44.6805 44.4393 44.6726 44.4346 44.6669 44.4313C44.6615 44.4281 44.6568 44.4255 44.6553 44.4246C44.6527 44.4232 44.6541 44.424 44.6555 44.4247C44.6573 44.4258 44.6616 44.4283 44.6672 44.4318L44.1372 45.2798ZM44.1488 45.2863C44.1604 45.2938 44.1754 45.3045 44.2016 45.3244L44.8044 44.5265C44.7759 44.5049 44.7354 44.4746 44.6899 44.4453L44.1488 45.2863ZM44.2002 45.3233C44.2478 45.3595 44.2963 45.4038 44.3613 45.4655C44.4207 45.5218 44.5003 45.599 44.586 45.6698L45.2231 44.899C45.1703 44.8554 45.1206 44.8074 45.0495 44.74C44.9841 44.6779 44.9009 44.5999 44.8058 44.5275L44.2002 45.3233ZM44.5861 45.6699C44.7462 45.8022 44.9161 45.9218 45.0927 46.0281L45.6086 45.1715C45.4729 45.0898 45.3437 44.9986 45.223 44.899L44.5861 45.6699ZM45.0927 46.0281C45.5145 46.2821 45.9795 46.4583 46.4589 46.5527L46.652 45.5715C46.283 45.4989 45.9277 45.3637 45.6086 45.1715L45.0927 46.0281ZM46.4589 46.5527C47.2465 46.7077 48.073 46.6352 48.8216 46.3445L48.4597 45.4123C47.888 45.6343 47.254 45.69 46.652 45.5715L46.4589 46.5527ZM48.8215 46.3446C49.2591 46.1748 49.6697 45.9301 50.0268 45.6236L49.3756 44.8647C49.1054 45.0966 48.793 45.283 48.4598 45.4123L48.8215 46.3446ZM50.027 45.6234L50.3404 45.3542L49.6888 44.5956L49.3754 44.8648L50.027 45.6234ZM50.3396 45.3549C50.6854 45.0593 51.2123 45.0799 51.5336 45.4013L52.2409 44.6943C51.5501 44.0033 50.4321 43.9602 49.6897 44.5949L50.3396 45.3549ZM51.5367 45.4044L51.5425 45.4101L52.2435 44.6969L52.2377 44.6912L51.5367 45.4044ZM51.5525 45.4196L51.5554 45.4223L52.2365 44.6901L52.2336 44.6874L51.5525 45.4196ZM51.5431 45.4105C51.6035 45.4706 51.6642 45.5264 51.7225 45.5781L52.3859 44.8299C52.3367 44.7862 52.2912 44.7442 52.2488 44.702L51.5431 45.4105ZM51.7223 45.578C51.7431 45.5964 51.7674 45.617 51.7794 45.6273L52.4313 44.869C52.409 44.8498 52.3991 44.8416 52.3861 44.8301L51.7223 45.578ZM51.7805 45.6282C51.8272 45.6681 51.8741 45.7063 51.921 45.7429L52.5371 44.9553C52.5003 44.9265 52.4647 44.8975 52.4302 44.868L51.7805 45.6282ZM51.9223 45.744C51.9199 45.7421 51.9186 45.741 51.9191 45.7415C51.9201 45.7423 51.9208 45.7429 51.9246 45.746C51.9298 45.7504 51.9445 45.7628 51.962 45.7759L52.562 44.9759C52.5658 44.9787 52.5682 44.9807 52.5688 44.9811C52.5692 44.9815 52.5689 44.9813 52.5665 44.9792C52.5648 44.9778 52.5601 44.9739 52.5555 44.9701C52.5506 44.966 52.5438 44.9605 52.5358 44.9542L51.9223 45.744ZM51.9542 45.7699C51.9671 45.78 51.9782 45.7877 51.9856 45.7927C51.9927 45.7975 51.9987 45.8012 52.0002 45.8022C52.0007 45.8025 52.0011 45.8028 52.0012 45.8028C52.0014 45.8029 52.0013 45.8029 52.0012 45.8028C52.0008 45.8026 51.9996 45.8018 51.9978 45.8006C51.9945 45.7985 51.9873 45.7937 51.9782 45.7872L52.5664 44.9784C52.5557 44.9707 52.5468 44.9648 52.5417 44.9615C52.5391 44.9598 52.537 44.9584 52.5358 44.9577C52.5352 44.9573 52.5346 44.957 52.5344 44.9568C52.534 44.9566 52.5341 44.9566 52.5341 44.9566C52.5341 44.9566 52.5352 44.9573 52.5366 44.9582C52.5382 44.9592 52.5405 44.9608 52.5435 44.9628C52.5492 44.9666 52.5586 44.9731 52.5699 44.9819L51.9542 45.7699ZM51.9706 45.7815C53.526 46.9584 55.7489 46.9255 57.2688 45.624L56.6184 44.8644C55.4618 45.8549 53.7611 45.8822 52.574 44.9841L51.9706 45.7815ZM57.2694 45.6236L57.5828 45.3545L56.9313 44.5958L56.6179 44.8649L57.2694 45.6236ZM57.582 45.3551C57.9297 45.0578 58.4566 45.0819 58.7681 45.3936L59.4754 44.6866C58.7909 44.0019 57.6726 43.9619 56.9321 44.5951L57.582 45.3551ZM58.764 45.3894C59.4093 46.0504 60.4664 46.0616 61.127 45.4173L60.4287 44.7015C60.1624 44.9612 59.7382 44.9558 59.4795 44.6908L58.764 45.3894ZM61.1268 45.4175C61.7889 44.7721 61.7993 43.7124 61.1554 43.052L60.4395 43.7502C60.6993 44.0167 60.6938 44.4431 60.4288 44.7014L61.1268 45.4175ZM29.6594 33.7432C28.3251 32.6806 26.8781 32.2673 25.7109 32.1303L25.5943 33.1235C26.6282 33.2449 27.884 33.6076 29.0364 34.5254L29.6594 33.7432ZM25.7111 32.1303C25.1246 32.0613 24.5743 32.0591 24.0856 32.0887L24.1461 33.0869C24.5871 33.0601 25.0769 33.0626 25.5941 33.1235L25.7111 32.1303ZM24.5983 32.7191L30.1857 12.1932L29.2208 11.9306L23.6334 32.4565L24.5983 32.7191ZM29.2033 12.0539L28.848 34.1263L29.8479 34.1424L30.2032 12.07L29.2033 12.0539ZM17.2024 29.4654L28.0353 11.1028L27.174 10.5947L16.3411 28.9573L17.2024 29.4654ZM27.1222 10.7174L21.5418 31.2178L22.5067 31.4804L28.0871 10.98L27.1222 10.7174ZM22.3801 30.9979C20.8763 29.4743 19.1204 28.9309 17.749 28.7698L17.6323 29.763C18.8452 29.9055 20.3659 30.3807 21.6684 31.7003L22.3801 30.9979ZM17.749 28.7698C17.4088 28.7298 17.0835 28.7138 16.7758 28.7113L16.7676 29.7113C17.0465 29.7136 17.3348 29.728 17.6322 29.763L17.749 28.7698ZM43.9959 34.3377C48.2056 34.3377 51.6313 37.7634 51.6313 41.9731H52.6313C52.6313 37.2111 48.7579 33.3377 43.9959 33.3377V34.3377ZM51.6313 41.9731C51.6313 42.1398 51.6259 42.3064 51.6153 42.4723L52.6133 42.5357C52.6252 42.3493 52.6313 42.1616 52.6313 41.9731H51.6313ZM52.2687 42.0285C52.2614 42.0261 52.255 42.0241 52.2504 42.0228C52.2461 42.0215 52.242 42.0203 52.2404 42.0199C52.2381 42.0192 52.2382 42.0192 52.2387 42.0194C52.2394 42.0196 52.2418 42.0203 52.2453 42.0215L51.9365 42.9726C51.9439 42.975 51.9502 42.9769 51.9548 42.9782C51.9592 42.9795 51.9632 42.9807 51.9649 42.9812C51.9672 42.9818 51.9671 42.9818 51.9666 42.9817C51.9659 42.9814 51.9634 42.9807 51.9599 42.9796L52.2687 42.0285ZM52.2478 42.0222C52.1747 41.9981 52.0991 41.9749 52.0213 41.9538L51.7602 42.9192C51.8169 42.9345 51.8746 42.9521 51.9341 42.9718L52.2478 42.0222ZM52.0214 41.9539C50.9949 41.6761 49.8826 41.7994 48.9419 42.2903L49.4046 43.1769C50.1236 42.8016 50.9775 42.7074 51.7601 42.9191L52.0214 41.9539ZM48.9418 42.2904C48.5745 42.4822 48.2653 42.7292 47.9893 42.9661L48.6407 43.7249C48.9018 43.5008 49.1412 43.3144 49.4047 43.1768L48.9418 42.2904ZM47.9893 42.9662C47.7285 43.1901 47.5244 43.2922 47.2872 43.2936L47.2931 44.2936C47.8745 44.2902 48.303 44.0149 48.6408 43.7249L47.9893 42.9662ZM47.287 43.2936C47.1397 43.2945 46.9943 43.26 46.8706 43.1952L46.4063 44.0808C46.6824 44.2256 46.9904 44.2955 47.2932 44.2936L47.287 43.2936ZM46.354 42.7636C44.7943 41.4811 42.4865 41.4776 40.9221 42.8158L41.5722 43.5757C42.7634 42.5566 44.5294 42.5579 45.7189 43.536L46.354 42.7636ZM40.9214 42.8163L40.6077 43.0856L41.2591 43.8444L41.5728 43.5751L40.9214 42.8163ZM40.6084 43.085C40.2969 43.3515 39.7946 43.3498 39.4397 43.0186L38.7575 43.7498C39.455 44.4006 40.5303 44.4677 41.2584 43.845L40.6084 43.085ZM39.4377 43.0168C38.6633 42.3022 37.688 41.8254 36.576 41.8028L36.5557 42.8026C37.3797 42.8194 38.1297 43.1705 38.7595 43.7517L39.4377 43.0168ZM36.5845 41.8031C36.3181 41.7931 36.0539 41.8082 35.7946 41.847L35.9429 42.836C36.141 42.8063 36.3431 42.7947 36.5471 42.8024L36.5845 41.8031ZM36.3682 42.3187C36.363 42.2039 36.3604 42.0886 36.3604 41.9729H35.3604C35.3604 42.1032 35.3633 42.2337 35.3692 42.3643L36.3682 42.3187ZM36.3604 41.9729C36.3605 37.7634 39.7862 34.3377 43.9959 34.3377V33.3377C39.2339 33.3377 35.3605 37.2111 35.3604 41.9729L36.3604 41.9729ZM9.2836 23.6516L15.7658 17.1341L15.0568 16.4289L8.57458 22.9464L9.2836 23.6516ZM16.7188 18.0816L10.2366 24.5991L10.9456 25.3043L17.4278 18.7868L16.7188 18.0816ZM61.1528 43.0493L61.1426 43.039L60.4319 43.7426L60.4421 43.7529L61.1528 43.0493ZM32.2366 43.0369L32.2301 43.0305L31.5284 43.7429L31.5349 43.7493L32.2366 43.0369ZM9.59509 26.3939L9.67244 26.4026L9.78422 25.4088L9.70687 25.4001L9.59509 26.3939ZM45.7191 43.5362C45.7706 43.5785 45.8211 43.6252 45.8843 43.6839L46.5649 42.9513C46.5053 42.8959 46.4327 42.8283 46.3538 42.7634L45.7191 43.5362ZM45.8843 43.6839C46.0048 43.7959 46.1794 43.9619 46.4063 44.0809L46.8706 43.1952C46.7811 43.1483 46.7008 43.0775 46.5649 42.9513L45.8843 43.6839Z" fill="white" mask="url(#path-2-inside-1)"/>
<path d="M19.6653 32.107L19.9161 32.2906C20.6327 32.8152 21.2215 33.5415 21.681 34.4566L21.6811 34.4567C21.8821 34.8577 22.3651 35.0567 22.7939 34.9184C22.794 34.9184 22.794 34.9184 22.7941 34.9184L22.8708 35.1563C23.0518 35.0977 27.3312 33.7696 29.4198 37.9294C29.6218 38.3317 30.0312 38.5756 30.4668 38.5756C30.5533 38.5756 30.6409 38.566 30.7281 38.5461L19.6653 32.107ZM19.6653 32.107L19.5397 32.3913M19.6653 32.107L19.5397 32.3913M17.4456 31.3459C16.0245 31.1789 14.862 31.5481 14.8358 31.5567L14.8341 31.5572C14.4074 31.7001 13.9205 31.4987 13.7187 31.0964L13.7186 31.0963C12.6312 28.9306 10.9598 28.1819 9.53845 27.9923C8.13127 27.8045 6.97473 28.1634 6.86929 28.1976L6.86926 28.1976C6.46376 28.3289 6.01972 28.1656 5.79736 27.8035C5.57423 27.4398 5.62737 26.9729 5.92665 26.672L5.92666 26.672L9.10593 23.4753L15.5882 16.9578L15.4109 16.7815L15.5882 16.9578L30.3714 2.09358L30.3717 2.09325C30.6362 1.82629 31.0655 1.74833 31.4075 1.90483L31.4076 1.90487C31.7333 2.05384 31.9529 2.40082 31.9469 2.75831L31.9469 2.75844L31.3888 37.4184C31.382 37.8428 31.0863 38.2077 30.6725 38.3024L12.6938 42.707L13.6446 40.5546L17.4868 31.8568C17.4885 31.857 17.4901 31.8573 17.4917 31.8575C17.5109 31.8606 17.5314 31.8638 17.5545 31.8673L17.5914 31.62L17.4222 31.5452L17.4456 31.3459ZM17.4456 31.3459C17.4914 31.3513 17.54 31.3589 17.5819 31.3655C17.5986 31.3682 17.6143 31.3707 17.6283 31.3727L17.9526 31.4211L17.8201 31.721L13.8733 40.6556L12.9225 42.808L9.47413 50.6144M17.4456 31.3459C17.4455 31.3459 17.4454 31.3459 17.4454 31.3459L17.4221 31.5452L17.3627 31.519L17.3335 31.5851C16.0021 31.4476 14.9243 31.7908 14.9135 31.7943C14.3685 31.9768 13.7527 31.7217 13.4952 31.2085C11.4065 27.0487 7.12733 28.3768 6.94627 28.4354C6.43145 28.6021 5.86729 28.3952 5.58428 27.9342C5.30138 27.4732 5.36794 26.8792 5.7494 26.4957L8.92867 23.299L9.47413 50.6144M9.47413 50.6144C9.47412 50.6144 9.47412 50.6144 9.47411 50.6144M9.47413 50.6144L9.47411 50.6144M19.5397 32.3913L15.4517 41.6459L15.4517 41.6459L14.4941 43.813L14.4941 43.813M19.5397 32.3913L14.4941 43.813M14.4941 43.813L11.1606 51.3595C11.0086 51.7037 10.6713 51.9092 10.3167 51.9092C10.1927 51.9092 10.0664 51.884 9.9448 51.8303M14.4941 43.813L9.9448 51.8303M9.9448 51.8303C9.4792 51.6245 9.26845 51.0802 9.47411 50.6144M9.9448 51.8303L9.47411 50.6144M25.4857 10.3189L25.0932 10.0156L16.8957 18.2579L10.4134 24.7754L10.5907 24.9517L10.4134 24.7754L9.4733 25.7207L9.10844 26.0876L9.62262 26.1454L9.69873 26.154C9.69887 26.154 9.69901 26.154 9.69915 26.1541C11.0815 26.3166 12.8634 26.8991 14.2994 28.6228L14.5265 28.8954L14.7068 28.5898L25.4857 10.3189ZM25.623 32.8752L25.6231 32.8752C26.6902 33.0005 27.9938 33.3759 29.1918 34.3299L29.5893 34.6465L29.5975 34.1383L29.9528 12.0659L29.4616 11.9962L23.8742 32.5221L23.7826 32.8585L24.1305 32.8374C24.5835 32.8099 25.0884 32.8122 25.623 32.8752ZM27.8454 10.9144L27.3889 10.7217L16.556 29.0843L16.3357 29.4578L16.7693 29.4613C17.0554 29.4636 17.3529 29.4785 17.661 29.5147L17.661 29.5147C18.9136 29.6618 20.4931 30.1541 21.8459 31.5247L22.151 31.8338L22.265 31.4148L27.8454 10.9144ZM54.2247 41.9728C54.2247 42.4457 54.1921 42.9156 54.1281 43.3796L52.3719 42.3644C52.3779 42.2344 52.3809 42.1039 52.3809 41.9731C52.3809 37.3491 48.6194 33.5877 43.9955 33.5877C39.3715 33.5877 35.6101 37.3491 35.61 41.9729C35.61 42.0463 35.6109 42.1196 35.6129 42.193L33.8318 43.1246C33.7885 42.7423 33.7663 42.3574 33.7663 41.9728C33.7663 36.3327 38.3553 31.7436 43.9955 31.7436C49.6357 31.7436 54.2247 36.3327 54.2247 41.9728Z" fill="#8B4326" stroke="white" stroke-width="0.5"/>
<path d="M42.6722 10.7014C42.5116 9.53691 41.5565 8.87995 40.7175 8.52111C39.8723 8.15959 39.0631 8.06338 39.0305 8.05979C38.5251 8.00432 38.1587 7.5502 38.2123 7.04591L38.2123 7.04584C38.2662 6.5399 38.718 6.17342 39.221 6.22601L39.2213 6.22605C39.3323 6.23748 40.414 6.36028 41.5805 6.88835L41.5805 6.88835C42.3282 7.22677 42.9368 7.65239 43.4029 8.15049L43.5854 8.34555L43.768 8.15053C44.2342 7.6525 44.8427 7.22688 45.5905 6.88834C46.7569 6.36028 47.8386 6.23748 47.9496 6.22605L47.9499 6.22601C48.456 6.17316 48.9089 6.54181 48.961 7.04864C49.013 7.55433 48.646 8.00642 48.1409 8.05978L48.1387 8.06003C48.0996 8.0645 47.287 8.16237 46.4417 8.52628C45.6059 8.8861 44.6586 9.54236 44.4987 10.7014L44.4987 10.7015C44.4359 11.1575 44.0458 11.4974 43.5855 11.4974C43.125 11.4974 42.7352 11.1576 42.6722 10.7014ZM42.6722 10.7014L42.4246 10.7355M42.6722 10.7014C42.6722 10.7014 42.6722 10.7014 42.6722 10.7014L42.4246 10.7355M42.4246 10.7355C42.5046 11.3154 43.0001 11.7474 43.5855 11.7474C44.1707 11.7474 44.6665 11.3154 44.7464 10.7356M42.4246 10.7355C42.1406 8.67628 39.0347 8.31169 39.0033 8.30829L44.7464 10.7356M44.7464 10.7356C45.0292 8.68589 48.1078 8.31521 48.1672 8.30841L44.7464 10.7356ZM43.4099 7.80146C42.9451 7.35312 42.3675 6.97015 41.6836 6.66059C40.4819 6.11659 39.3699 5.99003 39.247 5.97737C38.6059 5.91034 38.0321 6.37735 37.9637 7.01943L43.4099 7.80146Z" fill="#949494" stroke="white" stroke-width="0.5"/>
<path d="M47.3399 15.8452L47.3399 15.8452C47.2878 16.3526 47.6538 16.8043 48.1593 16.8562L48.1627 16.8566L48.1627 16.8566C48.1816 16.8588 48.6138 16.9154 49.0645 17.0966C49.4952 17.2698 50.0562 17.6034 50.1409 18.217L47.3399 15.8452ZM47.3399 15.8452C47.3919 15.3394 47.847 14.9703 48.3543 15.0228L48.3544 15.0228C49.0759 15.0971 50.1148 15.3992 50.8972 16.056L51.058 16.191M47.3399 15.8452L51.058 16.191M51.9674 18.217L51.9674 18.217C52.0515 17.6076 52.6053 17.2746 53.0337 17.1006C53.482 16.9186 53.9145 16.8605 53.942 16.857L53.947 16.8563L53.947 16.8564C54.4512 16.802 54.8171 16.3504 54.7651 15.8454L54.7651 15.8454C54.7131 15.3388 54.2626 14.9705 53.7535 15.0228C53.6801 15.0304 52.9488 15.1134 52.1686 15.4667L51.9674 18.217ZM51.9674 18.217C51.9045 18.6731 51.5147 19.0129 51.0541 19.0129C50.5938 19.0129 50.2039 18.6732 50.1409 18.217L51.9674 18.217ZM51.058 16.191L51.2187 16.056M51.058 16.191L51.2187 16.056M51.2187 16.056C51.4885 15.8294 51.806 15.6309 52.1686 15.4667L51.2187 16.056Z" fill="#949494" stroke="white" stroke-width="0.5"/>
</g>
<defs>
<clipPath id="clip0">
<rect x="0.81543" y="-0.000488281" width="61" height="60" fill="white"/>
</clipPath>
</defs>
</svg>
