<svg width="61" height="60" viewBox="0 0 61 60" fill="none" xmlns="http://www.w3.org/2000/svg">
<path fill-rule="evenodd" clip-rule="evenodd" d="M59.982 43.4016L59.9718 43.3913C58.606 42.0256 56.3861 41.9391 54.9165 43.1962L54.6026 43.4658C54.2905 43.7329 53.8868 43.8354 53.5038 43.7791C53.607 43.1861 53.6597 42.582 53.6597 41.9733C53.6597 36.1951 48.9588 31.4941 43.1805 31.4941C37.4022 31.4941 32.7013 36.1951 32.7013 41.9733C32.7013 42.4885 32.7402 43.0037 32.8153 43.5126C32.5766 43.6946 32.2833 43.7947 31.9783 43.7947H31.9744C31.6325 43.7775 31.312 43.6353 31.0703 43.3936L31.0638 43.3872C30.3656 42.6912 29.4369 42.3065 28.4466 42.3027C27.6563 42.2856 26.8979 42.5137 26.2496 42.9619C26.0192 43.1218 25.847 43.3346 25.6343 43.5126C25.4245 43.6883 25.1346 43.7842 24.8635 43.794C24.478 43.8083 24.0712 43.6605 23.8689 43.4357C23.8552 43.4205 23.8411 43.4057 23.8266 43.3912C23.1606 42.7251 22.276 42.3388 21.338 42.3036C20.3961 42.267 19.4858 42.583 18.7704 43.196L18.4573 43.4648C18.2785 43.6175 18.061 43.7215 17.8297 43.7679C16.8169 43.0156 15.8228 42.3438 14.8654 41.7474L18.9534 32.4928C19.633 32.9903 20.1978 33.6835 20.6426 34.5693C20.8999 35.0824 21.5115 35.3324 22.0558 35.1568C22.2368 35.0982 26.5162 33.7701 28.6048 37.9299C28.8068 38.3322 29.2162 38.5761 29.6518 38.5761C29.7383 38.5761 29.8259 38.5665 29.9131 38.5466C30.4391 38.4263 30.8151 37.9625 30.8238 37.4229L31.3819 2.76295C31.3895 2.30567 31.1122 1.86808 30.6965 1.678C30.2594 1.47795 29.7176 1.57616 29.3791 1.91777L14.5959 16.782L8.11366 23.2995L4.93439 26.4962C4.55293 26.8797 4.48637 27.4737 4.76927 27.9347C5.05228 28.3957 5.61644 28.6026 6.13126 28.4359C6.31232 28.3773 10.5915 27.0492 12.6802 31.209C12.9377 31.7222 13.5535 31.9773 14.0985 31.7948C14.1095 31.7912 15.2321 31.4338 16.6014 31.5947C16.6606 31.6016 16.7181 31.6118 16.7764 31.6205L12.8296 40.5551C12.4431 40.3426 12.065 40.1414 11.6986 39.954C6.12739 37.1048 1.84981 36.4061 1.67039 36.3777C1.03229 36.2767 0.431103 36.713 0.329967 37.3523C0.228949 37.9915 0.665133 38.5917 1.30453 38.6927C1.34472 38.699 5.38909 39.3596 10.6314 42.0407C11.0338 42.2465 11.451 42.4695 11.8788 42.7075L8.43042 50.5139C8.16897 51.106 8.43687 51.7979 9.0288 52.0595C9.18279 52.1275 9.34357 52.1597 9.50166 52.1597C9.95168 52.1597 10.3808 51.899 10.5743 51.461L13.9078 43.9145C18.2736 46.6829 23.3917 51.0731 27.3975 57.8476C27.6162 58.2176 28.0065 58.4233 28.4073 58.4233C28.61 58.4233 28.8155 58.3707 29.0027 58.2599C29.5598 57.9305 29.7444 57.2118 29.4149 56.6546C26.5582 51.8232 23.1648 48.1393 19.8416 45.355C19.8886 45.3186 19.9364 45.2836 19.9817 45.2449L20.296 44.975C20.8027 44.541 21.5737 44.5391 22.0831 44.9697C22.2024 45.0704 22.3044 45.1902 22.4242 45.2913C22.5444 45.3928 22.6723 45.4854 22.8056 45.5689C23.0795 45.7403 23.3769 45.8737 23.6857 45.9685C24.3323 46.1669 25.0278 46.194 25.6856 46.0337C26.3808 45.8644 26.9661 45.4989 27.4678 44.9971C27.992 44.473 28.9083 44.5585 29.4168 45.055C30.0798 45.7158 30.9601 46.1001 31.8963 46.1372C31.9065 46.1376 31.9167 46.1379 31.9269 46.138C32.8327 46.1499 33.7131 45.8335 34.4008 45.2448L34.7151 44.9749C35.2139 44.5475 35.9711 44.5394 36.4922 44.931C36.7544 45.128 36.9751 45.362 37.2558 45.5391C37.5511 45.7254 37.8738 45.872 38.2092 45.9695C39.2595 46.2773 40.4109 46.1166 41.3378 45.4787C41.4426 45.4067 41.5449 45.3291 41.6434 45.2447L41.9568 44.9755C42.389 44.606 42.9965 44.5508 43.4818 44.7969C43.4858 44.7989 43.4899 44.8004 43.4939 44.8024C43.5255 44.8188 43.5563 44.8373 43.5868 44.8563C43.5924 44.8598 43.5983 44.8627 43.6039 44.8663C43.6325 44.8847 43.6602 44.9052 43.6876 44.9259C43.8303 45.0345 43.9507 45.1705 44.0891 45.2849C44.2295 45.4009 44.3791 45.5063 44.5352 45.6003C44.9057 45.8234 45.3158 45.9791 45.74 46.0626C46.4348 46.1993 47.1651 46.1352 47.8252 45.8789C48.2106 45.7294 48.5721 45.5138 48.8858 45.2446L49.1992 44.9754C49.7433 44.5102 50.5658 44.5421 51.0718 45.0483L51.0776 45.054L51.0805 45.0567C51.1319 45.1079 51.185 45.1568 51.2388 45.2045C51.2557 45.2195 51.2728 45.2339 51.2899 45.2486C51.3305 45.2833 51.3718 45.3169 51.4136 45.3496C51.4248 45.3583 51.4354 45.368 51.4466 45.3764C51.4498 45.3789 51.4536 45.3809 51.4569 45.3833C52.8281 46.4208 54.7899 46.3907 56.1282 45.2447L56.4416 44.9756C56.9857 44.5103 57.8083 44.5424 58.3063 45.0406C58.7583 45.5036 59.499 45.5119 59.9624 45.0599C60.4259 44.6081 60.4339 43.865 59.982 43.4016ZM24.4554 10.1924L16.2579 18.4347L9.77565 24.9522L8.83555 25.8975L8.9129 25.9062C10.3397 26.0739 12.1884 26.6771 13.6765 28.4633L24.4554 10.1924ZM24.8372 32.6274C25.9377 32.7566 27.2891 33.1446 28.5325 34.1348L28.8878 12.0624L23.3004 32.5883C23.7653 32.5601 24.2853 32.5624 24.8372 32.6274ZM26.7892 10.8492L15.9563 29.2118C16.2496 29.2142 16.5564 29.2294 16.8752 29.2669C18.1674 29.4187 19.8057 29.928 21.2088 31.3496L26.7892 10.8492ZM51.3159 41.9736C51.3159 37.4877 47.6663 33.8382 43.1805 33.8382C38.6946 33.8382 35.0451 37.4877 35.045 41.9734C35.045 42.0964 35.0477 42.2193 35.0533 42.342C35.282 42.3077 35.5152 42.2944 35.7504 42.3032C36.7184 42.3229 37.5811 42.7368 38.2832 43.3847C38.8094 43.8757 39.5982 43.9101 40.118 43.4655L40.4317 43.1962C41.8095 42.0176 43.8464 42.02 45.221 43.1503C45.2862 43.2038 45.3478 43.261 45.4092 43.3181C45.5374 43.4372 45.6648 43.5556 45.823 43.6385C46.0229 43.7433 46.2496 43.7955 46.4747 43.7941C46.884 43.7917 47.2003 43.603 47.4996 43.346C47.7681 43.1155 48.0424 42.8988 48.3578 42.7341C49.1877 42.301 50.1708 42.1922 51.0753 42.437C51.1426 42.4552 51.2092 42.4756 51.2755 42.4975C51.2832 42.5 51.2912 42.502 51.2989 42.5045C51.3101 42.3283 51.3159 42.1512 51.3159 41.9736Z" fill="#949494"/>
<path fill-rule="evenodd" clip-rule="evenodd" d="M14.8654 41.7474L18.9534 32.4928C19.633 32.9903 20.1978 33.6835 20.6426 34.5693C20.8999 35.0824 21.5115 35.3324 22.0558 35.1568C22.2368 35.0982 26.5162 33.7701 28.6048 37.9299C28.8068 38.3322 29.2162 38.5761 29.6518 38.5761C29.7383 38.5761 29.8259 38.5665 29.9131 38.5466C30.4391 38.4263 30.8151 37.9625 30.8238 37.4229L31.3819 2.76295C31.3895 2.30567 31.1122 1.86808 30.6965 1.678C30.2594 1.47795 29.7176 1.57616 29.3791 1.91777L14.5959 16.782L8.11367 23.2995L4.9344 26.4962C4.55294 26.8797 4.48638 27.4737 4.76928 27.9347C5.05229 28.3957 5.61645 28.6026 6.13127 28.4359C6.31233 28.3773 10.5915 27.0492 12.6802 31.209C12.9377 31.7222 13.5535 31.9773 14.0985 31.7948C14.1095 31.7912 15.2321 31.4338 16.6014 31.5947C16.6606 31.6016 16.7181 31.6118 16.7764 31.6205L12.8296 40.5551L11.8788 42.7075L8.43043 50.5139C8.16898 51.106 8.43688 51.7979 9.02881 52.0595C9.1828 52.1275 9.34358 52.1597 9.50167 52.1597C9.95169 52.1597 10.3808 51.899 10.5743 51.461L13.9078 43.9145L14.8654 41.7474ZM24.4554 10.1924L16.2579 18.4347L9.77566 24.9522L8.83556 25.8975L8.91291 25.9062C10.3397 26.0739 12.1884 26.6771 13.6765 28.4633L24.4554 10.1924ZM24.8372 32.6274C25.9377 32.7566 27.2891 33.1446 28.5325 34.1348L28.8878 12.0624L23.3004 32.5883C23.7653 32.5601 24.2853 32.5624 24.8372 32.6274ZM26.7892 10.8492L15.9563 29.2118C16.2496 29.2142 16.5564 29.2294 16.8752 29.2669C18.1674 29.4187 19.8057 29.928 21.2088 31.3496L26.7892 10.8492Z" fill="#8B4326"/>
<path d="M53.5038 43.7791C53.607 43.1861 53.6597 42.582 53.6597 41.9733C53.6597 36.1951 48.9588 31.4941 43.1805 31.4941C37.4022 31.4941 32.7013 36.1951 32.7013 41.9733C32.7013 42.4885 32.7402 43.0037 32.8153 43.5126L35.0533 42.342C35.0477 42.2193 35.045 42.0964 35.045 41.9734C35.0451 37.4877 38.6946 33.8382 43.1805 33.8382C47.6663 33.8382 51.3159 37.4877 51.3159 41.9736C51.3159 42.1512 51.3101 42.3283 51.2989 42.5045L53.5038 43.7791Z" fill="#8B4326"/>
<path d="M38.1878 8.30878C38.2192 8.31218 41.3251 8.67676 41.6091 10.736C41.6891 11.3159 42.1846 11.7479 42.77 11.7479C43.3552 11.7479 43.851 11.3159 43.9309 10.7361C44.2137 8.68637 47.2923 8.31569 47.3517 8.30889C47.9938 8.24104 48.4603 7.66634 48.3942 7.02355C48.328 6.3797 47.7525 5.91059 47.1085 5.97785C46.9856 5.99051 45.8735 6.11708 44.6719 6.66108C43.899 7.01101 43.262 7.45457 42.77 7.98017C42.2781 7.45446 41.641 7.01089 40.8681 6.66108C39.6664 6.11708 38.5544 5.99051 38.4315 5.97785C37.7904 5.91082 37.2166 6.37783 37.1482 7.01991C37.08 7.66177 37.546 8.23835 38.1878 8.30878Z" fill="#949494"/>
<path d="M46.2758 15.8201C46.2096 16.4639 46.6745 17.0392 47.3183 17.1054C47.3346 17.1073 48.9489 17.3178 49.0778 18.2517C49.1579 18.8315 49.6535 19.2634 50.2387 19.2634C50.8241 19.2634 51.3197 18.8314 51.3996 18.2516C51.5275 17.3245 53.1194 17.1104 53.1584 17.1054C53.7993 17.0363 54.2644 16.4622 54.1984 15.8203C54.1323 15.1766 53.5592 14.7081 52.9125 14.7746C52.8283 14.7833 52.0661 14.8699 51.25 15.2394C50.8685 15.4122 50.5312 15.6225 50.2425 15.865C49.411 15.1669 48.3196 14.8523 47.5646 14.7746C46.9206 14.708 46.342 15.1762 46.2758 15.8201Z" fill="#949494"/>
</svg>
