<svg width="62" height="62" viewBox="0 0 62 62" fill="none" xmlns="http://www.w3.org/2000/svg">
<g clip-path="url(#clip0)">
<path d="M18.6951 9.79167L18.6953 9.77283C18.7006 9.3204 18.7519 8.93601 18.898 8.61949C19.0491 8.29218 19.2921 8.05726 19.6383 7.8898C19.9751 7.72693 20.4094 7.62772 20.9512 7.55803C21.4954 7.48803 22.1684 7.44558 22.992 7.40638L23.018 7.40513C23.3016 7.39158 23.5904 7.37779 23.8841 7.36092L23.8842 7.36091C24.372 7.33299 24.7533 6.92924 24.7533 6.4405C24.7533 4.62829 26.2273 3.15429 28.0396 3.15429H34.8976C36.7097 3.15429 38.1838 4.62829 38.1838 6.4405C38.1838 6.9292 38.5651 7.33296 39.0529 7.36091L18.6951 9.79167ZM18.6951 9.79167L18.6977 9.81034M18.6951 9.79167L18.6977 9.81034M18.6977 9.81034L21.1955 27.7077L21.2255 27.9232H21.4431H41.4941H41.7116L41.7417 27.7077L44.2394 9.81034L44.242 9.79168M18.6977 9.81034L44.242 9.79168M44.242 9.79168L44.2418 9.77284M44.242 9.79168L44.2418 9.77284M44.2418 9.77284C44.2364 9.32041 44.1852 8.93602 44.0391 8.6195C43.888 8.29218 43.645 8.05726 43.2988 7.8898C42.9621 7.72693 42.5277 7.62772 41.986 7.55803C41.4418 7.48803 40.7687 7.44558 39.9452 7.40638M44.2418 9.77284L39.9452 7.40638M39.9452 7.40638C39.6533 7.39243 39.3558 7.37818 39.053 7.36091L39.9452 7.40638ZM45.7677 32.6219L45.778 32.8612H46.0175H46.4351C46.9442 32.8612 47.3569 33.274 47.3568 33.783V38.9208C47.3568 39.4299 46.9441 39.8427 46.4349 39.8427H45.7544H45.4991L45.5044 40.0979C45.56 42.7448 45.1994 45.1794 44.4316 47.3521L44.6673 47.4354L44.4316 47.3521C43.3073 50.5342 43.4622 52.599 43.9623 53.9005C44.4623 55.2021 45.2927 55.702 45.4436 55.7839L45.4529 55.7889L45.4625 55.7931C45.788 55.9356 45.9762 56.2431 45.9762 56.6203V59.8887C45.9762 60.3978 45.5635 60.8106 45.0544 60.8106C43.0951 60.8106 41.2442 60.0313 39.841 58.613C38.4497 57.2063 37.6514 55.3227 37.5952 53.3068C37.5392 51.3031 37.6553 49.2577 37.9404 47.2278L37.9404 47.2278C38.0722 46.2871 38.1158 45.2704 38.0723 44.1914L38.059 43.8631L37.7462 43.9634C36.9796 44.2091 36.1778 44.3359 35.3703 44.3359H27.5662C26.7587 44.3359 25.9571 44.2091 25.1904 43.9633L24.8775 43.863L24.8643 44.1913C24.8208 45.2701 24.8643 46.2871 24.9962 47.228L24.9962 47.228C25.2812 49.2576 25.3973 51.303 25.3414 53.3068C25.2851 55.3227 24.4869 57.2062 23.0955 58.613C21.6926 60.0313 19.8418 60.8106 17.8826 60.8106C17.3734 60.8106 16.9607 60.3978 16.9607 59.8887V56.6203C16.9607 56.2432 17.149 55.9356 17.4744 55.7931L17.484 55.7889L17.4932 55.7839C17.6442 55.702 18.4746 55.2021 18.9747 53.9006C19.4747 52.599 19.6296 50.5343 18.5053 47.352L18.2696 47.4353L18.5053 47.352C17.7376 45.1794 17.377 42.7449 17.4324 40.0979L17.4378 39.8427H17.1825H16.502C15.9928 39.8427 15.5801 39.4299 15.5801 38.9208V33.7831C15.5801 33.2739 15.9928 32.8612 16.502 32.8612H16.9195H17.159L17.1692 32.6219C17.2384 31.015 18.0825 29.605 19.3387 28.7587L19.4682 28.6715L19.4466 28.5168L16.8599 9.98135L16.8599 9.98131C16.854 9.93898 16.851 9.8964 16.851 9.85394C16.851 8.93908 17.0263 8.18568 17.3606 7.58646C17.6934 6.98988 18.1913 6.53214 18.8622 6.21716C19.917 5.72201 21.2148 5.64539 22.7887 5.57015L22.9812 5.56095L23.0213 5.37243C23.5142 3.05458 25.5777 1.31055 28.0396 1.31055H34.8976C37.3594 1.31055 39.4229 3.05458 39.9155 5.37241L39.9556 5.56095L40.1481 5.57015C41.7222 5.64539 43.0201 5.72201 44.0747 6.21716C44.7456 6.53213 45.2435 6.98987 45.5763 7.58646C45.9106 8.18568 46.0859 8.93908 46.0859 9.85394C46.0859 9.8967 46.083 9.93928 46.0771 9.98131L46.0771 9.98135L43.4903 28.5168L43.4687 28.6715L43.5982 28.7587C44.8544 29.605 45.6987 31.0151 45.7677 32.6219ZM43.6707 32.8613H43.9412L43.9199 32.5916C43.795 31.013 42.4711 29.7669 40.8608 29.7669H22.0765C20.4661 29.7669 19.1423 31.0129 19.0173 32.5915L18.9959 32.8613H19.2665H43.6707ZM44.1325 57.2473V57.1252L44.0362 57.0501C43.4221 56.5713 42.5148 55.6285 42.0439 53.9993C41.5728 52.3698 41.5307 50.0279 42.6932 46.7378C43.3942 44.7541 43.717 42.5204 43.6607 40.0869L43.6551 39.8427H43.4108H19.5261H19.2818L19.2761 40.0869C19.22 42.5203 19.5427 44.7541 20.2439 46.7378C21.4063 50.0279 21.3642 52.37 20.8931 53.9994C20.4222 55.6286 19.5149 56.5714 18.9009 57.0501L18.8046 57.1252V57.2473V58.5846V58.8986L19.1106 58.8282C21.5854 58.2589 23.4218 56.007 23.4986 53.2554C23.5517 51.3535 23.4413 49.4118 23.1706 47.4842C22.9538 45.9369 22.9489 44.212 23.1588 42.3566L23.1588 42.3565C23.1938 42.0464 23.3834 41.7751 23.6627 41.6355C23.942 41.496 24.2729 41.5073 24.5418 41.6653C25.4618 42.2061 26.5076 42.4921 27.5665 42.4921H35.3706C36.4294 42.4921 37.4751 42.2061 38.3952 41.6653C38.539 41.5809 38.7005 41.5383 38.8623 41.5383C39.0032 41.5383 39.1443 41.5706 39.2743 41.6356L39.2744 41.6356C39.5536 41.7751 39.7432 42.0464 39.7783 42.3567C39.988 44.2123 39.9832 45.9371 39.7665 47.4837C39.4958 49.4118 39.3854 51.3535 39.4386 53.2554C39.5153 56.007 41.3518 58.2591 43.8264 58.8282L44.1325 58.8986V58.5846V57.2473ZM40.0267 42.3286C39.9821 41.9343 39.7411 41.5893 39.3861 41.412L40.0267 42.3286ZM45.2632 37.9989H45.5132V37.7489V34.9549V34.7049H45.2632H17.674H17.424V34.9549V37.7489V37.9989H17.674H45.2632Z" fill="#949494" stroke="white" stroke-width="0.5"/>
<path d="M45.7677 32.6218L45.778 32.8611H46.0175H46.4351C46.9442 32.8611 47.3569 33.2739 47.3568 33.783V38.9207C47.3568 39.4298 46.9441 39.8426 46.4349 39.8426H45.7544H43.4108H19.5261H17.1825H16.502C15.9928 39.8426 15.5801 39.4298 15.5801 38.9207V33.783C15.5801 33.2738 15.9928 32.8611 16.502 32.8611H16.9195H17.159L17.1692 32.6218C17.238 31.0246 18.0724 29.6219 19.3161 28.7739L21.4903 27.9231H41.4469L43.6208 28.7739C44.8645 29.6219 45.6991 31.0246 45.7677 32.6218ZM19.0173 32.5915L18.9959 32.8612H19.2665H43.6707H43.9412L43.9199 32.5915C43.795 31.0129 42.4711 29.7668 40.8608 29.7668H22.0765C20.4661 29.7668 19.1423 31.0128 19.0173 32.5915ZM17.424 37.7488V37.9988H17.674H45.2632H45.5132V37.7488V34.9548V34.7048H45.2632H17.674H17.424V34.9548V37.7488Z" fill="#8B4326" stroke="white" stroke-width="0.5"/>
</g>
<defs>
<clipPath id="clip0">
<rect x="0.484375" y="0.780273" width="61" height="61" fill="white"/>
</clipPath>
</defs>
</svg>
