<svg width="61" height="61" viewBox="0 0 61 61" fill="none" xmlns="http://www.w3.org/2000/svg">
<path d="M45.9507 31.8309H45.5331C45.4605 30.1415 44.5728 28.6599 43.2535 27.7711L45.8403 9.23563C45.8478 9.18195 45.8515 9.12781 45.8515 9.07367C45.8515 7.18168 45.1265 5.88195 43.6966 5.21059C42.5886 4.69039 41.2372 4.6148 39.6757 4.54016C39.1591 2.10945 36.9957 0.280273 34.4132 0.280273H27.5552C24.9727 0.280273 22.8093 2.10945 22.2924 4.54016C20.731 4.6148 19.3797 4.69039 18.2716 5.21059C16.8416 5.88195 16.1166 7.18168 16.1166 9.07367C16.1166 9.12781 16.1204 9.18195 16.1279 9.23563L18.7146 27.7711C17.3954 28.6599 16.5078 30.1415 16.4351 31.8309H16.0176C15.3704 31.8309 14.8457 32.3555 14.8457 33.0028V38.1405C14.8457 38.7877 15.3704 39.3124 16.0176 39.3124H16.6981C16.6421 41.9851 17.0061 44.4502 17.7852 46.655C20.0068 52.9432 17.12 54.659 16.8897 54.7838C16.4641 54.9702 16.2263 55.3742 16.2263 55.84V59.1084C16.2263 59.7556 16.7509 60.2803 17.3982 60.2803C19.4254 60.2803 21.3399 59.4734 22.7889 58.0085C24.2257 56.5558 25.0489 54.6116 25.1069 52.5335C25.1632 50.5154 25.0463 48.4561 24.7594 46.413C24.6299 45.4889 24.5867 44.4871 24.6297 43.4211C25.4208 43.6747 26.2482 43.8056 27.0818 43.8056H34.8859C35.7196 43.8056 36.5471 43.6747 37.3381 43.4212C37.3811 44.4874 37.3379 45.4889 37.2084 46.4128C36.9215 48.4562 36.8045 50.5155 36.8609 52.5335C36.9189 54.6116 37.7421 56.5559 39.1789 58.0085C40.6282 59.4734 42.5427 60.2803 44.57 60.2803C45.2172 60.2803 45.7418 59.7556 45.7418 59.1084V55.84C45.7418 55.3742 45.5042 54.9702 45.0784 54.7838C44.8482 54.659 41.9614 52.943 44.1829 46.6551C44.9621 44.4502 45.3261 41.985 45.27 39.3124H45.9505C46.5978 39.3124 47.1224 38.7877 47.1224 38.1405V33.0028C47.1225 32.3557 46.5979 31.8309 45.9507 31.8309ZM18.4609 8.99551C18.4817 7.23582 19.2257 7.03262 22.5195 6.87582C22.8112 6.86188 23.1099 6.8477 23.4141 6.83023C24.0343 6.79473 24.5189 6.28145 24.5189 5.66023C24.5189 3.98609 25.881 2.62402 27.5552 2.62402H34.4132C36.0873 2.62402 37.4494 3.98609 37.4494 5.66023C37.4494 6.28145 37.9341 6.79473 38.5543 6.83023C38.8585 6.84758 39.1572 6.86188 39.4489 6.87582C42.7427 7.03262 43.4867 7.23582 43.5074 8.99551L41.0097 26.8929H20.9587L18.4609 8.99551ZM43.1863 31.831H18.7821C18.8969 30.3812 20.1133 29.2366 21.5921 29.2366H40.3764C41.8552 29.2366 43.0716 30.3813 43.1863 31.831ZM43.3981 56.467V57.8043C41.0402 57.262 39.2778 55.112 39.2041 52.4682C39.1513 50.5805 39.2609 48.6528 39.5297 46.7382C39.7498 45.1673 39.754 43.4211 39.5423 41.5483C39.4977 41.154 39.2567 40.809 38.9017 40.6317C38.7365 40.5491 38.5571 40.508 38.3779 40.508C38.1722 40.508 37.9669 40.5622 37.7841 40.6695C36.9021 41.1879 35.9001 41.4618 34.8862 41.4618H27.0821C26.0682 41.4618 25.0661 41.1879 24.1841 40.6695C23.8422 40.4686 23.4215 40.4543 23.0665 40.6316C22.7116 40.809 22.4705 41.1539 22.426 41.5482C22.2142 43.4207 22.2184 45.167 22.4386 46.7386C22.7075 48.6527 22.817 50.5805 22.7643 52.4681C22.6905 55.112 20.9282 57.2619 18.5702 57.8043V56.467C19.8623 55.4598 22.3464 52.5293 19.9952 45.8742C19.3057 43.9235 18.9861 41.7205 19.0417 39.3124H42.9264C42.9821 41.7205 42.6625 43.9234 41.9731 45.8742C39.6218 52.5291 42.106 55.4596 43.3981 56.467ZM44.7788 36.9686H17.1896V34.1746H44.7788V36.9686Z" fill="#949494"/>
<path fill-rule="evenodd" clip-rule="evenodd" d="M45.9507 31.8309H45.5331C45.4605 30.1415 44.5728 28.6599 43.2535 27.7711L41.0097 26.8929H20.9587L18.7146 27.7711C17.3954 28.6599 16.5078 30.1415 16.4351 31.8309H16.0176C15.3704 31.8309 14.8457 32.3555 14.8457 33.0028V38.1405C14.8457 38.7877 15.3704 39.3124 16.0176 39.3124H16.6981H19.0417H42.9264H45.27H45.9505C46.5978 39.3124 47.1224 38.7877 47.1224 38.1405V33.0028C47.1225 32.3557 46.5979 31.8309 45.9507 31.8309ZM18.7821 31.831H43.1863C43.0716 30.3813 41.8552 29.2366 40.3764 29.2366H21.5921C20.1133 29.2366 18.8969 30.3812 18.7821 31.831ZM17.1896 36.9686H44.7788V34.1746H17.1896V36.9686Z" fill="#8B4326"/>
</svg>
