<svg width="122" height="86" viewBox="0 0 122 86" fill="none" xmlns="http://www.w3.org/2000/svg">
<path d="M13.0178 84.27C12.898 84.5188 13.0025 84.8176 13.2513 84.9374C13.5001 85.0572 13.7989 84.9527 13.9188 84.7039L13.0178 84.27ZM112.674 8.54141C112.813 8.30249 112.731 7.99656 112.492 7.85809L108.599 5.6017C108.36 5.46324 108.054 5.54467 107.916 5.78359C107.777 6.02251 107.859 6.32844 108.098 6.46691L111.558 8.47259L109.553 11.9334C109.414 12.1723 109.496 12.4783 109.735 12.6167C109.973 12.7552 110.279 12.6737 110.418 12.4348L112.674 8.54141ZM110.673 8.19483C110.407 8.26728 110.25 8.54203 110.322 8.8085C110.395 9.07497 110.669 9.23225 110.936 9.15979L110.673 8.19483ZM103.41 11.3255C103.674 11.2451 103.823 10.9658 103.743 10.7016C103.662 10.4374 103.383 10.2884 103.119 10.3689L103.41 11.3255ZM100.306 11.2435C100.043 11.3271 99.8971 11.6082 99.9807 11.8714C100.064 12.1346 100.345 12.2802 100.609 12.1966L100.306 11.2435ZM93.1909 14.6936C93.451 14.6009 93.5867 14.3149 93.494 14.0548C93.4012 13.7947 93.1152 13.659 92.8551 13.7517L93.1909 14.6936ZM90.081 14.763C89.8222 14.8594 89.6906 15.1473 89.787 15.4061C89.8834 15.6649 90.1714 15.7965 90.4301 15.7L90.081 14.763ZM83.168 18.5725C83.4227 18.4656 83.5424 18.1726 83.4356 17.918C83.3287 17.6634 83.0356 17.5436 82.781 17.6504L83.168 18.5725ZM80.0568 18.8203C79.804 18.9314 79.6891 19.2263 79.8001 19.4792C79.9112 19.732 80.2062 19.8469 80.459 19.7358L80.0568 18.8203ZM73.3751 23.0466C73.6224 22.9237 73.7232 22.6236 73.6003 22.3764C73.4774 22.1291 73.1773 22.0283 72.93 22.1512L73.3751 23.0466ZM70.3103 23.4844C70.0654 23.612 69.9703 23.9139 70.0979 24.1588C70.2255 24.4037 70.5274 24.4988 70.7723 24.3712L70.3103 23.4844ZM63.9339 28.1703C64.1715 28.0296 64.25 27.7229 64.1093 27.4853C63.9686 27.2477 63.6619 27.1692 63.4243 27.3099L63.9339 28.1703ZM60.8952 28.8451C60.6607 28.991 60.5888 29.2993 60.7347 29.5338C60.8806 29.7682 61.1889 29.8401 61.4234 29.6942L60.8952 28.8451ZM54.9172 34.0195C55.1423 33.8595 55.1951 33.5474 55.0352 33.3223C54.8753 33.0972 54.5631 33.0443 54.338 33.2042L54.9172 34.0195ZM51.952 34.9426C51.7308 35.1078 51.6855 35.4212 51.8507 35.6424C52.016 35.8636 52.3293 35.9089 52.5506 35.7436L51.952 34.9426ZM46.4512 40.6225C46.6609 40.4428 46.6853 40.1272 46.5057 39.9175C46.3261 39.7077 46.0105 39.6833 45.8007 39.8629L46.4512 40.6225ZM43.5832 41.8113C43.3781 41.9962 43.3618 42.3124 43.5467 42.5175C43.7316 42.7226 44.0477 42.7389 44.2528 42.554L43.5832 41.8113ZM38.6349 47.9804C38.8268 47.7819 38.8214 47.4653 38.6228 47.2734C38.4243 47.0815 38.1077 47.087 37.9158 47.2855L38.6349 47.9804ZM35.8912 49.4353C35.7045 49.6388 35.7181 49.9551 35.9215 50.1418C36.125 50.3285 36.4413 50.315 36.628 50.1115L35.8912 49.4353ZM31.5438 56.0416C31.7165 55.8261 31.6817 55.5114 31.4662 55.3388C31.2507 55.1662 30.936 55.2009 30.7634 55.4164L31.5438 56.0416ZM28.9452 57.7439C28.7779 57.9635 28.8203 58.2772 29.0399 58.4446C29.2596 58.6119 29.5733 58.5695 29.7406 58.3499L28.9452 57.7439ZM25.2015 64.7095C25.3551 64.48 25.2935 64.1695 25.064 64.0159C24.8345 63.8624 24.5239 63.924 24.3704 64.1535L25.2015 64.7095ZM22.7553 66.6251C22.6067 66.8579 22.675 67.167 22.9077 67.3156C23.1405 67.4642 23.4496 67.3959 23.5982 67.1632L22.7553 66.6251ZM19.5704 73.8635C19.7066 73.6232 19.6222 73.3181 19.3819 73.182C19.1417 73.0458 18.8366 73.1302 18.7004 73.3704L19.5704 73.8635ZM17.2686 75.9506C17.1368 76.1932 17.2266 76.4968 17.4692 76.6287C17.7118 76.7605 18.0154 76.6707 18.1473 76.4281L17.2686 75.9506ZM14.5613 83.3814C14.6828 83.1335 14.5803 82.834 14.3324 82.7124C14.0844 82.5908 13.7849 82.6933 13.6634 82.9413L14.5613 83.3814ZM112.113 7.80752C111.631 7.93588 111.151 8.06498 110.673 8.19483L110.936 9.15979C111.412 9.03042 111.89 8.90177 112.37 8.77387L112.113 7.80752ZM103.119 10.3689C102.171 10.6572 101.234 10.9487 100.306 11.2435L100.609 12.1966C101.533 11.903 102.466 11.6127 103.41 11.3255L103.119 10.3689ZM92.8551 13.7517C91.9198 14.0852 90.9952 14.4223 90.081 14.763L90.4301 15.7C91.3399 15.361 92.2601 15.0256 93.1909 14.6936L92.8551 13.7517ZM82.781 17.6504C81.8616 18.0363 80.9536 18.4263 80.0568 18.8203L80.459 19.7358C81.3507 19.3441 82.2536 18.9563 83.168 18.5725L82.781 17.6504ZM72.93 22.1512C72.0449 22.5911 71.1718 23.0355 70.3103 23.4844L70.7723 24.3712C71.6281 23.9253 72.4957 23.4838 73.3751 23.0466L72.93 22.1512ZM63.4243 27.3099C62.5687 27.8166 61.7258 28.3284 60.8952 28.8451L61.4234 29.6942C62.2478 29.1814 63.0845 28.6734 63.9339 28.1703L63.4243 27.3099ZM54.338 33.2042C53.53 33.7783 52.7347 34.3577 51.952 34.9426L52.5506 35.7436C53.3268 35.1636 54.1156 34.5889 54.9172 34.0195L54.338 33.2042ZM45.8007 39.8629C45.049 40.5066 44.31 41.1561 43.5832 41.8113L44.2528 42.554C44.9733 41.9045 45.7059 41.2606 46.4512 40.6225L45.8007 39.8629ZM37.9158 47.2855C37.2291 47.9961 36.5544 48.7128 35.8912 49.4353L36.628 50.1115C37.2854 49.3952 37.9542 48.6848 38.6349 47.9804L37.9158 47.2855ZM30.7634 55.4164C30.1467 56.1862 29.5408 56.9621 28.9452 57.7439L29.7406 58.3499C30.3314 57.5744 30.9323 56.805 31.5438 56.0416L30.7634 55.4164ZM24.3704 64.1535C23.8231 64.9715 23.2849 65.7954 22.7553 66.6251L23.5982 67.1632C24.1241 66.3394 24.6584 65.5215 25.2015 64.7095L24.3704 64.1535ZM18.7004 73.3704C18.2162 74.2249 17.7391 75.085 17.2686 75.9506L18.1473 76.4281C18.6149 75.5676 19.0892 74.7127 19.5704 73.8635L18.7004 73.3704ZM13.6634 82.9413C13.4469 83.3829 13.2317 83.8258 13.0178 84.27L13.9188 84.7039C14.1317 84.2617 14.3458 83.8209 14.5613 83.3814L13.6634 82.9413ZM12.5673 84.0531C12.3277 84.5507 12.5368 85.1483 13.0344 85.3879C13.532 85.6275 14.1296 85.4184 14.3692 84.9208L12.5673 84.0531ZM113.107 8.79212C113.384 8.31428 113.221 7.70242 112.743 7.42549L104.956 2.91271C104.478 2.63578 103.867 2.79865 103.59 3.27649C103.313 3.75433 103.476 4.36619 103.953 4.64312L110.875 8.65448L106.864 15.5761C106.587 16.0539 106.75 16.6658 107.227 16.9427C107.705 17.2197 108.317 17.0568 108.594 16.579L113.107 8.79212ZM110.542 7.71234C110.009 7.85725 109.695 8.40675 109.84 8.93968C109.985 9.47262 110.534 9.78718 111.067 9.64228L110.542 7.71234ZM103.555 11.8039C104.084 11.643 104.382 11.0844 104.221 10.556C104.06 10.0277 103.501 9.7297 102.973 9.89052L103.555 11.8039ZM100.154 10.767C99.6281 10.9342 99.3369 11.4964 99.5042 12.0228C99.6714 12.5491 100.234 12.8403 100.76 12.6731L100.154 10.767ZM93.3589 15.1646C93.8791 14.9791 94.1504 14.407 93.9649 13.8868C93.7794 13.3666 93.2073 13.0953 92.6871 13.2808L93.3589 15.1646ZM89.9064 14.2944C89.3889 14.4873 89.1256 15.0632 89.3185 15.5807C89.5113 16.0982 90.0872 16.3614 90.6047 16.1686L89.9064 14.2944ZM83.3615 19.0336C83.8708 18.8198 84.1103 18.2337 83.8966 17.7245C83.6829 17.2152 83.0968 16.9757 82.5875 17.1894L83.3615 19.0336ZM79.8557 18.3625C79.35 18.5847 79.1202 19.1746 79.3424 19.6803C79.5645 20.1859 80.1545 20.4157 80.6601 20.1936L79.8557 18.3625ZM73.5977 23.4944C74.0923 23.2485 74.2939 22.6483 74.0481 22.1538C73.8022 21.6592 73.202 21.4576 72.7075 21.7034L73.5977 23.4944ZM70.0793 23.0409C69.5895 23.2961 69.3993 23.9 69.6545 24.3898C69.9096 24.8796 70.5136 25.0698 71.0034 24.8146L70.0793 23.0409ZM64.1887 28.6005C64.6639 28.319 64.821 27.7056 64.5395 27.2305C64.258 26.7553 63.6447 26.5982 63.1695 26.8797L64.1887 28.6005ZM60.631 28.4206C60.1621 28.7123 60.0184 29.3289 60.3102 29.7979C60.6019 30.2668 61.2185 30.4105 61.6875 30.1188L60.631 28.4206ZM55.2067 34.4271C55.657 34.1072 55.7627 33.483 55.4428 33.0327C55.123 32.5825 54.4987 32.4768 54.0485 32.7966L55.2067 34.4271ZM51.6527 34.542C51.2103 34.8726 51.1196 35.4992 51.4502 35.9417C51.7808 36.3841 52.4074 36.4748 52.8498 36.1442L51.6527 34.542ZM46.7764 41.0022C47.1959 40.643 47.2447 40.0117 46.8855 39.5922C46.5263 39.1727 45.895 39.1239 45.4755 39.4831L46.7764 41.0022ZM43.2484 41.4399C42.8382 41.8098 42.8055 42.4421 43.1753 42.8523C43.5451 43.2625 44.1774 43.2952 44.5876 42.9254L43.2484 41.4399ZM38.9945 48.3279C39.3783 47.9307 39.3674 47.2977 38.9703 46.9139C38.5731 46.5301 37.9401 46.5409 37.5563 46.9381L38.9945 48.3279ZM35.5229 49.0972C35.1494 49.5041 35.1765 50.1367 35.5834 50.5102C35.9903 50.8836 36.6229 50.8565 36.9963 50.4496L35.5229 49.0972ZM31.9341 56.3542C32.2794 55.9232 32.2098 55.2939 31.7788 54.9486C31.3477 54.6033 30.7184 54.6728 30.3731 55.1038L31.9341 56.3542ZM28.5475 57.4408C28.2128 57.8802 28.2976 58.5076 28.7369 58.8423C29.1762 59.177 29.8037 59.0922 30.1384 58.6529L28.5475 57.4408ZM25.6171 64.9876C25.9242 64.5285 25.8011 63.9075 25.342 63.6004C24.883 63.2933 24.2619 63.4164 23.9548 63.8755L25.6171 64.9876ZM22.3339 66.3561C22.0367 66.8216 22.1732 67.4399 22.6387 67.737C23.1042 68.0342 23.7225 67.8977 24.0197 67.4322L22.3339 66.3561ZM20.0054 74.11C20.2777 73.6295 20.109 73.0193 19.6285 72.747C19.148 72.4746 18.5377 72.6434 18.2654 73.1239L20.0054 74.11ZM16.8293 75.7118C16.5656 76.1971 16.7452 76.8043 17.2304 77.068C17.7157 77.3317 18.3229 77.1521 18.5866 76.6669L16.8293 75.7118ZM15.0102 83.6015C15.2533 83.1056 15.0484 82.5065 14.5525 82.2634C14.0566 82.0203 13.4575 82.2253 13.2144 82.7212L15.0102 83.6015ZM111.984 7.32435C111.501 7.45293 111.021 7.58226 110.542 7.71234L111.067 9.64228C111.542 9.51313 112.019 9.38472 112.499 9.25704L111.984 7.32435ZM102.973 9.89052C102.024 10.1794 101.084 10.4716 100.154 10.767L100.76 12.6731C101.682 12.3802 102.614 12.0905 103.555 11.8039L102.973 9.89052ZM92.6871 13.2808C91.7497 13.615 90.8228 13.9529 89.9064 14.2944L90.6047 16.1686C91.5122 15.8304 92.4302 15.4957 93.3589 15.1646L92.6871 13.2808ZM82.5875 17.1894C81.6656 17.5764 80.755 17.9674 79.8557 18.3625L80.6601 20.1936C81.5492 19.803 82.4496 19.4163 83.3615 19.0336L82.5875 17.1894ZM72.7075 21.7034C71.8196 22.1448 70.9436 22.5906 70.0793 23.0409L71.0034 24.8146C71.8563 24.3703 72.721 23.9302 73.5977 23.4944L72.7075 21.7034ZM63.1695 26.8797C62.3108 27.3883 61.4648 27.9019 60.631 28.4206L61.6875 30.1188C62.5088 29.6079 63.3424 29.1017 64.1887 28.6005L63.1695 26.8797ZM54.0485 32.7966C53.2371 33.3729 52.4387 33.9548 51.6527 34.542L52.8498 36.1442C53.6229 35.5666 54.4084 34.9942 55.2067 34.4271L54.0485 32.7966ZM45.4755 39.4831C44.7206 40.1296 43.9783 40.7819 43.2484 41.4399L44.5876 42.9254C45.3049 42.2787 46.0344 41.6376 46.7764 41.0022L45.4755 39.4831ZM37.5563 46.9381C36.8666 47.6518 36.1889 48.3715 35.5229 49.0972L36.9963 50.4496C37.6509 49.7364 38.3168 49.0292 38.9945 48.3279L37.5563 46.9381ZM30.3731 55.1038C29.7539 55.8768 29.1455 56.6559 28.5475 57.4408L30.1384 58.6529C30.7267 57.8806 31.3251 57.1144 31.9341 56.3542L30.3731 55.1038ZM23.9548 63.8755C23.4055 64.6965 22.8654 65.5234 22.3339 66.3561L24.0197 67.4322C24.5436 66.6113 25.076 65.7965 25.6171 64.9876L23.9548 63.8755ZM18.2654 73.1239C17.7797 73.981 17.3011 74.8437 16.8293 75.7118L18.5866 76.6669C19.0529 75.8088 19.5257 74.9565 20.0054 74.11L18.2654 73.1239ZM13.2144 82.7212C12.9974 83.1639 12.7817 83.6078 12.5673 84.0531L14.3692 84.9208C14.5817 84.4797 14.7953 84.0399 15.0102 83.6015L13.2144 82.7212Z" fill="#949494"/>
</svg>
