<svg width="184" height="215" viewBox="0 0 184 215" fill="none" xmlns="http://www.w3.org/2000/svg">
<path d="M182.211 162.06C182.401 162.262 182.717 162.271 182.918 162.082C183.119 161.893 183.129 161.577 182.94 161.375L182.211 162.06ZM1.9783 53.6175C1.75383 53.7783 1.70226 54.0907 1.86311 54.3152L4.48423 57.973C4.64508 58.1975 4.95743 58.249 5.18189 58.0882C5.40635 57.9273 5.45793 57.615 5.29708 57.3905L2.96719 54.1391L6.2186 51.8092C6.44306 51.6484 6.49463 51.336 6.33378 51.1116C6.17294 50.8871 5.86059 50.8355 5.63612 50.9964L1.9783 53.6175ZM3.68505 54.771C3.9571 54.8184 4.21601 54.6362 4.26334 54.3641C4.31066 54.0921 4.12848 53.8332 3.85642 53.7858L3.68505 54.771ZM11.8915 55.368C11.6218 55.3088 11.3552 55.4795 11.296 55.7492C11.2368 56.0189 11.4075 56.2856 11.6773 56.3447L11.8915 55.368ZM14.6574 57.0228C14.9262 57.0861 15.1954 56.9196 15.2587 56.6508C15.322 56.382 15.1555 56.1128 14.8867 56.0495L14.6574 57.0228ZM22.8155 58.0834C22.5494 58.0097 22.2739 58.1656 22.2002 58.4318C22.1264 58.6979 22.2824 58.9734 22.5485 59.0471L22.8155 58.0834ZM25.492 59.8848C25.7571 59.9622 26.0347 59.81 26.1121 59.545C26.1895 59.2799 26.0374 59.0023 25.7723 58.9248L25.492 59.8848ZM33.5833 61.3565C33.3211 61.2699 33.0383 61.4122 32.9517 61.6744C32.8651 61.9366 33.0074 62.2194 33.2696 62.306L33.5833 61.3565ZM36.1752 63.2861C36.4363 63.376 36.7208 63.2372 36.8107 62.9761C36.9006 62.715 36.7618 62.4304 36.5007 62.3406L36.1752 63.2861ZM44.1875 65.1253C43.9293 65.0272 43.6405 65.1569 43.5424 65.4151C43.4443 65.6732 43.574 65.962 43.8322 66.0601L44.1875 65.1253ZM46.6874 67.1641C46.9444 67.2651 47.2347 67.1387 47.3357 66.8817C47.4367 66.6247 47.3103 66.3345 47.0533 66.2335L46.6874 67.1641ZM54.6244 69.3394C54.3705 69.231 54.0767 69.3489 53.9682 69.6028C53.8597 69.8568 53.9776 70.1506 54.2316 70.2591L54.6244 69.3394ZM57.0332 71.4732C57.286 71.5843 57.581 71.4695 57.6921 71.2167C57.8033 70.9639 57.6884 70.6689 57.4356 70.5578L57.0332 71.4732ZM64.8848 73.9537C64.6351 73.8358 64.3371 73.9427 64.2192 74.1924C64.1013 74.4421 64.2082 74.7401 64.4579 74.858L64.8848 73.9537ZM67.2131 76.1752C67.4617 76.2955 67.7607 76.1915 67.881 75.943C68.0013 75.6944 67.8974 75.3954 67.6488 75.2751L67.2131 76.1752ZM74.9665 78.9321C74.7211 78.8056 74.4195 78.9021 74.293 79.1475C74.1665 79.393 74.2629 79.6945 74.5084 79.821L74.9665 78.9321ZM77.226 81.2376C77.4703 81.3663 77.7727 81.2727 77.9014 81.0284C78.0302 80.7841 77.9365 80.4817 77.6922 80.3529L77.226 81.2376ZM84.8789 84.2507C84.6377 84.1162 84.3332 84.2027 84.1987 84.4439C84.0642 84.6851 84.1507 84.9896 84.3918 85.1241L84.8789 84.2507ZM87.0572 86.6256C87.2972 86.7622 87.6024 86.6783 87.739 86.4383C87.8756 86.1983 87.7917 85.893 87.5517 85.7565L87.0572 86.6256ZM94.6182 89.884C94.3813 89.7421 94.0742 89.8191 93.9323 90.0559C93.7904 90.2928 93.8674 90.5999 94.1042 90.7418L94.6182 89.884ZM96.7175 92.3223C96.9532 92.4662 97.2609 92.3918 97.4048 92.1561C97.5487 91.9204 97.4742 91.6127 97.2385 91.4688L96.7175 92.3223ZM104.173 95.8055C103.941 95.6566 103.632 95.7244 103.483 95.9569C103.334 96.1895 103.402 96.4987 103.634 96.6476L104.173 95.8055ZM106.208 98.3104C106.44 98.4611 106.749 98.3958 106.9 98.1644C107.051 97.933 106.986 97.6233 106.754 97.4725L106.208 98.3104ZM113.557 102.007C113.329 101.851 113.018 101.91 112.863 102.138C112.707 102.366 112.766 102.678 112.994 102.833L113.557 102.007ZM115.514 104.565C115.741 104.722 116.053 104.666 116.21 104.439C116.367 104.212 116.311 103.9 116.084 103.743L115.514 104.565ZM122.761 108.469C122.537 108.307 122.224 108.357 122.062 108.581C121.901 108.805 121.951 109.117 122.175 109.279L122.761 108.469ZM124.647 111.081C124.87 111.244 125.183 111.196 125.346 110.974C125.509 110.751 125.462 110.438 125.239 110.275L124.647 111.081ZM131.782 115.18C131.562 115.012 131.249 115.054 131.081 115.273C130.913 115.493 130.955 115.806 131.174 115.974L131.782 115.18ZM133.598 117.843C133.816 118.013 134.13 117.973 134.3 117.755C134.469 117.537 134.43 117.223 134.212 117.053L133.598 117.843ZM140.622 122.134C140.407 121.96 140.093 121.994 139.919 122.209C139.745 122.423 139.779 122.738 139.993 122.912L140.622 122.134ZM142.364 124.842C142.577 125.017 142.892 124.986 143.068 124.773C143.243 124.559 143.212 124.244 142.998 124.069L142.364 124.842ZM149.271 129.317C149.06 129.138 148.745 129.163 148.566 129.373C148.386 129.583 148.411 129.898 148.622 130.078L149.271 129.317ZM150.944 132.073C151.152 132.254 151.468 132.231 151.649 132.022C151.83 131.813 151.807 131.498 151.598 131.317L150.944 132.073ZM157.729 136.727C157.524 136.543 157.208 136.559 157.023 136.765C156.839 136.97 156.855 137.286 157.061 137.471L157.729 136.727ZM159.327 139.525C159.531 139.711 159.847 139.696 160.034 139.492C160.22 139.288 160.205 138.972 160.001 138.786L159.327 139.525ZM165.989 144.357C165.789 144.167 165.472 144.175 165.282 144.375C165.092 144.576 165.1 144.892 165.301 145.082L165.989 144.357ZM167.513 147.196C167.712 147.388 168.029 147.382 168.22 147.183C168.412 146.984 168.406 146.667 168.207 146.476L167.513 147.196ZM174.045 152.203C173.849 152.007 173.533 152.007 173.337 152.203C173.142 152.398 173.142 152.714 173.337 152.91L174.045 152.203ZM175.493 155.081C175.686 155.278 176.003 155.28 176.2 155.086C176.396 154.893 176.399 154.576 176.205 154.379L175.493 155.081ZM181.888 160.261C181.698 160.06 181.381 160.052 181.181 160.242C180.98 160.431 180.972 160.748 181.162 160.948L181.888 160.261ZM2.18808 54.5172C2.68632 54.5995 3.18531 54.6841 3.68505 54.771L3.85642 53.7858C3.35388 53.6984 2.85207 53.6133 2.35098 53.5306L2.18808 54.5172ZM11.6773 56.3447C12.6682 56.5621 13.6616 56.7882 14.6574 57.0228L14.8867 56.0495C13.886 55.8137 12.8876 55.5865 11.8915 55.368L11.6773 56.3447ZM22.5485 59.0471C23.5278 59.3185 24.509 59.5977 25.492 59.8848L25.7723 58.9248C24.7849 58.6365 23.7993 58.356 22.8155 58.0834L22.5485 59.0471ZM33.2696 62.306C34.2367 62.6255 35.2053 62.9522 36.1752 63.2861L36.5007 62.3406C35.5269 62.0053 34.5544 61.6773 33.5833 61.3565L33.2696 62.306ZM43.8322 66.0601C44.7829 66.4215 45.7347 66.7895 46.6874 67.1641L47.0533 66.2335C46.0971 65.8575 45.1418 65.4881 44.1875 65.1253L43.8322 66.0601ZM54.2316 70.2591C55.1649 70.6577 56.0988 71.0625 57.0332 71.4732L57.4356 70.5578C56.498 70.1456 55.5609 69.7395 54.6244 69.3394L54.2316 70.2591ZM64.4579 74.858C65.3761 75.2915 66.2945 75.7305 67.2131 76.1752L67.6488 75.2751C66.7273 74.829 65.8059 74.3886 64.8848 73.9537L64.4579 74.858ZM74.5084 79.821C75.4143 80.288 76.3202 80.7602 77.226 81.2376L77.6922 80.3529C76.7838 79.8741 75.8752 79.4005 74.9665 78.9321L74.5084 79.821ZM84.3918 85.1241C85.2806 85.6197 86.1691 86.1203 87.0572 86.6256L87.5517 85.7565C86.6612 85.2497 85.7702 84.7478 84.8789 84.2507L84.3918 85.1241ZM94.1042 90.7418C94.9759 91.2641 95.847 91.791 96.7175 92.3223L97.2385 91.4688C96.3657 90.936 95.4923 90.4077 94.6182 89.884L94.1042 90.7418ZM103.634 96.6476C104.493 97.1976 105.351 97.7519 106.208 98.3104L106.754 97.4725C105.895 96.9126 105.035 96.3569 104.173 95.8055L103.634 96.6476ZM112.994 102.833C113.835 103.406 114.675 103.984 115.514 104.565L116.084 103.743C115.243 103.16 114.401 102.581 113.557 102.007L112.994 102.833ZM122.175 109.279C123 109.876 123.824 110.476 124.647 111.081L125.239 110.275C124.414 109.669 123.588 109.067 122.761 108.469L122.175 109.279ZM131.174 115.974C131.984 116.594 132.792 117.217 133.598 117.843L134.212 117.053C133.403 116.425 132.593 115.801 131.782 115.18L131.174 115.974ZM139.993 122.912C140.785 123.552 141.575 124.195 142.364 124.842L142.998 124.069C142.208 123.421 141.416 122.776 140.622 122.134L139.993 122.912ZM148.622 130.078C149.397 130.74 150.172 131.405 150.944 132.073L151.598 131.317C150.824 130.647 150.048 129.98 149.271 129.317L148.622 130.078ZM157.061 137.471C157.818 138.152 158.574 138.837 159.327 139.525L160.001 138.786C159.246 138.097 158.489 137.411 157.729 136.727L157.061 137.471ZM165.301 145.082C166.041 145.784 166.778 146.489 167.513 147.196L168.207 146.476C167.47 145.767 166.731 145.06 165.989 144.357L165.301 145.082ZM173.337 152.91C174.058 153.631 174.777 154.355 175.493 155.081L176.205 154.379C175.487 153.651 174.767 152.925 174.045 152.203L173.337 152.91ZM181.162 160.948C181.512 161.318 181.862 161.689 182.211 162.06L182.94 161.375C182.59 161.003 182.239 160.632 181.888 160.261L181.162 160.948ZM181.847 162.403C182.225 162.805 182.858 162.825 183.261 162.446C183.663 162.068 183.682 161.435 183.304 161.033L181.847 162.403ZM1.68706 53.2111C1.23813 53.5328 1.13499 54.1575 1.45668 54.6064L6.69893 61.9221C7.02062 62.371 7.64533 62.4741 8.09425 62.1524C8.54318 61.8307 8.64632 61.206 8.32463 60.7571L3.66485 54.2543L10.1677 49.5945C10.6166 49.2728 10.7197 48.6481 10.398 48.1992C10.0763 47.7503 9.45164 47.6471 9.00272 47.9688L1.68706 53.2111ZM3.59936 55.2636C4.14347 55.3583 4.66129 54.9939 4.75594 54.4498C4.85059 53.9057 4.48622 53.3879 3.94211 53.2932L3.59936 55.2636ZM11.9987 54.8796C11.4592 54.7612 10.926 55.1026 10.8076 55.6421C10.6893 56.1815 11.0307 56.7148 11.5701 56.8331L11.9987 54.8796ZM14.5427 57.5095C15.0803 57.6361 15.6187 57.303 15.7454 56.7655C15.8721 56.2279 15.539 55.6895 15.0014 55.5628L14.5427 57.5095ZM22.949 57.6016C22.4168 57.4541 21.8658 57.766 21.7183 58.2983C21.5708 58.8305 21.8827 59.3815 22.415 59.529L22.949 57.6016ZM25.3518 60.3647C25.882 60.5195 26.4373 60.2153 26.5921 59.6851C26.7469 59.155 26.4426 58.5997 25.9125 58.4449L25.3518 60.3647ZM33.7401 60.8817C33.2157 60.7085 32.6501 60.9932 32.4769 61.5176C32.3037 62.042 32.5884 62.6075 33.1128 62.7808L33.7401 60.8817ZM36.0124 63.7589C36.5346 63.9386 37.1037 63.661 37.2835 63.1388C37.4632 62.6166 37.1857 62.0476 36.6634 61.8678L36.0124 63.7589ZM44.3651 64.658C43.8489 64.4617 43.2713 64.7211 43.0751 65.2374C42.8788 65.7536 43.1383 66.3312 43.6545 66.5275L44.3651 64.658ZM46.5045 67.6294C47.0184 67.8315 47.5989 67.5787 47.801 67.0647C48.0031 66.5507 47.7503 65.9702 47.2363 65.7681L46.5045 67.6294ZM54.8208 68.8796C54.3129 68.6627 53.7253 68.8985 53.5084 69.4064C53.2914 69.9143 53.5273 70.5019 54.0352 70.7189L54.8208 68.8796ZM56.832 71.931C57.3376 72.1532 57.9276 71.9235 58.1499 71.4179C58.3721 70.9123 58.1424 70.3223 57.6368 70.1L56.832 71.931ZM65.0983 73.5016C64.5988 73.2658 64.0028 73.4795 63.7671 73.9789C63.5313 74.4784 63.745 75.0744 64.2444 75.3102L65.0983 73.5016ZM66.9953 76.6252C67.4924 76.8659 68.0905 76.6579 68.3311 76.1608C68.5717 75.6637 68.3638 75.0657 67.8667 74.825L66.9953 76.6252ZM75.1956 78.4877C74.7047 78.2347 74.1016 78.4275 73.8486 78.9184C73.5955 79.4093 73.7884 80.0124 74.2793 80.2655L75.1956 78.4877ZM76.9928 81.6799C77.4814 81.9374 78.0862 81.7501 78.3438 81.2615C78.6013 80.7729 78.414 80.1681 77.9254 79.9106L76.9928 81.6799ZM85.1224 83.814C84.6401 83.545 84.031 83.718 83.762 84.2004C83.493 84.6827 83.666 85.2918 84.1483 85.5608L85.1224 83.814ZM86.8099 87.0602C87.2899 87.3333 87.9004 87.1656 88.1736 86.6856C88.4467 86.2056 88.279 85.595 87.799 85.3219L86.8099 87.0602ZM94.8752 89.4551C94.4014 89.1713 93.7873 89.3252 93.5034 89.7989C93.2195 90.2727 93.3735 90.8868 93.8472 91.1707L94.8752 89.4551ZM96.457 92.7491C96.9284 93.0368 97.5438 92.888 97.8316 92.4166C98.1193 91.9452 97.9704 91.3298 97.499 91.042L96.457 92.7491ZM104.443 95.3844C103.978 95.0866 103.359 95.2222 103.062 95.6873C102.764 96.1524 102.899 96.7709 103.365 97.0687L104.443 95.3844ZM105.935 98.7293C106.398 99.0308 107.018 98.9001 107.319 98.4373C107.621 97.9746 107.49 97.3551 107.027 97.0536L105.935 98.7293ZM113.839 101.594C113.383 101.283 112.76 101.4 112.449 101.857C112.138 102.313 112.256 102.935 112.713 103.246L113.839 101.594ZM115.23 104.976C115.684 105.29 116.307 105.177 116.621 104.723C116.936 104.269 116.823 103.646 116.369 103.332L115.23 104.976ZM123.054 108.063C122.606 107.74 121.981 107.84 121.657 108.288C121.334 108.736 121.434 109.361 121.882 109.684L123.054 108.063ZM124.351 111.484C124.796 111.811 125.422 111.715 125.749 111.27C126.076 110.824 125.98 110.199 125.535 109.872L124.351 111.484ZM132.086 114.783C131.647 114.447 131.019 114.531 130.684 114.969C130.348 115.408 130.432 116.036 130.87 116.371L132.086 114.783ZM133.291 118.238C133.728 118.577 134.356 118.498 134.695 118.062C135.033 117.626 134.955 116.997 134.518 116.659L133.291 118.238ZM140.936 121.745C140.507 121.398 139.877 121.465 139.53 121.894C139.183 122.324 139.25 122.953 139.679 123.301L140.936 121.745ZM142.047 125.229C142.474 125.579 143.104 125.517 143.454 125.09C143.804 124.663 143.742 124.033 143.315 123.682L142.047 125.229ZM149.595 128.936C149.175 128.578 148.544 128.628 148.185 129.048C147.827 129.468 147.877 130.1 148.297 130.458L149.595 128.936ZM150.616 132.451C151.034 132.812 151.665 132.767 152.027 132.349C152.388 131.932 152.343 131.3 151.925 130.939L150.616 132.451ZM158.064 136.356C157.653 135.986 157.021 136.02 156.652 136.43C156.282 136.841 156.316 137.473 156.726 137.843L158.064 136.356ZM158.99 139.894C159.398 140.266 160.031 140.237 160.403 139.829C160.775 139.422 160.746 138.789 160.338 138.417L158.99 139.894ZM166.333 143.994C165.932 143.614 165.299 143.631 164.919 144.031C164.539 144.432 164.556 145.065 164.957 145.445L166.333 143.994ZM167.167 147.556C167.565 147.939 168.198 147.927 168.581 147.529C168.964 147.131 168.951 146.498 168.553 146.115L167.167 147.556ZM174.398 151.849C174.008 151.458 173.374 151.458 172.984 151.849C172.593 152.239 172.593 152.873 172.984 153.263L174.398 151.849ZM175.136 155.432C175.524 155.825 176.157 155.83 176.551 155.442C176.944 155.055 176.949 154.422 176.561 154.028L175.136 155.432ZM182.251 159.917C181.871 159.516 181.238 159.499 180.837 159.879C180.436 160.258 180.419 160.891 180.799 161.292L182.251 159.917ZM2.10663 55.0106C2.60344 55.0926 3.10103 55.177 3.59936 55.2636L3.94211 53.2932C3.43817 53.2056 2.93494 53.1203 2.43243 53.0373L2.10663 55.0106ZM11.5701 56.8331C12.5585 57.05 13.5494 57.2754 14.5427 57.5095L15.0014 55.5628C13.9982 55.3264 12.9972 55.0986 11.9987 54.8796L11.5701 56.8331ZM22.415 59.529C23.392 59.7997 24.371 60.0783 25.3518 60.3647L25.9125 58.4449C24.9229 58.1559 23.935 57.8748 22.949 57.6016L22.415 59.529ZM33.1128 62.7808C34.0779 63.0996 35.0445 63.4256 36.0124 63.7589L36.6634 61.8678C35.6877 61.5319 34.7132 61.2032 33.7401 60.8817L33.1128 62.7808ZM43.6545 66.5275C44.6035 66.8882 45.5535 67.2555 46.5045 67.6294L47.2363 65.7681C46.2784 65.3915 45.3213 65.0214 44.3651 64.658L43.6545 66.5275ZM54.0352 70.7189C54.9668 71.1168 55.8991 71.5209 56.832 71.931L57.6368 70.1C56.6976 69.6872 55.7589 69.2804 54.8208 68.8796L54.0352 70.7189ZM64.2444 75.3102C65.1611 75.7429 66.0781 76.1813 66.9953 76.6252L67.8667 74.825C66.9437 74.3783 66.0209 73.9371 65.0983 73.5016L64.2444 75.3102ZM74.2793 80.2655C75.1838 80.7317 76.0884 81.2032 76.9928 81.6799L77.9254 79.9106C77.0156 79.4311 76.1056 78.9568 75.1956 78.4877L74.2793 80.2655ZM84.1483 85.5608C85.0358 86.0557 85.923 86.5555 86.8099 87.0602L87.799 85.3219C86.9072 84.8144 86.015 84.3118 85.1224 83.814L84.1483 85.5608ZM93.8472 91.1707C94.7177 91.6923 95.5877 92.2185 96.457 92.7491L97.499 91.042C96.6251 90.5085 95.7504 89.9795 94.8752 89.4551L93.8472 91.1707ZM103.365 97.0687C104.222 97.618 105.079 98.1715 105.935 98.7293L107.027 97.0536C106.167 96.4929 105.305 95.9365 104.443 95.3844L103.365 97.0687ZM112.713 103.246C113.553 103.819 114.392 104.395 115.23 104.976L116.369 103.332C115.527 102.748 114.683 102.169 113.839 101.594L112.713 103.246ZM121.882 109.684C122.706 110.28 123.529 110.88 124.351 111.484L125.535 109.872C124.709 109.265 123.882 108.662 123.054 108.063L121.882 109.684ZM130.87 116.371C131.679 116.99 132.486 117.612 133.291 118.238L134.518 116.659C133.709 116.03 132.898 115.405 132.086 114.783L130.87 116.371ZM139.679 123.301C140.47 123.94 141.259 124.583 142.047 125.229L143.315 123.682C142.524 123.033 141.731 122.388 140.936 121.745L139.679 123.301ZM148.297 130.458C149.072 131.119 149.845 131.783 150.616 132.451L151.925 130.939C151.15 130.268 150.374 129.601 149.595 128.936L148.297 130.458ZM156.726 137.843C157.483 138.523 158.238 139.207 158.99 139.894L160.338 138.417C159.582 137.727 158.824 137.04 158.064 136.356L156.726 137.843ZM164.957 145.445C165.696 146.146 166.432 146.85 167.167 147.556L168.553 146.115C167.816 145.405 167.076 144.698 166.333 143.994L164.957 145.445ZM172.984 153.263C173.704 153.983 174.422 154.706 175.136 155.432L176.561 154.028C175.843 153.299 175.122 152.573 174.398 151.849L172.984 153.263ZM180.799 161.292C181.149 161.662 181.498 162.032 181.847 162.403L183.304 161.033C182.954 160.66 182.602 160.288 182.251 159.917L180.799 161.292Z" fill="#949494"/>
</svg>
