<svg width="208" height="99" viewBox="0 0 208 99" fill="none" xmlns="http://www.w3.org/2000/svg">
<path d="M6.83212 2.22655C6.55651 2.20924 6.34713 1.97179 6.36444 1.69618C6.38175 1.42059 6.6192 1.2112 6.89479 1.22851L6.83212 2.22655ZM202.019 95.9177C202.037 96.1932 201.828 96.431 201.553 96.4487L197.062 96.737C196.786 96.7547 196.548 96.5456 196.531 96.2701C196.513 95.9945 196.722 95.7567 196.998 95.7391L200.989 95.4828L200.733 91.491C200.716 91.2154 200.925 90.9777 201.2 90.96C201.476 90.9423 201.713 91.1513 201.731 91.4269L202.019 95.9177ZM200.11 95.3875C199.901 95.2078 199.876 94.8921 200.056 94.6825C200.236 94.4729 200.552 94.4486 200.761 94.6284L200.11 95.3875ZM194.549 89.5845C194.768 89.7537 194.807 90.0678 194.638 90.286C194.469 90.5043 194.155 90.544 193.937 90.3748L194.549 89.5845ZM191.602 88.5899C191.382 88.4236 191.338 88.1101 191.504 87.8896C191.671 87.6692 191.984 87.6253 192.205 87.7917L191.602 88.5899ZM185.761 83.0771C185.986 83.2372 186.039 83.5494 185.879 83.7744C185.719 83.9994 185.406 84.052 185.181 83.8919L185.761 83.0771ZM182.773 82.1941C182.547 82.0359 182.492 81.7242 182.65 81.4978C182.808 81.2715 183.12 81.2162 183.346 81.3744L182.773 82.1941ZM176.763 76.8726C176.992 77.0263 177.054 77.3369 176.9 77.5663C176.746 77.7957 176.436 77.8571 176.206 77.7034L176.763 76.8726ZM173.745 76.0657C173.514 75.9134 173.451 75.6033 173.603 75.3729C173.755 75.1425 174.066 75.0791 174.296 75.2314L173.745 76.0657ZM167.631 70.9025C167.863 71.0512 167.932 71.3604 167.783 71.5931C167.634 71.8258 167.325 71.8939 167.092 71.7453L167.631 70.9025ZM164.557 70.1353C164.324 69.9879 164.254 69.6791 164.401 69.4456C164.549 69.2121 164.857 69.1423 165.091 69.2897L164.557 70.1353ZM158.347 65.0954C158.582 65.2397 158.656 65.5475 158.512 65.783C158.368 66.0184 158.06 66.0923 157.824 65.9479L158.347 65.0954ZM155.299 64.4082C155.063 64.2649 154.988 63.9574 155.131 63.7213C155.274 63.4852 155.582 63.41 155.818 63.5532L155.299 64.4082ZM148.997 59.4709C149.235 59.6113 149.314 59.9179 149.173 60.1557C149.033 60.3935 148.726 60.4724 148.488 60.332L148.997 59.4709ZM145.908 58.8155C145.669 58.6761 145.589 58.3699 145.728 58.1315C145.868 57.8931 146.174 57.8128 146.412 57.9522L145.908 58.8155ZM139.529 53.979C139.769 54.1157 139.852 54.421 139.716 54.6609C139.579 54.9008 139.274 54.9845 139.034 54.8478L139.529 53.979ZM136.458 53.3868C136.217 53.2511 136.132 52.9461 136.268 52.7056C136.404 52.4651 136.709 52.3802 136.949 52.516L136.458 53.3868ZM130.006 48.6468C130.248 48.7799 130.337 49.084 130.203 49.3259C130.07 49.5679 129.766 49.6561 129.524 49.523L130.006 48.6468ZM126.912 48.0926C126.67 47.9604 126.58 47.6567 126.712 47.4143C126.844 47.1718 127.148 47.0823 127.391 47.2145L126.912 48.0926ZM120.392 43.4496C120.635 43.5791 120.728 43.8818 120.599 44.1257C120.469 44.3696 120.166 44.4623 119.923 44.3328L120.392 43.4496ZM117.289 42.9416C117.045 42.8132 116.951 42.5109 117.079 42.2664C117.208 42.022 117.51 41.928 117.754 42.0565L117.289 42.9416ZM110.7 38.3982C110.946 38.524 111.043 38.8252 110.917 39.0711C110.792 39.3169 110.49 39.4143 110.245 39.2885L110.7 38.3982ZM107.593 37.9394C107.346 37.8147 107.248 37.5139 107.372 37.2675C107.497 37.0211 107.798 36.9225 108.044 37.0472L107.593 37.9394ZM100.931 33.4995C101.179 33.6213 101.281 33.9209 101.159 34.1688C101.038 34.4166 100.738 34.5188 100.49 34.397L100.931 33.4995ZM97.8183 33.0918C97.5699 32.9712 97.4664 32.672 97.587 32.4236C97.7077 32.1752 98.0068 32.0717 98.2552 32.1923L97.8183 33.0918ZM91.0845 28.7651C91.3344 28.8826 91.4418 29.1804 91.3243 29.4303C91.2068 29.6802 90.909 29.7876 90.6591 29.6701L91.0845 28.7651ZM87.9607 28.4098C87.7102 28.2936 87.6014 27.9963 87.7176 27.7458C87.8339 27.4953 88.1311 27.3865 88.3816 27.5027L87.9607 28.4098ZM81.148 24.207C81.4001 24.3197 81.5131 24.6154 81.4004 24.8675C81.2877 25.1196 80.992 25.2326 80.7398 25.1199L81.148 24.207ZM78.0177 23.9121C77.7649 23.8008 77.6503 23.5057 77.7616 23.2529C77.8729 23.0002 78.1679 22.8856 78.4207 22.9969L78.0177 23.9121ZM71.1199 19.8498C71.3743 19.9571 71.4937 20.2503 71.3864 20.5048C71.2792 20.7592 70.9859 20.8786 70.7315 20.7713L71.1199 19.8498ZM68.0002 19.6303C67.7451 19.5247 67.6239 19.2322 67.7295 18.9771C67.8352 18.7219 68.1276 18.6007 68.3828 18.7063L68.0002 19.6303ZM61.0066 15.7307C61.2637 15.8316 61.3903 16.1218 61.2894 16.3788C61.1885 16.6359 60.8983 16.7625 60.6413 16.6616L61.0066 15.7307ZM57.8534 15.5797C57.5956 15.4807 57.4668 15.1915 57.5657 14.9337C57.6646 14.6759 57.9538 14.5471 58.2116 14.646L57.8534 15.5797ZM50.7557 11.8781C51.0156 11.9712 51.1509 12.2575 51.0577 12.5174C50.9646 12.7774 50.6784 12.9126 50.4184 12.8195L50.7557 11.8781ZM47.6406 11.8386C47.3798 11.7478 47.2419 11.4628 47.3326 11.202C47.4234 10.9412 47.7084 10.8033 47.9692 10.8941L47.6406 11.8386ZM40.406 8.37755C40.6693 8.46094 40.8151 8.74195 40.7317 9.0052C40.6483 9.26845 40.3673 9.41425 40.1041 9.33087L40.406 8.37755ZM37.2519 8.44595C36.9877 8.36572 36.8385 8.08648 36.9188 7.82225C36.999 7.55803 37.2782 7.40886 37.5425 7.48908L37.2519 8.44595ZM29.8994 5.31608C30.1665 5.3865 30.3258 5.66004 30.2554 5.92705C30.185 6.19406 29.9115 6.35344 29.6444 6.28302L29.8994 5.31608ZM26.7547 5.54574C26.4866 5.4797 26.3228 5.2088 26.3888 4.94067C26.4549 4.67254 26.7258 4.50872 26.9939 4.57476L26.7547 5.54574ZM19.2108 2.86301C19.482 2.91488 19.6598 3.17679 19.608 3.44802C19.5561 3.71925 19.2942 3.89707 19.0229 3.8452L19.2108 2.86301ZM16.1149 3.32455C15.8425 3.27923 15.6584 3.02167 15.7038 2.74927C15.7491 2.47687 16.0066 2.29279 16.279 2.33811L16.1149 3.32455ZM8.35174 1.33419C8.62696 1.35676 8.83176 1.59817 8.80919 1.87338C8.78663 2.1486 8.54522 2.35342 8.27 2.33084L8.35174 1.33419ZM201.19 96.3252C200.839 96.0166 200.479 95.704 200.11 95.3875L200.761 94.6284C201.133 94.9475 201.497 95.2628 201.851 95.5742L201.19 96.3252ZM193.937 90.3748C193.181 89.7887 192.402 89.1936 191.602 88.5899L192.205 87.7917C193.008 88.3978 193.79 88.9956 194.549 89.5845L193.937 90.3748ZM185.181 83.8919C184.393 83.3312 183.591 82.7652 182.773 82.1941L183.346 81.3744C184.166 81.9471 184.971 82.5148 185.761 83.0771L185.181 83.8919ZM176.206 77.7034C175.396 77.1608 174.576 76.6148 173.745 76.0657L174.296 75.2314C175.129 75.7817 175.951 76.3288 176.763 76.8726L176.206 77.7034ZM167.092 71.7453C166.256 71.2107 165.41 70.674 164.557 70.1353L165.091 69.2897C165.946 69.8294 166.792 70.367 167.631 70.9025L167.092 71.7453ZM157.824 65.9479C156.989 65.4358 156.147 64.9225 155.299 64.4082L155.818 63.5532C156.667 64.0683 157.51 64.5824 158.347 65.0954L157.824 65.9479ZM148.488 60.332C147.633 59.8269 146.773 59.3213 145.908 58.8155L146.412 57.9522C147.279 58.4588 148.14 58.9651 148.997 59.4709L148.488 60.332ZM139.034 54.8478C138.179 54.3606 137.32 53.8735 136.458 53.3868L136.949 52.516C137.813 53.0034 138.673 53.4911 139.529 53.979L139.034 54.8478ZM129.524 49.523C128.656 49.0454 127.786 48.5685 126.912 48.0926L127.391 47.2145C128.265 47.6911 129.137 48.1686 130.006 48.6468L129.524 49.523ZM119.923 44.3328C119.047 43.8678 118.169 43.404 117.289 42.9416L117.754 42.0565C118.635 42.5195 119.514 42.9839 120.392 43.4496L119.923 44.3328ZM110.245 39.2885C109.362 38.837 108.478 38.3873 107.593 37.9394L108.044 37.0472C108.931 37.4957 109.816 37.9461 110.7 38.3982L110.245 39.2885ZM100.49 34.397C99.5998 33.9596 98.7092 33.5245 97.8183 33.0918L98.2552 32.1923C99.1475 32.6257 100.039 33.0615 100.931 33.4995L100.49 34.397ZM90.6591 29.6701C89.7592 29.2471 88.8597 28.827 87.9607 28.4098L88.3816 27.5027C89.2821 27.9206 90.1831 28.3414 91.0845 28.7651L90.6591 29.6701ZM80.7398 25.1199C79.8312 24.7137 78.9237 24.311 78.0177 23.9121L78.4207 22.9969C79.3284 23.3966 80.2376 23.8 81.148 24.207L80.7398 25.1199ZM70.7315 20.7713C69.8189 20.3866 68.9084 20.0062 68.0002 19.6303L68.3828 18.7063C69.2929 19.0831 70.2053 19.4643 71.1199 19.8498L70.7315 20.7713ZM60.6413 16.6616C59.7086 16.2956 58.7792 15.9349 57.8534 15.5797L58.2116 14.646C59.1398 15.0021 60.0716 15.3638 61.0066 15.7307L60.6413 16.6616ZM50.4184 12.8195C49.4877 12.4861 48.5617 12.159 47.6406 11.8386L47.9692 10.8941C48.8933 11.2156 49.8222 11.5437 50.7557 11.8781L50.4184 12.8195ZM40.1041 9.33087C39.1466 9.02756 38.1958 8.73251 37.2519 8.44595L37.5425 7.48908C38.4902 7.77684 39.4449 8.07308 40.406 8.37755L40.1041 9.33087ZM29.6444 6.28302C28.6717 6.02648 27.7083 5.78061 26.7547 5.54574L26.9939 4.57476C27.9529 4.81098 28.9216 5.0582 29.8994 5.31608L29.6444 6.28302ZM19.0229 3.8452C18.0399 3.65719 17.0703 3.48351 16.1149 3.32455L16.279 2.33811C17.2427 2.49845 18.2202 2.67356 19.2108 2.86301L19.0229 3.8452ZM8.27 2.33084C7.7857 2.29112 7.30637 2.25633 6.83212 2.22655L6.89479 1.22851C7.3756 1.25871 7.86128 1.29397 8.35174 1.33419L8.27 2.33084ZM6.80076 2.72556C6.24957 2.69094 5.8308 2.21604 5.86542 1.66484C5.90004 1.11365 6.37494 0.694872 6.92615 0.729501L6.80076 2.72556ZM202.518 95.8856C202.554 96.4368 202.136 96.9123 201.585 96.9477L192.603 97.5243C192.052 97.5597 191.576 97.1416 191.541 96.5904C191.506 96.0393 191.924 95.5638 192.475 95.5284L200.458 95.0158L199.946 87.0323C199.911 86.4811 200.329 86.0056 200.88 85.9703C201.431 85.9349 201.906 86.353 201.942 86.9041L202.518 95.8856ZM199.785 95.7671C199.366 95.4076 199.317 94.7762 199.677 94.357C200.036 93.9378 200.667 93.8893 201.087 94.2488L199.785 95.7671ZM194.856 89.1894C195.292 89.5278 195.372 90.1559 195.033 90.5924C194.695 91.0289 194.067 91.1084 193.63 90.77L194.856 89.1894ZM191.301 88.989C190.86 88.6564 190.772 88.0293 191.105 87.5885C191.438 87.1476 192.065 87.0599 192.506 87.3925L191.301 88.989ZM186.051 82.6697C186.501 82.9899 186.606 83.6143 186.286 84.0643C185.966 84.5143 185.342 84.6195 184.892 84.2993L186.051 82.6697ZM182.487 82.6039C182.034 82.2876 181.924 81.6641 182.24 81.2114C182.556 80.7587 183.18 80.6482 183.633 80.9646L182.487 82.6039ZM177.041 76.4572C177.5 76.7646 177.623 77.3858 177.315 77.8446C177.008 78.3034 176.387 78.4262 175.928 78.1188L177.041 76.4572ZM173.469 76.4828C173.008 76.1784 172.882 75.558 173.186 75.0972C173.491 74.6365 174.111 74.5097 174.572 74.8142L173.469 76.4828ZM167.9 70.4812C168.365 70.7785 168.502 71.3968 168.204 71.8622C167.907 72.3277 167.289 72.464 166.823 72.1666L167.9 70.4812ZM164.29 70.5582C163.823 70.2633 163.684 69.6458 163.978 69.1787C164.273 68.7117 164.891 68.5721 165.358 68.8669L164.29 70.5582ZM158.608 64.6691C159.079 64.9577 159.227 65.5734 158.938 66.0443C158.65 66.5151 158.034 66.6629 157.563 66.3742L158.608 64.6691ZM155.04 64.8357C154.568 64.5492 154.417 63.9342 154.704 63.462C154.99 62.9898 155.605 62.8392 156.077 63.1257L155.04 64.8357ZM149.251 59.0404C149.727 59.3212 149.885 59.9344 149.604 60.4099C149.323 60.8855 148.71 61.0433 148.234 60.7625L149.251 59.0404ZM145.655 59.2471C145.178 58.9683 145.018 58.3559 145.297 57.8791C145.575 57.4023 146.188 57.2418 146.665 57.5206L145.655 59.2471ZM139.776 53.5445C140.256 53.818 140.423 54.4286 140.15 54.9085C139.877 55.3883 139.266 55.5556 138.786 55.2822L139.776 53.5445ZM136.212 53.8222C135.731 53.5508 135.561 52.9408 135.833 52.4598C136.104 51.9789 136.714 51.8091 137.195 52.0805L136.212 53.8222ZM130.247 48.2087C130.731 48.475 130.908 49.0831 130.641 49.5669C130.375 50.0508 129.767 50.2273 129.283 49.961L130.247 48.2087ZM126.673 48.5316C126.188 48.2673 126.009 47.66 126.273 47.175C126.537 46.6901 127.145 46.5112 127.63 46.7754L126.673 48.5316ZM120.626 43.008C121.114 43.2669 121.299 43.8723 121.04 44.3601C120.781 44.8479 120.176 45.0334 119.688 44.7744L120.626 43.008ZM117.057 43.3842C116.568 43.1273 116.38 42.5226 116.637 42.0338C116.894 41.5449 117.498 41.3569 117.987 41.6139L117.057 43.3842ZM110.928 37.9531C111.419 38.2046 111.614 38.807 111.362 39.2987C111.111 39.7904 110.509 39.9852 110.017 39.7337L110.928 37.9531ZM107.367 38.3856C106.874 38.1362 106.677 37.5345 106.926 37.0418C107.176 36.549 107.777 36.3517 108.27 36.601L107.367 38.3856ZM101.152 33.0508C101.647 33.2943 101.852 33.8936 101.608 34.3893C101.365 34.885 100.765 35.0893 100.27 34.8458L101.152 33.0508ZM97.5999 33.5416C97.1031 33.3003 96.896 32.702 97.1373 32.2052C97.3785 31.7084 97.9769 31.5013 98.4737 31.7426L97.5999 33.5416ZM91.2972 28.3126C91.7971 28.5476 92.0118 29.1432 91.7768 29.643C91.5419 30.1429 90.9462 30.3576 90.4464 30.1226L91.2972 28.3126ZM87.7503 28.8634C87.2493 28.6309 87.0316 28.0364 87.2641 27.5354C87.4965 27.0344 88.0911 26.8167 88.5921 27.0492L87.7503 28.8634ZM81.352 23.7505C81.8562 23.9759 82.0822 24.5674 81.8568 25.0716C81.6314 25.5758 81.04 25.8018 80.5358 25.5764L81.352 23.7505ZM77.8162 24.3696C77.3107 24.1471 77.0814 23.5569 77.304 23.0514C77.5265 22.546 78.1167 22.3167 78.6222 22.5393L77.8162 24.3696ZM71.3141 19.3891C71.823 19.6036 72.0617 20.1901 71.8472 20.699C71.6327 21.2079 71.0462 21.4466 70.5373 21.2321L71.3141 19.3891ZM67.809 20.0923C67.2987 19.881 67.0563 19.2961 67.2676 18.7858C67.4788 18.2755 68.0637 18.0331 68.574 18.2444L67.809 20.0923ZM61.1893 15.2653C61.7034 15.4671 61.9566 16.0474 61.7548 16.5615C61.5531 17.0756 60.9727 17.3288 60.4586 17.1271L61.1893 15.2653ZM57.6743 16.0465C57.1586 15.8486 56.901 15.2703 57.0989 14.7546C57.2967 14.239 57.8751 13.9814 58.3907 14.1792L57.6743 16.0465ZM50.9243 11.4074C51.4442 11.5937 51.7147 12.1662 51.5284 12.6861C51.3422 13.206 50.7697 13.4765 50.2498 13.2902L50.9243 11.4074ZM47.4763 12.3108C46.9546 12.1293 46.6789 11.5594 46.8604 11.0377C47.0419 10.5161 47.6118 10.2404 48.1335 10.4219L47.4763 12.3108ZM40.557 7.90089C41.0835 8.06767 41.3751 8.62969 41.2084 9.15619C41.0416 9.68269 40.4796 9.9743 39.9531 9.80752L40.557 7.90089ZM37.1067 8.92439C36.5782 8.76393 36.2799 8.20546 36.4403 7.677C36.6008 7.14853 37.1593 6.8502 37.6877 7.01065L37.1067 8.92439ZM30.0269 4.83261C30.561 4.97345 30.8797 5.52053 30.7389 6.05455C30.598 6.58858 30.0509 6.90733 29.5169 6.76649L30.0269 4.83261ZM26.6351 6.03123C26.0989 5.89915 25.7712 5.35735 25.9033 4.82109C26.0354 4.28483 26.5772 3.95719 27.1135 4.08928L26.6351 6.03123ZM19.3047 2.37191C19.8472 2.47565 20.2028 2.99949 20.0991 3.54194C19.9953 4.0844 19.4715 4.44004 18.929 4.3363L19.3047 2.37191ZM16.0329 3.81777C15.4881 3.72713 15.1199 3.212 15.2105 2.66721C15.3012 2.12241 15.8163 1.75425 16.3611 1.84489L16.0329 3.81777ZM8.39261 0.835858C8.94305 0.881004 9.35267 1.36382 9.30753 1.91426C9.26237 2.46469 8.77957 2.87431 8.22913 2.82917L8.39261 0.835858ZM200.86 96.7007C200.511 96.3935 200.152 96.0823 199.785 95.7671L201.087 94.2488C201.46 94.5692 201.825 94.8859 202.181 95.1987L200.86 96.7007ZM193.63 90.77C192.876 90.1853 192.099 89.5915 191.301 88.989L192.506 87.3925C193.311 87.9999 194.094 88.5991 194.856 89.1894L193.63 90.77ZM184.892 84.2993C184.105 83.7395 183.303 83.1742 182.487 82.6039L183.633 80.9646C184.453 81.538 185.26 82.1065 186.051 82.6697L184.892 84.2993ZM175.928 78.1188C175.119 77.5768 174.299 77.0314 173.469 76.4828L174.572 74.8142C175.405 75.3651 176.229 75.9128 177.041 76.4572L175.928 78.1188ZM166.823 72.1666C165.987 71.6326 165.143 71.0964 164.29 70.5582L165.358 68.8669C166.213 69.407 167.061 69.9452 167.9 70.4812L166.823 72.1666ZM157.563 66.3742C156.728 65.8625 155.887 65.3496 155.04 64.8357L156.077 63.1257C156.927 63.6412 157.771 64.1557 158.608 64.6691L157.563 66.3742ZM148.234 60.7625C147.379 60.2578 146.52 59.7526 145.655 59.2471L146.665 57.5206C147.532 58.0275 148.394 58.5342 149.251 59.0404L148.234 60.7625ZM138.786 55.2822C137.932 54.7953 137.074 54.3086 136.212 53.8222L137.195 52.0805C138.059 52.5683 138.92 53.0563 139.776 53.5445L138.786 55.2822ZM129.283 49.961C128.416 49.4838 127.546 49.0073 126.673 48.5316L127.63 46.7754C128.505 47.2524 129.378 47.7302 130.247 48.2087L129.283 49.961ZM119.688 44.7744C118.813 44.3098 117.936 43.8463 117.057 43.3842L117.987 41.6139C118.869 42.0773 119.748 42.542 120.626 43.008L119.688 44.7744ZM110.017 39.7337C109.135 39.2825 108.251 38.8331 107.367 38.3856L108.27 36.601C109.157 37.0499 110.043 37.5006 110.928 37.9531L110.017 39.7337ZM100.27 34.8458C99.38 34.4087 98.4901 33.9739 97.5999 33.5416L98.4737 31.7426C99.3666 32.1762 100.259 32.6124 101.152 33.0508L100.27 34.8458ZM90.4464 30.1226C89.5473 29.6999 88.6485 29.2802 87.7503 28.8634L88.5921 27.0492C89.4933 27.4674 90.3951 27.8886 91.2972 28.3126L90.4464 30.1226ZM80.5358 25.5764C79.6279 25.1706 78.7213 24.7683 77.8162 24.3696L78.6222 22.5393C79.5308 22.9394 80.4408 23.3432 81.352 23.7505L80.5358 25.5764ZM70.5373 21.2321C69.6256 20.8478 68.7161 20.4678 67.809 20.0923L68.574 18.2444C69.4851 18.6216 70.3986 19.0032 71.3141 19.3891L70.5373 21.2321ZM60.4586 17.1271C59.5271 16.7615 58.5989 16.4012 57.6743 16.0465L58.3907 14.1792C59.3201 14.5358 60.2531 14.8979 61.1893 15.2653L60.4586 17.1271ZM50.2498 13.2902C49.3205 12.9573 48.3959 12.6307 47.4763 12.3108L48.1335 10.4219C49.059 10.7439 49.9894 11.0725 50.9243 11.4074L50.2498 13.2902ZM39.9531 9.80752C38.9974 9.5048 38.0485 9.21035 37.1067 8.92439L37.6877 7.01065C38.6374 7.299 39.594 7.59584 40.557 7.90089L39.9531 9.80752ZM29.5169 6.76649C28.5467 6.51062 27.586 6.26543 26.6351 6.03123L27.1135 4.08928C28.0753 4.32617 29.0466 4.57406 30.0269 4.83261L29.5169 6.76649ZM18.929 4.3363C17.9497 4.14902 16.9842 3.97604 16.0329 3.81777L16.3611 1.84489C17.3289 2.00591 18.3104 2.18173 19.3047 2.37191L18.929 4.3363ZM8.22913 2.82917C7.74792 2.7897 7.27176 2.75515 6.80076 2.72556L6.92615 0.729501C7.41021 0.759904 7.89906 0.795386 8.39261 0.835858L8.22913 2.82917Z" fill="#949494"/>
</svg>
