<svg width="97" height="221" viewBox="0 0 97 221" fill="none" xmlns="http://www.w3.org/2000/svg">
<path d="M83.8162 214.59C83.8373 214.865 84.0777 215.071 84.353 215.05C84.6283 215.029 84.8344 214.789 84.8133 214.514L83.8162 214.59ZM5.50643 8.27724C5.23454 8.22893 4.97497 8.41017 4.92666 8.68205L4.13934 13.1126C4.09103 13.3845 4.27226 13.6441 4.54415 13.6924C4.81603 13.7407 5.0756 13.5595 5.12391 13.2876L5.82375 9.3493L9.76206 10.0491C10.0339 10.0975 10.2935 9.91621 10.3418 9.64433C10.3901 9.37245 10.2089 9.11288 9.93702 9.06456L5.50643 8.27724ZM5.88489 10.3128C6.04255 10.5395 6.35414 10.5954 6.58085 10.4378C6.80756 10.2801 6.86354 9.96853 6.70588 9.74182L5.88489 10.3128ZM11.3129 16.4405C11.1576 16.2121 10.8466 16.1529 10.6183 16.3081C10.3899 16.4634 10.3307 16.7744 10.4859 17.0027L11.3129 16.4405ZM12.1938 19.5259C12.3481 19.7549 12.6589 19.8155 12.8879 19.6612C13.1169 19.5069 13.1774 19.1961 13.0231 18.9671L12.1938 19.5259ZM17.5253 25.7335C17.3737 25.5027 17.0637 25.4384 16.8329 25.59C16.6021 25.7416 16.5379 26.0516 16.6895 26.2824L17.5253 25.7335ZM18.3515 28.8258C18.502 29.0574 18.8117 29.123 19.0432 28.9725C19.2748 28.822 19.3404 28.5123 19.1899 28.2808L18.3515 28.8258ZM23.5784 35.1282C23.431 34.8947 23.1222 34.8249 22.8887 34.9724C22.6552 35.1198 22.5855 35.4286 22.7329 35.6621L23.5784 35.1282ZM24.3532 38.2424C24.4994 38.4767 24.8078 38.548 25.0421 38.4018C25.2763 38.2556 25.3477 37.9471 25.2014 37.7129L24.3532 38.2424ZM29.4559 44.6385C29.3131 44.4021 29.0057 44.3263 28.7693 44.4691C28.533 44.6119 28.4572 44.9192 28.6 45.1556L29.4559 44.6385ZM30.1651 47.763C30.3066 48.0001 30.6135 48.0777 30.8507 47.9363C31.0878 47.7949 31.1654 47.4879 31.024 47.2508L30.1651 47.763ZM35.1347 54.2696C34.997 54.0302 34.6914 53.9477 34.452 54.0853C34.2126 54.2229 34.1301 54.5285 34.2677 54.768L35.1347 54.2696ZM35.7754 57.4101C35.9115 57.6504 36.2166 57.7348 36.4569 57.5987C36.6972 57.4626 36.7816 57.1575 36.6455 56.9172L35.7754 57.4101ZM40.5901 64.0237C40.4583 63.7811 40.1547 63.6913 39.9121 63.8232C39.6694 63.9551 39.5797 64.2587 39.7115 64.5013L40.5901 64.0237ZM41.1577 67.1836C41.288 67.4271 41.5909 67.519 41.8344 67.3888C42.0779 67.2586 42.1698 66.9556 42.0396 66.7121L41.1577 67.1836ZM45.807 73.9197C45.6815 73.6737 45.3803 73.5762 45.1343 73.7017C44.8884 73.8273 44.7908 74.1285 44.9164 74.3744L45.807 73.9197ZM46.2872 77.0836C46.411 77.3305 46.7114 77.4303 46.9583 77.3065C47.2052 77.1827 47.3049 76.8823 47.1812 76.6354L46.2872 77.0836ZM50.7542 83.9448C50.6355 83.6955 50.3371 83.5896 50.0878 83.7084C49.8385 83.8271 49.7326 84.1255 49.8514 84.3748L50.7542 83.9448ZM51.1496 87.1286C51.2663 87.3788 51.5639 87.487 51.8141 87.3702C52.0643 87.2535 52.1725 86.9559 52.0558 86.7057L51.1496 87.1286ZM55.4155 94.1109C55.3041 93.8582 55.009 93.7437 54.7563 93.855C54.5036 93.9664 54.389 94.2615 54.5004 94.5142L55.4155 94.1109ZM55.716 97.3035C55.8252 97.5571 56.1194 97.6741 56.373 97.5648C56.6266 97.4555 56.7436 97.1614 56.6343 96.9078L55.716 97.3035ZM59.7694 104.414C59.6659 104.158 59.3744 104.034 59.1184 104.138C58.8624 104.241 58.7388 104.533 58.8424 104.789L59.7694 104.414ZM59.9701 107.612C60.0715 107.869 60.3619 107.995 60.6187 107.893C60.8756 107.792 61.0017 107.502 60.9004 107.245L59.9701 107.612ZM63.7979 114.846C63.7025 114.587 63.4151 114.454 63.156 114.55C62.8968 114.645 62.764 114.932 62.8593 115.192L63.7979 114.846ZM63.897 118.051C63.99 118.311 64.2762 118.447 64.5362 118.354C64.7962 118.26 64.9315 117.974 64.8385 117.714L63.897 118.051ZM67.4885 125.405C67.4016 125.143 67.1187 125.001 66.8566 125.088C66.5945 125.175 66.4524 125.458 66.5392 125.72L67.4885 125.405ZM67.4827 128.611C67.5672 128.873 67.8488 129.018 68.1117 128.934C68.3746 128.849 68.5192 128.567 68.4347 128.305L67.4827 128.611ZM70.831 136.078C70.7528 135.813 70.4747 135.662 70.2099 135.74C69.945 135.818 69.7937 136.096 69.8719 136.361L70.831 136.078ZM70.7208 139.285C70.7966 139.55 71.0733 139.704 71.3389 139.628C71.6044 139.552 71.7582 139.276 71.6824 139.01L70.7208 139.285ZM73.8218 146.856C73.7523 146.589 73.4793 146.428 73.2121 146.498C72.9448 146.567 72.7845 146.84 72.854 147.108L73.8218 146.856ZM73.6061 150.054C73.6732 150.322 73.9447 150.485 74.2126 150.418C74.4804 150.35 74.6432 150.079 74.5761 149.811L73.6061 150.054ZM76.4611 157.727C76.4002 157.457 76.1326 157.288 75.8632 157.349C75.5939 157.41 75.4248 157.677 75.4857 157.947L76.4611 157.727ZM76.1424 160.914C76.2009 161.184 76.4671 161.355 76.737 161.296C77.0068 161.238 77.1782 160.972 77.1197 160.702L76.1424 160.914ZM78.7526 168.669C78.7002 168.398 78.4379 168.221 78.1668 168.273C77.8957 168.326 77.7183 168.588 77.7707 168.859L78.7526 168.669ZM78.3366 171.855C78.3867 172.126 78.6475 172.306 78.919 172.256C79.1906 172.205 79.3701 171.945 79.32 171.673L78.3366 171.855ZM80.7085 179.685C80.6643 179.412 80.4075 179.227 80.1349 179.272C79.8623 179.316 79.6772 179.573 79.7214 179.845L80.7085 179.685ZM80.1957 182.845C80.2378 183.118 80.4931 183.305 80.766 183.263C81.0389 183.221 81.2261 182.966 81.1841 182.693L80.1957 182.845ZM82.339 190.745C82.3026 190.471 82.0511 190.279 81.7774 190.315C81.5037 190.352 81.3113 190.603 81.3477 190.877L82.339 190.745ZM81.7377 193.898C81.772 194.172 82.022 194.366 82.296 194.331C82.57 194.297 82.7643 194.047 82.73 193.773L81.7377 193.898ZM83.6615 201.849C83.6325 201.574 83.3864 201.375 83.1118 201.404C82.8371 201.433 82.638 201.679 82.667 201.954L83.6615 201.849ZM82.9757 204.98C83.0027 205.255 83.2474 205.455 83.5223 205.428C83.7971 205.401 83.9979 205.157 83.9709 204.882L82.9757 204.98ZM84.6934 212.984C84.6713 212.709 84.4303 212.504 84.1551 212.526C83.8798 212.548 83.6745 212.789 83.6966 213.064L84.6934 212.984ZM5.00899 9.05577C5.30181 9.47516 5.59378 9.89415 5.88489 10.3128L6.70588 9.74182C6.41441 9.32269 6.12209 8.90319 5.8289 8.48329L5.00899 9.05577ZM10.4859 17.0027C11.0588 17.8452 11.6281 18.6863 12.1938 19.5259L13.0231 18.9671C12.4566 18.1263 11.8865 17.2841 11.3129 16.4405L10.4859 17.0027ZM16.6895 26.2824C17.2471 27.1315 17.8011 27.9793 18.3515 28.8258L19.1899 28.2808C18.6387 27.4329 18.0838 26.5838 17.5253 25.7335L16.6895 26.2824ZM22.7329 35.6621C23.2768 36.5233 23.8169 37.3834 24.3532 38.2424L25.2014 37.7129C24.6642 36.8523 24.1232 35.9908 23.5784 35.1282L22.7329 35.6621ZM28.6 45.1556C29.1256 46.0256 29.6473 46.8947 30.1651 47.763L31.024 47.2508C30.5052 46.3808 29.9825 45.51 29.4559 44.6385L28.6 45.1556ZM34.2677 54.768C34.7743 55.6492 35.2768 56.5299 35.7754 57.4101L36.6455 56.9172C36.1459 56.0352 35.6423 55.1527 35.1347 54.2696L34.2677 54.768ZM39.7115 64.5013C40.1977 65.3957 40.6798 66.2898 41.1577 67.1836L42.0396 66.7121C41.5605 65.8162 41.0774 64.9201 40.5901 64.0237L39.7115 64.5013ZM44.9164 74.3744C45.3775 75.2775 45.8345 76.1805 46.2872 77.0836L47.1812 76.6354C46.7273 75.7301 46.2692 74.8249 45.807 73.9197L44.9164 74.3744ZM49.8514 84.3748C50.2883 85.2924 50.7211 86.2103 51.1496 87.1286L52.0558 86.7057C51.6262 85.785 51.1923 84.8648 50.7542 83.9448L49.8514 84.3748ZM54.5004 94.5142C54.9099 95.4433 55.315 96.373 55.716 97.3035L56.6343 96.9078C56.2323 95.9748 55.826 95.0425 55.4155 94.1109L54.5004 94.5142ZM58.8424 104.789C59.2226 105.729 59.5985 106.67 59.9701 107.612L60.9004 107.245C60.5277 106.3 60.1507 105.356 59.7694 104.414L58.8424 104.789ZM62.8593 115.192C63.2095 116.143 63.5554 117.097 63.897 118.051L64.8385 117.714C64.4959 116.757 64.149 115.801 63.7979 114.846L62.8593 115.192ZM66.5392 125.72C66.8579 126.682 67.1724 127.645 67.4827 128.611L68.4347 128.305C68.1235 127.336 67.8081 126.37 67.4885 125.405L66.5392 125.72ZM69.8719 136.361C70.159 137.334 70.442 138.308 70.7208 139.285L71.6824 139.01C71.4027 138.031 71.1189 137.053 70.831 136.078L69.8719 136.361ZM72.854 147.108C73.1087 148.087 73.3594 149.07 73.6061 150.054L74.5761 149.811C74.3287 148.824 74.0773 147.839 73.8218 146.856L72.854 147.108ZM75.4857 157.947C75.7085 158.933 75.9274 159.922 76.1424 160.914L77.1197 160.702C76.904 159.707 76.6845 158.716 76.4611 157.727L75.4857 157.947ZM77.7707 168.859C77.9631 169.855 78.1517 170.853 78.3366 171.855L79.32 171.673C79.1346 170.669 78.9455 169.668 78.7526 168.669L77.7707 168.859ZM79.7214 179.845C79.8831 180.842 80.0412 181.842 80.1957 182.845L81.1841 182.693C81.0291 181.687 80.8706 180.685 80.7085 179.685L79.7214 179.845ZM81.3477 190.877C81.4811 191.88 81.6111 192.887 81.7377 193.898L82.73 193.773C82.6031 192.761 82.4727 191.751 82.339 190.745L81.3477 190.877ZM82.667 201.954C82.7732 202.959 82.8761 203.968 82.9757 204.98L83.9709 204.882C83.871 203.867 83.7679 202.856 83.6615 201.849L82.667 201.954ZM83.6966 213.064C83.7372 213.572 83.7771 214.08 83.8162 214.59L84.8133 214.514C84.7741 214.003 84.7341 213.493 84.6934 212.984L83.6966 213.064ZM83.3177 214.628C83.3599 215.179 83.8406 215.591 84.3912 215.549C84.9419 215.507 85.3541 215.026 85.3118 214.475L83.3177 214.628ZM5.5939 7.78496C5.05014 7.68833 4.531 8.05081 4.43437 8.59457L2.85973 17.4558C2.7631 17.9995 3.12558 18.5187 3.66935 18.6153C4.21311 18.7119 4.73226 18.3494 4.82888 17.8057L6.22856 9.92907L14.1052 11.3287C14.6489 11.4254 15.1681 11.0629 15.2647 10.5191C15.3613 9.97536 14.9989 9.45622 14.4551 9.35959L5.5939 7.78496ZM5.47439 10.5982C5.78971 11.0516 6.4129 11.1636 6.86632 10.8483C7.31974 10.533 7.4317 9.90977 7.11638 9.45635L5.47439 10.5982ZM11.7264 16.1593C11.4159 15.7026 10.7939 15.5841 10.3372 15.8946C9.88044 16.2052 9.76194 16.8272 10.0725 17.2839L11.7264 16.1593ZM11.7792 19.8053C12.0878 20.2633 12.7093 20.3844 13.1673 20.0758C13.6253 19.7672 13.7464 19.1457 13.4378 18.6877L11.7792 19.8053ZM17.9433 25.459C17.6401 24.9974 17.0201 24.8689 16.5585 25.1721C16.0968 25.4753 15.9684 26.0953 16.2716 26.5569L17.9433 25.459ZM17.9323 29.0984C18.2333 29.5614 18.8527 29.6927 19.3158 29.3917C19.7788 29.0907 19.9101 28.4713 19.6091 28.0082L17.9323 29.0984ZM24.0012 34.8612C23.7063 34.3942 23.0887 34.2547 22.6217 34.5496C22.1548 34.8445 22.0153 35.4621 22.3102 35.9291L24.0012 34.8612ZM23.929 38.5072C24.2215 38.9757 24.8384 39.1184 25.3068 38.8259C25.7753 38.5335 25.918 37.9166 25.6256 37.4481L23.929 38.5072ZM29.8838 44.3799C29.5982 43.9072 28.9835 43.7555 28.5108 44.0411C28.0381 44.3267 27.8864 44.9415 28.172 45.4142L29.8838 44.3799ZM29.7357 48.0191C30.0186 48.4934 30.6324 48.6486 31.1068 48.3657C31.5811 48.0829 31.7363 47.469 31.4534 46.9947L29.7357 48.0191ZM35.5681 54.0204C35.2929 53.5416 34.6816 53.3766 34.2028 53.6518C33.724 53.927 33.559 54.5383 33.8342 55.0171L35.5681 54.0204ZM35.3404 57.6565C35.6126 58.1371 36.2228 58.306 36.7033 58.0338C37.1839 57.7615 37.3528 57.1513 37.0806 56.6708L35.3404 57.6565ZM41.0294 63.7849C40.7657 63.2997 40.1585 63.1201 39.6733 63.3839C39.188 63.6477 39.0085 64.2548 39.2723 64.7401L41.0294 63.7849ZM40.7168 67.4194C40.9772 67.9064 41.5832 68.0901 42.0702 67.8297C42.5572 67.5693 42.7409 66.9633 42.4805 66.4763L40.7168 67.4194ZM46.2523 73.6923C46.0012 73.2004 45.3988 73.0053 44.907 73.2564C44.4151 73.5076 44.22 74.1099 44.4711 74.6018L46.2523 73.6923ZM45.8403 77.3077C46.0878 77.8014 46.6887 78.001 47.1824 77.7535C47.6761 77.5059 47.8757 76.905 47.6281 76.4113L45.8403 77.3077ZM51.2056 83.7298C50.9682 83.2312 50.3715 83.0195 49.8728 83.2569C49.3742 83.4944 49.1625 84.0911 49.3999 84.5897L51.2056 83.7298ZM50.6965 87.34C50.93 87.8405 51.525 88.0569 52.0255 87.8233C52.526 87.5898 52.7424 86.9948 52.5089 86.4943L50.6965 87.34ZM55.873 93.9093C55.6503 93.4039 55.06 93.1748 54.5546 93.3975C54.0492 93.6202 53.8201 94.2105 54.0428 94.7159L55.873 93.9093ZM55.2568 97.5013C55.4753 98.0085 56.0637 98.2425 56.5709 98.024C57.0781 97.8054 57.3121 97.2171 57.0935 96.7099L55.2568 97.5013ZM60.2329 104.226C60.0259 103.714 59.4429 103.467 58.9309 103.674C58.4189 103.881 58.1718 104.464 58.3788 104.976L60.2329 104.226ZM59.505 107.795C59.7077 108.309 60.2885 108.561 60.8022 108.358C61.316 108.156 61.5682 107.575 61.3655 107.061L59.505 107.795ZM64.2671 114.674C64.0764 114.155 63.5017 113.89 62.9834 114.081C62.465 114.271 62.1994 114.846 62.3901 115.364L64.2671 114.674ZM63.4262 118.22C63.6123 118.74 64.1847 119.01 64.7047 118.824C65.2247 118.638 65.4954 118.066 65.3093 117.546L63.4262 118.22ZM67.9631 125.248C67.7894 124.724 67.2236 124.44 66.6994 124.613C66.1751 124.787 65.8909 125.353 66.0646 125.877L67.9631 125.248ZM67.0067 128.764C67.1756 129.289 67.7389 129.579 68.2647 129.41C68.7905 129.241 69.0797 128.677 68.9107 128.152L67.0067 128.764ZM71.3105 135.936C71.1541 135.407 70.598 135.104 70.0683 135.26C69.5386 135.417 69.236 135.973 69.3924 136.503L71.3105 135.936ZM70.24 139.422C70.3917 139.953 70.9451 140.261 71.4761 140.109C72.0072 139.957 72.3148 139.404 72.1632 138.873L70.24 139.422ZM74.3057 146.73C74.1668 146.196 73.6208 145.875 73.0863 146.014C72.5518 146.153 72.2311 146.699 72.3701 147.233L74.3057 146.73ZM73.121 150.176C73.2553 150.711 73.7984 151.037 74.3341 150.903C74.8698 150.768 75.1953 150.225 75.0611 149.689L73.121 150.176ZM76.9488 157.616C76.8271 157.078 76.2918 156.74 75.753 156.861C75.2143 156.983 74.8763 157.518 74.9979 158.057L76.9488 157.616ZM75.6537 161.02C75.7707 161.559 76.3032 161.902 76.8429 161.785C77.3827 161.668 77.7253 161.136 77.6083 160.596L75.6537 161.02ZM79.2435 168.574C79.1387 168.032 78.6142 167.677 78.0719 167.782C77.5297 167.887 77.175 168.412 77.2798 168.954L79.2435 168.574ZM77.8449 171.945C77.9452 172.489 78.4667 172.848 79.0098 172.747C79.5529 172.647 79.9119 172.125 79.8117 171.582L77.8449 171.945ZM81.2021 179.605C81.1136 179.06 80.6 178.69 80.0548 178.778C79.5097 178.866 79.1394 179.38 79.2279 179.925L81.2021 179.605ZM79.7015 182.921C79.7856 183.467 80.2963 183.841 80.8421 183.757C81.388 183.673 81.7623 183.162 81.6782 182.617L79.7015 182.921ZM82.8346 190.679C82.7618 190.132 82.259 189.747 81.7115 189.82C81.164 189.892 80.7792 190.395 80.852 190.943L82.8346 190.679ZM81.2416 193.96C81.3103 194.508 81.8102 194.896 82.3582 194.828C82.9062 194.759 83.2947 194.259 83.2261 193.711L81.2416 193.96ZM84.1587 201.796C84.1007 201.247 83.6085 200.849 83.0593 200.907C82.51 200.965 82.1118 201.457 82.1698 202.006L84.1587 201.796ZM82.4781 205.029C82.5322 205.578 83.0216 205.98 83.5712 205.926C84.1209 205.872 84.5226 205.382 84.4685 204.833L82.4781 205.029ZM85.1918 212.944C85.1477 212.394 84.6657 211.983 84.1152 212.027C83.5646 212.071 83.1541 212.553 83.1982 213.104L85.1918 212.944ZM4.59903 9.34202C4.89168 9.76115 5.18346 10.1799 5.47439 10.5982L7.11638 9.45635C6.82473 9.03697 6.53222 8.6172 6.23886 8.19705L4.59903 9.34202ZM10.0725 17.2839C10.6449 18.1258 11.2138 18.9662 11.7792 19.8053L13.4378 18.6877C12.8708 17.8463 12.3004 17.0035 11.7264 16.1593L10.0725 17.2839ZM16.2716 26.5569C16.8288 27.4053 17.3824 28.2524 17.9323 29.0984L19.6091 28.0082C19.0574 27.1597 18.5022 26.31 17.9433 25.459L16.2716 26.5569ZM22.3102 35.9291C22.8536 36.7895 23.3932 37.6489 23.929 38.5072L25.6256 37.4481C25.0879 36.5868 24.5464 35.7245 24.0012 34.8612L22.3102 35.9291ZM28.172 45.4142C28.6971 46.2833 29.2184 47.1516 29.7357 48.0191L31.4534 46.9947C30.9341 46.1239 30.4109 45.2523 29.8838 44.3799L28.172 45.4142ZM33.8342 55.0171C34.3402 55.8975 34.8423 56.7773 35.3404 57.6565L37.0806 56.6708C36.5804 55.7879 36.0763 54.9044 35.5681 54.0204L33.8342 55.0171ZM39.2723 64.7401C39.7579 65.6335 40.2394 66.5266 40.7168 67.4194L42.4805 66.4763C42.0009 65.5794 41.5172 64.6823 41.0294 63.7849L39.2723 64.7401ZM44.4711 74.6018C44.9317 75.5038 45.388 76.4057 45.8403 77.3077L47.6281 76.4113C47.1737 75.5049 46.7151 74.5986 46.2523 73.6923L44.4711 74.6018ZM49.3999 84.5897C49.8364 85.5062 50.2685 86.4229 50.6965 87.34L52.5089 86.4943C52.0787 85.5724 51.6443 84.651 51.2056 83.7298L49.3999 84.5897ZM54.0428 94.7159C54.4518 95.6437 54.8564 96.5722 55.2568 97.5013L57.0935 96.7099C56.691 95.7756 56.2841 94.8421 55.873 93.9093L54.0428 94.7159ZM58.3788 104.976C58.7585 105.915 59.1339 106.855 59.505 107.795L61.3655 107.061C60.9922 106.115 60.6147 105.17 60.2329 104.226L58.3788 104.976ZM62.3901 115.364C62.7397 116.315 63.0851 117.267 63.4262 118.22L65.3093 117.546C64.9662 116.587 64.6188 115.63 64.2671 114.674L62.3901 115.364ZM66.0646 125.877C66.3828 126.837 66.6968 127.8 67.0067 128.764L68.9107 128.152C68.5991 127.182 68.2832 126.214 67.9631 125.248L66.0646 125.877ZM69.3924 136.503C69.6791 137.474 69.9616 138.447 70.24 139.422L72.1632 138.873C71.8831 137.892 71.5989 136.913 71.3105 135.936L69.3924 136.503ZM72.3701 147.233C72.6244 148.212 72.8747 149.192 73.121 150.176L75.0611 149.689C74.8133 148.701 74.5616 147.714 74.3057 146.73L72.3701 147.233ZM74.9979 158.057C75.2204 159.042 75.439 160.03 75.6537 161.02L77.6083 160.596C77.3924 159.6 77.1726 158.607 76.9488 157.616L74.9979 158.057ZM77.2798 168.954C77.4719 169.948 77.6603 170.945 77.8449 171.945L79.8117 171.582C79.6261 170.577 79.4367 169.574 79.2435 168.574L77.2798 168.954ZM79.2279 179.925C79.3893 180.921 79.5472 181.919 79.7015 182.921L81.6782 182.617C81.5231 181.61 81.3644 180.606 81.2021 179.605L79.2279 179.925ZM80.852 190.943C80.9853 191.945 81.1152 192.951 81.2416 193.96L83.2261 193.711C83.099 192.697 82.9685 191.687 82.8346 190.679L80.852 190.943ZM82.1698 202.006C82.2758 203.01 82.3786 204.018 82.4781 205.029L84.4685 204.833C84.3685 203.817 84.2652 202.805 84.1587 201.796L82.1698 202.006ZM83.1982 213.104C83.2388 213.611 83.2786 214.119 83.3177 214.628L85.3118 214.475C85.2726 213.964 85.2326 213.454 85.1918 212.944L83.1982 213.104Z" fill="#949494"/>
</svg>
