<svg width="213" height="179" viewBox="0 0 213 179" fill="none" xmlns="http://www.w3.org/2000/svg">
<path d="M165.383 2.2033C165.606 2.04036 165.654 1.72754 165.491 1.50459C165.328 1.28165 165.016 1.23301 164.793 1.39595L165.383 2.2033ZM48.8661 177.272C49.0081 177.509 49.3152 177.585 49.552 177.443L53.4116 175.13C53.6485 174.988 53.7254 174.681 53.5834 174.444C53.4414 174.207 53.1343 174.13 52.8975 174.272L49.4667 176.329L47.41 172.898C47.2681 172.661 46.961 172.584 46.7241 172.726C46.4873 172.868 46.4104 173.175 46.5524 173.412L48.8661 177.272ZM50.1398 175.706C50.2075 175.438 50.0454 175.166 49.7777 175.099C49.5099 175.031 49.238 175.193 49.1703 175.461L50.1398 175.706ZM51.1411 167.877C51.0698 168.143 51.2283 168.417 51.4951 168.489C51.7619 168.56 52.0359 168.401 52.1072 168.135L51.1411 167.877ZM52.8708 165.307C52.9435 165.041 52.7866 164.766 52.5202 164.693C52.2538 164.62 51.9789 164.777 51.9061 165.044L52.8708 165.307ZM54.0269 157.508C53.95 157.773 54.1026 158.05 54.3678 158.127C54.633 158.204 54.9103 158.051 54.9873 157.786L54.0269 157.508ZM55.816 154.965C55.8947 154.7 55.7439 154.422 55.4792 154.343C55.2145 154.264 54.9361 154.415 54.8575 154.68L55.816 154.965ZM57.1585 147.19C57.0749 147.453 57.2205 147.735 57.4837 147.818C57.7469 147.902 58.028 147.756 58.1116 147.493L57.1585 147.19ZM59.0078 144.707C59.0934 144.445 58.9499 144.163 58.6874 144.077C58.4248 143.992 58.1426 144.135 58.057 144.398L59.0078 144.707ZM60.5652 136.968C60.4741 137.229 60.6115 137.514 60.8721 137.606C61.1328 137.697 61.418 137.559 61.5092 137.299L60.5652 136.968ZM62.4882 134.537C62.5816 134.277 62.4466 133.991 62.1867 133.898C61.9269 133.804 61.6405 133.939 61.5471 134.199L62.4882 134.537ZM64.2846 126.858C64.1849 127.116 64.3129 127.405 64.5705 127.505C64.828 127.604 65.1176 127.476 65.2172 127.219L64.2846 126.858ZM66.2891 124.487C66.3912 124.23 66.266 123.939 66.0094 123.837C65.7528 123.735 65.4621 123.861 65.36 124.117L66.2891 124.487ZM68.354 116.873C68.2451 117.127 68.3625 117.421 68.6162 117.53C68.87 117.639 69.164 117.521 69.2729 117.267L68.354 116.873ZM70.4422 114.582C70.5537 114.329 70.4394 114.034 70.1868 113.922C69.9342 113.811 69.639 113.925 69.5274 114.178L70.4422 114.582ZM72.7979 107.051C72.6791 107.301 72.7848 107.599 73.0341 107.718C73.2833 107.837 73.5817 107.731 73.7006 107.482L72.7979 107.051ZM74.9757 104.845C75.0974 104.597 74.995 104.298 74.7471 104.176C74.4991 104.054 74.1996 104.157 74.0779 104.405L74.9757 104.845ZM77.6391 97.4186C77.5099 97.6626 77.603 97.9652 77.847 98.0944C78.0911 98.2236 78.3936 98.1305 78.5228 97.8865L77.6391 97.4186ZM79.9085 95.3061C80.0406 95.0636 79.9511 94.7599 79.7085 94.6278C79.466 94.4957 79.1624 94.5853 79.0303 94.8278L79.9085 95.3061ZM82.8916 88.0001C82.7518 88.2383 82.8315 88.5446 83.0697 88.6844C83.3078 88.8242 83.6142 88.7445 83.754 88.5063L82.8916 88.0001ZM85.2503 85.9922C85.393 85.7557 85.317 85.4484 85.0805 85.3057C84.8441 85.1631 84.5368 85.2391 84.3941 85.4755L85.2503 85.9922ZM88.5549 78.8279C88.4046 79.0595 88.4705 79.3692 88.7022 79.5195C88.9338 79.6698 89.2434 79.6039 89.3938 79.3722L88.5549 78.8279ZM91.0043 76.9233C91.1575 76.6935 91.0953 76.3831 90.8656 76.2299C90.6358 76.0768 90.3254 76.1389 90.1722 76.3687L91.0043 76.9233ZM94.6254 69.9178C94.4648 70.1424 94.5168 70.4547 94.7415 70.6153C94.9662 70.7758 95.2784 70.7239 95.439 70.4992L94.6254 69.9178ZM97.1582 68.1242C97.3215 67.9015 97.2733 67.5886 97.0506 67.4253C96.8279 67.262 96.515 67.3102 96.3517 67.5329L97.1582 68.1242ZM101.092 61.28C100.922 61.4973 100.96 61.8116 101.177 61.9819C101.395 62.1522 101.709 62.1141 101.879 61.8967L101.092 61.28ZM103.693 59.6094C103.866 59.394 103.832 59.0793 103.616 58.9065C103.401 58.7336 103.086 58.7681 102.914 58.9834L103.693 59.6094ZM107.917 52.9443C107.737 53.1542 107.762 53.4698 107.972 53.6493C108.182 53.8287 108.497 53.8039 108.677 53.594L107.917 52.9443ZM110.597 51.3729C110.779 51.165 110.758 50.8492 110.55 50.6674C110.342 50.4856 110.026 50.5068 109.844 50.7147L110.597 51.3729ZM115.088 44.893C114.9 45.0954 114.912 45.4118 115.114 45.5996C115.317 45.7873 115.633 45.7754 115.821 45.5729L115.088 44.893ZM117.823 43.4365C118.013 43.2361 118.005 42.9196 117.804 42.7297C117.604 42.5398 117.287 42.5484 117.097 42.7488L117.823 43.4365ZM122.57 37.1297C122.375 37.3249 122.374 37.6415 122.57 37.8368C122.765 38.0321 123.081 38.0323 123.277 37.8371L122.57 37.1297ZM125.359 35.7774C125.556 35.5841 125.559 35.2676 125.366 35.0703C125.173 34.873 124.856 34.8698 124.659 35.063L125.359 35.7774ZM130.327 29.6524C130.124 29.8405 130.113 30.1569 130.301 30.3591C130.489 30.5612 130.806 30.5725 131.008 30.3844L130.327 29.6524ZM133.162 28.3976C133.366 28.2113 133.38 27.895 133.194 27.6912C133.008 27.4873 132.692 27.4731 132.488 27.6593L133.162 28.3976ZM138.337 22.44C138.129 22.6214 138.108 22.9372 138.289 23.1454C138.47 23.3536 138.786 23.3753 138.994 23.1938L138.337 22.44ZM141.216 21.2741C141.426 21.0944 141.45 20.7788 141.27 20.5691C141.091 20.3594 140.775 20.335 140.565 20.5147L141.216 21.2741ZM146.572 15.4814C146.358 15.6565 146.327 15.9716 146.502 16.1851C146.677 16.3986 146.992 16.4298 147.206 16.2547L146.572 15.4814ZM149.47 14.412C149.685 14.2386 149.719 13.9237 149.545 13.7089C149.372 13.494 149.057 13.4604 148.842 13.6339L149.47 14.412ZM154.988 8.77311C154.77 8.9423 154.73 9.25637 154.899 9.47462C155.068 9.69286 155.382 9.73263 155.601 9.56344L154.988 8.77311ZM157.936 7.76659C158.155 7.59895 158.197 7.28516 158.029 7.06573C157.862 6.84629 157.548 6.80429 157.329 6.97193L157.936 7.76659ZM163.595 2.27437C163.372 2.43804 163.325 2.75102 163.489 2.97343C163.652 3.19584 163.965 3.24346 164.188 3.07979L163.595 2.27437ZM49.7799 177.136C49.8995 176.659 50.0195 176.182 50.1398 175.706L49.1703 175.461C49.0498 175.937 48.9297 176.415 48.8099 176.893L49.7799 177.136ZM52.1072 168.135C52.3599 167.189 52.6144 166.246 52.8708 165.307L51.9061 165.044C51.6492 165.984 51.3943 166.929 51.1411 167.877L52.1072 168.135ZM54.9873 157.786C55.2612 156.842 55.5374 155.902 55.816 154.965L54.8575 154.68C54.5783 155.619 54.3015 156.562 54.0269 157.508L54.9873 157.786ZM58.1116 147.493C58.4076 146.561 58.7063 145.633 59.0078 144.707L58.057 144.398C57.7547 145.325 57.4553 146.256 57.1585 147.19L58.1116 147.493ZM61.5092 137.299C61.8322 136.375 62.1585 135.455 62.4882 134.537L61.5471 134.199C61.2165 135.119 60.8892 136.042 60.5652 136.968L61.5092 137.299ZM65.2172 127.219C65.5707 126.305 65.928 125.394 66.2891 124.487L65.36 124.117C64.9976 125.028 64.6392 125.941 64.2846 126.858L65.2172 127.219ZM69.2729 117.267C69.6584 116.369 70.0481 115.474 70.4422 114.582L69.5274 114.178C69.1319 115.073 68.7408 115.972 68.354 116.873L69.2729 117.267ZM73.7006 107.482C74.1208 106.6 74.5458 105.721 74.9757 104.845L74.0779 104.405C73.6464 105.284 73.2197 106.167 72.7979 107.051L73.7006 107.482ZM78.5228 97.8865C78.9795 97.024 79.4413 96.1639 79.9085 95.3061L79.0303 94.8278C78.5612 95.689 78.0975 96.5526 77.6391 97.4186L78.5228 97.8865ZM83.754 88.5063C84.2471 87.6662 84.7459 86.8282 85.2503 85.9922L84.3941 85.4755C83.8876 86.315 83.3868 87.1565 82.8916 88.0001L83.754 88.5063ZM89.3938 79.3722C89.9246 78.5541 90.4614 77.7378 91.0043 76.9233L90.1722 76.3687C89.627 77.1866 89.088 78.0063 88.5549 78.8279L89.3938 79.3722ZM95.439 70.4992C96.0058 69.706 96.5789 68.9143 97.1582 68.1242L96.3517 67.5329C95.77 68.3263 95.1946 69.1213 94.6254 69.9178L95.439 70.4992ZM101.879 61.8967C102.478 61.133 103.082 60.3706 103.693 59.6094L102.914 58.9834C102.3 59.7477 101.693 60.5132 101.092 61.28L101.879 61.8967ZM108.677 53.594C109.31 52.8527 109.95 52.1123 110.597 51.3729L109.844 50.7147C109.195 51.4569 108.553 52.2001 107.917 52.9443L108.677 53.594ZM115.821 45.5729C116.482 44.8601 117.149 44.148 117.823 43.4365L117.097 42.7488C116.421 43.4628 115.751 44.1775 115.088 44.893L115.821 45.5729ZM123.277 37.8371C123.964 37.15 124.658 36.4634 125.359 35.7774L124.659 35.063C123.956 35.7514 123.26 36.4403 122.57 37.1297L123.277 37.8371ZM131.008 30.3844C131.72 29.7218 132.438 29.0595 133.162 28.3976L132.488 27.6593C131.761 28.3234 131.041 28.9877 130.327 29.6524L131.008 30.3844ZM138.994 23.1938C139.729 22.5538 140.469 21.9139 141.216 21.2741L140.565 20.5147C139.817 21.1563 139.074 21.798 138.337 22.44L138.994 23.1938ZM147.206 16.2547C147.955 15.6404 148.71 15.0262 149.47 14.412L148.842 13.6339C148.079 14.2497 147.323 14.8655 146.572 15.4814L147.206 16.2547ZM155.601 9.56344C156.373 8.96458 157.152 8.36563 157.936 7.76659L157.329 6.97193C156.543 7.5724 155.762 8.17278 154.988 8.77311L155.601 9.56344ZM164.188 3.07979C164.585 2.78768 164.983 2.49551 165.383 2.2033L164.793 1.39595C164.392 1.6888 163.993 1.9816 163.595 2.27437L164.188 3.07979ZM165.678 2.60698C166.124 2.28109 166.221 1.65544 165.895 1.20956C165.569 0.763671 164.944 0.666393 164.498 0.992281L165.678 2.60698ZM48.4372 177.529C48.7212 178.003 49.3354 178.156 49.8091 177.872L57.5283 173.245C58.002 172.961 58.1558 172.347 57.8719 171.873C57.5879 171.399 56.9737 171.246 56.5 171.53L49.6385 175.643L45.5252 168.781C45.2412 168.308 44.627 168.154 44.1533 168.438C43.6796 168.722 43.5258 169.336 43.8098 169.81L48.4372 177.529ZM50.6246 175.829C50.76 175.293 50.4357 174.749 49.9002 174.614C49.3648 174.479 48.821 174.803 48.6856 175.338L50.6246 175.829ZM50.658 167.747C50.5155 168.281 50.8325 168.829 51.366 168.972C51.8996 169.114 52.4477 168.797 52.5903 168.264L50.658 167.747ZM53.3532 165.439C53.4986 164.906 53.1846 164.356 52.6519 164.211C52.1191 164.065 51.5692 164.379 51.4238 164.912L53.3532 165.439ZM53.5467 157.368C53.3928 157.899 53.698 158.453 54.2284 158.607C54.7588 158.761 55.3136 158.456 55.4675 157.926L53.5467 157.368ZM56.2953 155.107C56.4526 154.578 56.1511 154.021 55.6217 153.864C55.0923 153.706 54.5355 154.008 54.3782 154.537L56.2953 155.107ZM56.682 147.039C56.5148 147.565 56.806 148.127 57.3323 148.295C57.8587 148.462 58.4209 148.171 58.5881 147.644L56.682 147.039ZM59.4832 144.862C59.6543 144.337 59.3674 143.773 58.8423 143.602C58.3172 143.431 57.7528 143.718 57.5817 144.243L59.4832 144.862ZM60.0933 136.803C59.9109 137.325 60.1857 137.895 60.707 138.077C61.2283 138.26 61.7988 137.985 61.9811 137.464L60.0933 136.803ZM62.9587 134.706C63.1455 134.187 62.8756 133.614 62.3559 133.427C61.8361 133.24 61.2634 133.51 61.0766 134.03L62.9587 134.706ZM63.8182 126.678C63.619 127.193 63.875 127.772 64.3901 127.971C64.9051 128.17 65.4842 127.914 65.6835 127.399L63.8182 126.678ZM66.7537 124.672C66.9579 124.159 66.7074 123.577 66.1943 123.373C65.6811 123.169 65.0996 123.419 64.8954 123.932L66.7537 124.672ZM67.8945 116.676C67.6767 117.183 67.9115 117.771 68.419 117.989C68.9266 118.207 69.5146 117.972 69.7324 117.465L67.8945 116.676ZM70.8995 114.784C71.1227 114.279 70.894 113.688 70.3888 113.465C69.8836 113.242 69.2931 113.471 69.07 113.976L70.8995 114.784ZM72.3466 106.836C72.1089 107.335 72.3204 107.932 72.8189 108.169C73.3174 108.407 73.9142 108.195 74.1519 107.697L72.3466 106.836ZM75.4246 105.065C75.6679 104.57 75.4631 103.97 74.9673 103.727C74.4715 103.484 73.8723 103.689 73.6291 104.184L75.4246 105.065ZM77.1972 97.1846C76.9388 97.6727 77.125 98.2779 77.6131 98.5363C78.1012 98.7947 78.7063 98.6085 78.9647 98.1204L77.1972 97.1846ZM80.3476 95.5452C80.6117 95.0602 80.4327 94.4529 79.9477 94.1887C79.4627 93.9246 78.8554 94.1036 78.5912 94.5886L80.3476 95.5452ZM82.4604 87.747C82.1808 88.2233 82.3403 88.8361 82.8166 89.1156C83.2929 89.3952 83.9056 89.2357 84.1852 88.7594L82.4604 87.747ZM85.6784 86.2505C85.9638 85.7776 85.8117 85.163 85.3389 84.8776C84.866 84.5923 84.2514 84.7443 83.966 85.2172L85.6784 86.2505ZM88.1355 78.5557C87.8348 79.019 87.9667 79.6383 88.43 79.9389C88.8933 80.2395 89.5126 80.1077 89.8132 79.6444L88.1355 78.5557ZM91.4204 77.2006C91.7267 76.741 91.6024 76.1201 91.1429 75.8138C90.6833 75.5076 90.0624 75.6318 89.7561 76.0914L91.4204 77.2006ZM94.2186 69.6271C93.8975 70.0764 94.0014 70.701 94.4508 71.0221C94.9001 71.3432 95.5247 71.2392 95.8458 70.7899L94.2186 69.6271ZM97.5614 68.4198C97.888 67.9744 97.7916 67.3486 97.3462 67.0221C96.9008 66.6955 96.275 66.7919 95.9485 67.2373L97.5614 68.4198ZM100.699 60.9716C100.358 61.4063 100.434 62.0349 100.869 62.3755C101.304 62.7161 101.932 62.6398 102.273 62.2051L100.699 60.9716ZM104.083 59.9224C104.429 59.4917 104.36 58.8623 103.929 58.5165C103.499 58.1708 102.869 58.2397 102.524 58.6704L104.083 59.9224ZM107.537 52.6195C107.178 53.0393 107.227 53.6705 107.647 54.0293C108.067 54.3882 108.698 54.3387 109.057 53.9188L107.537 52.6195ZM110.973 51.702C111.337 51.2863 111.295 50.6545 110.879 50.291C110.463 49.9274 109.831 49.9698 109.468 50.3855L110.973 51.702ZM114.721 44.553C114.346 44.9579 114.369 45.5907 114.774 45.9662C115.179 46.3417 115.812 46.3179 116.188 45.9129L114.721 44.553ZM118.186 43.7804C118.566 43.3795 118.549 42.7465 118.148 42.3667C117.747 41.9869 117.114 42.004 116.734 42.405L118.186 43.7804ZM122.217 36.776C121.826 37.1664 121.826 37.7995 122.216 38.1902C122.606 38.5809 123.239 38.5812 123.63 38.1908L122.217 36.776ZM125.709 36.1346C126.103 35.7481 126.11 35.115 125.723 34.7204C125.337 34.3259 124.704 34.3193 124.309 34.7058L125.709 36.1346ZM129.986 29.2864C129.582 29.6627 129.559 30.2955 129.935 30.6997C130.312 31.104 130.944 31.1266 131.349 30.7504L129.986 29.2864ZM133.5 28.7667C133.907 28.3941 133.936 27.7616 133.563 27.3539C133.191 26.9462 132.558 26.9177 132.15 27.2902L133.5 28.7667ZM138.009 22.063C137.593 22.4259 137.549 23.0576 137.912 23.4739C138.275 23.8903 138.907 23.9336 139.323 23.5708L138.009 22.063ZM141.541 21.6538C141.961 21.2945 142.01 20.6632 141.65 20.2438C141.291 19.8244 140.66 19.7757 140.24 20.135L141.541 21.6538ZM146.254 15.0948C145.827 15.445 145.765 16.0751 146.115 16.5021C146.466 16.9292 147.096 16.9915 147.523 16.6413L146.254 15.0948ZM149.784 14.8011C150.214 14.4541 150.281 13.8246 149.934 13.3948C149.588 12.9651 148.958 12.8979 148.528 13.2448L149.784 14.8011ZM154.682 8.37794C154.245 8.71631 154.166 9.34446 154.504 9.78095C154.842 10.2174 155.471 10.297 155.907 9.95861L154.682 8.37794ZM158.239 8.16391C158.678 7.82864 158.762 7.20108 158.427 6.7622C158.092 6.32332 157.464 6.23933 157.025 6.5746L158.239 8.16391ZM163.299 1.87166C162.854 2.19901 162.758 2.82497 163.086 3.26978C163.413 3.71461 164.039 3.80984 164.484 3.4825L163.299 1.87166ZM50.265 177.258C50.3845 176.78 50.5043 176.304 50.6246 175.829L48.6856 175.338C48.565 175.815 48.4447 176.293 48.3249 176.772L50.265 177.258ZM52.5903 168.264C52.8427 167.319 53.097 166.377 53.3532 165.439L51.4238 164.912C51.1667 165.854 50.9114 166.799 50.658 167.747L52.5903 168.264ZM55.4675 157.926C55.7411 156.983 56.017 156.043 56.2953 155.107L54.3782 154.537C54.0987 155.478 53.8216 156.421 53.5467 157.368L55.4675 157.926ZM58.5881 147.644C58.8838 146.714 59.1821 145.786 59.4832 144.862L57.5817 144.243C57.2789 145.171 56.9791 146.104 56.682 147.039L58.5881 147.644ZM61.9811 137.464C62.3037 136.541 62.6295 135.622 62.9587 134.706L61.0766 134.03C60.7455 134.951 60.4177 135.876 60.0933 136.803L61.9811 137.464ZM65.6835 127.399C66.0364 126.487 66.3931 125.578 66.7537 124.672L64.8954 123.932C64.5325 124.844 64.1734 125.759 63.8182 126.678L65.6835 127.399ZM69.7324 117.465C70.1171 116.568 70.5062 115.675 70.8995 114.784L69.07 113.976C68.6738 114.873 68.282 115.773 67.8945 116.676L69.7324 117.465ZM74.1519 107.697C74.5713 106.817 74.9955 105.94 75.4246 105.065L73.6291 104.184C73.1967 105.066 72.7692 105.95 72.3466 106.836L74.1519 107.697ZM78.9647 98.1204C79.4204 97.2596 79.8813 96.4013 80.3476 95.5452L78.5912 94.5886C78.1212 95.4516 77.6565 96.3169 77.1972 97.1846L78.9647 98.1204ZM84.1852 88.7594C84.6773 87.921 85.175 87.0847 85.6784 86.2505L83.966 85.2172C83.4584 86.0584 82.9566 86.9016 82.4604 87.747L84.1852 88.7594ZM89.8132 79.6444C90.343 78.828 90.8786 78.0134 91.4204 77.2006L89.7561 76.0914C89.2099 76.911 88.6697 77.7325 88.1355 78.5557L89.8132 79.6444ZM95.8458 70.7899C96.4115 69.9984 96.9833 69.2083 97.5614 68.4198L95.9485 67.2373C95.3656 68.0323 94.789 68.8289 94.2186 69.6271L95.8458 70.7899ZM102.273 62.2051C102.87 61.443 103.473 60.6821 104.083 59.9224L102.524 58.6704C101.909 59.4362 101.301 60.2033 100.699 60.9716L102.273 62.2051ZM109.057 53.9188C109.689 53.1789 110.328 52.44 110.973 51.702L109.468 50.3855C108.818 51.1292 108.174 51.8738 107.537 52.6195L109.057 53.9188ZM116.188 45.9129C116.847 45.2013 117.514 44.4905 118.186 43.7804L116.734 42.405C116.057 43.1202 115.386 43.8362 114.721 44.553L116.188 45.9129ZM123.63 38.1908C124.317 37.5049 125.009 36.8195 125.709 36.1346L124.309 34.7058C123.605 35.3953 122.908 36.0854 122.217 36.776L123.63 38.1908ZM131.349 30.7504C132.059 30.0888 132.776 29.4276 133.5 28.7667L132.15 27.2902C131.423 27.9553 130.701 28.6207 129.986 29.2864L131.349 30.7504ZM139.323 23.5708C140.056 22.9316 140.796 22.2926 141.541 21.6538L140.24 20.135C139.49 20.7775 138.747 21.4202 138.009 22.063L139.323 23.5708ZM147.523 16.6413C148.271 16.0279 149.025 15.4145 149.784 14.8011L148.528 13.2448C147.764 13.8614 147.007 14.4781 146.254 15.0948L147.523 16.6413ZM155.907 9.95861C156.679 9.36047 157.456 8.76225 158.239 8.16391L157.025 6.5746C156.238 7.17578 155.457 7.77689 154.682 8.37794L155.907 9.95861ZM164.484 3.4825C164.88 3.19071 165.278 2.89888 165.678 2.60698L164.498 0.992281C164.097 1.28544 163.697 1.57857 163.299 1.87166L164.484 3.4825Z" fill="#949494"/>
</svg>
