<svg width="26" height="80" viewBox="0 0 26 80" fill="none" xmlns="http://www.w3.org/2000/svg">
<path d="M3.59123 77.9192C3.484 78.1736 3.60336 78.4669 3.85783 78.5741C4.1123 78.6813 4.40552 78.562 4.51275 78.3075L3.59123 77.9192ZM16.3758 1.68154C16.178 1.48877 15.8615 1.4928 15.6687 1.69052L12.5274 4.9127C12.3347 5.11042 12.3387 5.42698 12.5364 5.61975C12.7341 5.81251 13.0507 5.80849 13.2435 5.61076L16.0357 2.7466L18.8999 5.53885C19.0976 5.73161 19.4142 5.72759 19.6069 5.52986C19.7997 5.33213 19.7957 5.01557 19.5979 4.82281L16.3758 1.68154ZM5.09026 76.9076C5.19366 76.6515 5.06992 76.3601 4.81386 76.2567C4.55781 76.1533 4.26642 76.277 4.16301 76.5331L5.09026 76.9076ZM6.89209 68.9961C6.80693 69.2588 6.95083 69.5408 7.21351 69.626C7.47619 69.7111 7.75818 69.5672 7.84334 69.3045L6.89209 68.9961ZM8.74549 66.4082C8.82463 66.1437 8.67431 65.8651 8.40975 65.7859C8.14519 65.7068 7.86657 65.8571 7.78743 66.1217L8.74549 66.4082ZM9.87241 58.374C9.80767 58.6424 9.97282 58.9125 10.2413 58.9773C10.5097 59.042 10.7798 58.8768 10.8445 58.6084L9.87241 58.374ZM11.5282 55.6549C11.588 55.3853 11.418 55.1183 11.1484 55.0584C10.8788 54.9986 10.6118 55.1686 10.5519 55.4382L11.5282 55.6549ZM12.1149 47.5643C12.067 47.8362 12.2486 48.0955 12.5205 48.1434C12.7925 48.1914 13.0518 48.0097 13.0997 47.7378L12.1149 47.5643ZM13.6023 44.7519C13.6461 44.4792 13.4606 44.2227 13.1879 44.1789C12.9153 44.1352 12.6587 44.3207 12.615 44.5933L13.6023 44.7519ZM13.7369 36.6363C13.7034 36.9104 13.8985 37.1598 14.1726 37.1933C14.4467 37.2268 14.6961 37.0317 14.7295 36.7576L13.7369 36.6363ZM15.0765 33.7513C15.1064 33.4768 14.908 33.23 14.6335 33.2002C14.359 33.1703 14.1122 33.3687 14.0824 33.6432L15.0765 33.7513ZM14.816 25.6414C14.7953 25.9168 15.0018 26.1568 15.2771 26.1775C15.5525 26.1981 15.7925 25.9917 15.8132 25.7163L14.816 25.6414ZM16.0216 22.6981C16.039 22.4225 15.8296 22.185 15.5541 22.1677C15.2785 22.1503 15.0409 22.3596 15.0236 22.6352L16.0216 22.6981ZM15.4058 14.6066C15.3968 14.8826 15.6133 15.1136 15.8893 15.1225C16.1653 15.1315 16.3963 14.915 16.4052 14.639L15.4058 14.6066ZM16.4865 11.6147C16.4924 11.3386 16.2734 11.11 15.9973 11.1041C15.7212 11.0982 15.4926 11.3173 15.4867 11.5934L16.4865 11.6147ZM15.542 3.55485C15.544 3.83099 15.7695 4.05318 16.0457 4.05113C16.3218 4.04908 16.544 3.82357 16.5419 3.54743L15.542 3.55485ZM4.51275 78.3075C4.70752 77.8453 4.90002 77.3786 5.09026 76.9076L4.16301 76.5331C3.97462 76.9996 3.78402 77.4617 3.59123 77.9192L4.51275 78.3075ZM7.84334 69.3045C8.15196 68.3527 8.45269 67.3871 8.74549 66.4082L7.78743 66.1217C7.49677 67.0934 7.1983 68.0517 6.89209 68.9961L7.84334 69.3045ZM10.8445 58.6084C11.0795 57.6342 11.3073 56.6496 11.5282 55.6549L10.5519 55.4382C10.3324 56.4271 10.1059 57.4058 9.87241 58.374L10.8445 58.6084ZM13.0997 47.7378C13.2737 46.7505 13.4412 45.7551 13.6023 44.7519L12.615 44.5933C12.4547 45.5916 12.288 46.582 12.1149 47.5643L13.0997 47.7378ZM14.7295 36.7576C14.8512 35.7617 14.9669 34.7595 15.0765 33.7513L14.0824 33.6432C13.9732 34.6471 13.858 35.6449 13.7369 36.6363L14.7295 36.7576ZM15.8132 25.7163C15.8883 24.715 15.9578 23.7089 16.0216 22.6981L15.0236 22.6352C14.9601 23.642 14.8908 24.6442 14.816 25.6414L15.8132 25.7163ZM16.4052 14.639C16.4378 13.6345 16.4649 12.6264 16.4865 11.6147L15.4867 11.5934C15.4652 12.6013 15.4382 13.6058 15.4058 14.6066L16.4052 14.639ZM16.5419 3.54743C16.5382 3.04336 16.5331 2.53861 16.5267 2.0332L15.5268 2.04591C15.5332 2.54956 15.5382 3.05255 15.542 3.55485L16.5419 3.54743ZM3.13047 77.725C2.916 78.234 3.15472 78.8204 3.66367 79.0349C4.17261 79.2493 4.75905 79.0106 4.97351 78.5017L3.13047 77.725ZM16.7248 1.32352C16.3293 0.937987 15.6962 0.946036 15.3107 1.34149L9.02814 7.78584C8.64261 8.18129 8.65066 8.81441 9.04611 9.19994C9.44157 9.58547 10.0747 9.57742 10.4602 9.18196L16.0447 3.45365L21.773 9.03814C22.1685 9.42367 22.8016 9.41562 23.1871 9.02017C23.5726 8.62471 23.5646 7.99159 23.1691 7.60607L16.7248 1.32352ZM5.55388 77.0948C5.76069 76.5827 5.5132 75.9999 5.00109 75.7931C4.48899 75.5863 3.9062 75.8338 3.69939 76.3459L5.55388 77.0948ZM6.41647 68.8419C6.24613 69.3673 6.53394 69.9312 7.0593 70.1016C7.58466 70.2719 8.14863 69.9841 8.31897 69.4587L6.41647 68.8419ZM9.22452 66.5515C9.38279 66.0224 9.08216 65.4652 8.55304 65.3069C8.02392 65.1486 7.46668 65.4493 7.30841 65.9784L9.22452 66.5515ZM9.38634 58.2568C9.25687 58.7937 9.58716 59.3339 10.1241 59.4633C10.661 59.5928 11.2011 59.2625 11.3306 58.7256L9.38634 58.2568ZM12.0163 55.7633C12.136 55.2241 11.7959 54.69 11.2568 54.5703C10.7176 54.4506 10.1835 54.7906 10.0638 55.3298L12.0163 55.7633ZM11.6225 47.4775C11.5266 48.0214 11.8899 48.54 12.4338 48.6359C12.9777 48.7317 13.4963 48.3685 13.5921 47.8246L11.6225 47.4775ZM14.096 44.8312C14.1836 44.2859 13.8125 43.7728 13.2672 43.6853C12.7219 43.5977 12.2089 43.9688 12.1213 44.5141L14.096 44.8312ZM13.2406 36.5757C13.1736 37.1239 13.5638 37.6226 14.112 37.6896C14.6602 37.7565 15.1589 37.3664 15.2259 36.8182L13.2406 36.5757ZM15.5736 33.8054C15.6333 33.2563 15.2366 32.7628 14.6876 32.7031C14.1385 32.6434 13.645 33.0401 13.5853 33.5891L15.5736 33.8054ZM14.3174 25.604C14.276 26.1547 14.689 26.6347 15.2397 26.6761C15.7905 26.7174 16.2704 26.3045 16.3118 25.7537L14.3174 25.604ZM16.5206 22.7296C16.5554 22.1784 16.1367 21.7034 15.5855 21.6686C15.0343 21.6339 14.5593 22.0525 14.5246 22.6037L16.5206 22.7296ZM14.906 14.5904C14.8881 15.1424 15.3211 15.6044 15.8731 15.6223C16.4251 15.6402 16.8871 15.2072 16.905 14.6552L14.906 14.5904ZM16.9864 11.6254C16.9982 11.0732 16.5601 10.616 16.0079 10.6042C15.4558 10.5925 14.9986 11.0305 14.9868 11.5827L16.9864 11.6254ZM15.042 3.55856C15.0461 4.11083 15.4971 4.55521 16.0494 4.55111C16.6016 4.54702 17.046 4.09599 17.0419 3.54372L15.042 3.55856ZM4.97351 78.5017C5.16926 78.0371 5.36272 77.5681 5.55388 77.0948L3.69939 76.3459C3.51192 76.8101 3.32227 77.2698 3.13047 77.725L4.97351 78.5017ZM8.31897 69.4587C8.62879 68.5032 8.93066 67.5339 9.22452 66.5515L7.30841 65.9784C7.01881 66.9465 6.72147 67.9012 6.41647 68.8419L8.31897 69.4587ZM11.3306 58.7256C11.5662 57.7484 11.7948 56.7609 12.0163 55.7633L10.0638 55.3298C9.84493 56.3158 9.61908 57.2916 9.38634 58.2568L11.3306 58.7256ZM13.5921 47.8246C13.7665 46.8347 13.9345 45.8368 14.096 44.8312L12.1213 44.5141C11.9614 45.5098 11.7951 46.4978 11.6225 47.4775L13.5921 47.8246ZM15.2259 36.8182C15.3478 35.8201 15.4637 34.8157 15.5736 33.8054L13.5853 33.5891C13.4764 34.5908 13.3615 35.5864 13.2406 36.5757L15.2259 36.8182ZM16.3118 25.7537C16.3871 24.7505 16.4567 23.7424 16.5206 22.7296L14.5246 22.6037C14.4612 23.6086 14.3921 24.6087 14.3174 25.604L16.3118 25.7537ZM16.905 14.6552C16.9376 13.6489 16.9648 12.6389 16.9864 11.6254L14.9868 11.5827C14.9654 12.5888 14.9384 13.5915 14.906 14.5904L16.905 14.6552ZM17.0419 3.54372C17.0382 3.03877 17.0331 2.53313 17.0266 2.02684L15.0268 2.05227C15.0332 2.55503 15.0383 3.05714 15.042 3.55856L17.0419 3.54372Z" fill="#949494"/>
</svg>
