<svg width="105" height="171" viewBox="0 0 105 171" fill="none" xmlns="http://www.w3.org/2000/svg">
<path d="M103.069 152.396C103.155 152.659 103.437 152.801 103.7 152.715C103.962 152.629 104.105 152.347 104.019 152.084L103.069 152.396ZM3.03925 17.4773C2.76809 17.5295 2.5906 17.7916 2.64281 18.0628L3.49364 22.4816C3.54585 22.7528 3.80799 22.9303 4.07916 22.8781C4.35032 22.8259 4.52781 22.5637 4.4756 22.2926L3.71931 18.3647L7.64716 17.6084C7.91832 17.5562 8.09582 17.2941 8.0436 17.0229C7.99139 16.7517 7.72925 16.5742 7.45809 16.6265L3.03925 17.4773ZM4.10551 19.2413C4.33227 19.3989 4.64385 19.3428 4.80144 19.116C4.95902 18.8892 4.90294 18.5777 4.67618 18.4201L4.10551 19.2413ZM11.3275 23.3362C11.1099 23.1662 10.7957 23.2048 10.6257 23.4224C10.4556 23.64 10.4942 23.9542 10.7118 24.1242L11.3275 23.3362ZM13.1338 26.0521C13.3483 26.226 13.6632 26.193 13.8371 25.9785C14.0109 25.764 13.978 25.4491 13.7634 25.2752L13.1338 26.0521ZM20.0595 30.6029C19.8523 30.4204 19.5363 30.4404 19.3538 30.6476C19.1712 30.8548 19.1912 31.1707 19.3984 31.3533L20.0595 30.6029ZM21.6967 33.4064C21.9014 33.5917 22.2175 33.5761 22.4029 33.3714C22.5883 33.1667 22.5726 32.8505 22.3679 32.6651L21.6967 33.4064ZM28.4036 38.3199C28.2052 38.1278 27.8886 38.133 27.6966 38.3315C27.5045 38.5299 27.5097 38.8464 27.7082 39.0385L28.4036 38.3199ZM29.9031 41.1869C30.0993 41.3812 30.4159 41.3796 30.6102 41.1833C30.8045 40.987 30.8028 40.6705 30.6066 40.4762L29.9031 41.1869ZM36.3933 46.3709C36.2026 46.1712 35.8861 46.1638 35.6864 46.3545C35.4866 46.5452 35.4793 46.8617 35.67 47.0615L36.3933 46.3709ZM37.7878 49.3018C37.9765 49.5034 38.2929 49.5139 38.4945 49.3252C38.6961 49.1365 38.7066 48.8201 38.5179 48.6185L37.7878 49.3018ZM44.0808 54.7161C43.8973 54.5098 43.5812 54.4914 43.3749 54.6749C43.1686 54.8585 43.1501 55.1745 43.3337 55.3808L44.0808 54.7161ZM45.3749 57.6964C45.5566 57.9044 45.8724 57.9257 46.0804 57.744C46.2884 57.5624 46.3097 57.2465 46.1281 57.0385L45.3749 57.6964ZM51.4824 63.3169C51.3057 63.1047 50.9904 63.0759 50.7782 63.2527C50.566 63.4294 50.5373 63.7447 50.714 63.9568L51.4824 63.3169ZM52.6794 66.3377C52.8543 66.5514 53.1693 66.5828 53.383 66.408C53.5967 66.2331 53.6282 65.9181 53.4533 65.7044L52.6794 66.3377ZM58.6059 72.1493C58.4359 71.9317 58.1217 71.893 57.904 72.063C57.6864 72.233 57.6478 72.5472 57.8178 72.7648L58.6059 72.1493ZM59.7073 75.2053C59.8755 75.4244 60.1894 75.4656 60.4084 75.2975C60.6275 75.1294 60.6688 74.8155 60.5006 74.5964L59.7073 75.2053ZM65.4508 81.199C65.2876 80.9762 64.9748 80.9278 64.752 81.091C64.5292 81.2541 64.4808 81.567 64.6439 81.7898L65.4508 81.199ZM66.4563 84.2873C66.6175 84.5115 66.93 84.5625 67.1542 84.4013C67.3784 84.2401 67.4294 83.9276 67.2682 83.7034L66.4563 84.2873ZM72.009 90.4585C71.853 90.2306 71.5418 90.1724 71.314 90.3284C71.0861 90.4844 71.0279 90.7955 71.1839 91.0234L72.009 90.4585ZM72.9157 93.5773C73.0697 93.8066 73.3803 93.8676 73.6096 93.7136C73.8388 93.5597 73.8998 93.249 73.7459 93.0198L72.9157 93.5773ZM78.2641 99.9259C78.1158 99.6929 77.8067 99.6244 77.5738 99.7727C77.3409 99.921 77.2723 100.23 77.4206 100.463L78.2641 99.9259ZM79.0661 103.074C79.2122 103.308 79.5206 103.38 79.7549 103.234C79.9892 103.088 80.0607 102.779 79.9146 102.545L79.0661 103.074ZM84.19 109.604C84.0501 109.366 83.7437 109.286 83.5056 109.426C83.2675 109.566 83.1879 109.873 83.3278 110.111L84.19 109.604ZM84.8776 112.78C85.015 113.019 85.3206 113.102 85.5601 112.965C85.7996 112.827 85.8824 112.522 85.745 112.282L84.8776 112.78ZM89.7486 119.501C89.6183 119.257 89.3152 119.165 89.0718 119.296C88.8283 119.426 88.7366 119.729 88.867 119.973L89.7486 119.501ZM90.3071 122.701C90.4345 122.946 90.7364 123.041 90.9814 122.913C91.2264 122.786 91.3216 122.484 91.1942 122.239L90.3071 122.701ZM94.8847 129.627C94.7656 129.378 94.467 129.273 94.2179 129.392C93.9688 129.511 93.8635 129.81 93.9826 130.059L94.8847 129.627ZM95.2926 132.846C95.4084 133.097 95.7054 133.206 95.9561 133.09C96.2069 132.975 96.3163 132.677 96.2005 132.427L95.2926 132.846ZM99.5185 139.998C99.4129 139.743 99.1204 139.622 98.8653 139.728C98.6101 139.833 98.489 140.126 98.5946 140.381L99.5185 139.998ZM99.7464 143.227C99.8479 143.484 100.138 143.61 100.395 143.509C100.652 143.407 100.778 143.117 100.676 142.86L99.7464 143.227ZM103.532 150.626C103.443 150.365 103.159 150.225 102.898 150.313C102.636 150.402 102.496 150.686 102.585 150.948L103.532 150.626ZM2.85346 18.3823C3.26913 18.6637 3.6865 18.9501 4.10551 19.2413L4.67618 18.4201C4.25391 18.1266 3.8332 17.838 3.41412 17.5542L2.85346 18.3823ZM10.7118 24.1242C11.515 24.7518 12.3224 25.3946 13.1338 26.0521L13.7634 25.2752C12.9476 24.614 12.1355 23.9676 11.3275 23.3362L10.7118 24.1242ZM19.3984 31.3533C20.1623 32.0262 20.9285 32.7107 21.6967 33.4064L22.3679 32.6651C21.5964 31.9665 20.8268 31.279 20.0595 30.6029L19.3984 31.3533ZM27.7082 39.0385C28.439 39.7457 29.1707 40.4619 29.9031 41.1869L30.6066 40.4762C29.8716 39.7486 29.1371 39.0297 28.4036 38.3199L27.7082 39.0385ZM35.67 47.0615C36.3761 47.801 37.0821 48.5479 37.7878 49.3018L38.5179 48.6185C37.81 47.8622 37.1017 47.1129 36.3933 46.3709L35.67 47.0615ZM43.3337 55.3808C44.0152 56.1468 44.6957 56.9188 45.3749 57.6964L46.1281 57.0385C45.4468 56.2586 44.7643 55.4844 44.0808 54.7161L43.3337 55.3808ZM50.714 63.9568C51.371 64.7457 52.0262 65.5394 52.6794 66.3377L53.4533 65.7044C52.7983 64.9039 52.1412 64.108 51.4824 63.3169L50.714 63.9568ZM57.8178 72.7648C58.4502 73.5746 59.0801 74.3881 59.7073 75.2053L60.5006 74.5964C59.8717 73.777 59.24 72.9612 58.6059 72.1493L57.8178 72.7648ZM64.6439 81.7898C65.2514 82.6194 65.8556 83.452 66.4563 84.2873L67.2682 83.7034C66.6658 82.8658 66.0599 82.0309 65.4508 81.199L64.6439 81.7898ZM71.1839 91.0234C71.7652 91.8726 72.3426 92.724 72.9157 93.5773L73.7459 93.0198C73.1711 92.164 72.5921 91.3102 72.009 90.4585L71.1839 91.0234ZM77.4206 100.463C77.9741 101.332 78.5226 102.202 79.0661 103.074L79.9146 102.545C79.3695 101.671 78.8192 100.798 78.2641 99.9259L77.4206 100.463ZM83.3278 110.111C83.8503 111 84.367 111.89 84.8776 112.78L85.745 112.282C85.2327 111.389 84.7143 110.496 84.19 109.604L83.3278 110.111ZM88.867 119.973C89.3541 120.882 89.8342 121.792 90.3071 122.701L91.1942 122.239C90.7194 121.327 90.2375 120.414 89.7486 119.501L88.867 119.973ZM93.9826 130.059C94.4277 130.989 94.8645 131.918 95.2926 132.846L96.2005 132.427C95.7705 131.495 95.3318 130.562 94.8847 129.627L93.9826 130.059ZM98.5946 140.381C98.9887 141.333 99.3728 142.281 99.7464 143.227L100.676 142.86C100.301 141.909 99.9147 140.955 99.5185 139.998L98.5946 140.381ZM102.585 150.948C102.749 151.432 102.91 151.914 103.069 152.396L104.019 152.084C103.86 151.599 103.697 151.113 103.532 150.626L102.585 150.948ZM102.593 152.552C102.766 153.077 103.331 153.363 103.855 153.19C104.38 153.018 104.666 152.453 104.494 151.928L102.593 152.552ZM2.94472 16.9863C2.40239 17.0907 2.0474 17.615 2.15183 18.1573L3.85349 26.995C3.95791 27.5373 4.4822 27.8923 5.02452 27.7879C5.56685 27.6835 5.92183 27.1592 5.81741 26.6169L4.30483 18.7612L12.1605 17.2486C12.7029 17.1441 13.0578 16.6199 12.9534 16.0775C12.849 15.5352 12.3247 15.1802 11.7824 15.2846L2.94472 16.9863ZM3.82018 19.6519C4.2737 19.967 4.89685 19.8549 5.21203 19.4013C5.5272 18.9478 5.41504 18.3247 4.96152 18.0095L3.82018 19.6519ZM11.6353 22.9422C11.2002 22.6022 10.5717 22.6793 10.2317 23.1145C9.89162 23.5497 9.96875 24.1782 10.4039 24.5182L11.6353 22.9422ZM12.819 26.4406C13.2481 26.7883 13.8778 26.7224 14.2255 26.2933C14.5732 25.8642 14.5073 25.2345 14.0782 24.8868L12.819 26.4406ZM20.39 30.2278C19.9756 29.8627 19.3437 29.9027 18.9786 30.3171C18.6135 30.7315 18.6535 31.3634 19.0679 31.7284L20.39 30.2278ZM21.361 33.777C21.7704 34.1477 22.4028 34.1164 22.7735 33.707C23.1442 33.2976 23.1129 32.6653 22.7035 32.2945L21.361 33.777ZM28.7513 37.9606C28.3544 37.5765 27.7213 37.5869 27.3373 37.9838C26.9532 38.3806 26.9636 39.0137 27.3605 39.3978L28.7513 37.9606ZM29.5513 41.5422C29.9439 41.9308 30.577 41.9276 30.9655 41.535C31.3541 41.1425 31.3508 40.5094 30.9583 40.1209L29.5513 41.5422ZM36.7549 46.0256C36.3735 45.6262 35.7405 45.6115 35.3411 45.9929C34.9416 46.3743 34.927 47.0073 35.3084 47.4067L36.7549 46.0256ZM37.4227 49.6435C37.8001 50.0467 38.433 50.0676 38.8362 49.6902C39.2394 49.3128 39.2603 48.68 38.8829 48.2768L37.4227 49.6435ZM44.4544 54.3838C44.0873 53.9712 43.4552 53.9343 43.0425 54.3014C42.6299 54.6685 42.593 55.3006 42.9601 55.7132L44.4544 54.3838ZM44.9983 58.0253C45.3617 58.4413 45.9934 58.4839 46.4093 58.1206C46.8253 57.7573 46.868 57.1256 46.5046 56.7096L44.9983 58.0253ZM51.8666 62.9969C51.5132 62.5725 50.8826 62.515 50.4583 62.8685C50.0339 63.2219 49.9764 63.8524 50.3298 64.2768L51.8666 62.9969ZM52.2925 66.6543C52.6422 67.0817 53.2723 67.1447 53.6997 66.7949C54.1271 66.4452 54.19 65.8151 53.8403 65.3877L52.2925 66.6543ZM58.9999 71.8415C58.6599 71.4063 58.0315 71.329 57.5963 71.669C57.161 72.0089 57.0837 72.6374 57.4237 73.0726L58.9999 71.8415ZM59.3107 75.5097C59.647 75.9478 60.2747 76.0304 60.7128 75.6942C61.151 75.3579 61.2335 74.7301 60.8973 74.292L59.3107 75.5097ZM65.8542 80.9036C65.5279 80.458 64.9022 80.3613 64.4566 80.6875C64.011 81.0138 63.9142 81.6395 64.2405 82.0851L65.8542 80.9036ZM66.0504 84.5792C66.3728 85.0276 66.9977 85.1297 67.4461 84.8072C67.8945 84.4848 67.9966 83.8599 67.6741 83.4115L66.0504 84.5792ZM72.4216 90.1761C72.1096 89.7203 71.4873 89.6038 71.0315 89.9158C70.5758 90.2278 70.4593 90.8501 70.7713 91.3059L72.4216 90.1761ZM72.5006 93.8561C72.8086 94.3146 73.4299 94.4366 73.8883 94.1287C74.3468 93.8208 74.4689 93.1995 74.1609 92.741L72.5006 93.8561ZM78.6858 99.6573C78.3892 99.1914 77.771 99.0543 77.3052 99.351C76.8393 99.6476 76.7022 100.266 76.9989 100.732L78.6858 99.6573ZM78.6418 103.339C78.9341 103.807 79.5509 103.95 80.0195 103.658C80.4881 103.366 80.6311 102.749 80.3389 102.28L78.6418 103.339ZM84.6211 109.351C84.3413 108.875 83.7285 108.715 83.2523 108.995C82.7762 109.275 82.6169 109.888 82.8967 110.364L84.6211 109.351ZM84.4439 113.028C84.7187 113.508 85.3299 113.673 85.8089 113.398C86.288 113.123 86.4535 112.512 86.1787 112.033L84.4439 113.028ZM90.1894 119.265C89.9287 118.778 89.3227 118.594 88.8358 118.855C88.3489 119.116 88.1655 119.722 88.4262 120.209L90.1894 119.265ZM89.8635 122.932C90.1184 123.421 90.7223 123.612 91.2122 123.357C91.7021 123.102 91.8926 122.498 91.6377 122.008L89.8635 122.932ZM95.3358 129.412C95.0975 128.913 94.5004 128.703 94.0022 128.941C93.504 129.179 93.2932 129.776 93.5316 130.274L95.3358 129.412ZM94.8387 133.055C95.0701 133.557 95.6643 133.776 96.1657 133.544C96.6671 133.313 96.886 132.719 96.6545 132.217L94.8387 133.055ZM99.9805 139.807C99.7692 139.297 99.1842 139.054 98.674 139.266C98.1637 139.477 97.9214 140.062 98.1327 140.572L99.9805 139.807ZM99.2814 143.411C99.4843 143.925 100.065 144.177 100.579 143.974C101.093 143.771 101.344 143.19 101.142 142.676L99.2814 143.411ZM104.006 150.466C103.828 149.943 103.26 149.662 102.737 149.84C102.214 150.017 101.934 150.585 102.112 151.108L104.006 150.466ZM2.57313 18.7963C2.98709 19.0766 3.40279 19.3618 3.82018 19.6519L4.96152 18.0095C4.53762 17.7149 4.11524 17.4251 3.69445 17.1402L2.57313 18.7963ZM10.4039 24.5182C11.2047 25.1439 12.0099 25.7848 12.819 26.4406L14.0782 24.8868C13.2602 24.2238 12.4457 23.5754 11.6353 22.9422L10.4039 24.5182ZM19.0679 31.7284C19.83 32.3999 20.5945 33.0828 21.361 33.777L22.7035 32.2945C21.9304 31.5944 21.1591 30.9053 20.39 30.2278L19.0679 31.7284ZM27.3605 39.3978C28.0899 40.1037 28.8203 40.8186 29.5513 41.5422L30.9583 40.1209C30.222 39.392 29.4862 38.6718 28.7513 37.9606L27.3605 39.3978ZM35.3084 47.4067C36.0133 48.1451 36.7182 48.8908 37.4227 49.6435L38.8829 48.2768C38.1739 47.5193 37.4645 46.7688 36.7549 46.0256L35.3084 47.4067ZM42.9601 55.7132C43.6406 56.478 44.3201 57.2488 44.9983 58.0253L46.5046 56.7096C45.8224 55.9286 45.1389 55.1532 44.4544 54.3838L42.9601 55.7132ZM50.3298 64.2768C50.9859 65.0646 51.6402 65.8572 52.2925 66.6543L53.8403 65.3877C53.1843 64.5861 52.5264 63.7891 51.8666 62.9969L50.3298 64.2768ZM57.4237 73.0726C58.0553 73.8812 58.6844 74.6937 59.3107 75.5097L60.8973 74.292C60.2675 73.4715 59.635 72.6546 58.9999 71.8415L57.4237 73.0726ZM64.2405 82.0851C64.8471 82.9136 65.4505 83.745 66.0504 84.5792L67.6741 83.4115C67.0709 82.5727 66.4642 81.7367 65.8542 80.9036L64.2405 82.0851ZM70.7713 91.3059C71.3518 92.1539 71.9284 93.004 72.5006 93.8561L74.1609 92.741C73.5853 91.884 73.0055 91.0289 72.4216 90.1761L70.7713 91.3059ZM76.9989 100.732C77.5515 101.599 78.0992 102.468 78.6418 103.339L80.3389 102.28C79.7929 101.405 79.2418 100.53 78.6858 99.6573L76.9989 100.732ZM82.8967 110.364C83.4184 111.252 83.9342 112.14 84.4439 113.028L86.1787 112.033C85.6655 111.139 85.1462 110.244 84.6211 109.351L82.8967 110.364ZM88.4262 120.209C88.9123 121.117 89.3915 122.024 89.8635 122.932L91.6377 122.008C91.1621 121.094 90.6792 120.18 90.1894 119.265L88.4262 120.209ZM93.5316 130.274C93.9757 131.203 94.4115 132.13 94.8387 133.055L96.6545 132.217C96.2234 131.283 95.7838 130.348 95.3358 129.412L93.5316 130.274ZM98.1327 140.572C98.5258 141.521 98.9087 142.468 99.2814 143.411L101.142 142.676C100.765 141.723 100.378 140.766 99.9805 139.807L98.1327 140.572ZM102.112 151.108C102.275 151.591 102.436 152.072 102.593 152.552L104.494 151.928C104.334 151.442 104.171 150.954 104.006 150.466L102.112 151.108Z" fill="#949494"/>
</svg>
