<svg width="101" height="36" viewBox="0 0 101 36" fill="none" xmlns="http://www.w3.org/2000/svg">
<path d="M3.01332 34.2122C2.78375 34.3657 2.72205 34.6762 2.87551 34.9058C3.02898 35.1354 3.33949 35.1971 3.56906 35.0436L3.01332 34.2122ZM98.5189 9.39072C98.7235 9.20531 98.7391 8.88911 98.5537 8.68447L95.5321 5.34975C95.3467 5.14511 95.0305 5.12953 94.8259 5.31495C94.6213 5.50036 94.6057 5.81656 94.7911 6.0212L97.4769 8.9854L94.5127 11.6712C94.308 11.8566 94.2925 12.1728 94.4779 12.3774C94.6633 12.5821 94.9795 12.5977 95.1841 12.4122L98.5189 9.39072ZM96.6775 8.45011C96.4016 8.43822 96.1683 8.65223 96.1564 8.92812C96.1446 9.204 96.3586 9.43729 96.6344 9.44918L96.6775 8.45011ZM88.554 9.2424C88.8302 9.24438 89.0556 9.02213 89.0576 8.746C89.0596 8.46986 88.8373 8.24441 88.5612 8.24243L88.554 9.2424ZM85.5144 8.24317C85.2383 8.24532 85.0162 8.47091 85.0183 8.74705C85.0205 9.02318 85.2461 9.24529 85.5222 9.24314L85.5144 8.24317ZM77.4523 9.47948C77.7281 9.46518 77.94 9.23003 77.9257 8.95426C77.9114 8.67849 77.6763 8.46652 77.4005 8.48082L77.4523 9.47948ZM74.3568 8.66607C74.0814 8.68536 73.8737 8.92431 73.893 9.19978C73.9123 9.47525 74.1512 9.68292 74.4267 9.66362L74.3568 8.66607ZM66.3846 10.4355C66.6587 10.4017 66.8535 10.1522 66.8198 9.87814C66.7861 9.60406 66.5366 9.40922 66.2625 9.44294L66.3846 10.4355ZM63.2407 9.84707C62.9674 9.88659 62.7778 10.1402 62.8174 10.4135C62.8569 10.6868 63.1105 10.8763 63.3838 10.8368L63.2407 9.84707ZM55.4353 12.2264C55.7057 12.1706 55.8798 11.9062 55.824 11.6357C55.7683 11.3653 55.5038 11.1912 55.2334 11.247L55.4353 12.2264ZM52.2533 11.8976C51.9842 11.9597 51.8164 12.2281 51.8784 12.4972C51.9405 12.7663 52.2089 12.9341 52.478 12.872L52.2533 11.8976ZM44.6763 14.9344C44.9409 14.8553 45.0913 14.5767 45.0122 14.3121C44.9331 14.0475 44.6545 13.8972 44.3899 13.9762L44.6763 14.9344ZM41.478 14.8848C41.2154 14.9702 41.0717 15.2523 41.1571 15.5149C41.2425 15.7775 41.5247 15.9212 41.7873 15.8358L41.478 14.8848ZM34.1964 18.5735C34.4531 18.4717 34.5787 18.1811 34.477 17.9244C34.3752 17.6677 34.0846 17.5421 33.8279 17.6439L34.1964 18.5735ZM31.0059 18.8002C30.7516 18.9078 30.6326 19.2012 30.7402 19.4555C30.8478 19.7098 31.1412 19.8287 31.3955 19.7212L31.0059 18.8002ZM24.0565 23.082C24.3043 22.9599 24.4062 22.6602 24.2841 22.4125C24.1621 22.1647 23.8624 22.0629 23.6146 22.1849L24.0565 23.082ZM20.8939 23.5595C20.6487 23.6865 20.5529 23.9882 20.6798 24.2334C20.8068 24.4786 21.1085 24.5745 21.3537 24.4475L20.8939 23.5595ZM14.2733 28.3416C14.512 28.2028 14.593 27.8968 14.4542 27.658C14.3154 27.4193 14.0093 27.3383 13.7706 27.4772L14.2733 28.3416ZM11.149 29.0312C10.9126 29.1739 10.8367 29.4812 10.9794 29.7176C11.1222 29.954 11.4295 30.0299 11.6659 29.8872L11.149 29.0312ZM4.83751 34.2017C5.0681 34.0498 5.13187 33.7397 4.97993 33.5091C4.828 33.2785 4.5179 33.2148 4.28731 33.3667L4.83751 34.2017ZM98.2077 8.52081C97.6955 8.49556 97.1854 8.472 96.6775 8.45011L96.6344 9.44918C97.1403 9.47098 97.6483 9.49445 98.1585 9.51959L98.2077 8.52081ZM88.5612 8.24243C87.5369 8.23509 86.5215 8.23532 85.5144 8.24317L85.5222 9.24314C86.5242 9.23533 87.5347 9.2351 88.554 9.2424L88.5612 8.24243ZM77.4005 8.48082C76.3776 8.53385 75.3632 8.59559 74.3568 8.66607L74.4267 9.66362C75.4269 9.59357 76.4353 9.5322 77.4523 9.47948L77.4005 8.48082ZM66.2625 9.44294C65.2476 9.56782 64.2405 9.70251 63.2407 9.84707L63.3838 10.8368C64.3765 10.6932 65.3767 10.5595 66.3846 10.4355L66.2625 9.44294ZM55.2334 11.247C54.2337 11.4531 53.2405 11.6699 52.2533 11.8976L52.478 12.872C53.4576 12.6461 54.4432 12.4309 55.4353 12.2264L55.2334 11.247ZM44.3899 13.9762C43.4147 14.2677 42.4442 14.5705 41.478 14.8848L41.7873 15.8358C42.7459 15.524 43.7087 15.2235 44.6763 14.9344L44.3899 13.9762ZM33.8279 17.6439C32.8846 18.0178 31.9441 18.4032 31.0059 18.8002L31.3955 19.7212C32.3268 19.3271 33.2603 18.9446 34.1964 18.5735L33.8279 17.6439ZM23.6146 22.1849C22.7071 22.632 21.8003 23.0902 20.8939 23.5595L21.3537 24.4475C22.2543 23.9812 23.1551 23.526 24.0565 23.082L23.6146 22.1849ZM13.7706 27.4772C12.8978 27.9847 12.0241 28.5027 11.149 29.0312L11.6659 29.8872C12.5364 29.3615 13.4054 28.8463 14.2733 28.3416L13.7706 27.4772ZM4.28731 33.3667C3.86325 33.6461 3.4386 33.928 3.01332 34.2122L3.56906 35.0436C3.99252 34.7605 4.41532 34.4799 4.83751 34.2017L4.28731 33.3667ZM2.73545 33.7966C2.27631 34.1035 2.15291 34.7245 2.45983 35.1837C2.76676 35.6428 3.38779 35.7662 3.84694 35.4593L2.73545 33.7966ZM98.8546 9.76125C99.2639 9.39042 99.295 8.75802 98.9242 8.34875L92.8811 1.6793C92.5103 1.27003 91.8779 1.23887 91.4686 1.6097C91.0594 1.98053 91.0282 2.61293 91.399 3.0222L96.7706 8.9506L90.8422 14.3222C90.433 14.693 90.4018 15.3254 90.7726 15.7347C91.1435 16.144 91.7759 16.1751 92.1851 15.8043L98.8546 9.76125ZM96.699 7.95057C96.1473 7.92679 95.6807 8.35481 95.6569 8.90659C95.6331 9.45836 96.0611 9.92494 96.6129 9.94872L96.699 7.95057ZM88.5504 9.74239C89.1027 9.74635 89.5536 9.30185 89.5576 8.74958C89.5615 8.19731 89.117 7.7464 88.5648 7.74244L88.5504 9.74239ZM85.5105 7.74318C84.9582 7.74748 84.514 8.19867 84.5183 8.75094C84.5226 9.30321 84.9738 9.74742 85.5261 9.74312L85.5105 7.74318ZM77.4782 9.97881C78.0297 9.95021 78.4536 9.47992 78.4251 8.92837C78.3965 8.37683 77.9262 7.9529 77.3746 7.98149L77.4782 9.97881ZM74.3219 8.16729C73.771 8.20588 73.3556 8.68378 73.3942 9.23471C73.4328 9.78565 73.9107 10.201 74.4616 10.1624L74.3219 8.16729ZM66.4457 10.9317C66.9938 10.8643 67.3835 10.3652 67.3161 9.81707C67.2486 9.26892 66.7496 8.87924 66.2014 8.94668L66.4457 10.9317ZM63.1691 9.35222C62.6225 9.43125 62.2435 9.93842 62.3225 10.485C62.4015 11.0316 62.9087 11.4107 63.4553 11.3316L63.1691 9.35222ZM55.5362 12.7161C56.0771 12.6046 56.4252 12.0757 56.3137 11.5348C56.2022 10.9939 55.6733 10.6458 55.1324 10.7573L55.5362 12.7161ZM52.1409 11.4104C51.6027 11.5345 51.2671 12.0714 51.3912 12.6095C51.5153 13.1477 52.0522 13.4834 52.5904 13.3592L52.1409 11.4104ZM44.8195 15.4134C45.3486 15.2553 45.6494 14.6981 45.4912 14.169C45.3331 13.6398 44.7759 13.339 44.2468 13.4972L44.8195 15.4134ZM41.3233 14.4093C40.7981 14.5801 40.5108 15.1444 40.6817 15.6696C40.8525 16.1948 41.4167 16.4821 41.9419 16.3113L41.3233 14.4093ZM34.3807 19.0383C34.8941 18.8348 35.1453 18.2536 34.9418 17.7401C34.7382 17.2267 34.157 16.9755 33.6436 17.1791L34.3807 19.0383ZM30.8111 18.3397C30.3024 18.5549 30.0645 19.1417 30.2797 19.6503C30.4949 20.1589 31.0817 20.3968 31.5903 20.1816L30.8111 18.3397ZM24.2775 23.5305C24.7729 23.2864 24.9767 22.6869 24.7326 22.1915C24.4886 21.6961 23.8891 21.4923 23.3937 21.7364L24.2775 23.5305ZM20.664 23.1155C20.1736 23.3695 19.9819 23.9729 20.2358 24.4633C20.4898 24.9538 21.0932 25.1455 21.5837 24.8915L20.664 23.1155ZM14.5247 28.7738C15.0021 28.4962 15.164 27.8841 14.8864 27.4067C14.6088 26.9293 13.9967 26.7673 13.5193 27.0449L14.5247 28.7738ZM10.8905 28.6031C10.4177 28.8886 10.2659 29.5033 10.5514 29.9761C10.8369 30.4489 11.4516 30.6007 11.9244 30.3152L10.8905 28.6031ZM5.11261 34.6192C5.57379 34.3154 5.70131 33.6952 5.39745 33.234C5.09358 32.7728 4.47339 32.6453 4.01222 32.9492L5.11261 34.6192ZM98.2324 8.02141C97.7191 7.99612 97.208 7.9725 96.699 7.95057L96.6129 9.94872C97.1177 9.97047 97.6247 9.9939 98.1339 10.019L98.2324 8.02141ZM88.5648 7.74244C87.5381 7.73509 86.5201 7.73532 85.5105 7.74318L85.5261 9.74312C86.5255 9.73534 87.5335 9.7351 88.5504 9.74239L88.5648 7.74244ZM77.3746 7.98149C76.3487 8.03468 75.3313 8.09659 74.3219 8.16729L74.4616 10.1624C75.4588 10.0926 76.4642 10.0314 77.4782 9.97881L77.3746 7.98149ZM66.2014 8.94668C65.1831 9.07199 64.1725 9.20715 63.1691 9.35222L63.4553 11.3316C64.4446 11.1886 65.4412 11.0553 66.4457 10.9317L66.2014 8.94668ZM55.1324 10.7573C54.1289 10.9641 53.1319 11.1818 52.1409 11.4104L52.5904 13.3592C53.5661 13.1342 54.5479 12.9198 55.5362 12.7161L55.1324 10.7573ZM44.2468 13.4972C43.2677 13.7898 42.2934 14.0938 41.3233 14.4093L41.9419 16.3113C42.8967 16.0007 43.8557 15.7014 44.8195 15.4134L44.2468 13.4972ZM33.6436 17.1791C32.6968 17.5544 31.7527 17.9413 30.8111 18.3397L31.5903 20.1816C32.5182 19.7891 33.4481 19.408 34.3807 19.0383L33.6436 17.1791ZM23.3937 21.7364C22.4831 22.185 21.5734 22.6447 20.664 23.1155L21.5837 24.8915C22.4813 24.4267 23.3791 23.9731 24.2775 23.5305L23.3937 21.7364ZM13.5193 27.0449C12.644 27.5539 11.7679 28.0733 10.8905 28.6031L11.9244 30.3152C12.7926 29.7909 13.6592 29.2771 14.5247 28.7738L13.5193 27.0449ZM4.01222 32.9492C3.58721 33.2292 3.16164 33.5117 2.73545 33.7966L3.84694 35.4593C4.26948 35.1768 4.69136 34.8968 5.11261 34.6192L4.01222 32.9492Z" fill="#949494"/>
</svg>
