<svg width="28" height="78" viewBox="0 0 28 78" fill="none" xmlns="http://www.w3.org/2000/svg">
<path d="M26.9836 1.63261C27.0978 1.38115 26.9864 1.08479 26.7349 0.97068C26.4835 0.856567 26.1871 0.967918 26.073 1.21938L26.9836 1.63261ZM6.81765 76.9824C6.99051 77.1978 7.30521 77.2322 7.52056 77.0594L11.0299 74.2425C11.2452 74.0697 11.2797 73.755 11.1068 73.5396C10.934 73.3243 10.6193 73.2898 10.4039 73.4627L7.28452 75.9665L4.78066 72.8471C4.6078 72.6318 4.2931 72.5973 4.07775 72.7702C3.8624 72.943 3.82795 73.2577 4.00081 73.4731L6.81765 76.9824ZM25.4385 2.62046C25.3247 2.87209 25.4365 3.16828 25.6882 3.28201C25.9398 3.39574 26.236 3.28394 26.3497 3.0323L25.4385 2.62046ZM23.056 10.4437C23.166 10.1905 23.0499 9.89595 22.7966 9.78591C22.5433 9.67588 22.2488 9.79199 22.1388 10.0453L23.056 10.4437ZM20.938 12.8426C20.8303 13.0969 20.9491 13.3903 21.2034 13.498C21.4577 13.6057 21.7511 13.4869 21.8588 13.2326L20.938 12.8426ZM18.8254 20.7501C18.9235 20.492 18.7937 20.2032 18.5356 20.1052C18.2774 20.0071 17.9887 20.1369 17.8906 20.395L18.8254 20.7501ZM16.8329 23.2608C16.7398 23.5208 16.8751 23.807 17.1351 23.9001C17.3951 23.9931 17.6813 23.8578 17.7744 23.5978L16.8329 23.2608ZM15.2751 31.2903C15.3522 31.0251 15.1997 30.7476 14.9346 30.6705C14.6694 30.5934 14.392 30.7458 14.3149 31.011L15.2751 31.2903ZM13.4959 33.9571C13.425 34.224 13.584 34.4977 13.8509 34.5686C14.1178 34.6394 14.3916 34.4804 14.4624 34.2135L13.4959 33.9571ZM12.6175 42.0897C12.6732 41.8192 12.4991 41.5548 12.2286 41.4991C11.9582 41.4434 11.6938 41.6175 11.6381 41.888L12.6175 42.0897ZM11.047 44.8916C10.9959 45.1629 11.1746 45.4243 11.4459 45.4754C11.7173 45.5264 11.9787 45.3478 12.0297 45.0764L11.047 44.8916ZM10.6813 53.058C10.7229 52.785 10.5354 52.5299 10.2624 52.4883C9.9894 52.4467 9.73435 52.6342 9.69272 52.9072L10.6813 53.058ZM9.2477 55.9229C9.20863 56.1963 9.39857 56.4495 9.67193 56.4886C9.9453 56.5277 10.1986 56.3377 10.2376 56.0644L9.2477 55.9229ZM9.16793 64.109C9.20207 63.835 9.0076 63.5852 8.73358 63.551C8.45955 63.5169 8.20974 63.7114 8.1756 63.9854L9.16793 64.109ZM7.80603 67.0124C7.7732 67.2866 7.96885 67.5355 8.24303 67.5683C8.51721 67.6011 8.7661 67.4055 8.79894 67.1313L7.80603 67.0124ZM7.87351 75.1894C7.9039 74.9149 7.70603 74.6678 7.43157 74.6374C7.1571 74.607 6.90997 74.8049 6.87959 75.0794L7.87351 75.1894ZM26.073 1.21938C25.8586 1.69182 25.6471 2.15876 25.4385 2.62046L26.3497 3.0323C26.5582 2.57111 26.7694 2.10463 26.9836 1.63261L26.073 1.21938ZM22.1388 10.0453C21.7254 10.9968 21.3254 11.9282 20.938 12.8426L21.8588 13.2326C22.2448 12.3214 22.6436 11.3928 23.056 10.4437L22.1388 10.0453ZM17.8906 20.395C17.5246 21.3588 17.1723 22.3124 16.8329 23.2608L17.7744 23.5978C18.1115 22.6558 18.4615 21.7082 18.8254 20.7501L17.8906 20.395ZM14.3149 31.011C14.032 31.9833 13.7594 32.9637 13.4959 33.9571L14.4624 34.2135C14.724 33.2277 14.9945 32.255 15.2751 31.2903L14.3149 31.011ZM11.6381 41.888C11.4364 42.8672 11.2397 43.8672 11.047 44.8916L12.0297 45.0764C12.2214 44.0574 12.4171 43.063 12.6175 42.0897L11.6381 41.888ZM9.69272 52.9072C9.54312 53.8881 9.39495 54.8926 9.2477 55.9229L10.2376 56.0644C10.3845 55.037 10.5322 54.0356 10.6813 53.058L9.69272 52.9072ZM8.1756 63.9854C8.05273 64.9718 7.92964 65.9804 7.80603 67.0124L8.79894 67.1313C8.92237 66.1007 9.04526 65.0937 9.16793 64.109L8.1756 63.9854ZM6.87959 75.0794C6.82349 75.5861 6.76715 76.0979 6.71055 76.615L7.70461 76.7238C7.76117 76.2071 7.81746 75.6957 7.87351 75.1894L6.87959 75.0794ZM27.439 1.83923C27.6672 1.3363 27.4445 0.743591 26.9416 0.515366C26.4386 0.287148 25.8459 0.509842 25.6177 1.01276L27.439 1.83923ZM6.42773 77.2954C6.77344 77.7261 7.40285 77.795 7.83354 77.4493L14.8522 71.8156C15.2829 71.4699 15.3518 70.8405 15.0061 70.4098C14.6604 69.9791 14.031 69.9102 13.6003 70.2559L7.36146 75.2636L2.35374 69.0248C2.00802 68.5941 1.37862 68.5252 0.947921 68.8709C0.51722 69.2166 0.448325 69.846 0.794036 70.2767L6.42773 77.2954ZM24.9828 2.41454C24.7554 2.91782 24.979 3.51019 25.4823 3.73763C25.9855 3.96509 26.5779 3.74149 26.8054 3.23821L24.9828 2.41454ZM23.5146 10.643C23.7346 10.1364 23.5024 9.54739 22.9959 9.32732C22.4893 9.10725 21.9003 9.33948 21.6802 9.84602L23.5146 10.643ZM20.4776 12.6476C20.2622 13.1561 20.4998 13.743 21.0084 13.9584C21.5169 14.1738 22.1038 13.9362 22.3192 13.4277L20.4776 12.6476ZM19.2929 20.9277C19.489 20.4114 19.2294 19.8339 18.7131 19.6378C18.1968 19.4416 17.6193 19.7012 17.4232 20.2175L19.2929 20.9277ZM16.3621 23.0923C16.176 23.6123 16.4466 24.1847 16.9666 24.3708C17.4866 24.5569 18.059 24.2863 18.2451 23.7663L16.3621 23.0923ZM15.7552 31.4299C15.9094 30.8996 15.6045 30.3446 15.0742 30.1904C14.5439 30.0362 13.989 30.341 13.8347 30.8713L15.7552 31.4299ZM13.0126 33.8288C12.8709 34.3626 13.1889 34.9102 13.7227 35.0518C14.2565 35.1935 14.8041 34.8756 14.9457 34.3417L13.0126 33.8288ZM13.1072 42.1905C13.2186 41.6496 12.8704 41.1208 12.3295 41.0094C11.7885 40.898 11.2597 41.2462 11.1483 41.7871L13.1072 42.1905ZM10.5556 44.7991C10.4535 45.3419 10.8107 45.8647 11.3535 45.9667C11.8963 46.0688 12.419 45.7116 12.5211 45.1688L10.5556 44.7991ZM11.1756 53.1334C11.2588 52.5874 10.8837 52.0773 10.3378 51.994C9.7918 51.9108 9.2817 52.2859 9.19843 52.8318L11.1756 53.1334ZM8.75273 55.8522C8.67459 56.3989 9.05446 56.9054 9.60119 56.9836C10.1479 57.0617 10.6545 56.6818 10.7326 56.1351L8.75273 55.8522ZM9.6641 64.1708C9.73237 63.6228 9.34343 63.1231 8.79538 63.0549C8.24734 62.9866 7.74771 63.3755 7.67944 63.9236L9.6641 64.1708ZM7.30958 66.9529C7.24391 67.5013 7.63521 67.9991 8.18357 68.0648C8.73194 68.1304 9.22972 67.7391 9.29539 67.1908L7.30958 66.9529ZM8.37048 75.2444C8.43125 74.6955 8.03552 74.2012 7.48659 74.1405C6.93766 74.0797 6.44339 74.4754 6.38262 75.0243L8.37048 75.2444ZM25.6177 1.01276C25.4032 1.48541 25.1916 1.95259 24.9828 2.41454L26.8054 3.23821C27.0137 2.77728 27.2249 2.31104 27.439 1.83923L25.6177 1.01276ZM21.6802 9.84602C21.2662 10.7989 20.8656 11.7316 20.4776 12.6476L22.3192 13.4277C22.7046 12.518 23.1028 11.5908 23.5146 10.643L21.6802 9.84602ZM17.4232 20.2175C17.0561 21.1841 16.7027 22.1407 16.3621 23.0923L18.2451 23.7663C18.5812 22.8275 18.93 21.8829 19.2929 20.9277L17.4232 20.2175ZM13.8347 30.8713C13.5508 31.8475 13.2772 32.8316 13.0126 33.8288L14.9457 34.3417C15.2062 33.3597 15.4757 32.3908 15.7552 31.4299L13.8347 30.8713ZM11.1483 41.7871C10.9461 42.7693 10.7488 43.7721 10.5556 44.7991L12.5211 45.1688C12.7123 44.1525 12.9074 43.1609 13.1072 42.1905L11.1483 41.7871ZM9.19843 52.8318C9.04859 53.8144 8.90018 54.8204 8.75273 55.8522L10.7326 56.1351C10.8792 55.1092 11.0267 54.1093 11.1756 53.1334L9.19843 52.8318ZM7.67944 63.9236C7.55646 64.9108 7.43327 65.9202 7.30958 66.9529L9.29539 67.1908C9.41873 66.1609 9.54154 65.1547 9.6641 64.1708L7.67944 63.9236ZM6.38262 75.0243C6.3265 75.5313 6.27014 76.0433 6.21352 76.5606L8.20164 76.7782C8.25818 76.2617 8.31445 75.7505 8.37048 75.2444L6.38262 75.0243Z" fill="#949494"/>
</svg>
