<svg width="60" height="60" viewBox="0 0 60 60" fill="none" xmlns="http://www.w3.org/2000/svg">
<mask id="path-2-outside-1" maskUnits="userSpaceOnUse" x="18.5576" y="0.999023" width="23" height="58" fill="black">
<rect fill="white" x="18.5576" y="0.999023" width="23" height="58"/>
<path d="M40.3443 55.0717C40.3689 56.7444 40.3935 56.0664 40.4427 57.7638L22.731 57.999C22.7802 56.9166 22.8048 55.8589 22.8294 54.8011C22.854 54.4321 23.0754 54.2107 23.4444 54.2107C23.592 54.1861 23.7642 54.2107 23.9364 54.2107H24.4775C24.5513 52.7839 24.6497 51.3817 24.6743 49.9795C24.6743 48.7742 24.6005 47.5442 24.5759 46.3388C24.5759 45.9452 24.5513 45.5762 24.5759 45.1826C24.6005 44.3216 24.6497 43.4607 24.6989 42.5997L24.6989 42.5996C24.6989 42.3044 24.6743 41.9846 24.6989 41.6894C24.7235 41.468 24.7727 41.2713 24.7727 41.0499C24.7973 39.4755 24.8219 37.9257 24.8465 36.3759V36.2283C24.8219 35.4657 24.7973 35.4657 24.084 35.5149H23.6904C23.3706 34.3587 23.0754 33.2026 22.7556 32.071C22.5588 31.4806 22.3374 30.8902 22.0914 30.3244C21.9438 29.9308 22.0176 29.5864 22.4112 29.4142C22.7064 29.2912 23.0508 29.1928 23.3706 29.0698C23.4198 29.0452 23.5182 29.0206 23.5182 28.996C23.6412 28.5532 24.0348 28.627 24.33 28.5286C24.3792 28.504 24.4038 28.504 24.4529 28.504C24.8957 28.4302 24.8957 28.4302 24.9203 27.9628C24.9203 27.766 25.1417 27.5446 25.3139 27.5446H27.6509C27.7493 27.397 27.7739 27.2986 27.8231 27.2494C28.0691 27.0281 28.1183 26.7575 28.1183 26.4377C28.1183 26.2163 28.2659 25.9949 28.3397 25.7489C28.3889 25.5767 28.4627 25.3799 28.4627 25.2077C28.4381 24.2237 28.3889 23.2151 28.3397 22.2311C28.3397 21.8375 28.3151 21.4193 28.2413 21.0257C28.2167 20.8289 28.0937 20.6321 28.0199 20.4353C27.9461 20.2385 27.8969 20.0417 27.8969 19.8449C27.8969 19.3038 27.9707 18.738 27.9707 18.1968C27.9707 18.0738 27.8723 17.9508 27.8231 17.8278C27.7985 17.7786 27.7493 17.7048 27.7493 17.6556C27.7493 17.3604 27.7739 17.0406 27.7739 16.7454C27.7739 16.6962 27.7985 16.6224 27.7739 16.5978C27.5033 16.1796 27.6263 15.7368 27.6017 15.294C27.5771 14.9988 27.5525 14.7036 27.3311 14.4822C27.2819 14.433 27.2819 14.3346 27.2819 14.2608C27.2819 14.187 27.3311 14.0886 27.3557 14.0148C27.5033 13.6704 27.7493 13.3506 27.7493 12.9324C27.7493 12.834 27.7985 12.7357 27.8723 12.6619C28.0199 12.5389 27.9953 12.4159 27.8723 12.2683C27.7247 12.0961 27.6263 11.8993 27.7001 11.6287C27.7493 11.4319 27.3803 11.1121 27.1589 11.1367C27.0113 11.1613 26.8391 11.1859 26.7161 11.2597C26.4701 11.4565 26.2487 11.3335 26.0273 11.2105C25.9535 11.1613 25.8551 11.1121 25.7813 11.1367C25.1417 11.4073 24.6005 11.1367 24.1086 10.7677C23.5674 10.3249 23.0508 9.85749 22.5342 9.3655C22.1898 9.0457 21.87 8.8735 21.3534 9.0211C20.7876 9.1933 20.1726 9.0211 19.5576 8.8981C19.779 8.45531 20.271 8.62751 20.6154 8.38151C20.3694 8.33231 20.1972 8.30771 19.9758 8.25851C20.025 8.03711 20.1972 8.06171 20.3448 8.03711C20.5416 8.01251 20.763 7.98792 20.9352 7.91412C21.4518 7.69272 21.9192 7.86492 22.3374 8.11091C22.9278 8.47991 23.4936 8.8981 24.207 8.9719C24.3054 8.9965 24.4037 9.0703 24.5021 9.1195C24.7481 9.2917 24.9695 9.2671 25.2401 9.1195C26.1749 8.65211 26.8883 7.93872 27.4541 7.07773C27.7739 6.58573 28.1675 6.38894 28.7333 6.41354C28.9301 6.43814 29.1023 6.41354 29.2991 6.41354C29.7665 6.38894 29.8895 6.26594 29.9633 5.77395C30.0371 5.33115 29.9387 4.91296 29.6189 4.59316C29.3729 4.34717 29.3483 4.07657 29.2745 3.78137C29.2499 3.65837 29.2007 3.53538 29.1515 3.43698C29.2007 3.33858 29.2253 3.19098 29.2007 3.21558C29.2991 2.99418 29.3975 2.74819 29.5451 2.55139C29.7911 2.23159 30.0863 2.1086 30.5045 2.0348C31.3901 1.8872 31.7837 2.20699 32.1772 2.79739C32.4478 3.19098 32.374 4.00277 32.1034 4.39636C32.0296 4.49476 32.005 4.61776 31.9558 4.74076C31.8574 4.91296 31.7836 5.08516 31.6853 5.25735C31.4885 5.55255 31.4885 6.01994 31.7591 6.31514C31.8328 6.38894 31.9804 6.41354 32.0788 6.38894C32.4724 6.31514 32.8168 6.24134 33.1366 6.61033C33.2842 6.78253 33.5794 6.80713 33.8008 6.93013C34.3174 7.17613 34.5634 7.61892 34.6126 8.18471C34.6618 8.67671 34.6864 9.1933 34.8586 9.63609C35.2522 10.7185 35.6212 11.7763 35.6458 12.957C35.6458 13.4982 35.8426 14.0148 36.0394 14.556C36.2362 15.0726 36.3592 15.663 36.1132 16.2288C35.8918 16.7454 35.572 16.8438 34.9078 16.5732C34.9078 16.6224 34.8832 16.647 34.8832 16.6962C34.8832 17.5585 34.9065 18.3974 34.9305 19.2584L34.9324 19.3284C34.957 19.9187 35.0062 20.5091 35.0308 21.0995C35.0554 21.4931 34.8832 21.8129 34.6126 22.1573C34.2682 22.5755 33.9976 23.0921 33.9484 23.7071C33.8746 25.0601 33.9238 26.3885 34.219 27.7414H35.695C35.9902 27.7414 36.2854 27.766 36.5806 27.766C36.9004 27.766 36.9988 27.9628 37.048 28.2334C37.048 28.3318 37.048 28.4548 37.0726 28.5532C37.1218 28.75 37.2202 28.8484 37.4662 28.873C37.8106 28.8976 38.1304 29.0698 38.4748 29.1928C38.8438 29.3158 39.2373 29.4388 39.6063 29.5618C39.7047 29.611 39.8031 29.6356 39.9015 29.6848C40.1475 29.8078 40.2459 29.9554 40.1967 30.2752C40.0491 31.1116 39.9999 31.948 39.8769 32.7844C39.7785 33.4978 39.6063 34.1866 39.4833 34.8753C39.4587 35.0967 39.3849 35.2935 39.3849 35.4903C39.3849 35.7363 39.2373 35.7855 39.0406 35.7609C38.8438 35.7363 38.6224 35.7117 38.4256 35.6871C38.2534 35.6625 38.1796 35.7117 38.1796 35.9085C38.1796 36.4989 38.1304 37.0647 38.155 37.6551C38.155 38.3193 38.2288 39.0081 38.2534 39.6723C38.278 40.5579 38.2534 41.4188 38.2534 42.3044C38.2534 43.19 38.2042 44.051 38.2288 44.9366C38.2534 46.1912 38.3518 47.4212 38.401 48.6758C38.4256 49.2661 38.3764 49.8565 38.3764 50.4469C38.3764 51.7261 38.4256 53.0053 38.4502 54.2845C38.4748 54.3091 38.4748 54.3337 38.4748 54.3337C39.0406 54.4813 39.5571 54.6043 40.0983 54.7273C40.2951 54.7765 40.3443 54.8995 40.3443 55.0717Z"/>
</mask>
<path d="M40.3443 55.0717C40.3689 56.7444 40.3935 56.0664 40.4427 57.7638L22.731 57.999C22.7802 56.9166 22.8048 55.8589 22.8294 54.8011C22.854 54.4321 23.0754 54.2107 23.4444 54.2107C23.592 54.1861 23.7642 54.2107 23.9364 54.2107H24.4775C24.5513 52.7839 24.6497 51.3817 24.6743 49.9795C24.6743 48.7742 24.6005 47.5442 24.5759 46.3388C24.5759 45.9452 24.5513 45.5762 24.5759 45.1826C24.6005 44.3216 24.6497 43.4607 24.6989 42.5997L24.6989 42.5996C24.6989 42.3044 24.6743 41.9846 24.6989 41.6894C24.7235 41.468 24.7727 41.2713 24.7727 41.0499C24.7973 39.4755 24.8219 37.9257 24.8465 36.3759V36.2283C24.8219 35.4657 24.7973 35.4657 24.084 35.5149H23.6904C23.3706 34.3587 23.0754 33.2026 22.7556 32.071C22.5588 31.4806 22.3374 30.8902 22.0914 30.3244C21.9438 29.9308 22.0176 29.5864 22.4112 29.4142C22.7064 29.2912 23.0508 29.1928 23.3706 29.0698C23.4198 29.0452 23.5182 29.0206 23.5182 28.996C23.6412 28.5532 24.0348 28.627 24.33 28.5286C24.3792 28.504 24.4038 28.504 24.4529 28.504C24.8957 28.4302 24.8957 28.4302 24.9203 27.9628C24.9203 27.766 25.1417 27.5446 25.3139 27.5446H27.6509C27.7493 27.397 27.7739 27.2986 27.8231 27.2494C28.0691 27.0281 28.1183 26.7575 28.1183 26.4377C28.1183 26.2163 28.2659 25.9949 28.3397 25.7489C28.3889 25.5767 28.4627 25.3799 28.4627 25.2077C28.4381 24.2237 28.3889 23.2151 28.3397 22.2311C28.3397 21.8375 28.3151 21.4193 28.2413 21.0257C28.2167 20.8289 28.0937 20.6321 28.0199 20.4353C27.9461 20.2385 27.8969 20.0417 27.8969 19.8449C27.8969 19.3038 27.9707 18.738 27.9707 18.1968C27.9707 18.0738 27.8723 17.9508 27.8231 17.8278C27.7985 17.7786 27.7493 17.7048 27.7493 17.6556C27.7493 17.3604 27.7739 17.0406 27.7739 16.7454C27.7739 16.6962 27.7985 16.6224 27.7739 16.5978C27.5033 16.1796 27.6263 15.7368 27.6017 15.294C27.5771 14.9988 27.5525 14.7036 27.3311 14.4822C27.2819 14.433 27.2819 14.3346 27.2819 14.2608C27.2819 14.187 27.3311 14.0886 27.3557 14.0148C27.5033 13.6704 27.7493 13.3506 27.7493 12.9324C27.7493 12.834 27.7985 12.7357 27.8723 12.6619C28.0199 12.5389 27.9953 12.4159 27.8723 12.2683C27.7247 12.0961 27.6263 11.8993 27.7001 11.6287C27.7493 11.4319 27.3803 11.1121 27.1589 11.1367C27.0113 11.1613 26.8391 11.1859 26.7161 11.2597C26.4701 11.4565 26.2487 11.3335 26.0273 11.2105C25.9535 11.1613 25.8551 11.1121 25.7813 11.1367C25.1417 11.4073 24.6005 11.1367 24.1086 10.7677C23.5674 10.3249 23.0508 9.85749 22.5342 9.3655C22.1898 9.0457 21.87 8.8735 21.3534 9.0211C20.7876 9.1933 20.1726 9.0211 19.5576 8.8981C19.779 8.45531 20.271 8.62751 20.6154 8.38151C20.3694 8.33231 20.1972 8.30771 19.9758 8.25851C20.025 8.03711 20.1972 8.06171 20.3448 8.03711C20.5416 8.01251 20.763 7.98792 20.9352 7.91412C21.4518 7.69272 21.9192 7.86492 22.3374 8.11091C22.9278 8.47991 23.4936 8.8981 24.207 8.9719C24.3054 8.9965 24.4037 9.0703 24.5021 9.1195C24.7481 9.2917 24.9695 9.2671 25.2401 9.1195C26.1749 8.65211 26.8883 7.93872 27.4541 7.07773C27.7739 6.58573 28.1675 6.38894 28.7333 6.41354C28.9301 6.43814 29.1023 6.41354 29.2991 6.41354C29.7665 6.38894 29.8895 6.26594 29.9633 5.77395C30.0371 5.33115 29.9387 4.91296 29.6189 4.59316C29.3729 4.34717 29.3483 4.07657 29.2745 3.78137C29.2499 3.65837 29.2007 3.53538 29.1515 3.43698C29.2007 3.33858 29.2253 3.19098 29.2007 3.21558C29.2991 2.99418 29.3975 2.74819 29.5451 2.55139C29.7911 2.23159 30.0863 2.1086 30.5045 2.0348C31.3901 1.8872 31.7837 2.20699 32.1772 2.79739C32.4478 3.19098 32.374 4.00277 32.1034 4.39636C32.0296 4.49476 32.005 4.61776 31.9558 4.74076C31.8574 4.91296 31.7836 5.08516 31.6853 5.25735C31.4885 5.55255 31.4885 6.01994 31.7591 6.31514C31.8328 6.38894 31.9804 6.41354 32.0788 6.38894C32.4724 6.31514 32.8168 6.24134 33.1366 6.61033C33.2842 6.78253 33.5794 6.80713 33.8008 6.93013C34.3174 7.17613 34.5634 7.61892 34.6126 8.18471C34.6618 8.67671 34.6864 9.1933 34.8586 9.63609C35.2522 10.7185 35.6212 11.7763 35.6458 12.957C35.6458 13.4982 35.8426 14.0148 36.0394 14.556C36.2362 15.0726 36.3592 15.663 36.1132 16.2288C35.8918 16.7454 35.572 16.8438 34.9078 16.5732C34.9078 16.6224 34.8832 16.647 34.8832 16.6962C34.8832 17.5585 34.9065 18.3974 34.9305 19.2584L34.9324 19.3284C34.957 19.9187 35.0062 20.5091 35.0308 21.0995C35.0554 21.4931 34.8832 21.8129 34.6126 22.1573C34.2682 22.5755 33.9976 23.0921 33.9484 23.7071C33.8746 25.0601 33.9238 26.3885 34.219 27.7414H35.695C35.9902 27.7414 36.2854 27.766 36.5806 27.766C36.9004 27.766 36.9988 27.9628 37.048 28.2334C37.048 28.3318 37.048 28.4548 37.0726 28.5532C37.1218 28.75 37.2202 28.8484 37.4662 28.873C37.8106 28.8976 38.1304 29.0698 38.4748 29.1928C38.8438 29.3158 39.2373 29.4388 39.6063 29.5618C39.7047 29.611 39.8031 29.6356 39.9015 29.6848C40.1475 29.8078 40.2459 29.9554 40.1967 30.2752C40.0491 31.1116 39.9999 31.948 39.8769 32.7844C39.7785 33.4978 39.6063 34.1866 39.4833 34.8753C39.4587 35.0967 39.3849 35.2935 39.3849 35.4903C39.3849 35.7363 39.2373 35.7855 39.0406 35.7609C38.8438 35.7363 38.6224 35.7117 38.4256 35.6871C38.2534 35.6625 38.1796 35.7117 38.1796 35.9085C38.1796 36.4989 38.1304 37.0647 38.155 37.6551C38.155 38.3193 38.2288 39.0081 38.2534 39.6723C38.278 40.5579 38.2534 41.4188 38.2534 42.3044C38.2534 43.19 38.2042 44.051 38.2288 44.9366C38.2534 46.1912 38.3518 47.4212 38.401 48.6758C38.4256 49.2661 38.3764 49.8565 38.3764 50.4469C38.3764 51.7261 38.4256 53.0053 38.4502 54.2845C38.4748 54.3091 38.4748 54.3337 38.4748 54.3337C39.0406 54.4813 39.5571 54.6043 40.0983 54.7273C40.2951 54.7765 40.3443 54.8995 40.3443 55.0717Z" stroke="#949494" stroke-width="2" stroke-linejoin="round" mask="url(#path-2-outside-1)"/>
<path d="M29.4141 2.75819C29.4536 2.6857 29.4967 2.6159 29.5451 2.55139C29.7911 2.23159 30.0863 2.1086 30.5045 2.0348C31.3901 1.8872 31.7837 2.20699 32.1772 2.79739C32.4478 3.19098 32.374 4.00277 32.1034 4.39636C32.0517 4.4653 32.0242 4.54632 31.9954 4.63095C31.9831 4.66711 31.9706 4.70394 31.9558 4.74076C31.9066 4.82686 31.8636 4.91296 31.8205 4.99906C31.7775 5.08516 31.7345 5.17125 31.6853 5.25735C31.4885 5.55255 31.4885 6.01994 31.7591 6.31514C31.8328 6.38894 31.9804 6.41354 32.0788 6.38894C32.087 6.38741 32.0951 6.38589 32.1032 6.38436C32.4867 6.31228 32.8234 6.24897 33.1366 6.61033C33.2275 6.71635 33.3743 6.76642 33.5254 6.81795C33.6197 6.85012 33.7157 6.88286 33.8008 6.93013C34.3174 7.17613 34.5634 7.61892 34.6126 8.18471C34.6199 8.25763 34.6267 8.33108 34.6334 8.40476C34.6723 8.8282 34.7119 9.25892 34.8586 9.63609C35.2522 10.7185 35.6212 11.7763 35.6458 12.957L29.4141 2.75819ZM29.4141 2.75819C29.4028 2.75308 29.3912 2.74827 29.3791 2.74382C29.2801 2.70735 29.1826 2.70647 29.1008 2.72385C28.9578 2.75423 28.8721 2.83706 28.8471 2.86202L29.2007 3.21558L29.2097 3.2196C29.21 3.22119 29.2102 3.22305 29.2103 3.22516C29.2118 3.26017 29.1887 3.36262 29.1515 3.43698C29.1912 3.51632 29.2308 3.61166 29.2576 3.71009C29.1887 3.71735 29.1117 3.71098 29.0335 3.68222C28.9634 3.65638 28.9083 3.61836 28.8665 3.57947C28.8512 3.56523 28.8377 3.55088 28.826 3.53697C28.7483 3.44517 28.7268 3.35172 28.721 3.3249C28.7126 3.28666 28.711 3.25636 28.7106 3.24208C28.7103 3.23268 28.7103 3.22411 28.7105 3.2165C28.711 3.20056 28.7124 3.18889 28.7133 3.18291C28.7134 3.18264 28.7134 3.18236 28.7135 3.18209L29.4141 2.75819ZM22.3374 8.11091C22.4135 8.15848 22.4892 8.20686 22.5648 8.25521C23.0761 8.582 23.5855 8.90762 24.207 8.9719C24.2726 8.9883 24.3382 9.02657 24.4037 9.06483C24.4365 9.08397 24.4693 9.1031 24.5021 9.1195C24.7481 9.2917 24.9695 9.2671 25.2401 9.1195C26.1749 8.65211 26.8883 7.93872 27.4541 7.07773C27.7739 6.58573 28.1675 6.38894 28.7333 6.41354C28.8636 6.42982 28.983 6.42455 29.106 6.41912C29.1688 6.41635 29.2325 6.41354 29.2991 6.41354C29.7665 6.38894 29.8895 6.26594 29.9633 5.77395C30.0371 5.33115 29.9387 4.91296 29.6189 4.59316C29.4126 4.38683 29.362 4.1632 29.3075 3.92226C29.297 3.87594 29.2864 3.82898 29.2745 3.78137C29.2699 3.75828 29.2644 3.73519 29.2582 3.71226L22.3374 8.11091ZM22.3374 8.11091C21.9192 7.86492 21.4518 7.69272 20.9352 7.91412C20.91 7.92492 20.8837 7.93467 20.8566 7.94352M22.3374 8.11091L20.8566 7.94352M20.8566 7.94352C20.8126 7.91926 20.7644 7.90142 20.7135 7.89122C20.5881 7.86614 20.4946 7.84939 20.4103 7.83426C20.3784 7.82855 20.3478 7.82307 20.3173 7.81746C20.3142 7.81688 20.3111 7.8163 20.3079 7.81572C20.2385 7.80289 20.1688 7.7892 20.0843 7.77042L20.0201 8.05927L20.8566 7.94352ZM27.3557 14.0148C27.3959 13.921 27.4434 13.8291 27.4913 13.7364C27.6191 13.4889 27.7493 13.2367 27.7493 12.9324C27.7493 12.834 27.7985 12.7357 27.8723 12.6619C28.0199 12.5389 27.9953 12.4159 27.8723 12.2683M27.3557 14.0148L21.3534 9.0211C21.87 8.8735 22.1898 9.0457 22.5342 9.3655C23.0508 9.85749 23.5674 10.3249 24.1086 10.7677C24.6005 11.1367 25.1417 11.4073 25.7813 11.1367C25.8551 11.1121 25.9535 11.1613 26.0273 11.2105C26.2487 11.3335 26.4701 11.4565 26.7161 11.2597C26.831 11.1907 26.9888 11.1647 27.1293 11.1416C27.1393 11.1399 27.1492 11.1383 27.1589 11.1367M27.3557 14.0148C27.3489 14.0351 27.3403 14.0573 27.3314 14.0803C27.3078 14.1409 27.2819 14.2073 27.2819 14.2608C27.2819 14.3346 27.2819 14.433 27.3311 14.4822C27.5525 14.7036 27.5771 14.9988 27.6017 15.294L27.3557 14.0148ZM27.8723 12.2683C27.7247 12.0961 27.6263 11.8993 27.7001 11.6287M27.8723 12.2683L27.681 12.4323L27.6604 12.4499L27.4948 12.5918L27.492 12.5852L27.6576 12.4472L27.6787 12.4296L27.8723 12.2683ZM27.7001 11.6287C27.7493 11.4319 27.3803 11.1121 27.1589 11.1367M27.7001 11.6287L27.219 11.4975M27.7001 11.6287L27.2209 11.5089L27.2411 11.6299C27.2301 11.6317 27.2195 11.6335 27.2093 11.6351C27.2088 11.6352 27.2082 11.6353 27.2077 11.6354L27.219 11.4975M27.1589 11.1367L27.219 11.4975M27.1589 11.1367L27.2047 11.5489C27.198 11.5782 27.1925 11.607 27.1881 11.6353L27.219 11.4975M37.0806 27.766C37.0806 27.4899 36.8567 27.266 36.5806 27.266C36.4451 27.266 36.3079 27.2604 36.1586 27.2542L36.1539 27.254C36.0093 27.248 35.853 27.2414 35.695 27.2414H34.6287C34.4163 26.0806 34.3829 24.9277 34.4473 23.741C34.4875 23.2568 34.7013 22.8361 34.9986 22.4752L34.9987 22.4753L35.0058 22.4662C35.2998 22.0921 35.5643 21.6507 35.5302 21.0739C35.5177 20.7752 35.499 20.4773 35.4808 20.1853L35.4806 20.1828C35.4622 19.8879 35.4442 19.599 35.4321 19.311L35.4303 19.2446C35.4112 18.5577 35.3926 17.8899 35.3859 17.2147C35.5304 17.2269 35.6748 17.2174 35.816 17.1764C36.2144 17.0607 36.4355 16.7456 36.5723 16.4269C36.8961 15.6808 36.7187 14.936 36.508 14.3817L36.5001 14.3598C36.2989 13.8066 36.1458 13.3857 36.1458 12.957H36.1459L36.1457 12.9466C36.1191 11.6725 35.7201 10.5422 35.3285 9.46522L35.3286 9.46518L35.3246 9.45487C35.2055 9.14866 35.1728 8.79874 35.1329 8.37226C35.1258 8.29665 35.1185 8.21864 35.1104 8.13804C35.0489 7.44073 34.7281 6.82374 34.0291 6.48509C33.9455 6.44003 33.8633 6.40739 33.7957 6.38276C33.7597 6.3696 33.7242 6.35748 33.6937 6.34708L33.6878 6.34506C33.6584 6.33503 33.6338 6.32664 33.61 6.31808C33.5413 6.29341 33.5142 6.27844 33.5075 6.27488C33.2675 6.00154 32.9883 5.86797 32.6878 5.83633C32.4639 5.81278 32.2394 5.84996 32.0707 5.8816C32.0293 5.77083 32.0389 5.62829 32.1013 5.5347C32.1076 5.52515 32.1137 5.51539 32.1194 5.50542C32.1755 5.40719 32.2238 5.31058 32.2654 5.22732L32.2678 5.22266C32.3117 5.13477 32.3488 5.06096 32.39 4.98883C32.4014 4.96876 32.4115 4.94792 32.4201 4.92645C32.4374 4.88323 32.4515 4.84243 32.4624 4.8106C32.4651 4.8027 32.4676 4.79551 32.4698 4.78886C32.4777 4.76576 32.4833 4.74922 32.4896 4.73219C32.4988 4.70707 32.5042 4.69621 32.5057 4.69333C32.5065 4.69228 32.5073 4.69122 32.508 4.69017C32.5105 4.68669 32.513 4.68317 32.5155 4.67963C32.718 4.38504 32.8204 3.98669 32.8424 3.62743C32.8638 3.27648 32.8155 2.84569 32.5915 2.51743C32.3809 2.20186 32.1274 1.89027 31.7574 1.69643C31.3743 1.49578 30.936 1.45598 30.4223 1.5416L30.4223 1.54158L30.4176 1.54241C29.933 1.62792 29.4998 1.79015 29.1488 2.24653L29.1487 2.24651L29.1451 2.25139C28.9789 2.47298 28.8622 2.74103 28.7786 2.93295C28.7663 2.96126 28.7547 2.98791 28.7438 3.01251C28.7138 3.07985 28.6999 3.15079 28.7007 3.22073C28.6339 3.35989 28.6351 3.52227 28.7043 3.66058C28.7409 3.73388 28.771 3.81359 28.7842 3.87943C28.7857 3.88721 28.7875 3.89495 28.7894 3.90264C28.7969 3.93268 28.8044 3.96736 28.8127 4.0058C28.864 4.2444 28.9465 4.62791 29.2653 4.94672C29.4506 5.13197 29.5224 5.37753 29.4701 5.69175L29.47 5.69173L29.4688 5.69977C29.4538 5.79975 29.4395 5.86054 29.4274 5.8977C29.3991 5.90344 29.3543 5.90953 29.2845 5.91358C29.2108 5.91399 29.1325 5.91742 29.0693 5.92019C29.0429 5.92134 29.0192 5.92238 28.9995 5.92304C28.9177 5.92577 28.8556 5.92493 28.7953 5.9174C28.7819 5.91573 28.7685 5.91459 28.755 5.91401C28.4081 5.89893 28.0771 5.95061 27.7726 6.10734C27.4686 6.26382 27.2304 6.50471 27.0356 6.80411C26.5069 7.60835 25.8554 8.25283 25.0165 8.67229C25.0112 8.67495 25.0059 8.6777 25.0007 8.68055C24.9005 8.73523 24.858 8.73936 24.8491 8.73959C24.8464 8.73966 24.8444 8.73958 24.8395 8.73795C24.8333 8.73594 24.8169 8.72947 24.7889 8.70988C24.7688 8.69582 24.7477 8.68325 24.7258 8.67229C24.7057 8.66225 24.6933 8.65497 24.6731 8.64302C24.6566 8.63332 24.635 8.62053 24.5997 8.60069C24.5438 8.56923 24.4459 8.51626 24.3282 8.48683C24.3053 8.48109 24.2819 8.47699 24.2584 8.47456C23.7631 8.42332 23.3617 8.16834 22.8407 7.83744C22.7641 7.78877 22.6849 7.73846 22.6024 7.68691L22.6025 7.68676L22.5909 7.67995C22.131 7.40943 21.4793 7.13695 20.7382 7.45454C20.6457 7.49418 20.5067 7.51299 20.2828 7.54098C20.276 7.54182 20.2693 7.5428 20.2626 7.54392C20.2502 7.54598 20.2443 7.54658 20.2325 7.54776C20.2211 7.5489 20.2043 7.55058 20.171 7.55466C20.1243 7.56038 20.0414 7.57179 19.9525 7.60412C19.8566 7.639 19.7482 7.69991 19.6559 7.80613C19.565 7.9109 19.514 8.0318 19.4877 8.15005C19.4798 8.18585 19.4758 8.22212 19.4758 8.25823C19.3394 8.34739 19.2086 8.47811 19.1104 8.6745C19.0407 8.81388 19.04 8.97779 19.1085 9.11778C19.1769 9.25777 19.3067 9.35783 19.4596 9.38839C19.5278 9.40203 19.5997 9.41718 19.6743 9.43287C19.9075 9.48193 20.1659 9.53631 20.4132 9.56659C20.7488 9.60769 21.12 9.61378 21.4942 9.50087C21.668 9.45179 21.7701 9.46479 21.8456 9.49079C21.935 9.52156 22.0394 9.58869 22.1918 9.72985C22.7134 10.2266 23.2389 10.7022 23.7919 11.1547C23.7974 11.1591 23.8029 11.1635 23.8086 11.1677C24.2985 11.5351 24.9824 11.9253 25.807 11.6601C25.9056 11.7152 26.0771 11.8099 26.2696 11.8463C26.5064 11.8911 26.7552 11.8486 26.9839 11.684C26.9945 11.6799 27.0137 11.6734 27.045 11.6659C27.0802 11.6575 27.1164 11.6508 27.1596 11.6434C27.1673 11.6483 27.1757 11.6543 27.1844 11.6612C27.1403 11.9943 27.251 12.2615 27.3924 12.4644C27.3086 12.5935 27.2493 12.7531 27.2493 12.9324C27.2493 13.0402 27.2187 13.1497 27.1529 13.2938C27.1219 13.3619 27.0872 13.4291 27.0461 13.5087C27.0425 13.5157 27.0388 13.5228 27.0351 13.53C26.9916 13.6144 26.9409 13.7134 26.8961 13.8179C26.8907 13.8306 26.8858 13.8436 26.8814 13.8567C26.8797 13.8619 26.8763 13.871 26.8678 13.8928L26.8654 13.8989C26.8584 13.917 26.8482 13.9431 26.8387 13.9697C26.828 13.9998 26.8147 14.0398 26.8039 14.0846C26.7934 14.1282 26.7819 14.1897 26.7819 14.2608C26.7819 14.2626 26.7819 14.2646 26.7819 14.2668C26.7818 14.3007 26.7817 14.3777 26.7939 14.4568C26.8055 14.5323 26.8398 14.6981 26.9776 14.8358C27.0109 14.8691 27.0366 14.9125 27.0571 14.9893C27.0802 15.0758 27.0901 15.1761 27.1028 15.3282C27.1071 15.4119 27.105 15.5005 27.1012 15.6083C27.1009 15.6185 27.1005 15.6289 27.1001 15.6396C27.0966 15.7374 27.0925 15.8532 27.0958 15.9692C27.1022 16.1976 27.1373 16.4622 27.2741 16.7306C27.274 16.7355 27.2739 16.7404 27.2739 16.7454C27.2739 16.8812 27.2682 17.0248 27.262 17.1805L27.2618 17.1855C27.2558 17.3358 27.2493 17.498 27.2493 17.6556C27.2493 17.745 27.2704 17.8175 27.2843 17.8582C27.2994 17.9024 27.3171 17.94 27.3298 17.9653C27.3427 17.9911 27.3559 18.0149 27.3636 18.0289L27.3706 18.0416C27.3895 18.0853 27.4092 18.1238 27.4242 18.1524C27.4334 18.17 27.4403 18.1828 27.4461 18.1936C27.4545 18.2093 27.4606 18.2207 27.4681 18.2359C27.469 18.2376 27.4698 18.2392 27.4705 18.2407C27.4687 18.4782 27.4525 18.7241 27.4349 18.9876L27.4344 18.9956C27.4163 19.267 27.3969 19.5577 27.3969 19.8449C27.3969 20.1237 27.4663 20.383 27.5517 20.6109C27.5827 20.6935 27.6277 20.7919 27.6606 20.8639C27.6728 20.8906 27.6834 20.9136 27.691 20.9309C27.7301 21.0204 27.7422 21.0641 27.7452 21.0878C27.7464 21.0978 27.748 21.1079 27.7499 21.1179C27.8161 21.4709 27.8397 21.856 27.8397 22.2311C27.8397 22.2394 27.8399 22.2478 27.8403 22.2561C27.8894 23.2377 27.9381 24.2374 27.9626 25.2116C27.962 25.2338 27.9561 25.2759 27.9365 25.3494C27.9224 25.4024 27.9114 25.4378 27.8986 25.4791C27.8879 25.5135 27.876 25.5519 27.8599 25.608C27.8415 25.6687 27.8204 25.7184 27.7908 25.788C27.7757 25.8236 27.7583 25.8645 27.738 25.9146C27.6887 26.036 27.6183 26.2235 27.6183 26.4377C27.6183 26.7066 27.5767 26.7985 27.4886 26.8778C27.4821 26.8837 27.4757 26.8897 27.4695 26.8959C27.4145 26.951 27.3787 27.0071 27.3574 27.0436C27.3572 27.044 27.357 27.0443 27.3568 27.0446H25.3139C25.0366 27.0446 24.8165 27.204 24.6922 27.3334C24.5624 27.4683 24.4203 27.6905 24.4203 27.9628C24.4203 28.239 24.6442 28.4628 24.9203 28.4628H36.5806C36.8567 28.4628 37.0806 28.239 37.0806 27.9628V27.766ZM27.2141 11.6336C27.2119 11.6339 27.2097 11.6341 27.2075 11.6343C27.2047 11.6144 27.2033 11.5893 27.206 11.5603L27.2141 11.6336Z" stroke="#8B4326" stroke-linejoin="round"/>
</svg>
