<svg width="60" height="60" viewBox="0 0 60 60" fill="none" xmlns="http://www.w3.org/2000/svg">
<mask id="path-2-outside-1" maskUnits="userSpaceOnUse" x="17.5574" y="0" width="25" height="60" fill="black">
<rect fill="white" x="17.5574" width="25" height="60"/>
<path d="M40.3442 55.0726C40.3688 56.7454 40.3933 56.0674 40.4425 57.7647L22.7308 58C22.78 56.9176 22.8046 55.8598 22.8292 54.802C22.8538 54.4331 23.0752 54.2117 23.4442 54.2117C23.5918 54.1871 23.764 54.2117 23.9362 54.2117H24.4774C24.5512 52.7849 24.6496 51.3827 24.6742 49.9805C24.6742 48.7751 24.6004 47.5451 24.5758 46.3398C24.5758 45.9462 24.5512 45.5772 24.5758 45.1836C24.6004 44.3226 24.6496 43.4616 24.6988 42.6007L24.6988 42.6006C24.6988 42.3054 24.6742 41.9856 24.6988 41.6904C24.7234 41.469 24.7726 41.2722 24.7726 41.0508C24.7972 39.4765 24.8218 37.9267 24.8464 36.3769V36.2293C24.8218 35.4667 24.7972 35.4667 24.0838 35.5159H23.6902C23.3704 34.3597 23.0752 33.2035 22.7554 32.072C22.5586 31.4816 22.3372 30.8912 22.0912 30.3254C21.9436 29.9318 22.0174 29.5874 22.411 29.4152C22.7062 29.2922 23.0506 29.1938 23.3704 29.0708C23.4196 29.0462 23.518 29.0216 23.518 28.997C23.641 28.5542 24.0346 28.628 24.3298 28.5296C24.379 28.505 24.4036 28.505 24.4528 28.505C24.8956 28.4312 24.8956 28.4312 24.9202 27.9638C24.9202 27.767 25.1416 27.5456 25.3138 27.5456H27.6507C27.7491 27.398 27.7737 27.2996 27.8229 27.2504C28.0689 27.029 28.1181 26.7584 28.1181 26.4386C28.1181 26.2172 28.2657 25.9958 28.3395 25.7498C28.3887 25.5777 28.4625 25.3809 28.4625 25.2087C28.4379 24.2247 28.3887 23.2161 28.3395 22.2321C28.3395 21.8385 28.3149 21.4203 28.2411 21.0267C28.2165 20.8299 28.0935 20.6331 28.0197 20.4363C27.9459 20.2395 27.8967 20.0427 27.8967 19.8459C27.8967 19.3047 27.9705 18.7389 27.9705 18.1978C27.9705 18.0748 27.8721 17.9518 27.8229 17.8288C27.7983 17.7796 27.7491 17.7058 27.7491 17.6566C27.7491 17.3614 27.7737 17.0416 27.7737 16.7464C27.7737 16.6972 27.7983 16.6234 27.7737 16.5988C27.5031 16.1806 27.6261 15.7378 27.6015 15.295C27.5769 14.9998 27.5523 14.7046 27.3309 14.4832C27.2817 14.434 27.2817 14.3356 27.2817 14.2618C27.2817 14.188 27.3309 14.0896 27.3555 14.0158C27.5031 13.6714 27.7491 13.3516 27.7491 12.9334C27.7491 12.835 27.7983 12.7366 27.8721 12.6628C28.0197 12.5398 27.9951 12.4168 27.8721 12.2692C27.7245 12.097 27.6261 11.9002 27.6999 11.6296C27.7491 11.4328 27.3801 11.113 27.1587 11.1376C27.0111 11.1622 26.8389 11.1868 26.7159 11.2606C26.4699 11.4574 26.2485 11.3344 26.0271 11.2114C25.9533 11.1622 25.8549 11.113 25.7811 11.1376C25.1416 11.4082 24.6004 11.1376 24.1084 10.7687C23.5672 10.3259 23.0506 9.85847 22.534 9.36647C22.1896 9.04668 21.8698 8.87448 21.3532 9.02208C20.7874 9.19428 20.1724 9.02208 19.5574 8.89908C19.7788 8.45629 20.2708 8.62848 20.6152 8.38249C20.3692 8.33329 20.197 8.30869 19.9756 8.25949C20.0248 8.03809 20.197 8.06269 20.3446 8.03809C20.5414 8.01349 20.7628 7.98889 20.935 7.91509C21.4516 7.6937 21.919 7.86589 22.3372 8.11189C22.9276 8.48088 23.4934 8.89908 24.2068 8.97288C24.3052 8.99748 24.4036 9.07128 24.502 9.12048C24.748 9.29267 24.9694 9.26807 25.24 9.12048C26.1747 8.65308 26.8881 7.93969 27.4539 7.0787C27.7737 6.58671 28.1673 6.38991 28.7331 6.41451C28.9299 6.43911 29.1021 6.41451 29.2989 6.41451C29.7663 6.38991 29.8893 6.26692 29.9631 5.77492C30.0369 5.33213 29.9385 4.91393 29.6187 4.59414C29.3727 4.34814 29.3481 4.07755 29.2743 3.78235C29.2497 3.65935 29.2005 3.53635 29.1513 3.43795C29.2005 3.33956 29.2251 3.19196 29.2005 3.21656C29.2989 2.99516 29.3973 2.74916 29.5449 2.55237C29.7909 2.23257 30.0861 2.10957 30.5043 2.03577C31.3899 1.88818 31.7835 2.20797 32.1771 2.79836C32.4477 3.19196 32.3739 4.00375 32.1033 4.39734C32.0295 4.49574 32.0049 4.61874 31.9557 4.74174C31.8573 4.91393 31.7835 5.08613 31.6851 5.25833C31.4883 5.55352 31.4883 6.02092 31.7589 6.31611C31.8327 6.38991 31.9803 6.41451 32.0787 6.38991C32.4723 6.31611 32.8167 6.24232 33.1364 6.61131C33.284 6.78351 33.5792 6.80811 33.8006 6.93111C34.3172 7.1771 34.5632 7.6199 34.6124 8.18569C34.6616 8.67768 34.6862 9.19428 34.8584 9.63707C35.252 10.7195 35.621 11.7772 35.6456 12.958C35.6456 13.4992 35.8424 14.0158 36.0392 14.557C36.236 15.0736 36.359 15.664 36.113 16.2298C35.8916 16.7464 35.5718 16.8448 34.9076 16.5742C34.9076 16.6234 34.883 16.648 34.883 16.6972C34.883 17.5594 34.9063 18.3984 34.9303 19.2594L34.9322 19.3293C34.9568 19.9197 35.006 20.5101 35.0306 21.1005C35.0552 21.4941 34.883 21.8139 34.6124 22.1583C34.268 22.5765 33.9974 23.0931 33.9482 23.7081C33.8744 25.0611 33.9236 26.3894 34.2188 27.7424H35.6948C35.99 27.7424 36.2852 27.767 36.5804 27.767C36.9002 27.767 36.9986 27.9638 37.0478 28.2344C37.0478 28.3328 37.0478 28.4558 37.0724 28.5542C37.1216 28.751 37.22 28.8494 37.466 28.874C37.8104 28.8986 38.1302 29.0708 38.4746 29.1938C38.8436 29.3168 39.2372 29.4398 39.6062 29.5628C39.7046 29.612 39.803 29.6366 39.9014 29.6858C40.1474 29.8088 40.2458 29.9564 40.1966 30.2762C40.049 31.1126 39.9998 31.949 39.8768 32.7853C39.7784 33.4987 39.6062 34.1875 39.4832 34.8763C39.4586 35.0977 39.3848 35.2945 39.3848 35.4913C39.3848 35.7373 39.2372 35.7865 39.0404 35.7619C38.8436 35.7373 38.6222 35.7127 38.4254 35.6881C38.2532 35.6635 38.1794 35.7127 38.1794 35.9095C38.1794 36.4999 38.1302 37.0657 38.1548 37.6561C38.1548 38.3203 38.2286 39.0091 38.2532 39.6733C38.2778 40.5588 38.2532 41.4198 38.2532 42.3054C38.2532 43.191 38.204 44.052 38.2286 44.9376C38.2532 46.1922 38.3516 47.4221 38.4008 48.6767C38.4254 49.2671 38.3762 49.8575 38.3762 50.4479C38.3762 51.7271 38.4254 53.0063 38.45 54.2855C38.4746 54.3101 38.4746 54.3347 38.4746 54.3347C39.0404 54.4823 39.557 54.6052 40.0982 54.7282C40.295 54.7774 40.3442 54.9004 40.3442 55.0726Z"/>
</mask>
<path d="M40.3442 55.0726C40.3688 56.7454 40.3933 56.0674 40.4425 57.7647L22.7308 58C22.78 56.9176 22.8046 55.8598 22.8292 54.802C22.8538 54.4331 23.0752 54.2117 23.4442 54.2117C23.5918 54.1871 23.764 54.2117 23.9362 54.2117H24.4774C24.5512 52.7849 24.6496 51.3827 24.6742 49.9805C24.6742 48.7751 24.6004 47.5451 24.5758 46.3398C24.5758 45.9462 24.5512 45.5772 24.5758 45.1836C24.6004 44.3226 24.6496 43.4616 24.6988 42.6007L24.6988 42.6006C24.6988 42.3054 24.6742 41.9856 24.6988 41.6904C24.7234 41.469 24.7726 41.2722 24.7726 41.0508C24.7972 39.4765 24.8218 37.9267 24.8464 36.3769V36.2293C24.8218 35.4667 24.7972 35.4667 24.0838 35.5159H23.6902C23.3704 34.3597 23.0752 33.2035 22.7554 32.072C22.5586 31.4816 22.3372 30.8912 22.0912 30.3254C21.9436 29.9318 22.0174 29.5874 22.411 29.4152C22.7062 29.2922 23.0506 29.1938 23.3704 29.0708C23.4196 29.0462 23.518 29.0216 23.518 28.997C23.641 28.5542 24.0346 28.628 24.3298 28.5296C24.379 28.505 24.4036 28.505 24.4528 28.505C24.8956 28.4312 24.8956 28.4312 24.9202 27.9638C24.9202 27.767 25.1416 27.5456 25.3138 27.5456H27.6507C27.7491 27.398 27.7737 27.2996 27.8229 27.2504C28.0689 27.029 28.1181 26.7584 28.1181 26.4386C28.1181 26.2172 28.2657 25.9958 28.3395 25.7498C28.3887 25.5777 28.4625 25.3809 28.4625 25.2087C28.4379 24.2247 28.3887 23.2161 28.3395 22.2321C28.3395 21.8385 28.3149 21.4203 28.2411 21.0267C28.2165 20.8299 28.0935 20.6331 28.0197 20.4363C27.9459 20.2395 27.8967 20.0427 27.8967 19.8459C27.8967 19.3047 27.9705 18.7389 27.9705 18.1978C27.9705 18.0748 27.8721 17.9518 27.8229 17.8288C27.7983 17.7796 27.7491 17.7058 27.7491 17.6566C27.7491 17.3614 27.7737 17.0416 27.7737 16.7464C27.7737 16.6972 27.7983 16.6234 27.7737 16.5988C27.5031 16.1806 27.6261 15.7378 27.6015 15.295C27.5769 14.9998 27.5523 14.7046 27.3309 14.4832C27.2817 14.434 27.2817 14.3356 27.2817 14.2618C27.2817 14.188 27.3309 14.0896 27.3555 14.0158C27.5031 13.6714 27.7491 13.3516 27.7491 12.9334C27.7491 12.835 27.7983 12.7366 27.8721 12.6628C28.0197 12.5398 27.9951 12.4168 27.8721 12.2692C27.7245 12.097 27.6261 11.9002 27.6999 11.6296C27.7491 11.4328 27.3801 11.113 27.1587 11.1376C27.0111 11.1622 26.8389 11.1868 26.7159 11.2606C26.4699 11.4574 26.2485 11.3344 26.0271 11.2114C25.9533 11.1622 25.8549 11.113 25.7811 11.1376C25.1416 11.4082 24.6004 11.1376 24.1084 10.7687C23.5672 10.3259 23.0506 9.85847 22.534 9.36647C22.1896 9.04668 21.8698 8.87448 21.3532 9.02208C20.7874 9.19428 20.1724 9.02208 19.5574 8.89908C19.7788 8.45629 20.2708 8.62848 20.6152 8.38249C20.3692 8.33329 20.197 8.30869 19.9756 8.25949C20.0248 8.03809 20.197 8.06269 20.3446 8.03809C20.5414 8.01349 20.7628 7.98889 20.935 7.91509C21.4516 7.6937 21.919 7.86589 22.3372 8.11189C22.9276 8.48088 23.4934 8.89908 24.2068 8.97288C24.3052 8.99748 24.4036 9.07128 24.502 9.12048C24.748 9.29267 24.9694 9.26807 25.24 9.12048C26.1747 8.65308 26.8881 7.93969 27.4539 7.0787C27.7737 6.58671 28.1673 6.38991 28.7331 6.41451C28.9299 6.43911 29.1021 6.41451 29.2989 6.41451C29.7663 6.38991 29.8893 6.26692 29.9631 5.77492C30.0369 5.33213 29.9385 4.91393 29.6187 4.59414C29.3727 4.34814 29.3481 4.07755 29.2743 3.78235C29.2497 3.65935 29.2005 3.53635 29.1513 3.43795C29.2005 3.33956 29.2251 3.19196 29.2005 3.21656C29.2989 2.99516 29.3973 2.74916 29.5449 2.55237C29.7909 2.23257 30.0861 2.10957 30.5043 2.03577C31.3899 1.88818 31.7835 2.20797 32.1771 2.79836C32.4477 3.19196 32.3739 4.00375 32.1033 4.39734C32.0295 4.49574 32.0049 4.61874 31.9557 4.74174C31.8573 4.91393 31.7835 5.08613 31.6851 5.25833C31.4883 5.55352 31.4883 6.02092 31.7589 6.31611C31.8327 6.38991 31.9803 6.41451 32.0787 6.38991C32.4723 6.31611 32.8167 6.24232 33.1364 6.61131C33.284 6.78351 33.5792 6.80811 33.8006 6.93111C34.3172 7.1771 34.5632 7.6199 34.6124 8.18569C34.6616 8.67768 34.6862 9.19428 34.8584 9.63707C35.252 10.7195 35.621 11.7772 35.6456 12.958C35.6456 13.4992 35.8424 14.0158 36.0392 14.557C36.236 15.0736 36.359 15.664 36.113 16.2298C35.8916 16.7464 35.5718 16.8448 34.9076 16.5742C34.9076 16.6234 34.883 16.648 34.883 16.6972C34.883 17.5594 34.9063 18.3984 34.9303 19.2594L34.9322 19.3293C34.9568 19.9197 35.006 20.5101 35.0306 21.1005C35.0552 21.4941 34.883 21.8139 34.6124 22.1583C34.268 22.5765 33.9974 23.0931 33.9482 23.7081C33.8744 25.0611 33.9236 26.3894 34.2188 27.7424H35.6948C35.99 27.7424 36.2852 27.767 36.5804 27.767C36.9002 27.767 36.9986 27.9638 37.0478 28.2344C37.0478 28.3328 37.0478 28.4558 37.0724 28.5542C37.1216 28.751 37.22 28.8494 37.466 28.874C37.8104 28.8986 38.1302 29.0708 38.4746 29.1938C38.8436 29.3168 39.2372 29.4398 39.6062 29.5628C39.7046 29.612 39.803 29.6366 39.9014 29.6858C40.1474 29.8088 40.2458 29.9564 40.1966 30.2762C40.049 31.1126 39.9998 31.949 39.8768 32.7853C39.7784 33.4987 39.6062 34.1875 39.4832 34.8763C39.4586 35.0977 39.3848 35.2945 39.3848 35.4913C39.3848 35.7373 39.2372 35.7865 39.0404 35.7619C38.8436 35.7373 38.6222 35.7127 38.4254 35.6881C38.2532 35.6635 38.1794 35.7127 38.1794 35.9095C38.1794 36.4999 38.1302 37.0657 38.1548 37.6561C38.1548 38.3203 38.2286 39.0091 38.2532 39.6733C38.2778 40.5588 38.2532 41.4198 38.2532 42.3054C38.2532 43.191 38.204 44.052 38.2286 44.9376C38.2532 46.1922 38.3516 47.4221 38.4008 48.6767C38.4254 49.2671 38.3762 49.8575 38.3762 50.4479C38.3762 51.7271 38.4254 53.0063 38.45 54.2855C38.4746 54.3101 38.4746 54.3347 38.4746 54.3347C39.0404 54.4823 39.557 54.6052 40.0982 54.7282C40.295 54.7774 40.3442 54.9004 40.3442 55.0726Z" stroke="#949494" stroke-width="4" stroke-linejoin="round" mask="url(#path-2-outside-1)"/>
<path d="M37.5804 27.767C37.5804 27.2147 37.1327 26.767 36.5804 26.767C36.4571 26.767 36.3303 26.7619 36.1792 26.7556L36.1709 26.7552C36.0287 26.7493 35.8634 26.7424 35.6948 26.7424H35.0529C34.9105 25.769 34.8913 24.7911 34.946 23.7767C34.977 23.4227 35.1344 23.0975 35.3844 22.794L35.3987 22.7761C35.7164 22.3719 36.0729 21.8093 36.0294 21.0498C36.0166 20.7472 35.9978 20.4464 35.9798 20.1573L35.9795 20.1525C35.9611 19.858 35.9434 19.5754 35.9316 19.2945L35.9299 19.2316C35.9152 18.7028 35.9009 18.1883 35.8921 17.6744C35.9131 17.6693 35.9341 17.6636 35.9552 17.6575C36.5611 17.4816 36.8681 17.0055 37.0312 16.626C37.4326 15.7002 37.2015 14.8015 36.9765 14.2085C36.7634 13.6223 36.6456 13.2859 36.6456 12.958L36.6454 12.9372C36.6169 11.5698 36.1879 10.367 35.7982 9.29533L35.7904 9.27462C35.6986 9.03844 35.6728 8.76813 35.632 8.33935C35.6247 8.26229 35.6168 8.18011 35.6081 8.09209C35.5341 7.26223 35.1378 6.47189 34.2563 6.04064C34.1456 5.98188 34.0419 5.94138 33.9669 5.91402C33.9253 5.89884 33.8853 5.88517 33.855 5.87484L33.8507 5.87336C33.8297 5.86622 33.8133 5.86062 33.7988 5.85554C33.5008 5.55466 33.1478 5.38907 32.7673 5.34316C32.7874 5.3041 32.8053 5.27046 32.8239 5.23787C32.8468 5.19773 32.867 5.15605 32.8841 5.11313C32.9064 5.05742 32.924 5.00657 32.9354 4.97328L32.9501 4.93L32.9502 4.92976C33.2038 4.54305 33.3164 4.06413 33.3412 3.65896C33.3658 3.25808 33.3182 2.69808 33.0059 2.23884C32.781 1.90215 32.4708 1.50674 31.9892 1.25449C31.4813 0.988486 30.9245 0.951936 30.3399 1.04938L30.3399 1.04933L30.3305 1.05099C29.7795 1.14822 29.2084 1.34967 28.7523 1.94266L28.7522 1.94261L28.7449 1.95237C28.5397 2.22594 28.397 2.55584 28.3167 2.74161C28.3055 2.76754 28.2955 2.79065 28.2867 2.81042C28.2431 2.90839 28.2165 3.01017 28.2058 3.11222C28.1189 3.3645 28.1359 3.64324 28.2569 3.88517C28.267 3.90549 28.2764 3.9269 28.2837 3.94663C28.2872 3.95619 28.2897 3.96405 28.2915 3.97002C28.2931 3.97568 28.2937 3.97851 28.2937 3.97851L28.2937 3.97847C28.2968 3.99402 28.3003 4.0095 28.3042 4.02489C28.3081 4.04073 28.3127 4.06328 28.3184 4.09152C28.3622 4.30888 28.4741 4.86374 28.9116 5.30124L29.6187 4.59414L28.9116 5.30125C28.9489 5.33855 28.9653 5.3712 28.9748 5.40528C28.9764 5.41104 28.9779 5.41741 28.9793 5.4244C28.9103 5.42662 28.8789 5.42496 28.8571 5.42224C28.8304 5.41889 28.8035 5.41663 28.7765 5.41546C28.3657 5.39759 27.9435 5.45791 27.5436 5.66375C27.1448 5.86902 26.8468 6.17849 26.617 6.53134C26.1439 7.25089 25.5798 7.81118 24.8755 8.18349C24.8649 8.17739 24.8542 8.17124 24.8446 8.16588C24.782 8.13063 24.6355 8.04929 24.4493 8.00274C24.4034 7.99126 24.3567 7.98306 24.3097 7.97819C23.9387 7.93981 23.6443 7.75394 23.1079 7.41528C23.0327 7.36782 22.9528 7.31736 22.8672 7.26389C22.8596 7.25914 22.8519 7.2545 22.8442 7.24996C22.3433 6.9553 21.5087 6.58311 20.5448 6.99437C20.5441 6.99443 20.5231 7.00155 20.4702 7.01117C20.4085 7.02238 20.3437 7.03047 20.2486 7.04232C20.2395 7.04345 20.2302 7.04461 20.2206 7.04581C20.2089 7.04727 20.1972 7.04894 20.1856 7.05082C20.1841 7.051 20.1814 7.05132 20.1774 7.05176C20.1768 7.05184 20.1751 7.05202 20.1728 7.05227C20.161 7.05354 20.1309 7.05679 20.1101 7.05934C20.0543 7.06617 19.9255 7.08284 19.7815 7.1352C19.6235 7.19266 19.4374 7.29602 19.2782 7.47927C19.1375 7.64135 19.057 7.8208 19.013 7.98699C18.8739 8.11308 18.755 8.26785 18.663 8.45187C18.5236 8.73063 18.5222 9.05845 18.6591 9.33843C18.7961 9.61841 19.0557 9.81854 19.3613 9.87966C19.4197 9.89134 19.4848 9.90506 19.5548 9.91978C19.7907 9.96948 20.0812 10.0307 20.3522 10.0639C20.722 10.1091 21.1686 10.1212 21.6335 9.98203C21.6574 9.97542 21.6746 9.97209 21.6859 9.97041C21.6881 9.97007 21.6902 9.9698 21.692 9.96958C21.7114 9.98075 21.76 10.0128 21.8494 10.0954C22.376 10.5968 22.9105 11.0806 23.4751 11.5426C23.486 11.5515 23.4971 11.5602 23.5084 11.5687C23.9938 11.9327 24.7807 12.412 25.7491 12.1949C25.8643 12.2491 26.0137 12.3078 26.1764 12.3385C26.3692 12.375 26.5679 12.373 26.7628 12.3272C26.7821 12.3821 26.8039 12.4346 26.8276 12.4848C26.7789 12.6204 26.7491 12.7708 26.7491 12.9334V12.9335C26.7491 12.9402 26.7491 12.9749 26.6979 13.0873C26.672 13.1439 26.6429 13.2004 26.5999 13.2837L26.5906 13.3018C26.5473 13.3857 26.489 13.4991 26.4364 13.6219C26.4261 13.6458 26.4168 13.67 26.4085 13.6946C26.4079 13.6963 26.4059 13.7016 26.4016 13.7126L26.3995 13.718C26.3927 13.7355 26.3797 13.7686 26.3677 13.8025C26.3538 13.8412 26.3342 13.8997 26.3176 13.9686C26.3016 14.035 26.2817 14.138 26.2817 14.2618C26.2817 14.2633 26.2817 14.2653 26.2817 14.2677C26.2816 14.301 26.2811 14.4139 26.2995 14.5338C26.3155 14.6379 26.3661 14.9034 26.5791 15.1429C26.5817 15.1566 26.5847 15.1754 26.588 15.2007C26.5936 15.245 26.5979 15.2932 26.6037 15.3622C26.6063 15.4201 26.605 15.488 26.6014 15.5919C26.601 15.6017 26.6006 15.6121 26.6003 15.6229C26.5968 15.719 26.592 15.8512 26.5958 15.9843C26.6026 16.2253 26.6371 16.5254 26.7728 16.8403C26.7711 16.9379 26.767 17.0428 26.7622 17.1615L26.7619 17.1704C26.7559 17.3182 26.7491 17.4888 26.7491 17.6566C26.7491 17.823 26.7882 17.9542 26.811 18.021C26.8363 18.0948 26.8647 18.1546 26.8824 18.1899C26.8978 18.2208 26.9131 18.2487 26.9218 18.2646C26.929 18.2804 26.9359 18.2951 26.9423 18.3085C26.9514 18.3274 26.9602 18.3449 26.9681 18.3604C26.963 18.5437 26.9503 18.7378 26.9358 18.9553L26.9349 18.9699C26.917 19.237 26.8967 19.5418 26.8967 19.8459C26.8967 20.2065 26.9863 20.5285 27.0834 20.7874C27.1138 20.8684 27.1463 20.9418 27.1711 20.9966C27.1829 21.0227 27.1921 21.0427 27.2001 21.0601C27.2123 21.0866 27.2215 21.1068 27.2327 21.1323C27.2437 21.1575 27.25 21.1737 27.2533 21.1826C27.2548 21.1921 27.2565 21.2016 27.2582 21.211C27.3168 21.5234 27.3395 21.8754 27.3395 22.2321C27.3395 22.2487 27.3399 22.2654 27.3408 22.282C27.3892 23.2514 27.437 24.2323 27.4617 25.1875C27.4599 25.1954 27.4572 25.2065 27.4532 25.2216C27.4458 25.2494 27.4364 25.2811 27.423 25.3251C27.4211 25.3314 27.419 25.3383 27.4167 25.3455C27.4061 25.3802 27.3926 25.4243 27.3803 25.4671C27.3699 25.5009 27.3609 25.5219 27.3417 25.5665C27.327 25.6008 27.3063 25.6491 27.2744 25.7278C27.2221 25.8567 27.1181 26.1211 27.1181 26.4386C27.1181 26.487 27.1164 26.5209 27.1142 26.545C27.114 26.5452 27.1137 26.5454 27.1135 26.5456H25.3138C24.8451 26.5456 24.5034 26.8091 24.3316 26.9878C24.1489 27.1777 23.9202 27.5176 23.9202 27.9638C23.9202 28.5161 24.3679 28.9638 24.9202 28.9638H36.5804C37.1327 28.9638 37.5804 28.5161 37.5804 27.9638V27.767Z" stroke="#8B4326" stroke-width="2" stroke-linejoin="round"/>
</svg>
