<svg width="60" height="60" viewBox="0 0 60 60" fill="none" xmlns="http://www.w3.org/2000/svg">
<path d="M40.6394 25.2715C48.8695 25.2715 52.9545 26.6067 55.5082 27.3856V51.1968H29.8045" stroke="#949494" stroke-width="2" stroke-miterlimit="10" stroke-linecap="round" stroke-linejoin="round"/>
<path d="M18.3606 25.2715C10.1305 25.2715 6.04547 26.6067 3.4918 27.3856V51.1968H30.1955" stroke="#949494" stroke-width="2" stroke-miterlimit="10" stroke-linecap="round" stroke-linejoin="round"/>
<path d="M45.4249 31.1712C45.4249 33.1344 45.4249 35.0975 45.4249 37.0011" stroke="#949494" stroke-width="2" stroke-miterlimit="10" stroke-linecap="round" stroke-linejoin="round"/>
<path d="M45.483 41.3439C45.5415 43.3665 45.3074 45.3297 45.6 47.3523" stroke="#949494" stroke-width="2" stroke-miterlimit="10" stroke-linecap="round" stroke-linejoin="round"/>
<path d="M49.6932 32.3193C49.6932 34.2825 49.6932 35.0975 49.6932 37.0011" stroke="#949494" stroke-width="2" stroke-miterlimit="10" stroke-linecap="round" stroke-linejoin="round"/>
<path d="M49.727 42.4921C49.7855 44.5147 49.5514 45.3297 49.844 47.3523" stroke="#949494" stroke-width="2" stroke-miterlimit="10" stroke-linecap="round" stroke-linejoin="round"/>
<path d="M12.2862 31.1712C12.2862 33.1344 12.2862 35.0975 12.2862 37.0011" stroke="#949494" stroke-width="2" stroke-miterlimit="10" stroke-linecap="round" stroke-linejoin="round"/>
<path d="M8.01793 32.3193C8.01793 34.2825 8.01793 35.0975 8.01793 37.0011" stroke="#949494" stroke-width="2" stroke-miterlimit="10" stroke-linecap="round" stroke-linejoin="round"/>
<path d="M12.2282 41.3439C12.1697 43.3665 12.4038 45.3297 12.1112 47.3523" stroke="#949494" stroke-width="2" stroke-miterlimit="10" stroke-linecap="round" stroke-linejoin="round"/>
<path d="M7.98416 42.4921C7.92567 44.5147 8.15977 45.3297 7.86717 47.3523" stroke="#949494" stroke-width="2" stroke-miterlimit="10" stroke-linecap="round" stroke-linejoin="round"/>
<path d="M34.6931 34.2051C34.9857 31.5281 34.9857 28.851 34.7516 26.2336C34.5176 23.735 32.4696 22.5452 30.3046 22.2477C27.6714 21.8909 25.6234 23.1996 24.6287 25.3411C24.4532 25.8172 24.3947 26.2336 24.3947 26.6499C24.3947 29.1485 24.3947 31.5876 24.3947 34.0861" stroke="#8B4326" stroke-width="2" stroke-miterlimit="10" stroke-linecap="round" stroke-linejoin="round"/>
<path d="M34.8101 50.5052C34.6931 48.1852 35.0442 45.8651 34.5761 43.4855C34.0494 41.0465 32.0015 39.4997 29.7778 39.3807C27.0277 39.2618 25.2723 41.2249 24.6872 43.069C24.4531 43.9019 24.4531 44.6753 24.4531 45.5081C24.4531 47.1739 24.4531 48.8395 24.4531 50.5052" stroke="#8B4326" stroke-width="2" stroke-miterlimit="10" stroke-linecap="round" stroke-linejoin="round"/>
<path d="M40.1354 32.9559C40.1354 29.7435 40.1354 26.5904 40.1354 23.3781C40.1354 22.9021 40.0184 22.3668 40.0769 21.9503C40.1939 20.5821 39.3747 20.6416 38.497 20.6416C37.3853 20.6416 37.5023 21.3555 37.5023 22.0693C37.5023 25.7577 37.5023 29.3865 37.5023 33.0748" stroke="#8B4326" stroke-width="2" stroke-miterlimit="10" stroke-linecap="round" stroke-linejoin="round"/>
<path d="M21.4694 33.0748C21.4694 29.3864 21.4694 25.7576 21.4694 22.0693C21.4694 21.2364 21.4694 20.5821 20.3576 20.5821C19.2459 20.5821 18.8363 20.9984 18.8363 22.0693C18.8363 24.7463 18.8363 27.4233 18.8363 30.0408C18.8363 30.9927 18.8363 31.9445 18.8363 32.8963" stroke="#8B4326" stroke-width="2" stroke-miterlimit="10" stroke-linecap="round" stroke-linejoin="round"/>
<path d="M40.1353 20.6418C40.779 20.1064 42.1833 20.1064 41.4811 18.5002C33.4647 18.5002 25.3312 18.5002 17.1393 18.5002C17.0223 19.5116 16.9053 20.2848 18.1926 20.2254C18.3681 20.2254 18.5436 20.4634 18.7777 20.6418" stroke="#8B4326" stroke-width="2" stroke-miterlimit="10" stroke-linecap="round" stroke-linejoin="round"/>
<path d="M41.0119 14.8116C39.1394 14.8116 37.2669 14.8116 35.3945 14.8116C29.8942 14.8711 24.4524 14.6927 18.9521 14.9901C18.6009 14.9901 18.3085 14.8116 17.9574 14.8116" stroke="#8B4326" stroke-width="2" stroke-miterlimit="10" stroke-linecap="round" stroke-linejoin="round"/>
<path d="M17.3722 50.5052C17.3722 46.6978 17.4307 42.8905 17.3138 39.0833C17.2553 37.2986 17.8989 35.6923 17.7819 33.9671C17.7234 33.2532 18.367 33.0748 19.0107 33.2532C19.5373 33.4318 20.0639 33.4318 20.532 33.3723C21.4097 33.2532 22.2289 32.9559 22.5215 34.2646C22.58 34.5025 22.9896 34.562 23.3407 34.562C27.3781 34.562 31.4156 34.562 35.3945 34.562C35.7456 34.562 36.1552 34.5025 36.2137 34.2646C36.5063 32.9559 37.384 33.2532 38.2032 33.4318C38.4957 33.4912 38.7883 33.4318 39.0224 33.4318C40.8949 33.2532 40.7194 33.3128 41.0119 35.2759C41.8311 40.392 41.1289 45.4486 41.4215 50.5647" stroke="#8B4326" stroke-width="2" stroke-miterlimit="10" stroke-linecap="round" stroke-linejoin="round"/>
<path d="M17.9574 36.0494C19.4787 36.3469 21.0586 36.228 22.7555 36.0494C22.7555 40.8681 22.7555 45.6867 22.7555 50.5053" stroke="#8B4326" stroke-width="2" stroke-miterlimit="10" stroke-linecap="round" stroke-linejoin="round"/>
<path d="M41.0132 36.0494C39.4918 36.3469 37.912 36.228 36.2151 36.0494C36.2151 40.8681 36.2151 45.6867 36.2151 50.5053" stroke="#8B4326" stroke-width="2" stroke-miterlimit="10" stroke-linecap="round" stroke-linejoin="round"/>
<path d="M34.8104 13.2055C34.1667 11.3614 33.7571 11.0639 31.8847 11.1829C30.3048 11.3019 28.725 11.4208 27.0866 11.0639C25.4481 10.707 24.5119 11.4803 24.1608 13.146" stroke="#8B4326" stroke-width="2" stroke-miterlimit="10" stroke-linecap="round" stroke-linejoin="round"/>
<path d="M23.1656 15.109C22.8729 16.7152 23.1656 18.3215 22.9899 19.9871C22.6975 20.463 21.9367 20.0466 21.6441 20.6416" stroke="#8B4326" stroke-width="2" stroke-miterlimit="10" stroke-linecap="round" stroke-linejoin="round"/>
<path d="M40.1346 12.7892C40.1346 14.5739 40.1346 16.418 40.1346 18.2027" stroke="#8B4326" stroke-width="2" stroke-miterlimit="10" stroke-linecap="round" stroke-linejoin="round"/>
<path d="M18.7768 12.7892C18.7768 14.5739 18.7768 16.418 18.7768 18.2027" stroke="#8B4326" stroke-width="2" stroke-miterlimit="10" stroke-linecap="round" stroke-linejoin="round"/>
<path d="M35.9217 18.6785C35.9217 19.0949 35.9217 19.5113 35.9217 19.9872C36.2728 20.4632 37.0335 20.1062 37.326 20.7012" stroke="#8B4326" stroke-width="2" stroke-miterlimit="10" stroke-linecap="round" stroke-linejoin="round"/>
<path d="M29.4854 8.80322C29.5439 9.57659 29.3685 10.3499 29.6026 11.0638" stroke="#8B4326" stroke-width="2" stroke-miterlimit="10" stroke-linecap="round" stroke-linejoin="round"/>
<path d="M17.3333 50.2728C16.781 50.2728 16.3333 50.7205 16.3333 51.2728C16.3333 51.825 16.781 52.2728 17.3333 52.2728V50.2728ZM41.3529 52.2728C41.9052 52.2728 42.3529 51.825 42.3529 51.2728C42.3529 50.7205 41.9052 50.2728 41.3529 50.2728V52.2728ZM17.3333 52.2728H41.3529V50.2728H17.3333V52.2728Z" fill="#8B4326"/>
</svg>
