<svg width="60" height="60" viewBox="0 0 60 60" fill="none" xmlns="http://www.w3.org/2000/svg">
<path d="M40.6396 25.2334C48.8697 25.2334 52.9547 26.5686 55.5084 27.3475V51.1587H29.8047" stroke="#949494" stroke-miterlimit="10" stroke-linecap="round" stroke-linejoin="round"/>
<path d="M18.3614 25.2334C10.1313 25.2334 6.04624 26.5686 3.49256 27.3475V51.1587H30.1963" stroke="#949494" stroke-miterlimit="10" stroke-linecap="round" stroke-linejoin="round"/>
<path d="M45.4258 31.1331C45.4258 33.0963 45.4258 35.0594 45.4258 36.963" stroke="#949494" stroke-miterlimit="10" stroke-linecap="round" stroke-linejoin="round"/>
<path d="M45.483 41.3059C45.5415 43.3285 45.3074 45.2917 45.6 47.3143" stroke="#949494" stroke-miterlimit="10" stroke-linecap="round" stroke-linejoin="round"/>
<path d="M49.6934 32.2812C49.6934 34.2445 49.6934 35.0594 49.6934 36.963" stroke="#949494" stroke-miterlimit="10" stroke-linecap="round" stroke-linejoin="round"/>
<path d="M49.7271 42.4541C49.7856 44.4767 49.5515 45.2917 49.8441 47.3143" stroke="#949494" stroke-miterlimit="10" stroke-linecap="round" stroke-linejoin="round"/>
<path d="M12.2861 31.1331C12.2861 33.0963 12.2861 35.0594 12.2861 36.963" stroke="#949494" stroke-miterlimit="10" stroke-linecap="round" stroke-linejoin="round"/>
<path d="M8.01855 32.2812C8.01855 34.2445 8.01855 35.0594 8.01855 36.963" stroke="#949494" stroke-miterlimit="10" stroke-linecap="round" stroke-linejoin="round"/>
<path d="M12.2289 41.3059C12.1704 43.3285 12.4045 45.2917 12.1119 47.3143" stroke="#949494" stroke-miterlimit="10" stroke-linecap="round" stroke-linejoin="round"/>
<path d="M7.98479 42.4541C7.92629 44.4767 8.1604 45.2917 7.86779 47.3143" stroke="#949494" stroke-miterlimit="10" stroke-linecap="round" stroke-linejoin="round"/>
<path d="M34.6939 34.167C34.9865 31.49 34.9865 28.8128 34.7524 26.1954C34.5184 23.6968 32.4704 22.507 30.3054 22.2095C27.6722 21.8527 25.6242 23.1615 24.6295 25.303C24.454 25.779 24.3955 26.1954 24.3955 26.6117C24.3955 29.1103 24.3955 31.5494 24.3955 34.0479" stroke="#8B4326" stroke-miterlimit="10" stroke-linecap="round" stroke-linejoin="round"/>
<path d="M34.8101 50.467C34.6931 48.147 35.0442 45.8269 34.5761 43.4473C34.0494 41.0083 32.0015 39.4615 29.7779 39.3426C27.0277 39.2236 25.2723 41.1867 24.6872 43.0308C24.4531 43.8637 24.4531 44.6371 24.4531 45.47C24.4531 47.1357 24.4531 48.8013 24.4531 50.467" stroke="#8B4326" stroke-miterlimit="10" stroke-linecap="round" stroke-linejoin="round"/>
<path d="M40.1357 32.9177C40.1357 29.7053 40.1357 26.5523 40.1357 23.3399C40.1357 22.864 40.0187 22.3286 40.0772 21.9122C40.1942 20.5439 39.375 20.6034 38.4973 20.6034C37.3856 20.6034 37.5026 21.3173 37.5026 22.0311C37.5026 25.7195 37.5026 29.3483 37.5026 33.0366" stroke="#8B4326" stroke-miterlimit="10" stroke-linecap="round" stroke-linejoin="round"/>
<path d="M21.47 33.0367C21.47 29.3482 21.47 25.7194 21.47 22.0311C21.47 21.1983 21.47 20.5439 20.3582 20.5439C19.2465 20.5439 18.8369 20.9603 18.8369 22.0311C18.8369 24.7081 18.8369 27.3852 18.8369 30.0027C18.8369 30.9545 18.8369 31.9063 18.8369 32.8581" stroke="#8B4326" stroke-miterlimit="10" stroke-linecap="round" stroke-linejoin="round"/>
<path d="M40.1358 20.6038C40.7795 20.0684 42.1838 20.0684 41.4816 18.4622C33.4653 18.4622 25.3318 18.4622 17.1398 18.4622C17.0228 19.4735 16.9058 20.2468 18.1931 20.1873C18.3686 20.1873 18.5441 20.4253 18.7782 20.6038" stroke="#8B4326" stroke-miterlimit="10" stroke-linecap="round" stroke-linejoin="round"/>
<path d="M41.0125 14.7734C39.1401 14.7734 37.2676 14.7734 35.3952 14.7734C29.8948 14.8329 24.4531 14.6545 18.9527 14.9519C18.6016 14.9519 18.3091 14.7734 17.958 14.7734" stroke="#8B4326" stroke-miterlimit="10" stroke-linecap="round" stroke-linejoin="round"/>
<path d="M17.3728 50.4672C17.3728 46.6599 17.4313 42.8525 17.3143 39.0453C17.2558 37.2606 17.8994 35.6543 17.7824 33.9291C17.7239 33.2152 18.3675 33.0368 19.0112 33.2152C19.5378 33.3938 20.0644 33.3938 20.5325 33.3343C21.4102 33.2152 22.2295 32.9179 22.5221 34.2266C22.5806 34.4645 22.9902 34.524 23.3413 34.524C27.3787 34.524 31.4161 34.524 35.3951 34.524C35.7462 34.524 36.1558 34.4645 36.2143 34.2266C36.5069 32.9179 37.3846 33.2152 38.2038 33.3938C38.4963 33.4532 38.7889 33.3938 39.023 33.3938C40.8954 33.2152 40.7199 33.2748 41.0124 35.2379C41.8316 40.354 41.1294 45.4106 41.422 50.5267" stroke="#8B4326" stroke-miterlimit="10" stroke-linecap="round" stroke-linejoin="round"/>
<path d="M17.958 36.0112C19.4793 36.3087 21.0592 36.1898 22.7561 36.0112C22.7561 40.8299 22.7561 45.6485 22.7561 50.4671" stroke="#8B4326" stroke-miterlimit="10" stroke-linecap="round" stroke-linejoin="round"/>
<path d="M41.014 36.0112C39.4925 36.3087 37.9127 36.1898 36.2158 36.0112C36.2158 40.8299 36.2158 45.6485 36.2158 50.4671" stroke="#8B4326" stroke-miterlimit="10" stroke-linecap="round" stroke-linejoin="round"/>
<path d="M34.8107 13.1675C34.167 11.3234 33.7574 11.0259 31.885 11.1449C30.3051 11.2639 28.7253 11.3829 27.0869 11.0259C25.4484 10.669 24.5122 11.4423 24.1611 13.108" stroke="#8B4326" stroke-miterlimit="10" stroke-linecap="round" stroke-linejoin="round"/>
<path d="M23.166 15.071C22.8733 16.6772 23.166 18.2835 22.9903 19.9491C22.6978 20.425 21.9371 20.0086 21.6445 20.6036" stroke="#8B4326" stroke-miterlimit="10" stroke-linecap="round" stroke-linejoin="round"/>
<path d="M40.1348 12.7512C40.1348 14.5359 40.1348 16.3801 40.1348 18.1647" stroke="#8B4326" stroke-miterlimit="10" stroke-linecap="round" stroke-linejoin="round"/>
<path d="M18.7773 12.7512C18.7773 14.5359 18.7773 16.3801 18.7773 18.1647" stroke="#8B4326" stroke-miterlimit="10" stroke-linecap="round" stroke-linejoin="round"/>
<path d="M35.9219 18.6404C35.9219 19.0568 35.9219 19.4732 35.9219 19.9491C36.273 20.4251 37.0337 20.0681 37.3262 20.6631" stroke="#8B4326" stroke-miterlimit="10" stroke-linecap="round" stroke-linejoin="round"/>
<path d="M29.4854 8.76514C29.5439 9.5385 29.3684 10.3119 29.6025 11.0257" stroke="#8B4326" stroke-miterlimit="10" stroke-linecap="round" stroke-linejoin="round"/>
<path d="M17.334 50.7346C17.0578 50.7346 16.834 50.9585 16.834 51.2346C16.834 51.5108 17.0578 51.7346 17.334 51.7346V50.7346ZM41.3536 51.7346C41.6297 51.7346 41.8536 51.5108 41.8536 51.2346C41.8536 50.9585 41.6297 50.7346 41.3536 50.7346V51.7346ZM17.334 51.7346H41.3536V50.7346H17.334V51.7346Z" fill="#8B4326"/>
</svg>
