<svg width="61" height="61" viewBox="0 0 61 61" fill="none" xmlns="http://www.w3.org/2000/svg">
<path fill-rule="evenodd" clip-rule="evenodd" d="M18.0492 6.203C17.5169 2.76162 14.5349 0.23557 11.0528 0.276116C7.57076 0.316662 4.64851 2.91162 4.19641 6.36449C1.66427 6.84987 -0.0837867 9.18116 0.159842 11.748C0.40347 14.3148 2.55898 16.2754 5.13741 16.2756H10.9663H13.1036C12.5986 15.3074 12.5986 13.9297 12.5986 13.9297C12.5498 10.8194 15.0269 8.25609 18.137 8.19844L18.0492 6.203ZM10.6089 14.1455C10.6038 14.0739 10.5987 14.0023 10.5987 13.9299C10.5775 10.5198 12.7978 7.50036 16.0593 6.50417C15.6609 3.92504 13.3426 2.08839 10.7407 2.29077C8.13887 2.49303 6.1323 4.66588 6.13746 7.2756C6.13746 7.54091 6.03211 7.79532 5.84461 7.98282C5.657 8.17043 5.40259 8.27578 5.1374 8.27566C3.48063 8.27566 2.13745 9.61873 2.13745 11.2756C2.13745 12.9325 3.48063 14.2756 5.1374 14.2756H10.617C10.615 14.2321 10.612 14.1888 10.6089 14.1455Z" fill="#949494"/>
<path fill-rule="evenodd" clip-rule="evenodd" d="M59.1365 47.275C59.6888 47.275 60.1364 46.8272 60.1364 46.275C60.1364 45.7227 59.6886 45.2751 59.1365 45.2751H58.1365C58.1365 44.7228 57.6889 44.2752 57.1366 44.2752C56.5843 44.2752 56.1366 44.7228 56.1366 45.2751H40.1368C40.1368 44.7228 39.6891 44.2752 39.1369 44.2752C38.5846 44.2752 38.1369 44.7228 38.1369 45.2751H37.137C36.5847 45.2751 36.1371 45.7229 36.1371 46.275C36.1371 46.8273 36.5847 47.275 37.137 47.275H38.1369V50.2749H37.137C36.5847 50.2749 36.1371 50.7226 36.1371 51.2749C36.1371 51.8272 36.5847 52.2748 37.137 52.2748H38.1369V53.2748H37.137C36.5847 53.2748 36.1371 53.7225 36.1371 54.2747C36.1371 54.8269 36.5847 55.2746 37.137 55.2746H38.1369V58.2746H21.1371V50.0013C22.6163 50.8348 24.2853 51.2735 25.9832 51.2748C31.662 51.193 36.2035 46.5311 36.1368 40.852C36.1676 36.9037 33.9628 33.2774 30.443 31.488C31.6017 29.9104 32.2226 28.0021 32.214 26.0447C32.2488 21.7249 29.2185 17.9858 24.9851 17.1249C26.0563 14.7627 25.8722 12.0208 24.4947 9.8231C23.1173 7.62528 20.73 6.26417 18.137 6.19843C18.1074 6.19843 18.0788 6.20265 18.0492 6.203L16.0593 6.50417C12.7978 7.50036 10.5775 10.5198 10.5987 13.9299C10.5987 14.046 10.6118 14.1601 10.617 14.2756L10.9663 16.2756C11.0566 16.5631 11.1635 16.8452 11.2867 17.1202C7.0535 17.984 4.02472 21.7246 4.06023 26.0448C4.05167 28.0022 4.67252 29.9106 5.83114 31.4881C2.31147 33.2776 0.106626 36.9038 0.137446 40.8522C0.0706507 46.5311 4.61229 51.1931 10.2911 51.2749C11.989 51.2736 13.658 50.8351 15.1372 50.0014V58.2747H1.13751C0.585212 58.2747 0.137563 58.7224 0.137563 59.2747C0.137563 59.827 0.585212 60.2746 1.13751 60.2746H59.1365C59.6888 60.2746 60.1364 59.827 60.1364 59.2747C60.1364 58.7224 59.6886 58.2747 59.1365 58.2747H58.1365V55.2748H59.1365C59.6888 55.2748 60.1364 54.8271 60.1364 54.2748C60.1364 53.7225 59.6886 53.2749 59.1365 53.2749H58.1365V52.2749H59.1365C59.6888 52.2749 60.1364 51.8273 60.1364 51.275C60.1364 50.7227 59.6886 50.275 59.1365 50.275H58.1365V47.2751L59.1365 47.275ZM17.1372 58.2748H19.1372L19.1371 48.5313C18.7787 48.1977 18.4445 47.8389 18.1371 47.4577C17.8298 47.8389 17.4955 48.1977 17.1372 48.5314V58.2748ZM25.8441 38.9821L19.2586 45.5677C20.7226 47.8679 23.2566 49.2649 25.9832 49.275C30.0492 49.1269 33.4339 46.1059 34.0419 42.083C34.6499 38.06 32.3086 34.1739 28.468 32.8309C28.1369 32.7218 27.8866 32.4482 27.8074 32.1087C27.7282 31.7692 27.8315 31.4131 28.0802 31.1688C29.4547 29.8194 30.2245 27.971 30.2139 26.0448C30.2722 22.2022 27.2102 19.0369 23.3678 18.9678C22.9867 18.9687 22.6368 18.7576 22.4601 18.4199C22.2846 18.0871 22.312 17.6839 22.5309 17.3779C23.2721 16.3809 23.6733 15.1721 23.6754 13.9297C23.7243 10.8194 21.2472 8.25608 18.137 8.19843C15.0269 8.25608 12.5498 10.8194 12.5986 13.9297C12.6007 15.1721 13.0019 16.3809 13.7431 17.3779C13.9666 17.6813 14 18.0848 13.8295 18.4209C13.6345 18.7866 13.24 19.0004 12.8271 18.9639C9.01237 19.0715 5.99473 22.2292 6.06012 26.0448C6.04957 27.971 6.81924 29.8194 8.19383 31.1688C8.44238 31.4131 8.54585 31.7692 8.46664 32.1087C8.38742 32.4482 8.13711 32.7218 7.80606 32.8309C4.38155 33.9987 2.09479 37.2344 2.13722 40.8523C2.06925 45.4272 5.71618 49.1945 10.2909 49.275C13.0174 49.2649 15.5516 47.8679 17.0156 45.5677L10.4301 38.9822C10.0438 38.5911 10.0458 37.9613 10.4345 37.5726C10.8234 37.1839 11.453 37.1819 11.8442 37.5682L17.1371 42.8611V32.6894L12.4302 27.9824C12.044 27.5911 12.0458 26.9615 12.4347 26.5728C12.8235 26.1841 13.4531 26.1821 13.8443 26.5683L17.1372 29.8612V25.2754C17.1372 24.7232 17.5848 24.2755 18.1371 24.2755C18.6893 24.2755 19.1371 24.7231 19.1371 25.2754V29.8612L22.43 26.5683C22.8213 26.1821 23.4509 26.1841 23.8396 26.5728C24.2284 26.9616 24.2303 27.5912 23.8441 27.9824L19.1372 32.6893V42.861L24.4301 37.5682C24.8216 37.1837 25.4499 37.1865 25.8377 37.5745C26.2256 37.9625 26.2286 38.5906 25.8441 38.9821ZM40.1368 58.2748H56.1365V55.2749H40.1368V58.2748ZM40.1368 53.2749H56.1365V52.2749H40.1368V53.2749ZM40.1368 50.2749H56.1365V47.275H40.1368V50.2749Z" fill="#8B4326"/>
<path d="M43.1369 25.2756H55.1367C57.7151 25.2754 59.8706 23.3148 60.1143 20.748C60.3579 18.1812 58.6099 15.8499 56.0776 15.3646C55.62 11.8807 52.6507 9.27588 49.1368 9.27588C45.623 9.27588 42.6537 11.8807 42.1961 15.3646C39.6638 15.8499 37.9157 18.1812 38.1594 20.748C38.403 23.3148 40.5585 25.2754 43.1369 25.2756ZM43.1369 17.2757C43.4021 17.2758 43.6565 17.1704 43.8441 16.9828C44.0316 16.7953 44.137 16.5409 44.137 16.2756C44.137 13.5142 46.3756 11.2756 49.137 11.2756C51.8983 11.2756 54.1369 13.5141 54.1369 16.2756C54.1368 16.5408 54.2421 16.7952 54.4298 16.9828C54.6173 17.1703 54.8717 17.2757 55.137 17.2757C56.7938 17.2757 58.1369 18.6188 58.1369 20.2756C58.1369 21.9324 56.7939 23.2756 55.137 23.2756H43.1372C41.4804 23.2756 40.1372 21.9325 40.1372 20.2756C40.1372 18.6187 41.48 17.2757 43.1369 17.2757Z" fill="#949494"/>
</svg>
