<svg width="62" height="62" viewBox="0 0 62 62" fill="none" xmlns="http://www.w3.org/2000/svg">
<g clip-path="url(#clip0)">
<path d="M18.5125 8.2341C15.3858 8.42601 12.9353 11.0468 12.9849 14.209L12.9849 14.2105L12.985 14.2238C12.9851 14.2351 12.9854 14.2515 12.9859 14.2724C12.9869 14.3142 12.989 14.3743 12.9931 14.4491C13.0013 14.5986 13.0176 14.8079 13.0502 15.0486C13.1003 15.4175 13.1902 15.8723 13.3545 16.301H11.6025H5.77366C3.32413 16.3008 1.2764 14.4382 1.04495 11.9998C0.813505 9.56126 2.47418 7.34652 4.87971 6.88541L5.05708 6.85141L5.08053 6.67234C5.51648 3.34283 8.33432 0.840587 11.692 0.80149C15.0451 0.762445 17.9174 3.19164 18.4363 6.5032L18.5125 8.2341ZM11.4849 14.2053L11.4849 14.2037L6.77369 7.55099H6.52369C6.52369 7.55107 6.52369 7.55116 6.52369 7.55124C6.52363 7.75019 6.4446 7.9409 6.30406 8.08143C6.16334 8.22216 5.97255 8.30114 5.77375 8.30105H5.77363C3.9788 8.30105 2.52368 9.75604 2.52368 11.551C2.52368 13.346 3.97879 14.801 5.77363 14.801H11.2532H11.5147L11.503 14.5397C11.5009 14.493 11.4976 14.447 11.4946 14.4046L11.4945 14.4032C11.4893 14.3301 11.4849 14.2673 11.4849 14.2053Z" fill="#949494" stroke="white" stroke-width="0.5"/>
<mask id="path-3-inside-1" fill="white">
<path fill-rule="evenodd" clip-rule="evenodd" d="M59.7732 47.5504C60.3255 47.5504 60.7731 47.1026 60.7731 46.5504C60.7731 45.9981 60.3253 45.5505 59.7732 45.5505H58.7732C58.7732 44.9982 58.3256 44.5506 57.7733 44.5506C57.221 44.5506 56.7733 44.9982 56.7733 45.5505H40.7735C40.7735 44.9982 40.3258 44.5506 39.7736 44.5506C39.2213 44.5506 38.7736 44.9982 38.7736 45.5505H37.7737C37.2214 45.5505 36.7738 45.9983 36.7738 46.5504C36.7738 47.1027 37.2214 47.5504 37.7737 47.5504H38.7736V50.5503H37.7737C37.2214 50.5503 36.7738 50.998 36.7738 51.5503C36.7738 52.1026 37.2214 52.5502 37.7737 52.5502H38.7736V53.5502H37.7737C37.2214 53.5502 36.7738 53.9979 36.7738 54.5501C36.7738 55.1023 37.2214 55.55 37.7737 55.55H38.7736V58.55H21.7738V50.2767C23.253 51.1102 24.922 51.5489 26.6199 51.5502C32.2987 51.4684 36.8402 46.8065 36.7735 41.1274C36.8043 37.1791 34.5995 33.5528 31.0797 31.7634C32.2384 30.1858 32.8593 28.2775 32.8507 26.3201C32.8855 22.0003 29.8552 18.2612 25.6218 17.4003C26.693 15.0381 26.5089 12.2962 25.1314 10.0985C23.754 7.90073 21.3667 6.53962 18.7737 6.47388C18.7441 6.47388 18.7155 6.4781 18.6859 6.47845L16.696 6.77962C13.4345 7.77581 11.2142 10.7952 11.2354 14.2053C11.2354 14.3214 11.2485 14.4355 11.2537 14.551L11.603 16.551C11.6933 16.8385 11.8002 17.1206 11.9234 17.3956C7.69022 18.2594 4.66144 22 4.69695 26.3202C4.68839 28.2776 5.30924 30.186 6.46786 31.7635C2.94819 33.553 0.743345 37.1792 0.774165 41.1276C0.707369 46.8065 5.24901 51.4685 10.9278 51.5503C12.6257 51.549 14.2947 51.1105 15.7739 50.2768V58.5501H1.77423C1.22193 58.5501 0.774282 58.9978 0.774282 59.5501C0.774282 60.1024 1.22193 60.55 1.77423 60.55H59.7732C60.3255 60.55 60.7731 60.1024 60.7731 59.5501C60.7731 58.9978 60.3253 58.5501 59.7732 58.5501H58.7732V55.5502H59.7732C60.3255 55.5502 60.7731 55.1025 60.7731 54.5502C60.7731 53.9979 60.3253 53.5503 59.7732 53.5503H58.7732V52.5503H59.7732C60.3255 52.5503 60.7731 52.1027 60.7731 51.5504C60.7731 50.9981 60.3253 50.5504 59.7732 50.5504H58.7732V47.5505L59.7732 47.5504ZM17.7739 58.5502H19.7739L19.7738 48.8067C19.4154 48.4731 19.0812 48.1143 18.7738 47.7331C18.4665 48.1143 18.1322 48.4731 17.7739 48.8068V58.5502ZM26.4808 39.2575L19.8953 45.8431C21.3593 48.1433 23.8933 49.5403 26.6199 49.5504C30.6859 49.4023 34.0706 46.3813 34.6786 42.3584C35.2866 38.3354 32.9453 34.4493 29.1047 33.1063C28.7736 32.9972 28.5233 32.7236 28.4441 32.3841C28.3649 32.0446 28.4682 31.6885 28.7169 31.4442C30.0914 30.0948 30.8612 28.2464 30.8506 26.3202C30.9089 22.4776 27.8469 19.3123 24.0045 19.2432C23.6234 19.2441 23.2735 19.033 23.0968 18.6953C22.9213 18.3625 22.9487 17.9593 23.1676 17.6533C23.9088 16.6563 24.31 15.4475 24.3121 14.2051C24.361 11.0948 21.8839 8.53154 18.7737 8.47389C15.6636 8.53154 13.1865 11.0948 13.2353 14.2051C13.2374 15.4475 13.6386 16.6563 14.3798 17.6533C14.6033 17.9567 14.6367 18.3602 14.4662 18.6963C14.2712 19.062 13.8767 19.2758 13.4638 19.2393C9.64909 19.3469 6.63145 22.5046 6.69684 26.3202C6.68629 28.2464 7.45596 30.0948 8.83055 31.4442C9.0791 31.6885 9.18257 32.0446 9.10336 32.3841C9.02414 32.7236 8.77383 32.9972 8.44278 33.1063C5.01827 34.2741 2.73151 37.5098 2.77394 41.1277C2.70597 45.7026 6.3529 49.4699 10.9276 49.5504C13.6541 49.5403 16.1883 48.1433 17.6523 45.8431L11.0668 39.2576C10.6805 38.8665 10.6825 38.2367 11.0712 37.848C11.4601 37.4593 12.0897 37.4573 12.4809 37.8436L17.7738 43.1365V32.9648L13.0669 28.2578C12.6807 27.8665 12.6825 27.2369 13.0714 26.8482C13.4602 26.4595 14.0898 26.4575 14.481 26.8437L17.7739 30.1366V25.5508C17.7739 24.9986 18.2215 24.5509 18.7738 24.5509C19.326 24.5509 19.7738 24.9985 19.7738 25.5508V30.1366L23.0667 26.8437C23.458 26.4575 24.0876 26.4595 24.4763 26.8482C24.8651 27.237 24.867 27.8666 24.4808 28.2578L19.7739 32.9647V43.1364L25.0668 37.8436C25.4583 37.4591 26.0866 37.4619 26.4744 37.8499C26.8623 38.2379 26.8653 38.8661 26.4808 39.2575ZM40.7735 58.5502H56.7732V55.5503H40.7735V58.5502ZM40.7735 53.5503H56.7732V52.5503H40.7735V53.5503ZM40.7735 50.5503H56.7732V47.5504H40.7735V50.5503Z"/>
</mask>
<path fill-rule="evenodd" clip-rule="evenodd" d="M59.7732 47.5504C60.3255 47.5504 60.7731 47.1026 60.7731 46.5504C60.7731 45.9981 60.3253 45.5505 59.7732 45.5505H58.7732C58.7732 44.9982 58.3256 44.5506 57.7733 44.5506C57.221 44.5506 56.7733 44.9982 56.7733 45.5505H40.7735C40.7735 44.9982 40.3258 44.5506 39.7736 44.5506C39.2213 44.5506 38.7736 44.9982 38.7736 45.5505H37.7737C37.2214 45.5505 36.7738 45.9983 36.7738 46.5504C36.7738 47.1027 37.2214 47.5504 37.7737 47.5504H38.7736V50.5503H37.7737C37.2214 50.5503 36.7738 50.998 36.7738 51.5503C36.7738 52.1026 37.2214 52.5502 37.7737 52.5502H38.7736V53.5502H37.7737C37.2214 53.5502 36.7738 53.9979 36.7738 54.5501C36.7738 55.1023 37.2214 55.55 37.7737 55.55H38.7736V58.55H21.7738V50.2767C23.253 51.1102 24.922 51.5489 26.6199 51.5502C32.2987 51.4684 36.8402 46.8065 36.7735 41.1274C36.8043 37.1791 34.5995 33.5528 31.0797 31.7634C32.2384 30.1858 32.8593 28.2775 32.8507 26.3201C32.8855 22.0003 29.8552 18.2612 25.6218 17.4003C26.693 15.0381 26.5089 12.2962 25.1314 10.0985C23.754 7.90073 21.3667 6.53962 18.7737 6.47388C18.7441 6.47388 18.7155 6.4781 18.6859 6.47845L16.696 6.77962C13.4345 7.77581 11.2142 10.7952 11.2354 14.2053C11.2354 14.3214 11.2485 14.4355 11.2537 14.551L11.603 16.551C11.6933 16.8385 11.8002 17.1206 11.9234 17.3956C7.69022 18.2594 4.66144 22 4.69695 26.3202C4.68839 28.2776 5.30924 30.186 6.46786 31.7635C2.94819 33.553 0.743345 37.1792 0.774165 41.1276C0.707369 46.8065 5.24901 51.4685 10.9278 51.5503C12.6257 51.549 14.2947 51.1105 15.7739 50.2768V58.5501H1.77423C1.22193 58.5501 0.774282 58.9978 0.774282 59.5501C0.774282 60.1024 1.22193 60.55 1.77423 60.55H59.7732C60.3255 60.55 60.7731 60.1024 60.7731 59.5501C60.7731 58.9978 60.3253 58.5501 59.7732 58.5501H58.7732V55.5502H59.7732C60.3255 55.5502 60.7731 55.1025 60.7731 54.5502C60.7731 53.9979 60.3253 53.5503 59.7732 53.5503H58.7732V52.5503H59.7732C60.3255 52.5503 60.7731 52.1027 60.7731 51.5504C60.7731 50.9981 60.3253 50.5504 59.7732 50.5504H58.7732V47.5505L59.7732 47.5504ZM17.7739 58.5502H19.7739L19.7738 48.8067C19.4154 48.4731 19.0812 48.1143 18.7738 47.7331C18.4665 48.1143 18.1322 48.4731 17.7739 48.8068V58.5502ZM26.4808 39.2575L19.8953 45.8431C21.3593 48.1433 23.8933 49.5403 26.6199 49.5504C30.6859 49.4023 34.0706 46.3813 34.6786 42.3584C35.2866 38.3354 32.9453 34.4493 29.1047 33.1063C28.7736 32.9972 28.5233 32.7236 28.4441 32.3841C28.3649 32.0446 28.4682 31.6885 28.7169 31.4442C30.0914 30.0948 30.8612 28.2464 30.8506 26.3202C30.9089 22.4776 27.8469 19.3123 24.0045 19.2432C23.6234 19.2441 23.2735 19.033 23.0968 18.6953C22.9213 18.3625 22.9487 17.9593 23.1676 17.6533C23.9088 16.6563 24.31 15.4475 24.3121 14.2051C24.361 11.0948 21.8839 8.53154 18.7737 8.47389C15.6636 8.53154 13.1865 11.0948 13.2353 14.2051C13.2374 15.4475 13.6386 16.6563 14.3798 17.6533C14.6033 17.9567 14.6367 18.3602 14.4662 18.6963C14.2712 19.062 13.8767 19.2758 13.4638 19.2393C9.64909 19.3469 6.63145 22.5046 6.69684 26.3202C6.68629 28.2464 7.45596 30.0948 8.83055 31.4442C9.0791 31.6885 9.18257 32.0446 9.10336 32.3841C9.02414 32.7236 8.77383 32.9972 8.44278 33.1063C5.01827 34.2741 2.73151 37.5098 2.77394 41.1277C2.70597 45.7026 6.3529 49.4699 10.9276 49.5504C13.6541 49.5403 16.1883 48.1433 17.6523 45.8431L11.0668 39.2576C10.6805 38.8665 10.6825 38.2367 11.0712 37.848C11.4601 37.4593 12.0897 37.4573 12.4809 37.8436L17.7738 43.1365V32.9648L13.0669 28.2578C12.6807 27.8665 12.6825 27.2369 13.0714 26.8482C13.4602 26.4595 14.0898 26.4575 14.481 26.8437L17.7739 30.1366V25.5508C17.7739 24.9986 18.2215 24.5509 18.7738 24.5509C19.326 24.5509 19.7738 24.9985 19.7738 25.5508V30.1366L23.0667 26.8437C23.458 26.4575 24.0876 26.4595 24.4763 26.8482C24.8651 27.237 24.867 27.8666 24.4808 28.2578L19.7739 32.9647V43.1364L25.0668 37.8436C25.4583 37.4591 26.0866 37.4619 26.4744 37.8499C26.8623 38.2379 26.8653 38.8661 26.4808 39.2575ZM40.7735 58.5502H56.7732V55.5503H40.7735V58.5502ZM40.7735 53.5503H56.7732V52.5503H40.7735V53.5503ZM40.7735 50.5503H56.7732V47.5504H40.7735V50.5503Z" fill="#8B4326" stroke="white" mask="url(#path-3-inside-1)"/>
<path d="M56.4664 15.6725L56.4899 15.8515L56.6672 15.8855C59.0729 16.3466 60.7335 18.5613 60.5021 20.9998C60.2706 23.4382 58.2229 25.3008 55.7734 25.301H43.7736C41.3241 25.3008 39.2764 23.4382 39.045 20.9998L39.045 20.9998C38.8135 18.5613 40.4741 16.3466 42.8798 15.8855L43.0571 15.8515L43.0807 15.6725C43.5219 12.3131 46.3852 9.80127 49.7735 9.80127C53.1619 9.80127 56.0252 12.3131 56.4664 15.6725ZM43.7737 17.3011H43.7736C41.9786 17.3011 40.5239 18.756 40.5239 20.551C40.5239 22.346 41.979 23.801 43.7739 23.801H55.7737C57.5687 23.801 59.0236 22.3458 59.0236 20.551C59.0236 18.7561 57.5686 17.3011 55.7737 17.3011C55.5747 17.3011 55.3839 17.222 55.2433 17.0814L55.2432 17.0814C55.1025 16.9407 55.0235 16.7499 55.0236 16.5511V16.551C55.0236 13.6514 52.6731 11.301 49.7737 11.301C46.8742 11.301 44.5237 13.6515 44.5237 16.551C44.5237 16.75 44.4446 16.9408 44.304 17.0814C44.1633 17.2222 43.9725 17.3012 43.7737 17.3011Z" fill="#949494" stroke="white" stroke-width="0.5"/>
</g>
<defs>
<clipPath id="clip0">
<rect x="0.636719" y="0.275391" width="61" height="61" fill="white"/>
</clipPath>
</defs>
</svg>
