<svg width="61" height="61" viewBox="0 0 61 61" fill="none" xmlns="http://www.w3.org/2000/svg">
<path d="M59.7239 23.7304C58.9743 21.8428 56.8363 20.9204 54.9487 21.6701C54.8517 21.7087 54.7562 21.7514 54.6628 21.798L51.9358 23.1635L46.3685 15.7419C46.2997 15.6501 46.216 15.5707 46.1206 15.507L40.0472 11.4581C39.9252 11.3767 39.787 11.3228 39.6423 11.3002L26.4832 9.27571C26.1652 9.22674 25.8428 9.33201 25.6147 9.55913L18.0686 17.077C16.8012 18.3396 16.7973 20.3905 18.06 21.6579C18.0629 21.6608 18.0656 21.6637 18.0686 21.6665C19.2773 22.8671 21.2079 22.9307 22.493 21.8122L28.6079 16.4616L34.0335 18.0123L29.4926 27.9899L22.5264 37.9411L14.2464 45.3922C12.7384 46.6875 12.5659 48.9601 13.8612 50.468C15.1565 51.976 17.4291 52.1485 18.9371 50.8532L28.0593 43.3829L33.5122 37.93L40.4278 43.1177L38.8892 53.8555C38.745 54.8596 39.0443 55.8769 39.7091 56.6432C40.392 57.4242 41.3834 57.8658 42.4208 57.8507C44.1395 57.8532 45.6166 56.632 45.9373 54.9436L48.5833 40.829C48.6491 40.4774 48.5244 40.1173 48.2554 39.8816L40.6737 33.2535L43.9007 24.3803L49.8587 31.1895C50.1503 31.5223 50.6241 31.6273 51.0289 31.4487L57.8635 28.4261C59.6603 27.6302 60.4881 25.5412 59.7239 23.7304ZM57.0446 26.5727L50.8912 29.2936L44.2955 21.7555C43.9272 21.3349 43.2877 21.2927 42.8671 21.661C42.7388 21.7734 42.6411 21.9162 42.5828 22.0764L38.5339 33.211C38.3911 33.6035 38.5041 34.0433 38.8183 34.3184L46.4819 41.0244L43.9392 54.5711C43.7875 55.3204 43.1171 55.8508 42.353 55.8263C41.5379 55.826 40.8773 55.1652 40.8776 54.3501C40.8776 54.2805 40.8825 54.2109 40.8924 54.1419L42.5119 42.811C42.5645 42.4449 42.4131 42.0793 42.1172 41.8575L34.0193 35.7841C33.6163 35.4819 33.0525 35.522 32.6963 35.8782L26.6978 41.8838L17.6505 49.2862C16.9815 49.8406 15.9899 49.7476 15.4356 49.0786C14.895 48.4261 14.9683 47.4625 15.6017 46.8994L23.9668 39.3704C24.024 39.3192 24.0749 39.2615 24.1187 39.1983L31.2043 29.076C31.2401 29.0254 31.2709 28.9715 31.2964 28.9151L36.3576 17.7805C36.5889 17.2715 36.3638 16.6715 35.8547 16.4402C35.8094 16.4195 35.7626 16.4023 35.7148 16.3887L28.6292 14.3642C28.2986 14.2684 27.942 14.3481 27.6838 14.5758L21.1549 20.2888C20.664 20.7475 19.8942 20.7214 19.4356 20.2306C18.9769 19.7398 19.003 18.97 19.4938 18.5113L26.6806 11.3538L39.1119 13.2669L44.8502 17.0952L50.8224 25.0544C51.1157 25.4459 51.647 25.5715 52.0846 25.353L55.5677 23.6069C55.9774 23.4007 56.4549 23.3761 56.8836 23.5391C57.3424 23.7183 57.7009 24.0875 57.8665 24.5513C58.1816 25.3366 57.8182 26.2302 57.0446 26.5727Z" fill="#8B4326"/>
<path d="M19.2401 8.25146H6.08105V10.2759H19.2401V8.25146Z" fill="#949494"/>
<path d="M4.05669 8.25146H2.03223V10.2759H4.05669V8.25146Z" fill="#949494"/>
<path d="M12.1544 16.3494H10.1299V18.3738H12.1544V16.3494Z" fill="#949494"/>
<path d="M8.10568 16.3494H0.0078125V18.3738H8.10568V16.3494Z" fill="#949494"/>
<path d="M15.1917 24.4473H5.06934V26.4717H15.1917V24.4473Z" fill="#949494"/>
<path d="M19.2402 32.5452H2.03223V34.5696H19.2402V32.5452Z" fill="#949494"/>
<path d="M12.1545 40.6431H4.05664V42.6675H12.1545V40.6431Z" fill="#949494"/>
<path d="M2.03228 40.6431H0.0078125V42.6675H2.03228V40.6431Z" fill="#949494"/>
<path d="M9.11786 48.741H2.03223V50.7654H9.11786V48.741Z" fill="#949494"/>
<path d="M50.6194 2.17822H46.0644C42.9896 2.17822 40.4971 4.67072 40.4971 7.74551C40.4971 10.8203 42.9896 13.3128 46.0644 13.3128C49.1391 13.3128 51.6316 10.8203 51.6316 7.74551V3.19046C51.6316 2.63145 51.1784 2.17822 50.6194 2.17822ZM49.6072 7.74551C49.6148 9.69431 48.0412 11.2804 46.0924 11.2879C44.9996 11.2922 43.9665 10.7899 43.2949 9.92788C44.9799 8.26225 47.2384 7.30455 49.6072 7.25154V7.74551ZM49.6072 5.22707C47.0145 5.27426 44.5172 6.21336 42.5357 7.88621C42.5357 7.83863 42.5215 7.79409 42.5215 7.74551C42.5215 5.78886 44.1077 4.20269 46.0644 4.20269H49.6072V5.22707Z" fill="#8B4326"/>
</svg>
