<svg width="62" height="62" viewBox="0 0 62 62" fill="none" xmlns="http://www.w3.org/2000/svg">
<g clip-path="url(#clip0)">
<path d="M59.9993 24.3376L59.9994 24.3376C59.3007 22.5783 57.3081 21.7186 55.5488 22.4173C55.4584 22.4533 55.3694 22.4931 55.2824 22.5365C55.2823 22.5366 55.2823 22.5366 55.2822 22.5366L52.5556 23.9019L52.3689 23.9954L52.2436 23.8284L46.6763 16.4068L46.6763 16.4067C46.6244 16.3375 46.5614 16.2778 46.4897 16.2299L59.9993 24.3376ZM59.9993 24.3376L60.0014 24.3425M59.9993 24.3376L60.0014 24.3425M60.0014 24.3425C60.7126 26.0276 59.9422 27.9716 58.2702 28.7124L60.0014 24.3425ZM57.6536 27.3162L57.6535 27.3162L51.5001 30.0371L51.332 30.1115L51.2109 29.9731L44.6152 22.4351C44.6152 22.4351 44.6152 22.435 44.6152 22.435C44.3379 22.1184 43.8564 22.0866 43.5396 22.364C43.443 22.4486 43.3695 22.5561 43.3256 22.6767C43.3256 22.6767 43.3256 22.6768 43.3256 22.6768L39.2767 33.8113L39.2767 33.8114C39.1691 34.1069 39.2542 34.438 39.4908 34.6452C39.4908 34.6452 39.4908 34.6452 39.4908 34.6452L47.1544 41.3512L47.2618 41.4451L47.2354 41.5854L44.6927 55.1321L44.6921 55.1356C44.5164 56.0032 43.7411 56.6176 42.8568 56.5912C41.9055 56.5887 41.1351 55.8169 41.1354 54.865L57.6536 27.3162ZM57.6536 27.3162C58.5489 26.9198 58.9702 25.8868 58.6082 24.9776C58.4175 24.4478 58.0071 24.0261 57.4824 23.8211L57.4803 23.8203C56.9861 23.6324 56.4357 23.6607 55.9634 23.8983C55.9633 23.8984 55.9632 23.8984 55.9631 23.8985L52.4807 25.6442L57.6536 27.3162ZM42.7722 43.2905L42.7723 43.2903C42.8119 43.0147 42.6979 42.7394 42.4751 42.5724L42.475 42.5724L34.3771 36.499C34.3771 36.499 34.3771 36.499 34.3771 36.499C34.0737 36.2715 33.6492 36.3016 33.381 36.5698C33.381 36.5698 33.3809 36.5698 33.3809 36.5699L27.3825 42.5754L27.3736 42.5842L27.3639 42.5922L18.3178 49.9936C18.3176 49.9938 18.3174 49.9939 18.3172 49.9941C17.5419 50.636 16.3931 50.5281 15.7509 49.753L15.9434 49.5935L15.7509 49.753C15.1246 48.997 15.2093 47.8806 15.9429 47.2279C15.943 47.2278 15.9432 47.2276 15.9434 47.2275L24.3074 39.6995L24.3079 39.699C24.3504 39.6609 24.3883 39.618 24.421 39.5708L24.4217 39.5698L31.5073 29.4475L31.508 29.4465C31.5345 29.409 31.5574 29.369 31.5764 29.327L31.5766 29.3265L36.6378 18.192C36.812 17.8087 36.6425 17.3569 36.2591 17.1827L36.2586 17.1825C36.2249 17.1671 36.19 17.1542 36.1542 17.144L36.1539 17.144L29.0683 15.1195L29.0674 15.1192C28.8189 15.0472 28.551 15.1071 28.357 15.2782L28.3563 15.2788L21.8303 20.9893C21.2384 21.5392 20.3127 21.5068 19.7608 20.9162C19.2087 20.3255 19.2392 19.3997 19.8279 18.8464L27.012 11.6916L27.1015 11.6024L27.2264 11.6216L39.6577 13.5347L39.7124 13.5431L39.7585 13.5738L45.4968 17.4021L45.5323 17.4259L45.558 17.46L51.5302 25.4192L51.5303 25.4194C51.7511 25.7141 52.1509 25.8087 52.4804 25.6444L42.7722 43.2905ZM42.7722 43.2905L41.1528 54.6213M42.7722 43.2905L41.1528 54.6213M41.1528 54.6213C41.1411 54.7022 41.1354 54.7836 41.1354 54.8649L41.1528 54.6213ZM40.4163 12.181L46.4896 16.2298L48.5987 40.5847C48.8011 40.7622 48.8949 41.0333 48.8454 41.2979L46.1995 55.4118C45.9012 56.9821 44.5275 58.1179 42.929 58.1156L42.925 58.1156C41.9611 58.1296 41.04 57.7194 40.4054 56.9938C39.7884 56.2824 39.5106 55.338 39.6445 54.4059L39.6445 54.4059L41.1831 43.6681L41.2041 43.5215L41.0856 43.4326L34.17 38.2449L33.9966 38.1148L33.8432 38.2681L28.3991 43.7122L19.2865 51.1747L19.2865 51.1746L19.282 51.1784C17.8788 52.3838 15.764 52.2233 14.5587 50.82L14.369 50.9829L14.5587 50.82C13.3533 49.4168 13.5138 47.3021 14.9171 46.0967L14.9172 46.0968L14.9215 46.0929L23.2015 38.6418L23.2227 38.6227L23.239 38.5994L30.2052 28.6482L30.2184 28.6293L30.228 28.6084L34.7689 18.6307L34.8891 18.3666L34.61 18.2868L29.1844 16.7361L29.0535 16.6987L28.9511 16.7883L22.8367 22.1385C22.8366 22.1386 22.8366 22.1386 22.8365 22.1387C21.6503 23.171 19.8683 23.1122 18.7526 22.004L18.7527 22.0039L18.7492 22.0007L18.7487 22.0001L18.7449 21.9963C17.5797 20.8268 17.5833 18.9342 18.7529 17.769L18.7529 17.769L26.2989 10.2512C26.2989 10.2512 26.299 10.2511 26.299 10.2511C26.4708 10.08 26.7136 10.0008 26.953 10.0377L26.953 10.0377L40.1115 12.0621C40.1117 12.0621 40.1118 12.0621 40.1119 12.0622C40.2206 12.0792 40.3245 12.1197 40.4163 12.181L40.4163 12.181ZM41.017 33.9566L48.5985 40.5845L51.4356 31.735C51.1308 31.8693 50.7741 31.7903 50.5546 31.5396L44.5967 24.7306L44.3181 24.4122L44.1736 24.8097L40.9466 33.6829L40.888 33.8439L41.017 33.9566ZM58.2701 28.7124L51.4358 31.7349L58.2701 28.7124Z" fill="#8B4326" stroke="white" stroke-width="0.5"/>
<path d="M6.83887 10.5406V9.01611H19.4979V10.5406H6.83887Z" fill="#949494" stroke="white" stroke-width="0.5"/>
<path d="M2.79004 10.5406V9.01611H4.3145V10.5406H2.79004Z" fill="#949494" stroke="white" stroke-width="0.5"/>
<path d="M10.8877 18.6387V17.1143H12.4122V18.6387H10.8877Z" fill="#949494" stroke="white" stroke-width="0.5"/>
<path d="M0.765625 18.6387V17.1143H8.36349V18.6387H0.765625Z" fill="#949494" stroke="white" stroke-width="0.5"/>
<path d="M5.82715 26.7363V25.2119H15.4495V26.7363H5.82715Z" fill="#949494" stroke="white" stroke-width="0.5"/>
<path d="M2.79004 34.8345V33.3101H19.498V34.8345H2.79004Z" fill="#949494" stroke="white" stroke-width="0.5"/>
<path d="M4.81445 42.9321V41.4077H12.4123V42.9321H4.81445Z" fill="#949494" stroke="white" stroke-width="0.5"/>
<path d="M0.765625 42.9321V41.4077H2.29009V42.9321H0.765625Z" fill="#949494" stroke="white" stroke-width="0.5"/>
<path d="M2.79004 51.0303V49.5059H9.37567V51.0303H2.79004Z" fill="#949494" stroke="white" stroke-width="0.5"/>
<path d="M43.4689 10.4209L43.6269 10.2647C45.3573 8.55421 47.6767 7.57069 50.1094 7.51625L50.365 7.51053V7.76619V8.25968V8.26016H50.115C50.1226 10.209 48.549 11.7951 46.6002 11.8026L43.4689 10.4209ZM43.4689 10.4209L43.6055 10.5962C44.3246 11.5193 45.4309 12.0572 46.6012 12.0525L43.4689 10.4209ZM50.1195 5.99168L50.365 5.98721V5.74172V4.71734V4.46734H50.115H46.5722C44.4774 4.46734 42.7793 6.16544 42.7793 8.26016C42.7793 8.30406 42.7854 8.34382 42.7888 8.36541C42.7889 8.36659 42.7891 8.36771 42.7893 8.36878C42.7912 8.38124 42.7922 8.38801 42.7929 8.39408C42.7934 8.39883 42.7935 8.40076 42.7935 8.40091V8.9391L43.2048 8.59189C45.1423 6.95611 47.5843 6.03782 50.1195 5.99168ZM46.5722 2.94287H51.1272C51.5481 2.94287 51.8894 3.28416 51.8894 3.70511V8.26016C51.8894 11.1969 49.5088 13.5775 46.5722 13.5775C43.6355 13.5775 41.2549 11.1969 41.2549 8.26016C41.2549 5.32344 43.6355 2.94287 46.5722 2.94287Z" fill="#8B4326" stroke="white" stroke-width="0.5"/>
</g>
<defs>
<clipPath id="clip0">
<rect x="0.507812" y="0.514648" width="61" height="61" fill="white"/>
</clipPath>
</defs>
</svg>
