<svg width="62" height="60" viewBox="0 0 62 60" fill="none" xmlns="http://www.w3.org/2000/svg">
<g clip-path="url(#clip0)">
<path d="M8.50213 30.5973C8.26299 30.2142 8.37967 29.7099 8.76278 29.4707L8.79415 29.4511L8.50213 30.5973ZM8.50213 30.5973C8.50213 30.5973 8.50213 30.5973 8.50213 30.5973M8.50213 30.5973C8.50213 30.5973 8.50213 30.5973 8.50213 30.5973M8.50213 30.5973C8.7413 30.9803 9.24567 31.097 9.62874 30.8579" fill="#8B4326" stroke="white" stroke-width="0.5"/>
<path d="M24.4147 24.4957C25.8363 23.8457 27.7663 23.3797 29.9461 23.9702V23.9892L30.125 24.0423C30.5586 24.171 30.8058 24.6269 30.677 25.0607C30.5483 25.4944 30.0924 25.7415 29.6586 25.6128L29.6587 25.6124L29.6463 25.6094C27.3253 25.0477 24.8769 25.6734 23.1097 27.2795L23.1097 27.2795L23.1055 27.2834C22.7781 27.5951 22.26 27.5823 21.9483 27.2549C21.6366 26.9274 21.6494 26.4093 21.9769 26.0976L21.9851 26.0897L21.9926 26.0812C21.9924 26.0815 21.9924 26.0814 21.9928 26.0811C21.9938 26.08 21.9975 26.076 22.0051 26.0684C22.0143 26.0592 22.0271 26.0468 22.0436 26.0313C22.0764 26.0005 22.1222 25.9588 22.1806 25.9084C22.2973 25.8075 22.4627 25.6725 22.6721 25.5187C23.0913 25.2109 23.6845 24.8296 24.4147 24.4957Z" fill="#8B4326" stroke="white" stroke-width="0.5"/>
<path d="M29.2459 35.3235L29.2459 35.3236L29.2496 35.3257C29.4295 35.4289 29.5634 35.5967 29.6241 35.7948C30.485 39.2229 27.9328 42.888 23.8249 43.9306L23.8241 43.9308C23.1083 44.1149 22.3726 44.2092 21.6334 44.2112C18.267 44.2111 15.5586 42.316 14.8528 39.5491C14.8525 39.5477 14.8522 39.5464 14.8519 39.5451C14.7512 39.1055 15.0257 38.6672 15.4656 38.566L15.4656 38.566L15.4709 38.5647L28.624 35.2337L28.6246 35.2335C28.8354 35.1796 29.0589 35.212 29.2459 35.3235ZM23.4244 42.3762L23.4246 42.3762C26.1183 41.6944 28.048 39.6027 28.1504 37.373L28.1659 37.0365L27.8393 37.1192L17.0456 39.8523L16.6963 39.9407L16.9015 40.237C17.9745 41.7865 19.7671 42.6773 21.6498 42.5973C22.2482 42.5968 22.8442 42.5225 23.4244 42.3762Z" fill="#8B4326" stroke="white" stroke-width="0.5"/>
<path d="M31.131 10.0233L31.1315 10.0213L31.1316 10.0208C31.1317 10.0207 31.1317 10.0205 31.1317 10.0204C31.2518 9.58527 31.7017 9.32973 32.1369 9.4495C32.137 9.44951 32.137 9.44952 32.137 9.44954L60.5772 17.2962L60.5785 17.2966L60.5828 17.2978C60.583 17.2978 60.5833 17.2979 60.5835 17.298C61.0169 17.4235 61.2667 17.8765 61.1415 18.3101L61.1407 18.3129L55.9735 37.0176C55.9734 37.0176 55.9734 37.0177 55.9734 37.0177C55.5749 38.4586 54.9709 39.8347 54.1798 41.1033L54.3919 41.2356L54.1798 41.1033C49.6327 48.3963 40.0344 50.6222 32.7414 46.0751L32.5741 45.9708L32.4337 46.1091C30.4615 48.0511 28.0062 49.4311 25.322 50.1064C16.9988 52.2005 8.55392 47.1508 6.45983 38.8276L6.45975 38.8272L1.69834 20.0058C1.69831 20.0057 1.69828 20.0055 1.69825 20.0054C1.59002 19.5703 1.85245 19.1292 2.28647 19.0166C2.28666 19.0166 2.28685 19.0165 2.28704 19.0165L30.4819 11.8744L30.6222 11.8389L30.6612 11.6995L31.131 10.0233ZM8.05506 38.451L8.05512 38.4512C9.9508 45.899 17.5248 50.3999 24.9726 48.5048C32.4396 46.6289 36.9745 39.0577 35.1043 31.5893L35.1042 31.5887L30.5988 13.802L30.5374 13.5598L30.2952 13.621L3.72194 20.3364L3.47939 20.3977L3.54086 20.6402L8.0462 38.416L8.04625 38.4162L8.05506 38.451ZM54.4055 36.5851L54.4055 36.5849L59.2846 18.8729L59.351 18.632L59.1102 18.5655L32.7291 11.2736L32.4878 11.2069L32.4214 11.4483L32.0371 12.8469L32.0196 12.9106L32.0359 12.9747L34.1391 21.2595L34.1594 21.3396L34.2235 21.3918C35.8923 22.7515 38.098 23.2589 40.1933 22.7652L40.1933 22.7654L40.2038 22.7625C40.6458 22.6378 41.1052 22.895 41.2298 23.337L41.2298 23.337C41.3544 23.7788 41.0976 24.2379 40.656 24.3628C39.9827 24.5485 39.2874 24.6424 38.589 24.642C37.4267 24.632 36.2795 24.3778 35.2217 23.8958L34.746 23.679L34.8759 24.1854L36.6688 31.1754C36.6689 31.1759 36.6691 31.1764 36.6692 31.1769C36.8265 31.8232 36.9422 32.4791 37.0155 33.1402L37.0438 33.3948L37.2976 33.3604C38.4675 33.2017 39.6574 33.283 40.795 33.5991L40.7967 33.5996C44.8841 34.7049 47.3541 38.4338 46.4182 41.8325C46.3162 42.1963 45.9783 42.4428 45.6008 42.4288L45.5791 42.428L45.5576 42.431C45.4896 42.4403 45.4208 42.4409 45.3526 42.4329L36.5406 39.9928L36.316 39.9306L36.2382 40.1504C35.681 41.7254 34.8758 43.2012 33.8528 44.522L33.6786 44.7468L33.924 44.8907C34.9688 45.5033 36.089 45.9772 37.2563 46.3002C44.6746 48.3531 52.3525 44.0035 54.4055 36.5851ZM36.8377 38.1228L36.7905 38.3521L37.0161 38.4143L44.6923 40.5282L45.0172 40.6176L45.0086 40.2808C44.9518 38.0404 43.0664 35.9145 40.3841 35.1778C39.401 34.9038 38.3697 34.8471 37.3624 35.0119L37.1562 35.0457L37.1528 35.2547C37.1376 36.2185 37.032 37.1787 36.8377 38.1228Z" fill="#949494" stroke="white" stroke-width="0.5"/>
<path d="M34.1381 21.2557L34.139 21.2592L34.1391 21.2598L34.1394 21.2608L34.1395 21.2611L34.8756 24.1845L34.8759 24.1855L36.6688 31.1756C36.6689 31.1761 36.6691 31.1766 36.6692 31.1771C36.826 31.8216 36.9415 32.4755 37.0149 33.1347L37.1527 35.2649C37.1369 36.2218 37.0321 37.1752 36.8398 38.1127L36.236 40.1568C35.6799 41.7267 34.8773 43.198 33.8582 44.5152L32.4281 46.1148C30.4569 48.0539 28.0037 49.4319 25.322 50.1066C16.9988 52.2007 8.55392 47.1509 6.45983 38.8277L6.45975 38.8274L1.69834 20.006C1.69831 20.0058 1.69828 20.0057 1.69825 20.0056C1.58997 19.5703 1.85268 19.129 2.28704 19.0167L2.28734 19.0166L2.29098 19.0157L2.30548 19.012L2.36277 18.9974L2.58639 18.9405L3.4365 18.7242L6.48205 17.9495C9.00894 17.3068 12.3936 16.4464 15.8249 15.5752C22.6903 13.832 29.7349 12.0476 30.4769 11.8758C31.1807 11.7128 31.5007 11.844 31.6731 12.0195C31.8709 12.2208 31.9543 12.5489 32.0326 12.9601C32.1105 13.369 32.6396 15.4522 33.1447 17.417C33.3981 18.403 33.6468 19.364 33.8322 20.0785C33.9248 20.4358 34.0017 20.7314 34.0553 20.9378L34.1175 21.1768L34.1339 21.2396L34.1381 21.2557ZM8.05505 38.4511L8.05513 38.4514C9.9508 45.8992 17.5248 50.4001 24.9726 48.5049C32.4396 46.629 36.9745 39.0579 35.1043 31.5895L30.6632 13.6181L30.6026 13.3727L30.3578 13.4361L3.72051 20.3369L3.47977 20.3993L3.54087 20.6403L8.04624 38.4163L8.04626 38.4163L8.05505 38.4511Z" fill="#8B4326" stroke="white" stroke-width="0.5"/>
<path d="M54.3503 26.9762L54.3503 26.9762C54.2307 26.5403 53.7804 26.284 53.3445 26.4038L53.332 26.4072L53.3319 26.4069C50.9973 26.9191 48.5608 26.2395 46.8284 24.593L46.8244 24.5892L46.8245 24.5892C46.5037 24.2708 45.9857 24.2726 45.6673 24.5932L54.3503 26.9762ZM54.3503 26.9762C54.4701 27.412 54.2138 27.8624 53.7779 27.9821L53.7775 27.9822M54.3503 26.9762L53.7775 27.9822M53.7775 27.9822C53.1053 28.1679 52.4109 28.2619 51.7135 28.2615C49.4618 28.1786 47.3155 27.2862 45.6689 25.7479C45.3507 25.4293 45.3497 24.9131 45.6673 24.5932L53.7775 27.9822Z" fill="#949494" stroke="white" stroke-width="0.5"/>
</g>
<defs>
<clipPath id="clip0">
<rect x="0.461914" width="61" height="60" fill="white"/>
</clipPath>
</defs>
</svg>
