<svg width="61" height="60" viewBox="0 0 61 60" fill="none" xmlns="http://www.w3.org/2000/svg">
<path d="M16.56 27.1236C11.9052 25.7357 8.31793 29.0881 8.16846 29.2589C7.66828 29.5712 7.51587 30.2297 7.82815 30.7299C8.14044 31.2301 8.79903 31.3824 9.29921 31.0702C9.42159 30.9938 9.52729 30.8934 9.60976 30.775C11.3218 29.2363 13.6792 28.634 15.9194 29.1629C16.48 29.3458 17.0826 29.0396 17.2656 28.4791C17.2691 28.4687 17.2723 28.4582 17.2753 28.4476C17.4414 27.8846 17.1219 27.2932 16.56 27.1236Z" fill="#8B4326"/>
<path d="M29.7342 23.8031V23.7817C25.0793 22.4045 21.4921 25.7462 21.3426 25.917C20.9152 26.3239 20.8984 27.0002 21.3053 27.4277C21.7122 27.8551 22.3885 27.8719 22.816 27.465C24.5218 25.9146 26.8852 25.3107 29.1256 25.8529C29.6917 26.0209 30.2868 25.6984 30.4548 25.1323C30.6228 24.5662 30.3003 23.9711 29.7342 23.8031Z" fill="#8B4326"/>
<path d="M29.4032 35.7285C29.3248 35.4669 29.149 35.2452 28.9121 35.1093C28.668 34.9637 28.3761 34.9213 28.1007 34.9918L14.9476 38.3228C14.3729 38.4551 14.0143 39.0281 14.1466 39.6026C14.1467 39.603 14.1468 39.6036 14.1468 39.604C14.8835 42.5079 17.7127 44.4617 21.1718 44.4617C21.9319 44.4596 22.6885 44.3627 23.4245 44.1734C27.631 43.1058 30.3107 39.3264 29.4032 35.7285ZM22.9014 42.1343C22.3394 42.276 21.7621 42.3477 21.1825 42.3478C19.3836 42.426 17.6703 41.5755 16.6451 40.0951L27.4388 37.362C27.3427 39.4545 25.5171 41.4723 22.9014 42.1343Z" fill="#8B4326"/>
<path d="M60.1902 17.0578L60.1831 17.0558L31.7415 9.20875C31.173 9.05221 30.5853 9.38611 30.4287 9.95462L30.4283 9.95609L29.9586 11.6323L1.76254 18.7747C1.19523 18.9214 0.852125 19.4979 0.993852 20.0665L5.75547 38.8888C7.88325 47.3459 16.464 52.4769 24.9211 50.3491C27.6485 49.6629 30.1433 48.2607 32.1472 46.2875C39.5574 50.9076 49.3099 48.646 53.93 41.2358C54.7338 39.9468 55.3476 38.5486 55.7525 37.0845L60.9198 18.3797C61.0834 17.8132 60.7567 17.2213 60.1902 17.0578ZM24.4496 48.2626C17.1354 50.1241 9.69715 45.704 7.83548 38.3898C7.83254 38.3782 7.8296 38.3666 7.82667 38.355L3.32128 20.579L29.8945 13.8636L34.3999 31.6503C36.2366 38.9849 31.7829 46.4204 24.4496 48.2626ZM53.7026 36.5187C51.6865 43.804 44.1463 48.0756 36.8611 46.0595C35.7147 45.7423 34.6146 45.2769 33.5885 44.6753C34.6279 43.3335 35.4459 41.8341 36.012 40.234L44.8413 42.6789C44.937 42.692 45.0339 42.692 45.1296 42.6789C45.6228 42.6972 46.0643 42.3749 46.1972 41.8995C47.1794 38.3336 44.5851 34.4902 40.4 33.3585C39.2297 33.0333 38.0056 32.9497 36.8021 33.1129C36.7275 32.4406 36.6098 31.7737 36.4498 31.1165L34.6561 24.1235C35.7461 24.6202 36.9282 24.8821 38.1259 24.8922C38.8474 24.8927 39.5656 24.7958 40.2612 24.6039C40.8361 24.4418 41.1707 23.8443 41.0085 23.2694C40.8464 22.6945 40.2489 22.3599 39.674 22.5221C37.6543 22.998 35.5281 22.5089 33.9195 21.1982L31.8163 12.9134L32.2006 11.5148L58.5817 18.8067L53.7026 36.5187ZM36.6206 38.1735C36.8181 37.2141 36.9254 36.2383 36.9409 35.2589C37.9125 35.0999 38.9072 35.1546 39.8555 35.419C42.4605 36.1343 44.2434 38.1842 44.2968 40.2874L36.6206 38.1735Z" fill="#949494"/>
<path fill-rule="evenodd" clip-rule="evenodd" d="M29.9586 11.6323C28.4677 11.9775 1.76254 18.7747 1.76254 18.7747C1.19523 18.9214 0.852125 19.4979 0.993852 20.0665L5.75547 38.8888C7.88325 47.3459 16.464 52.4769 24.9211 50.3491C27.6485 49.6629 30.1433 48.2607 32.1472 46.2875L33.5885 44.6753C34.6279 43.3335 35.4459 41.8341 36.012 40.234L36.6206 38.1735C36.8181 37.2141 36.9254 36.2383 36.9409 35.2589L36.8021 33.1129C36.7275 32.4406 36.6098 31.7737 36.4498 31.1165L34.6561 24.1235L33.9195 21.1982C33.9195 21.1982 31.9682 13.7108 31.8163 12.9134C31.6644 12.116 31.4495 11.2871 29.9586 11.6323ZM24.4496 48.2626C17.1354 50.1241 9.69716 45.704 7.83549 38.3898L7.82668 38.355L3.32129 20.579L29.9586 13.6781L34.3999 31.6503C36.2366 38.9849 31.7829 46.4204 24.4496 48.2626Z" fill="#8B4326"/>
<path d="M54.1295 26.91C53.9733 26.341 53.3854 26.0064 52.8164 26.1627C50.5629 26.6571 48.211 26.0011 46.5387 24.4118C46.12 23.9961 45.4437 23.9985 45.028 24.4171C44.6123 24.8358 44.6147 25.5121 45.0333 25.9278C46.7254 27.5099 48.9321 28.4274 51.2469 28.5115C51.9684 28.5123 52.6868 28.4153 53.3822 28.2232C53.9513 28.0669 54.2858 27.4789 54.1295 26.91Z" fill="#949494"/>
</svg>
