<svg width="61" height="61" viewBox="0 0 61 61" fill="none" xmlns="http://www.w3.org/2000/svg">
<path d="M56.9343 48.3955H51.9343H37.9343V47.3955H50.9343C51.2753 47.3955 51.5933 47.2215 51.7773 46.9335C51.9613 46.6465 51.9853 46.2855 51.8413 45.9755L36.8783 13.6745C36.9043 13.5845 36.9343 13.4945 36.9343 13.3955V1.39551C36.9343 0.842508 36.4863 0.395508 35.9343 0.395508C35.3823 0.395508 34.9343 0.842508 34.9343 1.39551V9.47851L34.8413 9.27851C34.6743 8.91851 34.3353 8.67551 33.9113 8.69851C33.5143 8.70851 33.1593 8.95151 33.0083 9.32051L32.9343 9.50151V5.39551C32.9343 4.94551 32.6333 4.55051 32.1993 4.43151C31.7653 4.31051 31.3043 4.49751 31.0743 4.88451L9.07427 41.8845C8.89027 42.1935 8.88627 42.5765 9.06427 42.8895C9.24227 43.2025 9.57527 43.3955 9.93427 43.3955H19.0803L18.0083 46.0175C17.9673 46.1165 17.9503 46.2205 17.9423 46.3255C17.9403 46.3505 17.9403 46.3745 17.9413 46.3995C17.9413 46.5135 17.9553 46.6275 17.9943 46.7355C17.9953 46.7385 17.9973 46.7415 17.9993 46.7445C18.0263 46.8175 18.0603 46.8875 18.1053 46.9535C18.1273 46.9855 18.1563 47.0115 18.1813 47.0405C18.1903 47.0515 18.1933 47.0655 18.2033 47.0765C18.2103 47.0835 18.2193 47.0855 18.2263 47.0925C18.3113 47.1795 18.4093 47.2485 18.5193 47.2985C18.5413 47.3085 18.5623 47.3155 18.5843 47.3235C18.6943 47.3665 18.8113 47.3955 18.9343 47.3955H35.9343V48.3955H10.9343C10.5833 48.3955 10.2573 48.5805 10.0773 48.8805L4.07727 58.8805C3.89127 59.1895 3.88727 59.5735 4.06427 59.8885C4.24127 60.2025 4.57427 60.3955 4.93427 60.3955H42.9343C48.2923 60.3955 52.3813 55.3055 52.8823 50.3955H56.9343C57.4863 50.3955 57.9343 49.9485 57.9343 49.3955C57.9343 48.8425 57.4863 48.3955 56.9343 48.3955ZM33.9913 12.2015L39.0043 23.0235C35.5683 30.5645 34.9773 31.0665 29.4333 35.7655C27.4803 37.4215 24.9613 39.5585 21.5483 42.6445L33.9913 12.2015ZM11.6923 41.3955L30.9343 9.03451V14.3945L19.8973 41.3955H11.6923ZM21.4933 45.3955C25.6153 41.6235 28.5263 39.1565 30.7273 37.2915C36.0563 32.7735 37.0763 31.9035 40.1083 25.4065L49.3693 45.3955H21.4933ZM42.9343 58.3955H6.70027L8.50027 55.3955H48.7213C47.2893 57.1625 45.2633 58.3955 42.9343 58.3955ZM49.9793 53.4045C49.9633 53.4035 49.9503 53.3955 49.9343 53.3955H9.70027L11.5003 50.3955H35.9343H37.9343H50.8733C50.7493 51.4175 50.4393 52.4425 49.9793 53.4045Z" fill="#8B4326"/>
<path fill-rule="evenodd" clip-rule="evenodd" d="M38.0003 47.3955H51.0003C51.3413 47.3955 51.6593 47.2215 51.8433 46.9335C52.0273 46.6465 52.0513 46.2855 51.9073 45.9755L36.9443 13.6745C36.9471 13.6647 36.95 13.6548 36.9529 13.645C36.9765 13.5647 37.0003 13.4837 37.0003 13.3955V1.39551C37.0003 0.842508 36.5523 0.395508 36.0003 0.395508C35.4483 0.395508 35.0003 0.842508 35.0003 1.39551V9.47851L34.9073 9.27851C34.7403 8.91851 34.4013 8.67551 33.9773 8.69851C33.5803 8.70851 33.2253 8.95151 33.0743 9.32051L33.0003 9.50151V5.39551C33.0003 4.94551 32.6993 4.55051 32.2653 4.43151C31.8313 4.31051 31.3703 4.49751 31.1403 4.88451L9.14025 41.8845C8.95625 42.1935 8.95225 42.5765 9.13025 42.8895C9.30825 43.2025 9.64125 43.3955 10.0003 43.3955H19.1463L18.0743 46.0175C18.0333 46.1165 18.0163 46.2205 18.0083 46.3255C18.0063 46.3505 18.0063 46.3745 18.0073 46.3995C18.0073 46.5135 18.0213 46.6275 18.0603 46.7355C18.0613 46.7385 18.0633 46.7415 18.0653 46.7445C18.0923 46.8175 18.1263 46.8875 18.1713 46.9535C18.1856 46.9743 18.2028 46.9925 18.22 47.0107C18.2293 47.0205 18.2385 47.0303 18.2473 47.0405C18.2515 47.0457 18.2544 47.0515 18.2573 47.0573C18.2606 47.064 18.264 47.0707 18.2693 47.0765C18.2728 47.08 18.2768 47.0823 18.2808 47.0845C18.2848 47.0867 18.2888 47.089 18.2923 47.0925C18.3773 47.1795 18.4753 47.2485 18.5853 47.2985C18.603 47.3066 18.6201 47.3127 18.6375 47.3189C18.6418 47.3204 18.646 47.3219 18.6503 47.3235C18.7603 47.3665 18.8773 47.3955 19.0003 47.3955H36.0003H38.0003ZM38.9075 23.0367L33.8945 12.2147L21.4515 42.6577C24.8645 39.5717 27.3835 37.4347 29.3365 35.7787C34.8805 31.0797 35.4715 30.5777 38.9075 23.0367ZM30.8375 9.0477L11.5955 41.4087H19.8005L30.8375 14.4077V9.0477ZM30.6305 37.3047C28.4295 39.1697 25.5185 41.6367 21.3965 45.4087H49.2725L40.0115 25.4197C36.9795 31.9167 35.9595 32.7867 30.6305 37.3047Z" fill="#949494"/>
</svg>
