<svg width="62" height="62" viewBox="0 0 62 62" fill="none" xmlns="http://www.w3.org/2000/svg">
<g clip-path="url(#clip0)">
<path d="M38.1189 49.541V49.291V48.291V48.041H38.3689H51.3689C51.6245 48.041 51.8631 47.9105 52.0012 47.6944L52.0014 47.6941C52.139 47.4794 52.1573 47.2091 52.0491 46.9763L52.049 46.9761L37.086 14.6751L37.0468 14.5903L37.0727 14.5006C37.0752 14.4918 37.0777 14.4833 37.0801 14.4752C37.1056 14.3873 37.1189 14.3415 37.1189 14.291V2.29102C37.1189 1.87625 36.783 1.54102 36.3689 1.54102C35.9548 1.54102 35.6189 1.87625 35.6189 2.29102V10.374L35.1422 10.4794L35.0492 10.2794L35.0491 10.2792C34.9192 9.99918 34.6679 9.82692 34.3594 9.84365L34.3522 9.84404L34.3522 9.84394C34.0538 9.85145 33.7875 10.034 33.6743 10.3106C33.6743 10.3107 33.6743 10.3107 33.6742 10.3107L33.6003 10.4916L33.1189 10.397V6.29102C33.1189 5.95353 32.8931 5.65731 32.5678 5.56812L32.5667 5.56784C32.2424 5.47741 31.8966 5.61701 31.7238 5.90774L31.7238 5.90779L9.72372 42.9078L9.72364 42.9079C9.58564 43.1397 9.58263 43.4266 9.71616 43.6614C9.84962 43.8961 10.0995 44.041 10.3688 44.041H19.5149H19.8872L19.7463 44.3856L18.6743 47.0076L18.6738 47.0087C18.647 47.0734 18.6332 47.1481 18.6261 47.24L18.6261 47.2409C18.6251 47.253 18.6249 47.2665 18.6257 47.285L18.6261 47.295H18.6259C18.6259 47.3794 18.6352 47.4553 18.6562 47.5228L18.6582 47.5257L18.6683 47.5533C18.6895 47.6106 18.7147 47.6615 18.7459 47.7075C18.7462 47.7078 18.7471 47.709 18.749 47.7113C18.7514 47.7142 18.7547 47.7179 18.7599 47.7235L18.7789 47.7437C18.7864 47.7516 18.7956 47.7616 18.8052 47.7728L18.8094 47.7777L18.8094 47.7777C18.8159 47.7857 18.8215 47.7934 18.8262 47.8004C18.83 47.8038 18.8338 47.8074 18.8376 47.8112L18.8397 47.8133C18.9033 47.8784 18.9758 47.9294 19.0573 47.9664C19.065 47.9699 19.0707 47.972 19.0851 47.9771C19.0902 47.979 19.0965 47.9812 19.1043 47.9841L19.1099 47.9861L19.1099 47.9862C19.1999 48.0214 19.2854 48.041 19.3689 48.041H36.3689H36.6189V48.291V49.291V49.541H36.3689H11.3689C11.1057 49.541 10.8611 49.6799 10.7262 49.9046L4.72621 59.9046L4.72603 59.9049C4.587 60.1359 4.58332 60.4238 4.71662 60.6612L38.1189 49.541ZM38.1189 49.541H38.3689M38.1189 49.541H38.3689M38.3689 49.541H52.3689H57.3689C57.783 49.541 58.1189 49.8762 58.1189 50.291C58.1189 50.7058 57.783 51.041 57.3689 51.041H53.3169H53.0911M38.3689 49.541L53.0911 51.041M53.0911 51.041L53.0682 51.2656M53.0911 51.041L53.0682 51.2656M53.0682 51.2656C52.8234 53.6644 51.7002 56.1141 49.9812 57.962C48.2635 59.8085 45.9646 61.041 43.3689 61.041H5.36884C5.09851 61.041 4.84919 60.8962 4.71679 60.6615L53.0682 51.2656ZM18.7719 47.7621C18.7706 47.7614 18.7716 47.7619 18.7729 47.7627L18.7719 47.7621ZM18.4429 46.913C18.4019 47.012 18.3849 47.116 18.3769 47.221C18.3749 47.246 18.3749 47.27 18.3759 47.295L18.4429 46.913ZM34.6527 12.9919L34.4115 12.4713L34.1945 13.0024L21.7515 43.4454L22.1505 43.7254C25.5605 40.6422 28.0771 38.5073 30.0296 36.8517L30.0477 36.8363C32.8019 34.5019 34.3551 33.1855 35.6422 31.5079C36.9324 29.8264 37.9498 27.79 39.6664 24.0227L39.714 23.9181L39.6657 23.8139L34.6527 12.9919ZM11.912 42.1632L11.6874 42.541H12.1269H20.3319H20.4998L20.5633 42.3856L31.6003 15.3846L31.6189 15.3391V15.29V9.93002V9.02041L31.154 9.80225L11.912 42.1632ZM21.7591 46.1066L21.2844 46.541H21.9279H49.8039H50.1952L50.0307 46.1859L40.7697 26.1969L40.5437 25.7091L40.3163 26.1963C38.8017 29.4418 37.7994 31.2597 36.52 32.8286C35.2375 34.4014 33.6704 35.7325 31.0003 37.9963C28.7985 39.8619 25.8847 42.3313 21.7591 46.1066ZM6.92047 59.1624L6.69329 59.541H7.13484H43.3689C45.7913 59.541 47.8833 58.2584 49.3501 56.4484L49.6803 56.041H49.1559H8.93484H8.79329L8.72047 56.1624L6.92047 59.1624ZM50.3983 54.5495L50.5666 54.56L50.6394 54.4079C51.1101 53.4234 51.4285 52.3723 51.556 51.3211L51.59 51.041H51.3079H38.3689H36.3689H11.9349H11.7933L11.7205 51.1624L9.92047 54.1624L9.69329 54.541H10.1348H50.3429C50.3433 54.5411 50.3437 54.5412 50.3441 54.5413C50.357 54.5444 50.3757 54.5481 50.3983 54.5495Z" fill="#8B4326" stroke="white" stroke-width="0.5"/>
<path d="M52.067 47.6941L52.0668 47.6944C51.9287 47.9105 51.6901 48.041 51.4344 48.041H38.4344H36.4344H19.4344C19.351 48.041 19.2655 48.0214 19.1754 47.9862L19.1755 47.9861L19.1698 47.9841L19.1559 47.979C19.1373 47.9724 19.1297 47.9695 19.1229 47.9664C19.0414 47.9294 18.9689 47.8784 18.9053 47.8133L18.9032 47.8113C18.8994 47.8074 18.8955 47.8038 18.8917 47.8004C18.8868 47.7931 18.8812 47.7854 18.8749 47.7777L18.875 47.7777L18.8708 47.7728C18.8577 47.7576 18.8445 47.7437 18.8359 47.7346C18.8267 47.7249 18.8215 47.7193 18.817 47.7141L18.8127 47.709C18.812 47.7081 18.8116 47.7077 18.8115 47.7075C18.7802 47.6615 18.7551 47.6106 18.7339 47.5533L18.7237 47.5257L18.7217 47.5228C18.7008 47.4553 18.6914 47.3794 18.6914 47.295H18.6916L18.6912 47.285C18.6905 47.2665 18.6907 47.253 18.6916 47.2409L18.6917 47.24C18.6987 47.1481 18.7126 47.0734 18.7394 47.0087L18.7398 47.0076L19.8118 44.3856L19.9527 44.041H19.5804H10.4344C10.1651 44.041 9.91518 43.8961 9.78171 43.6614C9.64819 43.4266 9.65119 43.1397 9.7892 42.9079L9.78928 42.9078L31.7893 5.90779L31.7893 5.90774C31.9621 5.61701 32.3079 5.47741 32.6323 5.56784L32.6333 5.56812C32.9586 5.65731 33.1844 5.95353 33.1844 6.29102V10.397L33.6658 10.4916L33.7398 10.3107C33.7398 10.3107 33.7398 10.3107 33.7398 10.3106C33.8531 10.034 34.1194 9.85145 34.4177 9.84394L34.4177 9.84404L34.425 9.84365C34.7335 9.82692 34.9847 9.99918 35.1146 10.2792L35.1147 10.2794L35.2077 10.4794L35.6844 10.374V2.29102C35.6844 1.87625 36.0203 1.54102 36.4344 1.54102C36.8485 1.54102 37.1844 1.87625 37.1844 2.29102V14.291C37.1844 14.3377 37.1722 14.3849 37.1472 14.4701L37.387 14.5405L37.1472 14.4701L37.1382 14.5006L37.1123 14.5904L37.1516 14.6751L52.1146 46.9761L52.1147 46.9763C52.2228 47.2091 52.2046 47.4794 52.067 47.6941ZM39.5691 24.0359L39.6168 23.9313L39.5685 23.8271L34.5555 13.0051L34.3143 12.4845L34.0972 13.0156L21.6542 43.4586L22.0533 43.7386C25.4633 40.6554 27.9798 38.5205 29.9323 36.8649L29.9505 36.8495C32.7046 34.5151 34.2578 33.1987 35.545 31.5211C36.8352 29.8396 37.8526 27.8032 39.5691 24.0359ZM31.5217 9.94321V9.0336L31.0568 9.81544L11.8148 42.1764L11.5901 42.5542H12.0297H20.2347H20.4025L20.4661 42.3988L31.5031 15.3978L31.5217 15.3523V15.3032V9.94321ZM21.6619 46.1198L21.1871 46.5542H21.8307H49.7067H50.098L49.9335 46.1991L40.6725 26.2101L40.4465 25.7223L40.2191 26.2095C38.7045 29.455 37.7022 31.2729 36.4228 32.8418C35.1403 34.4146 33.5732 35.7457 30.903 38.0095C28.7013 39.8751 25.7874 42.3445 21.6619 46.1198Z" fill="#949494" stroke="white" stroke-width="0.5"/>
</g>
<defs>
<clipPath id="clip0">
<rect x="0.43457" y="0.895508" width="61" height="61" fill="white"/>
</clipPath>
</defs>
</svg>
